<?xml version="1.0" standalone="no"?>
<!DOCTYPE svg PUBLIC "-//W3C//DTD SVG 20010904//EN"
 "http://www.w3.org/TR/2001/REC-SVG-20010904/DTD/svg10.dtd">
<svg version="1.0" xmlns="http://www.w3.org/2000/svg"
 width="2550.000000pt" height="2550.000000pt" viewBox="0 0 2550.000000 2550.000000"
 preserveAspectRatio="xMidYMid meet">
<metadata>
Created by potrace 1.14, written by Peter Selinger 2001-2017
</metadata>
<g transform="translate(0.000000,2550.000000) scale(0.100000,-0.100000)"
fill="#000000" stroke="none">
<path d="M19792 18540 c-6 -30 -54 -309 -107 -620 -280 -1651 -400 -2197 -701
-3200 -458 -1524 -1189 -3207 -1932 -4447 -220 -368 -722 -1130 -986 -1498
-40 -55 -126 -176 -191 -270 -298 -426 -579 -794 -1138 -1494 -208 -260 -376
-475 -374 -478 3 -2 276 0 607 6 331 6 621 11 644 11 43 0 43 0 69 57 33 76
65 156 190 473 400 1015 616 1440 946 1860 165 210 260 321 431 505 536 576
1051 905 1612 1029 300 67 549 91 933 90 393 -2 638 -26 995 -99 780 -161
1339 -550 1995 -1390 341 -436 556 -879 940 -1940 70 -192 147 -403 172 -468
l46 -117 563 0 c355 0 564 4 564 10 0 5 -80 132 -177 282 -97 150 -216 334
-263 408 -48 74 -138 214 -200 310 -62 96 -197 308 -300 470 -221 348 -366
577 -554 868 -457 711 -791 1258 -1034 1692 -291 522 -722 1356 -907 1755
-421 911 -818 1936 -1109 2865 -239 765 -357 1293 -596 2680 -49 283 -98 558
-108 610 l-18 95 -12 -55z"/>
<path d="M14075 17533 c-27 -2 -111 -10 -185 -19 -728 -84 -1400 -326 -1815
-653 -94 -74 -267 -247 -345 -346 -254 -321 -468 -745 -640 -1265 -189 -570
-259 -937 -301 -1565 -16 -241 -17 -1113 -1 -1510 36 -912 65 -1110 399 -2690
105 -497 634 -2583 734 -2891 l9 -31 667 -6 c366 -4 669 -4 672 -1 8 8 -126
258 -469 879 -472 855 -794 1524 -942 1955 -77 224 -189 667 -232 915 -62 357
-82 761 -52 1045 36 335 149 660 305 875 234 321 694 579 1176 659 174 29 502
56 925 76 685 33 1038 70 1329 141 159 39 248 72 408 153 427 213 786 506
1033 841 242 329 340 611 340 981 0 410 -100 831 -290 1219 -204 416 -431 642
-868 863 -408 208 -850 329 -1347 372 -111 9 -391 11 -510 3z"/>
<path d="M8783 16651 c-376 -81 -685 -150 -689 -153 -3 -3 -1 -39 5 -80 31
-221 86 -760 140 -1363 91 -1006 176 -2013 201 -2385 6 -91 29 -354 51 -584
21 -231 39 -424 38 -430 -2 -32 -175 519 -224 714 -85 336 -237 1104 -339
1719 -143 852 -192 1285 -226 1996 -7 132 -15 249 -19 261 -6 20 -25 16 -554
-126 -301 -81 -549 -149 -551 -151 -2 -2 34 -98 80 -214 229 -568 389 -1038
632 -1855 195 -658 212 -714 208 -717 -1 -1 -40 82 -86 185 -194 437 -876
1842 -1026 2115 -52 93 -194 329 -209 345 -6 6 -865 -278 -865 -286 0 -4 86
-106 190 -226 411 -474 603 -752 957 -1386 736 -1318 1423 -2773 1637 -3461
132 -429 182 -816 157 -1230 -23 -389 -63 -568 -177 -799 -124 -250 -265 -449
-410 -578 -224 -200 -850 -461 -1257 -524 -187 -28 -557 -31 -712 -5 -266 46
-459 130 -690 302 -496 370 -894 986 -1094 1690 -156 554 -285 1504 -338 2490
-22 405 -24 1498 -5 1800 32 484 98 899 247 1550 91 400 107 476 101 482 -4 4
-1196 -264 -1202 -271 -1 0 14 -80 32 -176 153 -796 179 -1038 249 -2340 21
-386 44 -775 49 -830 10 -94 -185 712 -278 1150 -172 814 -266 1309 -365 1922
-10 60 -20 109 -22 111 -4 3 -969 -253 -978 -259 -2 -2 51 -106 117 -231 369
-698 472 -943 657 -1548 96 -317 320 -1123 313 -1130 -2 -2 -36 74 -77 168
-148 343 -335 748 -471 1022 -199 403 -320 615 -677 1187 l-204 327 -92 -33
c-51 -19 -236 -84 -413 -146 -176 -61 -326 -115 -333 -120 -15 -9 4 -27 229
-220 494 -421 691 -659 1069 -1288 206 -342 400 -703 576 -1073 128 -268 207
-455 325 -769 90 -240 107 -289 276 -770 166 -476 261 -714 457 -1155 68 -154
162 -365 207 -470 183 -422 381 -802 530 -1015 111 -159 266 -354 355 -448
363 -384 977 -688 1606 -796 337 -58 591 -60 904 -6 341 60 621 150 930 301
285 139 478 272 670 464 394 393 643 903 770 1576 62 330 70 415 70 819 0 455
-19 687 -125 1555 -75 613 -91 759 -130 1185 -6 63 -14 295 -17 515 -10 698
29 1402 117 2125 66 534 127 807 326 1445 41 132 77 248 80 258 3 10 0 17 -8
16 -7 0 -320 -67 -695 -148z"/>
</g>
</svg>
