<?xml version="1.0" encoding="UTF-8" standalone="no"?>
<svg
   width="493pt"
   height="493.004pt"
   version="1.1"
   viewBox="0 0 493 493.00399"
   id="svg87"
   sodipodi:docname="activity.svg"
   inkscape:version="1.2 (1:1.2+202206011327+fc4e4096c5)"
   xmlns:inkscape="http://www.inkscape.org/namespaces/inkscape"
   xmlns:sodipodi="http://sodipodi.sourceforge.net/DTD/sodipodi-0.dtd"
   xmlns="http://www.w3.org/2000/svg"
   xmlns:svg="http://www.w3.org/2000/svg">
  <sodipodi:namedview
     id="namedview89"
     pagecolor="#ffffff"
     bordercolor="#666666"
     borderopacity="1.0"
     inkscape:showpageshadow="2"
     inkscape:pageopacity="0.0"
     inkscape:pagecheckerboard="0"
     inkscape:deskcolor="#d1d1d1"
     inkscape:document-units="pt"
     showgrid="false"
     inkscape:zoom="0.715188"
     inkscape:cx="162.19512"
     inkscape:cy="385.91252"
     inkscape:window-width="1920"
     inkscape:window-height="1009"
     inkscape:window-x="0"
     inkscape:window-y="34"
     inkscape:window-maximized="1"
     inkscape:current-layer="g85" />
  <defs
     id="defs41">
    <symbol
       id="m"
       overflow="visible">
      <path
         d="m 29.312,-1.75 c -1.5117,0.78125 -3.0898,1.3711 -4.7344,1.7656 -1.6367,0.40625 -3.3398,0.60938 -5.1094,0.60938 -5.3125,0 -9.5273,-1.4844 -12.641,-4.4531 -3.1055,-2.9688 -4.6562,-7 -4.6562,-12.094 0,-5.094 1.5508,-9.125 4.6562,-12.094 3.1133,-2.9688 7.3281,-4.4531 12.641,-4.4531 1.7695,0 3.4727,0.19922 5.1094,0.59375 1.6445,0.39844 3.2227,0.99219 4.7344,1.7812 v 6.5938 c -1.5312,-1.0391 -3.0391,-1.8008 -4.5156,-2.2812 -1.4805,-0.48828 -3.0391,-0.73438 -4.6719,-0.73438 -2.9375,0 -5.2461,0.94531 -6.9219,2.8281 -1.6797,1.875 -2.5156,4.4648 -2.5156,7.7656 0,3.293 0.83594,5.8828 2.5156,7.7656 1.6758,1.875 3.9844,2.8125 6.9219,2.8125 1.6328,0 3.1914,-0.23828 4.6719,-0.71875 1.4766,-0.48828 2.9844,-1.2539 4.5156,-2.2969 z"
         id="path2" />
    </symbol>
    <symbol
       id="c"
       overflow="visible">
      <path
         d="m 21.453,-17.406 c -0.67969,-0.3125 -1.3516,-0.53906 -2.0156,-0.6875 -0.65625,-0.15625 -1.3203,-0.23438 -1.9844,-0.23438 -1.9688,0 -3.4844,0.63281 -4.5469,1.8906 -1.0547,1.2617 -1.5781,3.0703 -1.5781,5.4219 V 6.2e-4 H 3.6718 v -23.922 h 7.6562 v 3.9219 c 0.97656,-1.5625 2.1016,-2.7031 3.375,-3.4219 1.2812,-0.71875 2.8125,-1.0781 4.5938,-1.0781 0.25,0 0.52344,0.01172 0.82812,0.03125 0.30078,0.02344 0.73438,0.07031 1.2969,0.14062 z"
         id="path5" />
    </symbol>
    <symbol
       id="a"
       overflow="visible">
      <path
         d="m 27.562,-12.031 v 2.1875 H 9.671 c 0.1875,1.793 0.83203,3.1367 1.9375,4.0312 1.1133,0.89844 2.6719,1.3438 4.6719,1.3438 1.6016,0 3.25,-0.23438 4.9375,-0.70312 1.6875,-0.47656 3.4219,-1.2031 5.2031,-2.1719 v 5.8906 c -1.8047,0.6875 -3.6094,1.2031 -5.4219,1.5469 -1.8125,0.35156 -3.6211,0.53125 -5.4219,0.53125 -4.3359,0 -7.7031,-1.0977 -10.109,-3.2969 -2.3984,-2.207 -3.5938,-5.2969 -3.5938,-9.2656 0,-3.9062 1.1758,-6.9727 3.5312,-9.2031 2.3633,-2.2383 5.6094,-3.3594 9.7344,-3.3594 3.7578,0 6.7695,1.1367 9.0312,3.4062 2.2578,2.2617 3.3906,5.2812 3.3906,9.0625 z m -7.8594,-2.5312 c 0,-1.457 -0.42969,-2.6289 -1.2812,-3.5156 -0.84375,-0.89453 -1.9492,-1.3438 -3.3125,-1.3438 -1.4922,0 -2.6992,0.41797 -3.625,1.25 -0.91797,0.83594 -1.4922,2.0391 -1.7188,3.6094 z"
         id="path8" />
    </symbol>
    <symbol
       id="b"
       overflow="visible">
      <path
         d="m 14.391,-10.766 c -1.5938,0 -2.793,0.27344 -3.5938,0.8125 -0.80469,0.54297 -1.2031,1.3398 -1.2031,2.3906 0,0.96875 0.32031,1.7305 0.96875,2.2812 0.64453,0.54297 1.5469,0.8125 2.7031,0.8125 1.4375,0 2.6445,-0.51562 3.625,-1.5469 0.98828,-1.0312 1.4844,-2.3203 1.4844,-3.875 v -0.875 z m 11.688,-2.8906 V -6e-4 h -7.7031 v -3.5469 c -1.0312,1.4492 -2.1875,2.5078 -3.4688,3.1719 -1.2813,0.6641 -2.8398,1 -4.6719,1 -2.4805,0 -4.4961,-0.72266 -6.0469,-2.1719 -1.543,-1.4453 -2.3125,-3.3203 -2.3125,-5.625 0,-2.8125 0.96094,-4.8672 2.8906,-6.1719 1.9375,-1.3125 4.9688,-1.9688 9.0938,-1.9688 h 4.5156 v -0.60938 c 0,-1.207 -0.48047,-2.0938 -1.4375,-2.6562 -0.94922,-0.5625 -2.4375,-0.84375 -4.4688,-0.84375 -1.6367,0 -3.1562,0.16797 -4.5625,0.5 -1.4062,0.32422 -2.7188,0.8125 -3.9375,1.4688 v -5.8281 c 1.6445,-0.40625 3.2891,-0.70703 4.9375,-0.90625 1.6562,-0.20703 3.3047,-0.3125 4.9531,-0.3125 4.3203,0 7.4375,0.85547 9.3438,2.5625 1.9141,1.6992 2.875,4.4609 2.875,8.2812 z"
         id="path11" />
    </symbol>
    <symbol
       id="i"
       overflow="visible">
      <path
         d="m 12.031,-30.719 v 6.7969 h 7.875 v 5.4688 h -7.875 v 10.141 c 0,1.1172 0.21875,1.8711 0.65625,2.2656 0.4375,0.38672 1.3125,0.57812 2.625,0.57812 h 3.9375 v 5.4688 h -6.5625 c -3.0234,0 -5.1641,-0.62891 -6.4219,-1.8906 -1.2617,-1.2578 -1.8906,-3.3984 -1.8906,-6.4219 v -10.141 h -3.7969 v -5.4688 h 3.7969 v -6.7969 z"
         id="path14" />
    </symbol>
    <symbol
       id="h"
       overflow="visible">
      <path
         d="m 19.953,-20.422 v -12.812 h 7.6875 V 0 H 19.953 v -3.4531 c -1.0547,1.4062 -2.2148,2.4375 -3.4844,3.0938 -1.2734,0.65625 -2.7422,0.98438 -4.4062,0.98438 -2.9492,0 -5.3711,-1.1719 -7.2656,-3.5156 -1.8867,-2.3438 -2.8281,-5.3594 -2.8281,-9.0469 0,-3.6875 0.94141,-6.7031 2.8281,-9.0469 1.8945,-2.3438 4.3164,-3.5156 7.2656,-3.5156 1.6562,0 3.1172,0.33594 4.3906,1 1.2812,0.65625 2.4453,1.6836 3.5,3.0781 z m -5.0469,15.484 c 1.6445,0 2.8945,-0.59766 3.75,-1.7969 0.86328,-1.1953 1.2969,-2.9297 1.2969,-5.2031 0,-2.2812 -0.43359,-4.0195 -1.2969,-5.2188 -0.85547,-1.1953 -2.1055,-1.7969 -3.75,-1.7969 -1.625,0 -2.8711,0.60156 -3.7344,1.7969 -0.85547,1.1992 -1.2812,2.9375 -1.2812,5.2188 0,2.2734 0.42578,4.0078 1.2812,5.2031 0.86328,1.1992 2.1094,1.7969 3.7344,1.7969 z"
         id="path17" />
    </symbol>
    <symbol
       id="g"
       overflow="visible">
      <path
         d="m 16.406,-4.9375 c 1.6328,0 2.8828,-0.59766 3.75,-1.7969 0.86328,-1.1953 1.2969,-2.9297 1.2969,-5.2031 0,-2.2812 -0.43359,-4.0195 -1.2969,-5.2188 -0.86719,-1.1953 -2.1172,-1.7969 -3.75,-1.7969 -1.6367,0 -2.8906,0.60547 -3.7656,1.8125 -0.875,1.1992 -1.3125,2.9336 -1.3125,5.2031 0,2.2617 0.4375,3.9961 1.3125,5.2031 0.875,1.1992 2.1289,1.7969 3.7656,1.7969 z m -5.0781,-15.484 c 1.0508,-1.3945 2.2188,-2.4219 3.5,-3.0781 1.2812,-0.66406 2.7539,-1 4.4219,-1 2.9453,0 5.3672,1.1719 7.2656,3.5156 1.8945,2.3438 2.8438,5.3594 2.8438,9.0469 0,3.6875 -0.94922,6.7031 -2.8438,9.0469 -1.8984,2.3438 -4.3203,3.5156 -7.2656,3.5156 -1.668,0 -3.1406,-0.33594 -4.4219,-1 -1.2813,-0.66406 -2.4492,-1.6914 -3.5,-3.0781 V 4e-4 H 3.6717 v -33.234 h 7.6562 z"
         id="path20" />
    </symbol>
    <symbol
       id="f"
       overflow="visible">
      <path
         d="m 0.53125,-23.922 h 7.6562 l 6.4219,16.234 5.4688,-16.234 h 7.6562 l -10.062,26.188 c -1.0117,2.6641 -2.1953,4.5234 -3.5469,5.5781 -1.3438,1.0625 -3.1211,1.5938 -5.3281,1.5938 H 4.37545 V 4.4223 h 2.3906 c 1.3008,0 2.2422,-0.21094 2.8281,-0.625 0.59375,-0.40625 1.0547,-1.1484 1.3906,-2.2188 l 0.20312,-0.65625 z"
         id="path23" />
    </symbol>
    <symbol
       id="e"
       overflow="visible">
      <path
         d="m 0.21875,-31.891 h 8.2656 l 8.4531,23.531 8.4375,-23.531 h 8.2656 L 21.82855,0 h -9.7969 z"
         id="path26" />
    </symbol>
    <symbol
       id="l"
       overflow="visible">
      <path
         d="m 3.6719,-33.234 h 7.6562 V 0 H 3.6719 Z"
         id="path29" />
    </symbol>
    <symbol
       id="k"
       overflow="visible">
      <path
         d="m 3.6719,-23.922 h 7.6562 V 0 H 3.6719 Z m 0,-9.3125 h 7.6562 v 6.2344 H 3.6719 Z"
         id="path32" />
    </symbol>
    <symbol
       id="j"
       overflow="visible">
      <path
         d="m 4.0156,-31.891 h 8.2188 v 25.672 h 14.453 V -2e-4 H 4.0154 Z"
         id="path35" />
    </symbol>
    <symbol
       id="d"
       overflow="visible">
      <path
         d="m 25.844,-19.953 c 0.96875,-1.4766 2.1172,-2.6016 3.4531,-3.375 1.332,-0.78125 2.7969,-1.1719 4.3906,-1.1719 2.75,0 4.8438,0.85156 6.2812,2.5469 1.4375,1.6875 2.1562,4.1523 2.1562,7.3906 V -4e-4 h -7.6875 v -12.469 c 0.0078,-0.1875 0.01953,-0.37891 0.03125,-0.57812 0.0078,-0.19531 0.01563,-0.48438 0.01563,-0.85938 0,-1.6953 -0.25,-2.9258 -0.75,-3.6875 -0.5,-0.75781 -1.3086,-1.1406 -2.4219,-1.1406 -1.4492,0 -2.5703,0.60156 -3.3594,1.7969 -0.79297,1.1992 -1.2031,2.9297 -1.2344,5.1875 v 11.75 h -7.6875 v -12.469 c 0,-2.6562 -0.23047,-4.3633 -0.6875,-5.125 -0.44922,-0.75781 -1.2578,-1.1406 -2.4219,-1.1406 -1.4688,0 -2.6055,0.60547 -3.4062,1.8125 -0.79297,1.1992 -1.1875,2.918 -1.1875,5.1562 V -5e-4 h -7.7031 v -23.922 h 7.7031 v 3.5 c 0.9375,-1.3516 2.0156,-2.3672 3.2344,-3.0469 1.2188,-0.6875 2.5547,-1.0312 4.0156,-1.0312 1.6562,0 3.1133,0.40234 4.375,1.2031 1.2695,0.79297 2.2344,1.9062 2.8906,3.3438 z"
         id="path38" />
    </symbol>
  </defs>
  <g
     id="g85"
     transform="translate(-177.14364,-34.996225)">
    <path
       d="m 418.2663,37.402649 c 43.758,0 79.188,35.129 79.188,78.469001 0,26.359 -13.098,49.676 -33.203,63.906 12.969,3.6719 25.008,10.109 35.285,18.887 l 2.5312,2.2422 6.793,6.2148 74.383,74.352 c 10.184,10.246 10.184,26.852 -0.0117,37.113 -9.8711,9.8398 -25.555,10.234 -35.895,1.1758 l -1.2656,-1.1836 -57.805,-57.805 v 68.152 l 37.762,44.641 c 15.461,14.801 16.199,39.102 2.0156,54.789 l -1.4219,1.4883 -46.371,46.391 c -11.949,11.969 -31.348,11.969 -43.281,0.0117 -11.617,-11.535 -12.031,-29.992 -1.2539,-42.016 l 1.2461,-1.3086 31.305,-31.297 -21.688,-19.57 c -2.1055,-1.8945 -4.668,-3.043 -7.4141,-3.3281 l -1.3867,-0.0742 h -15.137 c -6.8008,0 -12.426,5.2148 -13.066,11.863 l -0.0586,1.2617 v 105 c 0,16.922 -13.691,30.625 -30.625,30.625 -16.367,0 -29.707,-12.805 -30.578,-28.945 l -0.0469,-1.6797 v -236.28 l -58.059,58.07 c -10.195,10.27 -26.797,10.27 -37.078,0.0156 -9.8789,-9.8398 -10.277,-25.562 -1.1914,-35.863 l 1.1836,-1.2617 74.43,-74.477 6.6523,-6.082 c 10.922,-9.9648 23.945,-17.199 38.004,-21.18 -20.062,-14.227 -33.129,-37.523 -33.129,-63.852 0,-43.339996 35.43,-78.468996 79.188,-78.468996 z m -35.16,148.810001 c -14.926,2.5938 -28.922,9.1641 -40.547,18.992 l -2.4531,2.1562 -6.5078,5.9453 -74.293,74.348 c -6.8594,6.8281 -6.8594,17.898 0,24.73 6.5039,6.4844 16.762,6.8242 23.598,1.0273 l 1.1055,-1.0234 65.277,-65.273 c 1.707,-1.707 4.4766,-1.707 6.1875,0 0.75781,0.75781 1.1797,1.7305 1.2656,2.7227 l 0.004,0.41016 c 0.11719,0.31641 0.19922,0.65234 0.24219,1 l 0.0312,0.52734 v 245 c 0,12.094 9.7773,21.875 21.875,21.875 11.613,0 21.09,-9.0156 21.828,-20.434 l 0.0469,-1.4414 v -105 c 0,-11.59 9.0508,-21.086 20.441,-21.828 l 1.4336,-0.0469 h 15.137 c 4.8359,0 9.4492,1.5781 13.266,4.4961 l 1.3906,1.1562 25.113,22.66 c 1.6523,1.4922 1.8945,3.9453 0.68359,5.7148 l -0.52344,0.62891 -34.57,34.562 c -8.6016,8.543 -8.6016,22.375 0.0117,30.93 8.1602,8.1719 21.188,8.5273 29.77,1.0664 l 1.1406,-1.0664 46.379,-46.398 c 11.73,-11.699 11.949,-30.48 0.54297,-42.762 l -1.3164,-1.3359 -39.113,-46.199 c -0.5,-0.59375 -0.83203,-1.3047 -0.96875,-2.0625 l -0.0664,-0.76562 v -78.75 c 0,-0.27734 0.0274,-0.55078 0.0742,-0.8125 -0.24609,-1.3516 0.16016,-2.7969 1.207,-3.8477 1.5195,-1.5195 3.875,-1.6875 5.582,-0.50781 l 0.60547,0.50781 65.27,65.27 c 6.8672,6.8477 17.93,6.8477 24.785,0.0156 6.4336,-6.4727 6.7695,-16.773 1.0234,-23.641 l -1.0156,-1.1133 -74.234,-74.203 -6.6562,-6.0898 c -11.395,-10.465 -25.418,-17.613 -40.566,-20.699 l -2.2305,-0.41797 -2.6641,1.2578 c -9.8984,4.4062 -20.871,6.8555 -32.43,6.8555 -12.633,0 -24.57,-2.9297 -35.16,-8.1367 z m 35.16,-140.060001 c -38.941,0 -70.438,31.227 -70.438,69.719001 0,38.504 31.496,69.73 70.438,69.73 38.942,0 70.438,-31.227 70.438,-69.73 0,-38.492001 -31.496,-69.719001 -70.438,-69.719001 z"
       id="path43"
       style="stroke:#ffffff;stroke-width:8;stroke-dasharray:none;stroke-opacity:1;fill:#ffffff" />
  </g>
</svg>
