<?xml version="1.0" encoding="UTF-8" standalone="no"?>
<svg
   width="500pt"
   height="500pt"
   version="1.1"
   viewBox="0 0 500 500"
   id="svg94"
   sodipodi:docname="audio.svg"
   inkscape:version="1.2 (1:1.2+202206011327+fc4e4096c5)"
   xmlns:inkscape="http://www.inkscape.org/namespaces/inkscape"
   xmlns:sodipodi="http://sodipodi.sourceforge.net/DTD/sodipodi-0.dtd"
   xmlns="http://www.w3.org/2000/svg"
   xmlns:svg="http://www.w3.org/2000/svg">
  <sodipodi:namedview
     id="namedview96"
     pagecolor="#ffffff"
     bordercolor="#666666"
     borderopacity="1.0"
     inkscape:showpageshadow="2"
     inkscape:pageopacity="0.0"
     inkscape:pagecheckerboard="0"
     inkscape:deskcolor="#d1d1d1"
     inkscape:document-units="pt"
     showgrid="false"
     inkscape:zoom="0.715188"
     inkscape:cx="489.38181"
     inkscape:cy="261.46971"
     inkscape:window-width="1920"
     inkscape:window-height="1009"
     inkscape:window-x="0"
     inkscape:window-y="34"
     inkscape:window-maximized="1"
     inkscape:current-layer="g92" />
  <defs
     id="defs44">
    <symbol
       id="n"
       overflow="visible">
      <path
         d="m 29.312,-1.75 c -1.5117,0.78125 -3.0898,1.3711 -4.7344,1.7656 -1.6367,0.40625 -3.3398,0.60938 -5.1094,0.60938 -5.3125,0 -9.5273,-1.4844 -12.641,-4.4531 -3.1055,-2.9688 -4.6562,-7 -4.6562,-12.094 0,-5.094 1.5508,-9.125 4.6562,-12.094 3.1133,-2.9688 7.3281,-4.4531 12.641,-4.4531 1.7695,0 3.4727,0.19922 5.1094,0.59375 1.6445,0.39844 3.2227,0.99219 4.7344,1.7812 v 6.5938 c -1.5312,-1.0391 -3.0391,-1.8008 -4.5156,-2.2812 -1.4805,-0.48828 -3.0391,-0.73438 -4.6719,-0.73438 -2.9375,0 -5.2461,0.94531 -6.9219,2.8281 -1.6797,1.875 -2.5156,4.4648 -2.5156,7.7656 0,3.293 0.83594,5.8828 2.5156,7.7656 1.6758,1.875 3.9844,2.8125 6.9219,2.8125 1.6328,0 3.1914,-0.23828 4.6719,-0.71875 1.4766,-0.48828 2.9844,-1.2539 4.5156,-2.2969 z"
         id="path2" />
    </symbol>
    <symbol
       id="j"
       overflow="visible">
      <path
         d="m 21.453,-17.406 c -0.67969,-0.3125 -1.3516,-0.53906 -2.0156,-0.6875 -0.65625,-0.15625 -1.3203,-0.23438 -1.9844,-0.23438 -1.9688,0 -3.4844,0.63281 -4.5469,1.8906 -1.0547,1.2617 -1.5781,3.0703 -1.5781,5.4219 V 6.2e-4 H 3.6718 v -23.922 h 7.6562 v 3.9219 c 0.97656,-1.5625 2.1016,-2.7031 3.375,-3.4219 1.2812,-0.71875 2.8125,-1.0781 4.5938,-1.0781 0.25,0 0.52344,0.01172 0.82812,0.03125 0.30078,0.02344 0.73438,0.07031 1.2969,0.14062 z"
         id="path5" />
    </symbol>
    <symbol
       id="c"
       overflow="visible">
      <path
         d="m 27.562,-12.031 v 2.1875 H 9.671 c 0.1875,1.793 0.83203,3.1367 1.9375,4.0312 1.1133,0.89844 2.6719,1.3438 4.6719,1.3438 1.6016,0 3.25,-0.23438 4.9375,-0.70312 1.6875,-0.47656 3.4219,-1.2031 5.2031,-2.1719 v 5.8906 c -1.8047,0.6875 -3.6094,1.2031 -5.4219,1.5469 -1.8125,0.35156 -3.6211,0.53125 -5.4219,0.53125 -4.3359,0 -7.7031,-1.0977 -10.109,-3.2969 -2.3984,-2.207 -3.5938,-5.2969 -3.5938,-9.2656 0,-3.9062 1.1758,-6.9727 3.5312,-9.2031 2.3633,-2.2383 5.6094,-3.3594 9.7344,-3.3594 3.7578,0 6.7695,1.1367 9.0312,3.4062 2.2578,2.2617 3.3906,5.2812 3.3906,9.0625 z m -7.8594,-2.5312 c 0,-1.457 -0.42969,-2.6289 -1.2812,-3.5156 -0.84375,-0.89453 -1.9492,-1.3438 -3.3125,-1.3438 -1.4922,0 -2.6992,0.41797 -3.625,1.25 -0.91797,0.83594 -1.4922,2.0391 -1.7188,3.6094 z"
         id="path8" />
    </symbol>
    <symbol
       id="b"
       overflow="visible">
      <path
         d="m 14.391,-10.766 c -1.5938,0 -2.793,0.27344 -3.5938,0.8125 -0.80469,0.54297 -1.2031,1.3398 -1.2031,2.3906 0,0.96875 0.32031,1.7305 0.96875,2.2812 0.64453,0.54297 1.5469,0.8125 2.7031,0.8125 1.4375,0 2.6445,-0.51562 3.625,-1.5469 0.98828,-1.0312 1.4844,-2.3203 1.4844,-3.875 v -0.875 z m 11.688,-2.8906 V -6e-4 h -7.7031 v -3.5469 c -1.0312,1.4492 -2.1875,2.5078 -3.4688,3.1719 -1.2813,0.6641 -2.8398,1 -4.6719,1 -2.4805,0 -4.4961,-0.72266 -6.0469,-2.1719 -1.543,-1.4453 -2.3125,-3.3203 -2.3125,-5.625 0,-2.8125 0.96094,-4.8672 2.8906,-6.1719 1.9375,-1.3125 4.9688,-1.9688 9.0938,-1.9688 h 4.5156 v -0.60938 c 0,-1.207 -0.48047,-2.0938 -1.4375,-2.6562 -0.94922,-0.5625 -2.4375,-0.84375 -4.4688,-0.84375 -1.6367,0 -3.1562,0.16797 -4.5625,0.5 -1.4062,0.32422 -2.7188,0.8125 -3.9375,1.4688 v -5.8281 c 1.6445,-0.40625 3.2891,-0.70703 4.9375,-0.90625 1.6562,-0.20703 3.3047,-0.3125 4.9531,-0.3125 4.3203,0 7.4375,0.85547 9.3438,2.5625 1.9141,1.6992 2.875,4.4609 2.875,8.2812 z"
         id="path11" />
    </symbol>
    <symbol
       id="i"
       overflow="visible">
      <path
         d="m 12.031,-30.719 v 6.7969 h 7.875 v 5.4688 h -7.875 v 10.141 c 0,1.1172 0.21875,1.8711 0.65625,2.2656 0.4375,0.38672 1.3125,0.57812 2.625,0.57812 h 3.9375 v 5.4688 h -6.5625 c -3.0234,0 -5.1641,-0.62891 -6.4219,-1.8906 -1.2617,-1.2578 -1.8906,-3.3984 -1.8906,-6.4219 v -10.141 h -3.7969 v -5.4688 h 3.7969 v -6.7969 z"
         id="path14" />
    </symbol>
    <symbol
       id="h"
       overflow="visible">
      <path
         d="m 19.953,-20.422 v -12.812 h 7.6875 V 0 H 19.953 v -3.4531 c -1.0547,1.4062 -2.2148,2.4375 -3.4844,3.0938 -1.2734,0.65625 -2.7422,0.98438 -4.4062,0.98438 -2.9492,0 -5.3711,-1.1719 -7.2656,-3.5156 -1.8867,-2.3438 -2.8281,-5.3594 -2.8281,-9.0469 0,-3.6875 0.94141,-6.7031 2.8281,-9.0469 1.8945,-2.3438 4.3164,-3.5156 7.2656,-3.5156 1.6562,0 3.1172,0.33594 4.3906,1 1.2812,0.65625 2.4453,1.6836 3.5,3.0781 z m -5.0469,15.484 c 1.6445,0 2.8945,-0.59766 3.75,-1.7969 0.86328,-1.1953 1.2969,-2.9297 1.2969,-5.2031 0,-2.2812 -0.43359,-4.0195 -1.2969,-5.2188 -0.85547,-1.1953 -2.1055,-1.7969 -3.75,-1.7969 -1.625,0 -2.8711,0.60156 -3.7344,1.7969 -0.85547,1.1992 -1.2812,2.9375 -1.2812,5.2188 0,2.2734 0.42578,4.0078 1.2812,5.2031 0.86328,1.1992 2.1094,1.7969 3.7344,1.7969 z"
         id="path17" />
    </symbol>
    <symbol
       id="g"
       overflow="visible">
      <path
         d="m 16.406,-4.9375 c 1.6328,0 2.8828,-0.59766 3.75,-1.7969 0.86328,-1.1953 1.2969,-2.9297 1.2969,-5.2031 0,-2.2812 -0.43359,-4.0195 -1.2969,-5.2188 -0.86719,-1.1953 -2.1172,-1.7969 -3.75,-1.7969 -1.6367,0 -2.8906,0.60547 -3.7656,1.8125 -0.875,1.1992 -1.3125,2.9336 -1.3125,5.2031 0,2.2617 0.4375,3.9961 1.3125,5.2031 0.875,1.1992 2.1289,1.7969 3.7656,1.7969 z m -5.0781,-15.484 c 1.0508,-1.3945 2.2188,-2.4219 3.5,-3.0781 1.2812,-0.66406 2.7539,-1 4.4219,-1 2.9453,0 5.3672,1.1719 7.2656,3.5156 1.8945,2.3438 2.8438,5.3594 2.8438,9.0469 0,3.6875 -0.94922,6.7031 -2.8438,9.0469 -1.8984,2.3438 -4.3203,3.5156 -7.2656,3.5156 -1.668,0 -3.1406,-0.33594 -4.4219,-1 -1.2813,-0.66406 -2.4492,-1.6914 -3.5,-3.0781 V 4e-4 H 3.6717 v -33.234 h 7.6562 z"
         id="path20" />
    </symbol>
    <symbol
       id="a"
       overflow="visible">
      <path
         d="m 0.53125,-23.922 h 7.6562 l 6.4219,16.234 5.4688,-16.234 h 7.6562 l -10.062,26.188 c -1.0117,2.6641 -2.1953,4.5234 -3.5469,5.5781 -1.3438,1.0625 -3.1211,1.5938 -5.3281,1.5938 H 4.37545 V 4.4223 h 2.3906 c 1.3008,0 2.2422,-0.21094 2.8281,-0.625 0.59375,-0.40625 1.0547,-1.1484 1.3906,-2.2188 l 0.20312,-0.65625 z"
         id="path23" />
    </symbol>
    <symbol
       id="f"
       overflow="visible">
      <path
         d="m 1.2969,-31.891 h 7.8906 l 5.5156,23.172 5.4688,-23.172 h 7.9219 l 5.4688,23.172 5.5156,-23.172 h 7.8125 L 39.3751,0 H 29.8907 L 24.0938,-24.25 18.375,0 H 8.8906 Z"
         id="path26" />
    </symbol>
    <symbol
       id="m"
       overflow="visible">
      <path
         d="M 27.734,-14.562 V 0 h -7.7031 v -11.109 c 0,-2.0938 -0.04687,-3.5312 -0.14062,-4.3125 -0.08594,-0.78125 -0.24219,-1.3594 -0.46875,-1.7344 -0.30469,-0.5 -0.71094,-0.88281 -1.2188,-1.1562 -0.51172,-0.28125 -1.0938,-0.42188 -1.75,-0.42188 -1.5938,0 -2.8516,0.61719 -3.7656,1.8438 -0.90625,1.2305 -1.3594,2.9375 -1.3594,5.125 v 11.766 h -7.6562 v -33.234 h 7.6562 v 12.812 c 1.1445,-1.3945 2.3633,-2.4219 3.6562,-3.0781 1.3008,-0.66406 2.7383,-1 4.3125,-1 2.7578,0 4.8516,0.85156 6.2812,2.5469 1.4375,1.6875 2.1562,4.1523 2.1562,7.3906 z"
         id="path29" />
    </symbol>
    <symbol
       id="e"
       overflow="visible">
      <path
         d="m 3.4219,-9.3125 v -14.609 h 7.6875 v 2.3906 c 0,1.293 -0.01172,2.918 -0.03125,4.875 -0.01172,1.9609 -0.01563,3.2656 -0.01563,3.9219 0,1.9297 0.04687,3.3125 0.14062,4.1562 0.10156,0.84375 0.28125,1.4609 0.53125,1.8438 0.3125,0.5 0.71875,0.88672 1.2188,1.1562 0.50781,0.27344 1.0938,0.40625 1.75,0.40625 1.5938,0 2.8438,-0.60938 3.75,-1.8281 0.91406,-1.2266 1.375,-2.9297 1.375,-5.1094 v -11.812 h 7.6406 v 23.922 h -7.6406 v -3.4531 c -1.1562,1.3867 -2.3828,2.4141 -3.6719,3.0781 -1.2812,0.66406 -2.6992,1 -4.25,1 -2.7734,0 -4.8828,-0.84766 -6.3281,-2.5469 -1.4375,-1.6953 -2.1562,-4.1602 -2.1562,-7.3906 z"
         id="path32" />
    </symbol>
    <symbol
       id="l"
       overflow="visible">
      <path
         d="m 4.0156,-31.891 h 8.2188 v 19.109 c 0,2.6367 0.42969,4.5234 1.2969,5.6562 0.86328,1.1367 2.2695,1.7031 4.2188,1.7031 1.9688,0 3.3789,-0.56641 4.2344,-1.7031 0.86328,-1.1328 1.2969,-3.0195 1.2969,-5.6562 v -19.109 h 8.2344 v 19.109 c 0,4.5234 -1.1367,7.8867 -3.4062,10.094 -2.2617,2.2109 -5.7148,3.3125 -10.359,3.3125 -4.625,0 -8.0742,-1.1016 -10.344,-3.3125 C 5.1449,-4.895 4.016,-8.2583 4.016,-12.782 Z"
         id="path35" />
    </symbol>
    <symbol
       id="k"
       overflow="visible">
      <path
         d="M 27.734,-14.562 V 0 h -7.7031 v -11.156 c 0,-2.0625 -0.04687,-3.4844 -0.14062,-4.2656 -0.08594,-0.78125 -0.24219,-1.3594 -0.46875,-1.7344 -0.30469,-0.5 -0.71094,-0.88281 -1.2188,-1.1562 -0.51172,-0.28125 -1.0938,-0.42188 -1.75,-0.42188 -1.5938,0 -2.8516,0.61719 -3.7656,1.8438 -0.90625,1.2305 -1.3594,2.9375 -1.3594,5.125 v 11.766 h -7.6562 v -23.922 h 7.6562 v 3.5 c 1.1445,-1.3945 2.3633,-2.4219 3.6562,-3.0781 1.3008,-0.66406 2.7383,-1 4.3125,-1 2.7578,0 4.8516,0.85156 6.2812,2.5469 1.4375,1.6875 2.1562,4.1523 2.1562,7.3906 z"
         id="path38" />
    </symbol>
    <symbol
       id="d"
       overflow="visible">
      <path
         d="m 19.953,-4.0625 c -1.0547,1.3984 -2.2148,2.4219 -3.4844,3.0781 -1.2734,0.65625 -2.7422,0.98438 -4.4062,0.98438 -2.918,0 -5.3281,-1.1484 -7.2344,-3.4531 -1.9062,-2.3008 -2.8594,-5.2266 -2.8594,-8.7812 0,-3.582 0.95312,-6.5156 2.8594,-8.7969 1.90628,-2.2813 4.3164,-3.4219 7.2344,-3.4219 1.6641,0 3.1328,0.32812 4.4062,0.98438 1.2695,0.64844 2.4297,1.6797 3.4844,3.0938 v -3.5469 h 7.6875 v 21.516 c 0,3.8438 -1.2148,6.7734 -3.6406,8.7969 -2.4297,2.0312 -5.9492,3.0469 -10.562,3.0469 -1.5,0 -2.9492,-0.11719 -4.3438,-0.34375 C 7.6957,8.87546 6.2972,8.5239 4.891,8.04731 v -5.9531 c 1.3438,0.76953 2.6562,1.3438 3.9375,1.7188 1.2813,0.375 2.5664,0.5625 3.8594,0.5625 2.5078,0 4.3477,-0.54688 5.5156,-1.6406 1.1641,-1.0938 1.75,-2.8047 1.75,-5.1406 z m -5.0469,-14.891 c -1.5742,0 -2.8047,0.58984 -3.6875,1.7656 -0.88672,1.168 -1.3281,2.8203 -1.3281,4.9531 0,2.1875 0.42578,3.8516 1.2812,4.9844 0.85156,1.1367 2.0977,1.7031 3.7344,1.7031 1.5938,0 2.832,-0.58203 3.7188,-1.75 0.88281,-1.1758 1.3281,-2.8203 1.3281,-4.9375 0,-2.1328 -0.44531,-3.7852 -1.3281,-4.9531 -0.88672,-1.1758 -2.125,-1.7656 -3.7188,-1.7656 z"
         id="path41" />
    </symbol>
  </defs>
  <g
     id="g92"
     transform="translate(-172.11499,-164.5983)">
    <path
       style="fill:#ffe32b;fill-opacity:1;stroke:#000000;stroke-width:1.10946px;stroke-linecap:butt;stroke-linejoin:miter;stroke-opacity:1"
       d="m 190.17523,479.32704 5.54163,-134.23343 95.65708,-9.10416 144.04262,-80.70446 -0.23441,312.65037 -38.31895,-12.85322 -118.9869,-65.92743 z"
       id="path442" />
    <path
       d="m 598.25564,255.93176 c -5.21785,-4.89433 -13.41749,-4.63427 -18.31788,0.58362 -4.89434,5.21785 -4.63428,13.41748 0.58362,18.31196 38.21266,35.82659 60.6444,85.34684 62.36628,137.6999 1.72203,52.34715 -17.40517,103.24313 -53.17849,141.49573 -4.89434,5.21785 -4.63428,13.41748 0.58361,18.31787 5.21786,4.89433 13.41747,4.63428 18.31788,-0.58362 40.48335,-43.26291 62.13551,-100.83338 60.19322,-160.05767 -1.94154,-59.22283 -27.32075,-115.25041 -70.54815,-155.76779 z"
       id="path46"
       style="stroke-width:1.47927" />
    <path
       d="m 557.22051,298.38699 c -5.21785,-4.89433 -13.41747,-4.63428 -18.31787,0.58362 -4.89433,5.21785 -4.63428,13.41748 0.58362,18.31787 26.53525,24.9332 42.10167,59.37372 43.28658,95.76539 1.19035,36.39315 -12.09427,71.77447 -36.94196,98.38961 -5.02141,5.04463 -5.02141,13.19796 0,18.24836 5.04462,5.0214 13.20372,5.0214 18.24834,0 29.80002,-31.56184 45.82354,-73.68571 44.53953,-117.07732 -1.28858,-43.39012 -19.77941,-84.4859 -51.39893,-114.22822 z"
       id="path48"
       style="stroke-width:1.47927" />
    <path
       d="m 515.80078,340.97535 c -2.44997,-2.61758 -5.87672,-4.10262 -9.465,-4.10262 -3.58842,0.006 -7.01502,1.49658 -9.45923,4.12584 -2.44421,2.62335 -3.68665,6.1424 -3.43813,9.71929 0.24847,3.58266 1.97039,6.89372 4.76149,9.15303 14.87412,14.05888 23.60481,33.42276 24.28084,53.87819 0.68186,20.45543 -6.74343,40.35613 -20.65809,55.36931 -5.02141,5.04462 -5.02141,13.20372 0,18.24835 2.4269,2.44998 5.73797,3.83104 9.18764,3.83104 3.44966,0 6.76073,-1.38105 9.1934,-3.83104 18.83119,-19.9939 28.94352,-46.64897 28.124,-74.10878 -0.82631,-27.45388 -12.5277,-53.4566 -32.52633,-72.28187 z"
       id="path50"
       style="stroke-width:1.47927" />
    <path
       d="m 438.78966,246.47919 c -3.68088,-2.19007 -7.88173,-3.34568 -12.16941,-3.34568 -4.28177,0 -8.48277,1.15568 -12.16364,3.34568 l -131.63783,78.43566 h -71.19016 c -9.79444,0.0346 -19.17291,3.97555 -26.04858,10.95004 -6.87627,6.9745 -10.68438,16.40518 -10.58024,26.19947 v 103.54933 c 0,9.72505 3.85426,19.05751 10.71899,25.94503 6.86473,6.89372 16.18476,10.78259 25.91101,10.8172 h 71.19016 l 131.89818,77.66199 c 3.89464,2.36345 8.38453,3.5769 12.94367,3.49022 4.17777,-0.0462 8.27477,-1.16147 11.90358,-3.23592 3.87733,-1.9994 7.13056,-5.02718 9.41308,-8.74282 2.28252,-3.72127 3.50174,-7.9915 3.53059,-12.35432 V 267.57056 c -0.10404,-4.4436 -1.43883,-8.77166 -3.86002,-12.4987 -2.4269,-3.72703 -5.83619,-6.7029 -9.85805,-8.59829 z M 273.11073,476.87645 h -61.48167 c -5.95173,-0.0694 -10.74207,-4.9174 -10.74207,-10.87504 v -103.9369 c 0,-5.95172 4.79034,-10.7999 10.74207,-10.87505 h 61.48167 z M 425.19512,557.25441 298.99511,482.44149 V 345.23863 l 126.20001,-74.81292 z"
       id="path52"
       style="stroke-width:1.47927" />
  </g>
</svg>
