<svg class="d-b w-100 h-100 pos-a u-fill" xmlns="http://www.w3.org/2000/svg" viewBox="0 0 30 30"><g fill="#1A1A1A"><path d="M0 0v30h30V0H0zm18.2 12.1c-.8-.8-1.9-1.3-3.1-1.3-1.2 0-2.3.5-3.1 1.3H6.7V9.9c0-1.1.6-2.1 1.4-2.7v3.6h.7v-4c.2-.1.3-.1.5-.2v4.1h.7V6.5h.5v4.2h.7V6.5h9.1c1.8 0 3.3 1.5 3.3 3.3V12h-5.4zm.3 3c0 1.8-1.5 3.3-3.3 3.3-1.8 0-3.3-1.5-3.3-3.3 0-1 .4-1.9 1.1-2.5.2-.2.5-.4.8-.5.4-.2.9-.3 1.4-.3.5 0 1 .1 1.4.3.3.1.6.3.8.5.6.6 1.1 1.5 1.1 2.5zm-8.4 8.4c-1.8 0-3.3-1.5-3.3-3.3v-7.6h4.9c-.5.7-.8 1.6-.8 2.5 0 2.4 1.9 4.3 4.3 4.3s4.3-1.9 4.3-4.3c0-.9-.3-1.8-.8-2.5h4.9v7.6c0 1.8-1.5 3.3-3.3 3.3H10.1z"></path><circle cx="15.2" cy="15.1" r="2.5"></circle><path d="M21.5 7.9h-1.8c-.3 0-.5.2-.5.5v1.8c0 .3.2.5.5.5h1.8c.3 0 .5-.2.5-.5V8.5c.1-.3-.2-.6-.5-.6z"></path></g></svg>
