<?xml version="1.0" encoding="UTF-8" standalone="no"?>
<svg
   width="50pt"
   height="50pt"
   version="1.1"
   viewBox="0 0 50 50"
   id="svg4"
   sodipodi:docname="link.svg"
   inkscape:version="1.2 (1:1.2.1+202207142221+cd75a1ee6d)"
   xmlns:inkscape="http://www.inkscape.org/namespaces/inkscape"
   xmlns:sodipodi="http://sodipodi.sourceforge.net/DTD/sodipodi-0.dtd"
   xmlns="http://www.w3.org/2000/svg"
   xmlns:svg="http://www.w3.org/2000/svg">
  <defs
     id="defs8">
    <inkscape:path-effect
       effect="fillet_chamfer"
       id="path-effect348"
       is_visible="true"
       lpeversion="1"
       nodesatellites_param="F,0,0,1,0,4.5,0,1 @ F,0,0,1,0,4.5,0,1 @ F,0,0,1,0,4.5,0,1 @ F,0,0,1,0,4.5,0,1"
       unit="px"
       method="auto"
       mode="F"
       radius="6"
       chamfer_steps="1"
       flexible="false"
       use_knot_distance="true"
       apply_no_radius="true"
       apply_with_radius="true"
       only_selected="false"
       hide_knots="false" />
    <inkscape:path-effect
       effect="fillet_chamfer"
       id="path-effect345"
       is_visible="true"
       lpeversion="1"
       nodesatellites_param="F,0,0,1,0,9,0,1 @ F,0,0,1,0,9,0,1 @ F,0,0,1,0,9,0,1 @ F,0,0,1,0,9,0,1"
       unit="px"
       method="auto"
       mode="F"
       radius="12"
       chamfer_steps="1"
       flexible="false"
       use_knot_distance="true"
       apply_no_radius="true"
       apply_with_radius="true"
       only_selected="false"
       hide_knots="false" />
  </defs>
  <sodipodi:namedview
     id="namedview6"
     pagecolor="#ffffff"
     bordercolor="#666666"
     borderopacity="1.0"
     inkscape:showpageshadow="2"
     inkscape:pageopacity="0.0"
     inkscape:pagecheckerboard="0"
     inkscape:deskcolor="#d1d1d1"
     inkscape:document-units="pt"
     showgrid="false"
     inkscape:zoom="4.0457142"
     inkscape:cx="-39.671611"
     inkscape:cy="43.008475"
     inkscape:window-width="1920"
     inkscape:window-height="1009"
     inkscape:window-x="0"
     inkscape:window-y="34"
     inkscape:window-maximized="1"
     inkscape:current-layer="svg4" />
  <path
     style="fill:#289294;fill-opacity:1;stroke:none;stroke-width:0.225"
     id="rect346"
     width="50"
     height="50"
     x="-1.4210855e-14"
     y="0"
     inkscape:path-effect="#path-effect348"
     d="m 4.5,0 h 41 A 4.5,4.5 45 0 1 50,4.5 v 41 A 4.5,4.5 135 0 1 45.5,50 H 4.5 A 4.5,4.5 45 0 1 0,45.5 V 4.5 A 4.5,4.5 135 0 1 4.5,0 Z"
     sodipodi:type="rect" />
  <path
     d="m 35.346316,12.965543 h -4.951325 c -0.64299,0 -1.164345,-0.520208 -1.164345,-1.162363 0,-0.641896 0.521355,-1.162361 1.164345,-1.162361 h 7.76252 c 0.642989,0 1.164344,0.520465 1.164344,1.162361 v 7.749302 c 0,0.641897 -0.521355,1.162362 -1.164344,1.162362 -0.643248,0 -1.164345,-0.520465 -1.164345,-1.162362 V 14.609588 L 23.456163,28.123541 c -0.45456,0.453786 -1.191894,0.453786 -1.646721,0 -0.45456,-0.454045 -0.45456,-1.190126 0,-1.643913 z m -11.161072,0.387624 c 0.406997,-0.0057 0.785698,0.207823 0.99102,0.55887 0.205313,0.351306 0.205313,0.785359 0,1.136658 -0.205322,0.351046 -0.583987,0.564576 -0.99102,0.55887 -2.816785,0 -4.914135,0.0076 -6.390923,0.173836 -1.476456,0.166311 -2.239002,0.475845 -2.681386,0.917934 -0.442385,0.44209 -0.751634,1.203344 -0.917438,2.677087 -0.165816,1.473741 -0.172049,3.566193 -0.172049,6.375057 0,2.808333 0.0099,4.900053 0.178809,6.373265 0.168677,1.472944 0.480555,2.235454 0.92602,2.679145 0.445725,0.44367 1.209322,0.751615 2.683715,0.917933 1.47466,0.166311 3.567354,0.174096 6.372957,0.174096 2.805337,0 4.898825,-0.0086 6.372958,-0.176168 1.474391,-0.167864 2.237469,-0.477399 2.683978,-0.922384 0.446243,-0.445225 0.757091,-1.207262 0.926022,-2.679411 0.16894,-1.471883 0.178547,-3.562872 0.178547,-6.36629 -0.0055,-0.406568 0.208177,-0.784561 0.560085,-0.989536 0.35165,-0.204967 0.786702,-0.204967 1.138334,0 0.351641,0.204968 0.565538,0.582995 0.559819,0.989536 0,2.805477 0,4.928614 -0.194141,6.621811 -0.194149,1.69293 -0.599064,3.047048 -1.5724,4.017654 -0.97306,0.97034 -2.331554,1.374576 -4.02664,1.567396 -1.695085,0.192773 -3.81918,0.191478 -6.626387,0.191478 -2.80693,0 -4.931826,0.0041 -6.626646,-0.187068 -1.69482,-0.191219 -3.050717,-0.593635 -4.024508,-1.562945 -0.973858,-0.969609 -1.382643,-2.323928 -1.576789,-4.017655 -0.194146,-1.693994 -0.191804,-3.820252 -0.191804,-6.630645 0,-2.809927 -0.0029,-4.935654 0.187387,-6.628585 0.190505,-1.693196 0.58971,-3.046518 1.561219,-4.017655 0.971729,-0.971137 2.33002,-1.374111 4.026837,-1.56527 1.696882,-0.191218 3.82623,-0.187067 6.644277,-0.187067 z"
     fill-rule="evenodd"
     id="path2"
     style="fill:#ffffff;stroke-width:0.0664773" />
</svg>
