<?xml version="1.0" encoding="UTF-8"?>
<svg width="700pt" height="700pt" version="1.1" viewBox="0 0 700 700" xmlns="http://www.w3.org/2000/svg" xmlns:xlink="http://www.w3.org/1999/xlink">
 <defs>
  <symbol id="u" overflow="visible">
   <path d="m2.9062-0.17188c-0.15625 0.074219-0.32031 0.13281-0.48438 0.17188-0.15625 0.039062-0.32422 0.0625-0.5 0.0625-0.52344 0-0.9375-0.14453-1.25-0.4375-0.30469-0.28906-0.45312-0.69141-0.45312-1.2031 0-0.5 0.14844-0.89453 0.45312-1.1875 0.3125-0.30078 0.72656-0.45312 1.25-0.45312 0.17578 0 0.34375 0.023438 0.5 0.0625 0.16406 0.042969 0.32812 0.10156 0.48438 0.17188v0.65625c-0.15625-0.10156-0.30859-0.17578-0.45312-0.21875-0.14844-0.050781-0.30469-0.078125-0.46875-0.078125-0.28125 0-0.50781 0.09375-0.67188 0.28125-0.16797 0.1875-0.25 0.44531-0.25 0.76562 0 0.32422 0.082031 0.57812 0.25 0.76562 0.16406 0.1875 0.39062 0.28125 0.67188 0.28125 0.16406 0 0.32031-0.019531 0.46875-0.0625 0.14453-0.050781 0.29688-0.12891 0.45312-0.23438z"/>
  </symbol>
  <symbol id="b" overflow="visible">
   <path d="m2.125-1.7188c-0.074219-0.03125-0.14062-0.050781-0.20312-0.0625-0.0625-0.019531-0.125-0.03125-0.1875-0.03125-0.19922 0-0.35156 0.0625-0.45312 0.1875-0.10547 0.125-0.15625 0.30469-0.15625 0.53125v1.0938h-0.76562v-2.3594h0.76562v0.375c0.09375-0.14453 0.20312-0.25391 0.32812-0.32812 0.125-0.070312 0.27344-0.10938 0.45312-0.10938h0.078125c0.03125 0 0.078125 0.007813 0.14062 0.015625z"/>
  </symbol>
  <symbol id="a" overflow="visible">
   <path d="m2.7188-1.1875v0.21875h-1.7656c0.019531 0.17969 0.082031 0.3125 0.1875 0.40625 0.11328 0.085938 0.26953 0.125 0.46875 0.125 0.15625 0 0.31641-0.019531 0.48438-0.0625 0.16406-0.050781 0.33594-0.12891 0.51562-0.23438v0.59375c-0.17969 0.0625-0.35547 0.10938-0.53125 0.14062-0.17969 0.039062-0.35547 0.0625-0.53125 0.0625-0.4375 0-0.77734-0.10938-1.0156-0.32812-0.23047-0.21875-0.34375-0.52344-0.34375-0.92188 0-0.38281 0.11328-0.6875 0.34375-0.90625 0.23828-0.21875 0.5625-0.32812 0.96875-0.32812 0.375 0 0.67188 0.11719 0.89062 0.34375 0.21875 0.21875 0.32812 0.51562 0.32812 0.89062zm-0.76562-0.25c0-0.14453-0.042969-0.25781-0.125-0.34375-0.085937-0.09375-0.19531-0.14062-0.32812-0.14062-0.14844 0-0.26562 0.042969-0.35938 0.125-0.09375 0.085937-0.15234 0.20312-0.17188 0.35938z"/>
  </symbol>
  <symbol id="g" overflow="visible">
   <path d="m1.4219-1.0625c-0.15625 0-0.27734 0.027344-0.35938 0.078125-0.074219 0.054687-0.10938 0.13281-0.10938 0.23438 0 0.09375 0.03125 0.17188 0.09375 0.23438 0.0625 0.054687 0.14844 0.078125 0.26562 0.078125 0.14453 0 0.26562-0.050781 0.35938-0.15625 0.09375-0.10156 0.14062-0.23438 0.14062-0.39062v-0.078125zm1.1562-0.28125v1.3438h-0.76562v-0.34375c-0.09375 0.13672-0.21094 0.24219-0.34375 0.3125-0.125 0.0625-0.27734 0.09375-0.45312 0.09375-0.25 0-0.45312-0.070312-0.60938-0.21875-0.14844-0.14453-0.21875-0.32812-0.21875-0.54688 0-0.28125 0.09375-0.48438 0.28125-0.60938 0.19531-0.13281 0.5-0.20312 0.90625-0.20312h0.4375v-0.0625c0-0.11328-0.046875-0.19531-0.14062-0.25-0.09375-0.0625-0.24219-0.09375-0.4375-0.09375-0.16797 0-0.32031 0.015625-0.45312 0.046875-0.13672 0.03125-0.26562 0.078125-0.39062 0.14062v-0.5625c0.16406-0.039063 0.32812-0.070313 0.48438-0.09375 0.16406-0.019531 0.33203-0.03125 0.5-0.03125 0.42578 0 0.73438 0.085937 0.92188 0.25 0.1875 0.16797 0.28125 0.44531 0.28125 0.82812z"/>
  </symbol>
  <symbol id="c" overflow="visible">
   <path d="m1.1875-3.0312v0.67188h0.78125v0.53125h-0.78125v1c0 0.11719 0.019531 0.19531 0.0625 0.23438 0.050781 0.03125 0.14062 0.046875 0.26562 0.046875h0.39062v0.54688h-0.65625c-0.29297 0-0.5-0.0625-0.625-0.1875s-0.1875-0.33594-0.1875-0.64062v-1h-0.375v-0.53125h0.375v-0.67188z"/>
  </symbol>
  <symbol id="k" overflow="visible">
   <path d="m1.9688-2.0156v-1.2656h0.76562v3.2812h-0.76562v-0.34375c-0.10547 0.13672-0.21875 0.24219-0.34375 0.3125-0.125 0.0625-0.27344 0.09375-0.4375 0.09375-0.29297 0-0.53125-0.11328-0.71875-0.34375-0.1875-0.23828-0.28125-0.53906-0.28125-0.90625 0-0.36328 0.09375-0.66016 0.28125-0.89062 0.1875-0.22656 0.42578-0.34375 0.71875-0.34375 0.16406 0 0.3125 0.03125 0.4375 0.09375s0.23828 0.16797 0.34375 0.3125zm-0.5 1.5312c0.16406 0 0.28906-0.054687 0.375-0.17188 0.082031-0.125 0.125-0.30078 0.125-0.53125 0-0.21875-0.042969-0.38281-0.125-0.5-0.085938-0.125-0.21094-0.1875-0.375-0.1875-0.15625 0-0.27734 0.0625-0.35938 0.1875-0.085937 0.11719-0.125 0.28125-0.125 0.5 0 0.23047 0.039063 0.40625 0.125 0.53125 0.082031 0.11719 0.20312 0.17188 0.35938 0.17188z"/>
  </symbol>
  <symbol id="j" overflow="visible">
   <path d="m1.625-0.48438c0.15625 0 0.27344-0.054687 0.35938-0.17188 0.09375-0.125 0.14062-0.30078 0.14062-0.53125 0-0.21875-0.046875-0.38281-0.14062-0.5-0.085937-0.125-0.20312-0.1875-0.35938-0.1875-0.16797 0-0.29297 0.0625-0.375 0.1875-0.085938 0.11719-0.125 0.28125-0.125 0.5 0 0.23047 0.039062 0.40625 0.125 0.53125 0.082031 0.11719 0.20703 0.17188 0.375 0.17188zm-0.5-1.5312c0.10156-0.14453 0.21875-0.25 0.34375-0.3125s0.26953-0.09375 0.4375-0.09375c0.28906 0 0.53125 0.11719 0.71875 0.34375 0.1875 0.23047 0.28125 0.52734 0.28125 0.89062 0 0.36719-0.09375 0.66797-0.28125 0.90625-0.1875 0.23047-0.42969 0.34375-0.71875 0.34375-0.16797 0-0.3125-0.03125-0.4375-0.09375-0.125-0.070312-0.24219-0.17578-0.34375-0.3125v0.34375h-0.76562v-3.2812h0.76562z"/>
  </symbol>
  <symbol id="f" overflow="visible">
   <path d="m0.046875-2.3594h0.76562l0.64062 1.5938 0.53125-1.5938h0.76562l-1 2.5781c-0.10547 0.26953-0.22656 0.45703-0.35938 0.5625-0.125 0.10156-0.29688 0.15625-0.51562 0.15625h-0.4375v-0.5h0.23438c0.125 0 0.21094-0.023438 0.26562-0.0625 0.0625-0.042969 0.11328-0.11719 0.15625-0.21875l0.015625-0.0625z"/>
  </symbol>
  <symbol id="e" overflow="visible">
   <path d="m0.34375-0.92188v-1.4375h0.75v0.23438 0.48438 0.375c0 0.19922 0.003906 0.33984 0.015625 0.42188 0.007813 0.085938 0.023437 0.14062 0.046875 0.17188 0.03125 0.054687 0.070312 0.09375 0.125 0.125 0.050781 0.023437 0.10938 0.03125 0.17188 0.03125 0.15625 0 0.28125-0.054687 0.375-0.17188 0.09375-0.125 0.14062-0.29688 0.14062-0.51562v-1.1562h0.75v2.3594h-0.75v-0.34375c-0.11719 0.13672-0.24219 0.24219-0.375 0.3125-0.125 0.0625-0.26562 0.09375-0.42188 0.09375-0.27344 0-0.48047-0.082031-0.625-0.25-0.13672-0.16406-0.20312-0.41016-0.20312-0.73438z"/>
  </symbol>
  <symbol id="t" overflow="visible">
   <path d="m0.25-2.3594h2.0625v0.51562l-1.25 1.2969h1.25v0.54688h-2.125v-0.53125l1.25-1.2969h-1.1875z"/>
  </symbol>
  <symbol id="i" overflow="visible">
   <path d="m0.35938-2.3594h0.76562v2.3594h-0.76562zm0-0.92188h0.76562v0.60938h-0.76562z"/>
  </symbol>
  <symbol id="s" overflow="visible">
   <path d="m2.2188-2.2969v0.57812c-0.16797-0.0625-0.32812-0.10938-0.48438-0.14062-0.14844-0.039063-0.28906-0.0625-0.42188-0.0625-0.14844 0-0.25781 0.023437-0.32812 0.0625-0.0625 0.03125-0.09375 0.085937-0.09375 0.15625 0 0.0625 0.023437 0.10938 0.078125 0.14062 0.050781 0.03125 0.14453 0.058594 0.28125 0.078125l0.14062 0.015625c0.38281 0.054688 0.64453 0.13672 0.78125 0.25 0.13281 0.10547 0.20312 0.27734 0.20312 0.51562 0 0.26172-0.09375 0.45312-0.28125 0.57812s-0.46484 0.1875-0.82812 0.1875c-0.15625 0-0.32031-0.015625-0.48438-0.046875-0.16797-0.019531-0.33984-0.054688-0.51562-0.10938v-0.5625c0.14453 0.074219 0.29688 0.13281 0.45312 0.17188 0.16406 0.03125 0.32812 0.046875 0.48438 0.046875 0.14453 0 0.25391-0.019531 0.32812-0.0625 0.082031-0.039062 0.125-0.10156 0.125-0.1875 0-0.0625-0.027344-0.10938-0.078125-0.14062-0.054687-0.039063-0.15625-0.066406-0.3125-0.078125l-0.125-0.03125c-0.34375-0.039062-0.58594-0.11328-0.71875-0.21875-0.13672-0.11328-0.20312-0.28906-0.20312-0.53125 0-0.25 0.082031-0.42969 0.25-0.54688 0.17578-0.125 0.44141-0.1875 0.79688-0.1875 0.14453 0 0.28906 0.011719 0.4375 0.03125 0.15625 0.023437 0.32812 0.054687 0.51562 0.09375z"/>
  </symbol>
  <symbol id="h" overflow="visible">
   <path d="m1.9219-3.2812v0.48438h-0.42188c-0.10547 0-0.17969 0.023437-0.21875 0.0625-0.042969 0.042969-0.0625 0.10938-0.0625 0.20312v0.17188h0.64062v0.53125h-0.64062v1.8281h-0.76562v-1.8281h-0.375v-0.53125h0.375v-0.17188c0-0.25781 0.070313-0.44531 0.21875-0.5625 0.14453-0.125 0.36719-0.1875 0.67188-0.1875z"/>
  </symbol>
  <symbol id="d" overflow="visible">
   <path d="m1.4844-1.8906c-0.16797 0-0.29688 0.0625-0.39062 0.1875-0.085938 0.125-0.125 0.29688-0.125 0.51562 0 0.23047 0.039062 0.40625 0.125 0.53125 0.09375 0.11719 0.22266 0.17188 0.39062 0.17188 0.16406 0 0.28906-0.054687 0.375-0.17188 0.09375-0.125 0.14062-0.30078 0.14062-0.53125 0-0.21875-0.046875-0.39062-0.14062-0.51562-0.085937-0.125-0.21094-0.1875-0.375-0.1875zm0-0.53125c0.40625 0 0.72266 0.10938 0.95312 0.32812 0.22656 0.21875 0.34375 0.52344 0.34375 0.90625 0 0.39844-0.11719 0.70312-0.34375 0.92188-0.23047 0.21875-0.54688 0.32812-0.95312 0.32812s-0.72656-0.10938-0.95312-0.32812c-0.23047-0.21875-0.34375-0.52344-0.34375-0.92188 0-0.38281 0.11328-0.6875 0.34375-0.90625 0.22656-0.21875 0.54688-0.32812 0.95312-0.32812z"/>
  </symbol>
  <symbol id="r" overflow="visible">
   <path d="m2.5625-1.9688c0.09375-0.14453 0.20312-0.25391 0.32812-0.32812 0.13281-0.082031 0.28125-0.125 0.4375-0.125 0.26953 0 0.47656 0.085937 0.625 0.25 0.14453 0.16797 0.21875 0.41406 0.21875 0.73438v1.4375h-0.76562v-1.2344-0.0625-0.078125c0-0.16406-0.027344-0.28516-0.078125-0.35938-0.042969-0.082031-0.12109-0.125-0.23438-0.125-0.14844 0-0.26172 0.0625-0.34375 0.1875-0.074219 0.11719-0.10938 0.28906-0.10938 0.51562v1.1562h-0.75v-1.2344c0-0.25781-0.027344-0.42578-0.078125-0.5-0.042969-0.082031-0.12109-0.125-0.23438-0.125-0.14844 0-0.26172 0.0625-0.34375 0.1875-0.074219 0.11719-0.10938 0.28125-0.10938 0.5v1.1719h-0.76562v-2.3594h0.76562v0.34375c0.09375-0.13281 0.19531-0.23438 0.3125-0.29688 0.125-0.070312 0.25781-0.10938 0.40625-0.10938 0.15625 0 0.29688 0.042969 0.42188 0.125 0.125 0.074219 0.22266 0.18359 0.29688 0.32812z"/>
  </symbol>
  <symbol id="q" overflow="visible">
   <path d="m2.75-1.4375v1.4375h-0.76562v-1.0938c0-0.20703-0.007813-0.34766-0.015625-0.42188-0.011719-0.082031-0.027344-0.14453-0.046875-0.1875-0.03125-0.039063-0.074219-0.078125-0.125-0.10938-0.054687-0.03125-0.10938-0.046875-0.17188-0.046875-0.15625 0-0.28125 0.0625-0.375 0.1875-0.085938 0.125-0.125 0.29297-0.125 0.5v1.1719h-0.76562v-3.2812h0.76562v1.2656c0.11328-0.14453 0.23438-0.25 0.35938-0.3125s0.26562-0.09375 0.42188-0.09375c0.26953 0 0.47656 0.085937 0.625 0.25 0.14453 0.16797 0.21875 0.41406 0.21875 0.73438z"/>
  </symbol>
  <symbol id="p" overflow="visible">
   <path d="m0.39062-3.1562h0.92188l1.1406 2.1719v-2.1719h0.76562v3.1562h-0.90625l-1.1406-2.1719v2.1719h-0.78125z"/>
  </symbol>
  <symbol id="o" overflow="visible">
   <path d="m2.75-1.4375v1.4375h-0.76562v-1.1094c0-0.19531-0.007813-0.33203-0.015625-0.40625-0.011719-0.082031-0.027344-0.14453-0.046875-0.1875-0.03125-0.039063-0.074219-0.078125-0.125-0.10938-0.054687-0.03125-0.10938-0.046875-0.17188-0.046875-0.15625 0-0.28125 0.0625-0.375 0.1875-0.085938 0.125-0.125 0.29297-0.125 0.5v1.1719h-0.76562v-2.3594h0.76562v0.34375c0.11328-0.14453 0.23438-0.25 0.35938-0.3125s0.26562-0.09375 0.42188-0.09375c0.26953 0 0.47656 0.085937 0.625 0.25 0.14453 0.16797 0.21875 0.41406 0.21875 0.73438z"/>
  </symbol>
  <symbol id="n" overflow="visible">
   <path d="m0.39062-3.1562h1.3594c0.39453 0 0.70312 0.089844 0.92188 0.26562 0.21875 0.17969 0.32812 0.43359 0.32812 0.76562 0 0.33594-0.10938 0.58984-0.32812 0.76562-0.21875 0.17969-0.52734 0.26562-0.92188 0.26562h-0.53125v1.0938h-0.82812zm0.82812 0.59375v0.875h0.4375c0.15625 0 0.27344-0.035156 0.35938-0.10938 0.09375-0.082031 0.14062-0.19141 0.14062-0.32812 0-0.14453-0.046875-0.25391-0.14062-0.32812-0.085937-0.070313-0.20312-0.10938-0.35938-0.10938z"/>
  </symbol>
  <symbol id="m" overflow="visible">
   <path d="m0.35938-2.3594h0.76562v2.3125c0 0.32031-0.078125 0.56641-0.23438 0.73438-0.15625 0.16406-0.375 0.25-0.65625 0.25h-0.375v-0.5h0.125c0.14453 0 0.24219-0.03125 0.29688-0.09375 0.050781-0.0625 0.078125-0.19531 0.078125-0.39062zm0-0.92188h0.76562v0.60938h-0.76562z"/>
  </symbol>
  <symbol id="l" overflow="visible">
   <path d="m2.2812-2.2969v0.625c-0.10547-0.070313-0.21094-0.125-0.3125-0.15625-0.10547-0.039063-0.21484-0.0625-0.32812-0.0625-0.21094 0-0.375 0.0625-0.5 0.1875-0.11719 0.125-0.17188 0.29688-0.17188 0.51562 0 0.23047 0.054688 0.40625 0.17188 0.53125 0.125 0.11719 0.28906 0.17188 0.5 0.17188 0.125 0 0.23828-0.015625 0.34375-0.046875 0.10156-0.03125 0.20312-0.082031 0.29688-0.15625v0.625c-0.125 0.042969-0.25 0.070312-0.375 0.09375-0.11719 0.019531-0.23438 0.03125-0.35938 0.03125-0.42969 0-0.76172-0.10938-1-0.32812-0.24219-0.21875-0.35938-0.52344-0.35938-0.92188 0-0.38281 0.11719-0.6875 0.35938-0.90625 0.23828-0.21875 0.57031-0.32812 1-0.32812 0.125 0 0.24219 0.011719 0.35938 0.03125 0.125 0.023437 0.25 0.054687 0.375 0.09375z"/>
  </symbol>
 </defs>
 <g>
  <path d="m175 0h72.594c18.137 0 32.84 18.137 32.84 32.84v494.32c0 18.137-14.703 32.84-32.84 32.84h-72.594c-18.137 0-32.84-18.137-32.84-32.84v-494.32c0-18.137 14.703-32.84 32.84-32.84z" fill-rule="evenodd"/>
  <path d="m453.27 0h72.594c18.137 0 32.84 18.137 32.84 32.84v494.32c0 18.137-14.703 32.84-32.84 32.84h-72.594c-18.137 0-32.84-18.137-32.84-32.84v-494.32c0-18.137 14.703-32.84 32.84-32.84z" fill-rule="evenodd"/>
  <use x="142.160156" y="572.964844" xlink:href="#u"/>
  <use x="145.332031" y="572.964844" xlink:href="#b"/>
  <use x="147.460938" y="572.964844" xlink:href="#a"/>
  <use x="150.394531" y="572.964844" xlink:href="#g"/>
  <use x="153.308594" y="572.964844" xlink:href="#c"/>
  <use x="155.375" y="572.964844" xlink:href="#a"/>
  <use x="158.304688" y="572.964844" xlink:href="#k"/>
  <use x="162.902344" y="572.964844" xlink:href="#j"/>
  <use x="165.996094" y="572.964844" xlink:href="#f"/>
  <use x="170.316406" y="572.964844" xlink:href="#e"/>
  <use x="173.394531" y="572.964844" xlink:href="#t"/>
  <use x="175.90625" y="572.964844" xlink:href="#a"/>
  <use x="178.839844" y="572.964844" xlink:href="#i"/>
  <use x="180.320312" y="572.964844" xlink:href="#b"/>
  <use x="183.953125" y="572.964844" xlink:href="#s"/>
  <use x="186.527344" y="572.964844" xlink:href="#f"/>
  <use x="189.34375" y="572.964844" xlink:href="#g"/>
  <use x="192.257812" y="572.964844" xlink:href="#b"/>
  <use x="194.390625" y="572.964844" xlink:href="#i"/>
  <use x="195.871094" y="572.964844" xlink:href="#a"/>
  <use x="198.800781" y="572.964844" xlink:href="#h"/>
  <use x="142.160156" y="577.285156" xlink:href="#h"/>
  <use x="144.039062" y="577.285156" xlink:href="#b"/>
  <use x="146.171875" y="577.285156" xlink:href="#d"/>
  <use x="149.140625" y="577.285156" xlink:href="#r"/>
  <use x="155.148438" y="577.285156" xlink:href="#c"/>
  <use x="157.210938" y="577.285156" xlink:href="#q"/>
  <use x="160.289062" y="577.285156" xlink:href="#a"/>
  <use x="164.722656" y="577.285156" xlink:href="#p"/>
  <use x="168.339844" y="577.285156" xlink:href="#d"/>
  <use x="171.308594" y="577.285156" xlink:href="#e"/>
  <use x="174.382812" y="577.285156" xlink:href="#o"/>
  <use x="178.964844" y="577.285156" xlink:href="#n"/>
  <use x="182.132812" y="577.285156" xlink:href="#b"/>
  <use x="184.261719" y="577.285156" xlink:href="#d"/>
  <use x="187.230469" y="577.285156" xlink:href="#m"/>
  <use x="188.710938" y="577.285156" xlink:href="#a"/>
  <use x="191.644531" y="577.285156" xlink:href="#l"/>
  <use x="194.203125" y="577.285156" xlink:href="#c"/>
 </g>
</svg>
