<?xml version="1.0" encoding="UTF-8" standalone="no"?>
<svg
   width="500pt"
   height="500pt"
   version="1.1"
   viewBox="0 0 499.99999 500"
   id="svg2203"
   sodipodi:docname="presentation.svg"
   inkscape:version="1.2 (1:1.2+202206011327+fc4e4096c5)"
   xmlns:inkscape="http://www.inkscape.org/namespaces/inkscape"
   xmlns:sodipodi="http://sodipodi.sourceforge.net/DTD/sodipodi-0.dtd"
   xmlns="http://www.w3.org/2000/svg"
   xmlns:svg="http://www.w3.org/2000/svg">
  <defs
     id="defs2207" />
  <sodipodi:namedview
     id="namedview2205"
     pagecolor="#ffffff"
     bordercolor="#666666"
     borderopacity="1.0"
     inkscape:showpageshadow="2"
     inkscape:pageopacity="0.0"
     inkscape:pagecheckerboard="0"
     inkscape:deskcolor="#d1d1d1"
     inkscape:document-units="pt"
     showgrid="false"
     inkscape:zoom="1.0114286"
     inkscape:cx="378.67232"
     inkscape:cy="305.50847"
     inkscape:window-width="1920"
     inkscape:window-height="1009"
     inkscape:window-x="0"
     inkscape:window-y="34"
     inkscape:window-maximized="1"
     inkscape:current-layer="svg2203" />
  <path
     style="fill:#ffe32b;fill-opacity:1;stroke:#000000;stroke-width:0.75px;stroke-linecap:butt;stroke-linejoin:miter;stroke-opacity:1"
     d="m 225.25804,463.87809 1.19688,-24.66513 23.80508,-13.67414 28.01444,19.03766 -4.31885,24.22816 -31.83947,13.4205 z"
     id="path3417" />
  <path
     style="fill:#ffe32b;fill-opacity:1;stroke:#000000;stroke-width:0.75px;stroke-linecap:butt;stroke-linejoin:miter;stroke-opacity:1"
     d="m 31.854818,364.01787 435.052802,-3.83186 -2.61254,-296.628299 24.6855,7.5e-4 -1.68653,-39.965908 -477.3000418,0.990406 1.8151898,40.557079 23.3914,1.916408 z"
     id="path2326" />
  <path
     d="m 12.529948,15.167233 c -4.4765998,0.44922 -7.8827997,4.2188 -7.8788997,8.7148 v 40.109 c -0.0117,2.332 0.9140599,4.5742 2.5624999,6.2227 1.6484,1.6484 3.8866998,2.5703 6.2187998,2.5625 h 12.086 V 354.39623 h -12.086 c -0.30078,-0.0156 -0.60156,-0.0156 -0.90234,0 -4.7538998,0.34766 -8.3554997,4.4336 -8.1093997,9.1914 0.2461,4.7578 4.2499999,8.4492 9.0116997,8.3086 H 241.25231 v 48.125 c -15.293,3.9297 -26.746,17.766 -26.746,34.23 0,19.484 15.977,35.461 35.461,35.461 19.484,0 35.461,-15.977 35.461,-35.461 0,-16.461 -11.457,-30.297 -26.746,-34.23 v -48.125 h 227.83 c 4.7578,-0.10547 8.5586,-3.9922 8.5586,-8.75 0,-4.7578 -3.8008,-8.6445 -8.5586,-8.75 h -12.082 V 72.776233 h 12.082 c 2.332,0.008 4.5742,-0.91406 6.2227,-2.5625 1.6484,-1.6484 2.5703,-3.8906 2.5625,-6.2227 v -40.109 c -0.0195,-4.832 -3.9531,-8.7344 -8.7852,-8.7148 H 13.432308 c -0.29297,-0.01563 -0.58984,-0.01563 -0.88672,0 z m 9.6367,17.449 H 477.78665 v 22.66 H 22.166648 Z m 20.852,40.16 H 456.92865 V 354.39623 H 43.018648 Z m 69.965002,71.382997 c -4.75,0.33594 -8.3633,4.4023 -8.1367,9.1602 0.22656,4.7578 4.2109,8.4609 8.9727,8.3398 h 43.34 c 2.3555,0.0547 4.6328,-0.84375 6.3164,-2.4922 1.6836,-1.6445 2.6328,-3.9023 2.6328,-6.2578 0,-2.3516 -0.94922,-4.6094 -2.6328,-6.2539 -1.6836,-1.6484 -3.9609,-2.5469 -6.3164,-2.4961 h -43.34 c -0.27734,-0.0117 -0.55859,-0.0117 -0.83594,0 z m 83.52,0 h -0.004 c -4.75,0.33594 -8.3633,4.4023 -8.1328,9.1602 0.22656,4.7578 4.2109,8.4609 8.9727,8.3398 h 184.07 c 2.3555,0.0547 4.6289,-0.84375 6.3125,-2.4922 1.6836,-1.6445 2.6328,-3.9023 2.6328,-6.2578 0,-2.3516 -0.94922,-4.6094 -2.6328,-6.2539 -1.6836,-1.6484 -3.957,-2.5469 -6.3125,-2.4961 h -184.07 c -0.28125,-0.0117 -0.55859,-0.0117 -0.83984,0 z m -82.68,60.652 h -0.004 c -2.3555,-0.0508 -4.6289,0.84766 -6.3125,2.4961 -1.6836,1.6445 -2.6328,3.8984 -2.6328,6.2539 0,2.3555 0.94922,4.6133 2.6328,6.2578 1.6836,1.6484 3.957,2.5469 6.3125,2.4922 h 43.34 c 2.3555,0.0547 4.6328,-0.84375 6.3125,-2.4922 1.6836,-1.6445 2.6328,-3.9023 2.6328,-6.2578 0,-2.3555 -0.94922,-4.6094 -2.6328,-6.2539 -1.6797,-1.6484 -3.957,-2.5469 -6.3125,-2.4961 z m 83.52,0 h -0.004 c -2.3555,-0.0508 -4.6328,0.84766 -6.3125,2.4961 -1.6836,1.6445 -2.6328,3.8984 -2.6328,6.2539 0,2.3555 0.94922,4.6133 2.6328,6.2578 1.6797,1.6484 3.957,2.5469 6.3125,2.4922 h 184.07 c 2.3555,0.0547 4.6289,-0.84375 6.3125,-2.4922 1.6836,-1.6445 2.6328,-3.9023 2.6328,-6.2578 0,-2.3555 -0.94922,-4.6094 -2.6328,-6.2539 -1.6836,-1.6484 -3.957,-2.5469 -6.3125,-2.4961 z m -83.52,60.703 h -0.004 c -2.3242,0 -4.5547,0.92188 -6.1992,2.5625 -1.6445,1.6445 -2.5664,3.8711 -2.5664,6.1992 0,2.3242 0.92188,4.5508 2.5664,6.1953 1.6445,1.6406 3.875,2.5625 6.1992,2.5625 h 43.34 c 2.3242,0 4.5547,-0.92188 6.1992,-2.5625 1.6445,-1.6445 2.5703,-3.8711 2.5703,-6.1953 0,-2.3281 -0.92578,-4.5547 -2.5703,-6.1992 -1.6445,-1.6406 -3.875,-2.5625 -6.1992,-2.5625 z m 83.52,0 h -0.004 c -2.3242,0 -4.5547,0.92188 -6.1992,2.5625 -1.6445,1.6445 -2.5703,3.8711 -2.5703,6.1992 0,2.3242 0.92578,4.5508 2.5703,6.1953 1.6445,1.6406 3.875,2.5625 6.1992,2.5625 h 184.07 c 2.3242,0 4.5547,-0.92188 6.1992,-2.5625 1.6445,-1.6445 2.5664,-3.8711 2.5664,-6.1953 0,-2.3281 -0.92188,-4.5547 -2.5664,-6.1992 -1.6445,-1.6406 -3.875,-2.5625 -6.1992,-2.5625 z m 49.953,171.05 -0.004,0.004 c 1.7383,0.55859 3.6094,0.55859 5.3477,0 8.7227,1.2695 15.297,8.5742 15.297,17.688 0,10.027 -7.9336,17.961 -17.961,17.961 -10.0274,0 -17.961,-7.9336 -17.961,-17.961 0,-9.1094 6.5625,-16.41 15.277,-17.688 z"
     id="path2201" />
</svg>
