<?xml version="1.0" encoding="UTF-8" standalone="no"?>
<svg
   width="560pt"
   height="560.19202pt"
   version="1.1"
   viewBox="0 0 560 560.19202"
   id="svg4"
   sodipodi:docname="noun-document-4919623.svg"
   inkscape:version="1.2 (1:1.2+202206011327+fc4e4096c5)"
   xmlns:inkscape="http://www.inkscape.org/namespaces/inkscape"
   xmlns:sodipodi="http://sodipodi.sourceforge.net/DTD/sodipodi-0.dtd"
   xmlns="http://www.w3.org/2000/svg"
   xmlns:svg="http://www.w3.org/2000/svg">
  <defs
     id="defs8" />
  <sodipodi:namedview
     id="namedview6"
     pagecolor="#ffffff"
     bordercolor="#666666"
     borderopacity="1.0"
     inkscape:showpageshadow="2"
     inkscape:pageopacity="0.0"
     inkscape:pagecheckerboard="0"
     inkscape:deskcolor="#d1d1d1"
     inkscape:document-units="pt"
     showgrid="false"
     inkscape:zoom="1.0114286"
     inkscape:cx="425.14124"
     inkscape:cy="276.83616"
     inkscape:window-width="1920"
     inkscape:window-height="1009"
     inkscape:window-x="0"
     inkscape:window-y="34"
     inkscape:window-maximized="1"
     inkscape:current-layer="svg4" />
  <path
     style="fill:#ffe32b;stroke:#000000;stroke-width:0.75px;stroke-linecap:butt;stroke-linejoin:miter;stroke-opacity:1;fill-opacity:1"
     d="M 466.83782,543.60883 38.460091,539.50958 50.08983,72.933466 125.94722,48.378559 170.18836,12.731594 416.57245,24.847551 518.37442,113.8657 l 0.1557,343.49088 -45.49755,13.23231 z"
     id="path401" />
  <path
     d="m 532.91598,99.313333 -43.49475,-38.078 -11.30204,-10.078 -51.60248,-44.8049999 c -1.91865,-1.6797 -4.26564,-2.9883 -6.82234,-4.1055 -2.55671,-0.93359 -5.33205,-1.49220003 -8.31698,-1.49220003 l -278.47018,-0.00391 c -11.72639,0 -21.32361,8.39840003 -21.32361,18.66799993 v 18.668 H 47.617357 c -11.726382,0 -21.323603,8.3984 -21.323603,18.668 l 0.0046,485.520007 c 0,10.266 9.593109,18.668 21.323603,18.668 H 474.05973 c 11.72639,0 21.32361,-8.3984 21.32361,-18.668 v -56 h 22.39046 c 11.72639,0 21.32361,-8.3984 21.32361,-18.668 l -0.009,-355.04 c 0,-5.0391 -2.34699,-9.707 -6.18428,-13.254007 z m -100.21453,-34.719 6.18427,5.4141 11.08787,9.8945 16.4199,14.375 h -33.90211 v -29.68 z M 452.74458,523.60434 H 68.947129 V 75.604333 H 111.58977 V 467.60434 c 0,10.266 9.59311,18.668 21.32361,18.668 h 319.8312 z m 21.32361,-74.668 H 154.23698 V 38.266333 h 235.8184 v 74.668007 c 0,10.266 9.59311,18.668 21.3236,18.668 h 85.0751 l -0.005,317.33 h -22.39047 z m -21.32361,-242.67 c 0,10.266 -9.59311,18.668 -21.3236,18.668 H 218.20779 c -11.72638,0 -21.3236,-8.3984 -21.3236,-18.668 0,-10.266 9.5931,-18.668 21.3236,-18.668 H 431.4324 c 11.72638,0 21.3236,8.3984 21.3236,18.668 z m 0,74.668 c 0,10.266 -9.59311,18.668 -21.3236,18.668 H 218.20779 c -11.72638,0 -21.3236,-8.3984 -21.3236,-18.668 0,-10.266 9.5931,-18.668 21.3236,-18.668 H 431.4324 c 11.72638,0 21.3236,8.3984 21.3236,18.668 z m 0,74.668 c 0,10.266 -9.59311,18.668 -21.3236,18.668 l -213.21319,-0.004 c -11.72638,0 -21.3236,-8.3984 -21.3236,-18.668 0,-10.266 9.5931,-18.668 21.3236,-18.668 H 431.4324 c 11.72638,0 21.3236,8.3984 21.3236,18.668 z"
     id="path2"
     style="stroke-width:1.06876" />
</svg>
