<?xml version="1.0" encoding="UTF-8" standalone="no"?>
<svg
   width="600pt"
   height="600pt"
   version="1.1"
   viewBox="0 0 600 600"
   id="svg3097"
   sodipodi:docname="social.svg"
   inkscape:version="1.2 (1:1.2+202206011327+fc4e4096c5)"
   xmlns:inkscape="http://www.inkscape.org/namespaces/inkscape"
   xmlns:sodipodi="http://sodipodi.sourceforge.net/DTD/sodipodi-0.dtd"
   xmlns="http://www.w3.org/2000/svg"
   xmlns:svg="http://www.w3.org/2000/svg">
  <sodipodi:namedview
     id="namedview3099"
     pagecolor="#ffffff"
     bordercolor="#666666"
     borderopacity="1.0"
     inkscape:showpageshadow="2"
     inkscape:pageopacity="0.0"
     inkscape:pagecheckerboard="0"
     inkscape:deskcolor="#d1d1d1"
     inkscape:document-units="pt"
     showgrid="false"
     inkscape:zoom="0.50571429"
     inkscape:cx="316.38418"
     inkscape:cy="676.27118"
     inkscape:window-width="1920"
     inkscape:window-height="1009"
     inkscape:window-x="0"
     inkscape:window-y="34"
     inkscape:window-maximized="1"
     inkscape:current-layer="g3095" />
  <defs
     id="defs3001">
    <symbol
       id="h"
       overflow="visible">
      <path
         d="m 14.656,-0.875 c -0.76172,0.39844 -1.5547,0.69531 -2.375,0.89062 -0.8125,0.19531 -1.6641,0.29688 -2.5469,0.29688 -2.6562,0 -4.7617,-0.73828 -6.3125,-2.2188 -1.5547,-1.4883 -2.3281,-3.5039 -2.3281,-6.0469 0,-2.5508 0.77344,-4.5664 2.3281,-6.0469 1.5508,-1.4883 3.6562,-2.2344 6.3125,-2.2344 0.88281,0 1.7344,0.10156 2.5469,0.29688 0.82031,0.19922 1.6133,0.49609 2.375,0.89062 v 3.2969 c -0.76172,-0.51953 -1.5117,-0.89844 -2.25,-1.1406 -0.74219,-0.23828 -1.5234,-0.35938 -2.3438,-0.35938 -1.4688,0 -2.625,0.46875 -3.4688,1.4062 -0.83594,0.9375 -1.25,2.2344 -1.25,3.8906 0,1.6484 0.41406,2.9375 1.25,3.875 0.84375,0.9375 2,1.4062 3.4688,1.4062 0.82031,0 1.6016,-0.11719 2.3438,-0.35938 0.73828,-0.23828 1.4883,-0.61719 2.25,-1.1406 z"
         id="path2923" />
    </symbol>
    <symbol
       id="c"
       overflow="visible">
      <path
         d="m 10.719,-8.7031 c -0.33594,-0.15625 -0.66797,-0.26953 -1,-0.34375 -0.32422,-0.082031 -0.65625,-0.125 -1,-0.125 -0.98047,0 -1.7344,0.32031 -2.2656,0.95312 -0.53125,0.625 -0.79688,1.5273 -0.79688,2.7031 V -3e-5 h -3.8125 v -11.969 h 3.8125 v 1.9688 c 0.48828,-0.78125 1.0508,-1.3477 1.6875,-1.7031 0.64453,-0.36328 1.4102,-0.54688 2.2969,-0.54688 0.13281,0 0.27344,0.0078 0.42188,0.01563 0.14453,0.01172 0.36328,0.03125 0.65625,0.0625 z"
         id="path2926" />
    </symbol>
    <symbol
       id="a"
       overflow="visible">
      <path
         d="m 13.781,-6.0156 v 1.0938 H 4.8435 c 0.09375,0.89844 0.41406,1.5703 0.96875,2.0156 0.55078,0.44922 1.3281,0.67188 2.3281,0.67188 0.80078,0 1.625,-0.11719 2.4688,-0.35938 0.84375,-0.23828 1.7109,-0.59766 2.6094,-1.0781 v 2.9531 c -0.90625,0.33594 -1.8125,0.58984 -2.7188,0.76562 -0.9063,0.17578 -1.8125,0.26562 -2.7188,0.26562 -2.1562,0 -3.8398,-0.54688 -5.0469,-1.6406 -1.1992,-1.1016 -1.7969,-2.6484 -1.7969,-4.6406 0,-1.9453 0.58594,-3.4766 1.7656,-4.5938 1.1758,-1.125 2.8008,-1.6875 4.875,-1.6875 1.875,0 3.375,0.57031 4.5,1.7031 1.1328,1.125 1.7031,2.6367 1.7031,4.5312 z M 9.8435,-7.2812 c 0,-0.72656 -0.21484,-1.3125 -0.64062,-1.75 -0.41797,-0.44531 -0.96875,-0.67188 -1.6562,-0.67188 -0.74219,0 -1.3438,0.21094 -1.8125,0.625 -0.46094,0.41797 -0.74609,1.0156 -0.85938,1.7969 z"
         id="path2929" />
    </symbol>
    <symbol
       id="m"
       overflow="visible">
      <path
         d="m 7.2031,-5.3906 c -0.80469,0 -1.4062,0.13672 -1.8125,0.40625 -0.39844,0.27344 -0.59375,0.67188 -0.59375,1.2031 0,0.48047 0.16016,0.85938 0.48438,1.1406 0.32031,0.27344 0.77344,0.40625 1.3594,0.40625 0.71875,0 1.3203,-0.25391 1.8125,-0.76562 0.48828,-0.51953 0.73438,-1.1719 0.73438,-1.9531 v -0.4375 z m 5.8438,-1.4375 V 0 H 9.1875 v -1.7656 c -0.51172,0.71875 -1.0898,1.2461 -1.7344,1.5781 -0.63672,0.33203 -1.418,0.5 -2.3438,0.5 -1.2422,0 -2.2461,-0.35938 -3.0156,-1.0781 -0.77344,-0.72656 -1.1562,-1.6719 -1.1562,-2.8281 0,-1.3945 0.47656,-2.4219 1.4375,-3.0781 0.96875,-0.65625 2.4883,-0.98438 4.5625,-0.98438 h 2.25 v -0.29688 c 0,-0.60156 -0.24219,-1.0469 -0.71875,-1.3281 -0.48047,-0.28125 -1.2266,-0.42188 -2.2344,-0.42188 -0.8125,0 -1.5742,0.085937 -2.2812,0.25 -0.71094,0.15625 -1.3672,0.40234 -1.9688,0.73438 v -2.9219 c 0.82031,-0.19531 1.6445,-0.34766 2.4688,-0.45312 0.82031,-0.10156 1.6484,-0.15625 2.4844,-0.15625 2.1562,0 3.7109,0.42969 4.6719,1.2812 0.95703,0.84375 1.4375,2.2266 1.4375,4.1406 z"
         id="path2932" />
    </symbol>
    <symbol
       id="b"
       overflow="visible">
      <path
         d="m 6.0156,-15.359 v 3.3906 H 9.9531 V -9.234 H 6.0156 v 5.0781 c 0,0.55469 0.10938,0.92969 0.32812,1.125 0.21875,0.19922 0.65625,0.29688 1.3125,0.29688 h 1.9688 v 2.7344 h -3.2812 c -1.5117,0 -2.5859,-0.3125 -3.2188,-0.9375 -0.625,-0.63281 -0.9375,-1.707 -0.9375,-3.2188 v -5.0781 h -1.9062 v -2.7344 h 1.9062 v -3.3906 z"
         id="path2935" />
    </symbol>
    <symbol
       id="l"
       overflow="visible">
      <path
         d="m 9.9688,-10.219 v -6.4062 h 3.8594 V -2e-4 H 9.9688 V -1.7346 C 9.44536,-1.02366 8.8672,-0.5041 8.2344,-0.1721 7.59768,0.14821 6.8633,0.31228 6.0313,0.31228 c -1.4688,0 -2.6797,-0.58203 -3.625,-1.75 -0.94922,-1.1758 -1.4219,-2.6875 -1.4219,-4.5312 0,-1.8437 0.47266,-3.3477 1.4219,-4.5156 0.94531,-1.1758 2.1562,-1.7656 3.625,-1.7656 0.83203,0 1.5664,0.16797 2.2031,0.5 0.63281,0.32422 1.2109,0.83594 1.7344,1.5312 z m -2.5156,7.75 c 0.82031,0 1.4453,-0.29688 1.875,-0.89062 0.42578,-0.60156 0.64062,-1.4727 0.64062,-2.6094 0,-1.1445 -0.21484,-2.0156 -0.64062,-2.6094 -0.42969,-0.59375 -1.0547,-0.89062 -1.875,-0.89062 -0.8125,0 -1.4336,0.29688 -1.8594,0.89062 -0.42969,0.59375 -0.64062,1.4648 -0.64062,2.6094 0,1.1367 0.21094,2.0078 0.64062,2.6094 0.42578,0.59375 1.0469,0.89062 1.8594,0.89062 z"
         id="path2938" />
    </symbol>
    <symbol
       id="k"
       overflow="visible">
      <path
         d="m 8.2031,-2.4688 c 0.82031,0 1.4453,-0.29688 1.875,-0.89062 0.42578,-0.60156 0.64062,-1.4727 0.64062,-2.6094 0,-1.1445 -0.21484,-2.0156 -0.64062,-2.6094 -0.42969,-0.59375 -1.0547,-0.89062 -1.875,-0.89062 -0.82422,0 -1.4531,0.30469 -1.8906,0.90625 -0.4375,0.59375 -0.65625,1.4609 -0.65625,2.5938 0,1.1367 0.21875,2.0078 0.65625,2.6094 0.4375,0.59375 1.0664,0.89062 1.8906,0.89062 z m -2.5469,-7.75 c 0.53125,-0.69531 1.1133,-1.207 1.75,-1.5312 0.64453,-0.33203 1.3828,-0.5 2.2188,-0.5 1.4688,0 2.6758,0.58984 3.625,1.7656 0.94531,1.168 1.4219,2.6719 1.4219,4.5156 0,1.8437 -0.47656,3.3555 -1.4219,4.5312 -0.94922,1.168 -2.1562,1.75 -3.625,1.75 -0.83594,0 -1.5742,-0.16797 -2.2188,-0.5 -0.63672,-0.33203 -1.2188,-0.84766 -1.75,-1.5469 V -1e-4 H 1.8437 v -16.625 h 3.8125 z"
         id="path2941" />
    </symbol>
    <symbol
       id="j"
       overflow="visible">
      <path
         d="m 0.26562,-11.969 h 3.8281 l 3.2188,8.125 2.7344,-8.125 h 3.8125 L 8.82822,1.125 c -0.5,1.332 -1.0898,2.2656 -1.7656,2.7969 -0.66797,0.53125 -1.5547,0.79688 -2.6562,0.79688 h -2.2188 v -2.5 h 1.2031 c 0.64453,0 1.1133,-0.10547 1.4062,-0.3125 C 5.0977,1.69534 5.32817,1.32816 5.48442,0.79688 L 5.5938,0.45313 Z"
         id="path2944" />
    </symbol>
    <symbol
       id="i"
       overflow="visible">
      <path
         d="m 0.65625,-15.953 h 3.9375 l 2.75,11.594 2.7344,-11.594 h 3.9688 l 2.7344,11.594 2.75,-11.594 h 3.9062 L 19.68755,0 h -4.75 L 12.04695,-12.125 9.18755,0 h -4.75 z"
         id="path2947" />
    </symbol>
    <symbol
       id="g"
       overflow="visible">
      <path
         d="m 2.0156,-15.953 h 11.094 v 3.1094 H 6.1252 v 2.9688 h 6.5625 v 3.1094 H 6.1252 v 3.6562 H 13.344 V 2e-4 H 2.016 Z"
         id="path2950" />
    </symbol>
    <symbol
       id="z"
       overflow="visible">
      <path
         d="m 8.3906,-9.7656 c 0.65625,0 1.1484,-0.14062 1.4844,-0.42188 0.33203,-0.28906 0.5,-0.71094 0.5,-1.2656 0,-0.55078 -0.16797,-0.97266 -0.5,-1.2656 -0.33594,-0.28906 -0.82812,-0.4375 -1.4844,-0.4375 H 6.125 v 3.3906 z m 0.14062,6.9688 c 0.82031,0 1.4414,-0.17188 1.8594,-0.51562 0.41406,-0.35156 0.625,-0.88281 0.625,-1.5938 0,-0.6875 -0.21094,-1.2031 -0.625,-1.5469 -0.40625,-0.34375 -1.0273,-0.51562 -1.8594,-0.51562 h -2.4062 v 4.1719 z m 3.8281,-5.7344 c 0.88281,0.25 1.5664,0.72656 2.0469,1.4219 0.48828,0.6875 0.73438,1.5312 0.73438,2.5312 0,1.543 -0.52344,2.6953 -1.5625,3.4531 C 12.5351,-0.375 10.9531,0 8.8281,0 H 2.0156 v -15.953 h 6.1719 c 2.207,0 3.8047,0.33984 4.7969,1.0156 1,0.66797 1.5,1.7344 1.5,3.2031 0,0.78125 -0.18359,1.4492 -0.54688,2 -0.36719,0.54297 -0.89062,0.94531 -1.5781,1.2031 z"
         id="path2953" />
    </symbol>
    <symbol
       id="y"
       overflow="visible">
      <path
         d="m 0.10938,-15.953 h 14.688 v 3.1094 H 9.51618 V 4e-4 h -4.1094 v -12.844 h -5.2969 z"
         id="path2956" />
    </symbol>
    <symbol
       id="x"
       overflow="visible">
      <path
         d="M 2.0156,-15.953 H 6.125 v 6.0781 h 6.0625 v -6.0781 h 4.1094 V 0 H 12.1875 V -6.7656 H 6.125 V 0 H 2.0156 Z"
         id="path2959" />
    </symbol>
    <symbol
       id="w"
       overflow="visible">
      <path
         d="m 9.2969,-13.25 c -1.2617,0 -2.2344,0.46484 -2.9219,1.3906 -0.6875,0.91797 -1.0312,2.2188 -1.0312,3.9062 0,1.668 0.34375,2.9648 1.0312,3.8906 0.6875,0.92969 1.6602,1.3906 2.9219,1.3906 1.2578,0 2.2344,-0.46094 2.9219,-1.3906 0.6875,-0.92578 1.0312,-2.2227 1.0312,-3.8906 0,-1.6875 -0.34375,-2.9883 -1.0312,-3.9062 -0.6875,-0.92578 -1.6641,-1.3906 -2.9219,-1.3906 z m 0,-2.9844 c 2.5625,0 4.5664,0.73438 6.0156,2.2031 1.457,1.4688 2.1875,3.4961 2.1875,6.0781 0,2.5742 -0.73047,4.5938 -2.1875,6.0625 -1.4492,1.4688 -3.4531,2.2031 -6.0156,2.2031 -2.5625,0 -4.5742,-0.73438 -6.0312,-2.2031 -1.4492,-1.4688 -2.1719,-3.4883 -2.1719,-6.0625 0,-2.582 0.72266,-4.6094 2.1719,-6.0781 1.457,-1.4688 3.4688,-2.2031 6.0312,-2.2031 z"
         id="path2962" />
    </symbol>
    <symbol
       id="e"
       overflow="visible">
      <path
         d="m 2.0156,-15.953 h 6.8125 c 2.0312,0 3.5859,0.45312 4.6719,1.3594 1.0938,0.89844 1.6406,2.1797 1.6406,3.8438 0,1.6797 -0.54688,2.9688 -1.6406,3.875 -1.0859,0.89844 -2.6406,1.3438 -4.6719,1.3438 H 6.125 V 2e-4 H 2.0156 Z m 4.1094,2.9844 v 4.4531 h 2.2656 c 0.80078,0 1.4141,-0.19141 1.8438,-0.57812 0.4375,-0.38281 0.65625,-0.9375 0.65625,-1.6562 0,-0.70703 -0.21875,-1.2539 -0.65625,-1.6406 -0.42969,-0.38281 -1.043,-0.57812 -1.8438,-0.57812 z"
         id="path2965" />
    </symbol>
    <symbol
       id="v"
       overflow="visible">
      <path
         d="m 13.109,-15.438 v 3.375 c -0.875,-0.39453 -1.7305,-0.69141 -2.5625,-0.89062 -0.83594,-0.19531 -1.6211,-0.29688 -2.3594,-0.29688 -0.99219,0 -1.7188,0.13672 -2.1875,0.40625 -0.46875,0.27344 -0.70312,0.6875 -0.70312,1.25 0,0.42969 0.15625,0.76172 0.46875,1 0.32031,0.24219 0.89844,0.44922 1.7344,0.625 l 1.75,0.34375 c 1.7695,0.35547 3.0312,0.89844 3.7812,1.625 0.75,0.73047 1.125,1.7617 1.125,3.0938 0,1.7617 -0.52734,3.0742 -1.5781,3.9375 -1.043,0.85547 -2.6328,1.2812 -4.7656,1.2812 -1.0117,0 -2.0273,-0.10156 -3.0469,-0.29688 -1.0234,-0.1875 -2.043,-0.46875 -3.0625,-0.84375 v -3.4688 c 1.0195,0.53125 2.0039,0.9375 2.9531,1.2188 0.95703,0.27344 1.875,0.40625 2.75,0.40625 0.90625,0 1.5938,-0.14453 2.0625,-0.4375 0.47656,-0.30078 0.71875,-0.73438 0.71875,-1.2969 0,-0.48828 -0.16406,-0.86719 -0.48438,-1.1406 C 9.37848,-5.81691 8.73395,-6.063 7.7652,-6.28176 L 6.1714,-6.64114 c -1.5938,-0.33203 -2.7617,-0.875 -3.5,-1.625 -0.74219,-0.75 -1.1094,-1.7578 -1.1094,-3.0312 0,-1.582 0.50781,-2.8008 1.5312,-3.6562 1.0312,-0.85156 2.5078,-1.2812 4.4375,-1.2812 0.875,0 1.7734,0.07031 2.7031,0.20312 0.92578,0.125 1.8828,0.32422 2.875,0.59375 z"
         id="path2968" />
    </symbol>
    <symbol
       id="f"
       overflow="visible">
      <path
         d="M 2.0156,-15.953 H 6.125 v 12.844 h 7.2188 V 4e-4 H 2.0158 Z"
         id="path2971" />
    </symbol>
    <symbol
       id="u"
       overflow="visible">
      <path
         d="m 9.7031,-16.625 v 2.5156 H 7.5937 c -0.54297,0 -0.92188,0.10156 -1.1406,0.29688 -0.21094,0.19922 -0.3125,0.53906 -0.3125,1.0156 v 0.82812 h 3.2656 v 2.7344 H 6.1406 V 0 H 2.3125 V -9.2344 H 0.4219 v -2.7344 h 1.8906 v -0.82812 c 0,-1.3008 0.36328,-2.2656 1.0938,-2.8906 0.72656,-0.625 1.8516,-0.9375 3.375,-0.9375 z"
         id="path2974" />
    </symbol>
    <symbol
       id="d"
       overflow="visible">
      <path
         d="m 7.5312,-9.5156 c -0.84375,0 -1.4922,0.30859 -1.9375,0.92188 -0.44922,0.60547 -0.67188,1.4805 -0.67188,2.625 0,1.1484 0.22266,2.0273 0.67188,2.6406 0.44531,0.60547 1.0938,0.90625 1.9375,0.90625 0.83203,0 1.4688,-0.30078 1.9062,-0.90625 0.44531,-0.61328 0.67188,-1.4922 0.67188,-2.6406 0,-1.1445 -0.22656,-2.0195 -0.67188,-2.625 C 8.9999,-9.207 8.3632,-9.5156 7.5312,-9.5156 Z m 0,-2.7344 c 2.0508,0 3.6562,0.55859 4.8125,1.6719 1.1641,1.1055 1.75,2.6406 1.75,4.6094 0,1.9688 -0.58594,3.5117 -1.75,4.625 -1.1562,1.1055 -2.7617,1.6562 -4.8125,1.6562 -2.0625,0 -3.6797,-0.55078 -4.8438,-1.6562 -1.168,-1.1133 -1.75,-2.6562 -1.75,-4.625 0,-1.9688 0.58203,-3.5039 1.75,-4.6094 1.1641,-1.1133 2.7812,-1.6719 4.8438,-1.6719 z"
         id="path2977" />
    </symbol>
    <symbol
       id="t"
       overflow="visible">
      <path
         d="m 12.922,-9.9688 c 0.48828,-0.75 1.0625,-1.3164 1.7188,-1.7031 0.66406,-0.38281 1.3984,-0.57812 2.2031,-0.57812 1.375,0 2.4219,0.42969 3.1406,1.2812 0.71875,0.84375 1.0781,2.0742 1.0781,3.6875 v 7.2812 h -3.8438 v -6.2344 c 0.0078,-0.09375 0.01563,-0.1875 0.01563,-0.28125 v -0.4375 c 0,-0.84375 -0.125,-1.457 -0.375,-1.8438 -0.25,-0.38281 -0.65234,-0.57812 -1.2031,-0.57812 -0.73047,0 -1.293,0.30469 -1.6875,0.90625 -0.38672,0.59375 -0.58984,1.4609 -0.60938,2.5938 v 5.875 h -3.8438 v -6.2344 c 0,-1.3203 -0.11719,-2.1758 -0.34375,-2.5625 -0.23047,-0.38281 -0.63672,-0.57812 -1.2188,-0.57812 -0.73047,0 -1.2969,0.30469 -1.7031,0.90625 -0.39844,0.60547 -0.59375,1.4648 -0.59375,2.5781 v 5.8906 h -3.8438 v -11.969 h 3.8438 v 1.75 c 0.46875,-0.66406 1.0039,-1.1719 1.6094,-1.5156 0.61328,-0.34375 1.2891,-0.51562 2.0312,-0.51562 0.82031,0 1.5508,0.19922 2.1875,0.59375 0.63281,0.39844 1.1133,0.96094 1.4375,1.6875 z"
         id="path2980" />
    </symbol>
    <symbol
       id="s"
       overflow="visible">
      <path
         d="M 13.859,-7.2812 V 0 h -3.8438 v -5.5469 c 0,-1.0508 -0.027344,-1.7695 -0.078125,-2.1562 -0.042969,-0.39453 -0.12109,-0.6875 -0.23438,-0.875 -0.14844,-0.25 -0.35156,-0.44141 -0.60938,-0.57812 -0.25,-0.14453 -0.54297,-0.21875 -0.875,-0.21875 -0.79297,0 -1.418,0.3125 -1.875,0.9375 -0.46094,0.61719 -0.6875,1.4648 -0.6875,2.5469 V 3e-5 h -3.8125 v -16.625 h 3.8125 v 6.4062 c 0.58203,-0.69531 1.1953,-1.207 1.8438,-1.5312 0.64453,-0.33203 1.3594,-0.5 2.1406,-0.5 1.3828,0 2.4297,0.42969 3.1406,1.2812 0.71875,0.84375 1.0781,2.0742 1.0781,3.6875 z"
         id="path2983" />
    </symbol>
    <symbol
       id="r"
       overflow="visible">
      <path
         d="m 2.0156,-15.953 h 4.5781 l 5.8125,10.938 v -10.938 h 3.8906 V 0 H 11.703 L 5.9061,-10.938 V 0 H 2.0155 Z"
         id="path2986" />
    </symbol>
    <symbol
       id="q"
       overflow="visible">
      <path
         d="m 1.7031,-4.6562 v -7.3125 h 3.8438 v 1.2031 c 0,0.64844 -0.00781,1.4609 -0.015625,2.4375 v 1.9688 c 0,0.96094 0.023438,1.6523 0.078125,2.0781 0.050781,0.41797 0.13281,0.72656 0.25,0.92188 0.15625,0.25 0.35938,0.44531 0.60938,0.57812 0.25781,0.13672 0.55078,0.20312 0.875,0.20312 0.80078,0 1.4258,-0.30469 1.875,-0.92188 0.45703,-0.61328 0.6875,-1.4688 0.6875,-2.5625 v -5.9062 h 3.8281 v 11.969 h -3.8281 v -1.7344 c -0.57422,0.69922 -1.1836,1.2148 -1.8281,1.5469 -0.64844,0.33203 -1.3555,0.5 -2.125,0.5 -1.3867,0 -2.4453,-0.42188 -3.1719,-1.2656 -0.71875,-0.85156 -1.0781,-2.0859 -1.0781,-3.7031 z"
         id="path2989" />
    </symbol>
    <symbol
       id="p"
       overflow="visible">
      <path
         d="M 13.859,-7.2812 V 0 h -3.8438 v -5.5781 c 0,-1.0312 -0.027344,-1.7383 -0.078125,-2.125 -0.042969,-0.39453 -0.12109,-0.6875 -0.23438,-0.875 -0.14844,-0.25 -0.35156,-0.44141 -0.60938,-0.57812 -0.25,-0.14453 -0.54297,-0.21875 -0.875,-0.21875 -0.79297,0 -1.418,0.3125 -1.875,0.9375 -0.46094,0.61719 -0.6875,1.4648 -0.6875,2.5469 V 3e-5 h -3.8125 v -11.969 h 3.8125 v 1.75 c 0.58203,-0.69531 1.1953,-1.207 1.8438,-1.5312 0.64453,-0.33203 1.3594,-0.5 2.1406,-0.5 1.3828,0 2.4297,0.42969 3.1406,1.2812 0.71875,0.84375 1.0781,2.0742 1.0781,3.6875 z"
         id="path2992" />
    </symbol>
    <symbol
       id="o"
       overflow="visible">
      <path
         d="m 1.8438,-11.969 h 3.8125 v 11.75 c 0,1.6016 -0.38672,2.8281 -1.1562,3.6719 C 3.73838,4.29665 2.629,4.7185 1.172,4.7185 h -1.8906 v -2.5 h 0.65625 c 0.72656,0 1.2266,-0.16797 1.5,-0.5 C 1.70718,1.39428 1.8439,0.74975 1.8439,-0.219 Z m 0,-4.6562 h 3.8125 v 3.125 H 1.8438 Z"
         id="path2995" />
    </symbol>
    <symbol
       id="n"
       overflow="visible">
      <path
         d="m 11.5,-11.594 v 3.125 C 10.97656,-8.82056 10.457,-9.08228 9.9375,-9.25025 9.41406,-9.42603 8.875,-9.51587 8.3125,-9.51587 c -1.0742,0 -1.9062,0.3125 -2.5,0.9375 -0.5938,0.625 -0.89062,1.4961 -0.89062,2.6094 0,1.1172 0.29688,1.9844 0.89062,2.6094 0.59374,0.625 1.4258,0.9375 2.5,0.9375 0.59375,0 1.1562,-0.085937 1.6875,-0.26562 0.53906,-0.17578 1.0391,-0.44141 1.5,-0.79688 v 3.125 c -0.59375,0.23047 -1.1992,0.39453 -1.8125,0.5 -0.61719,0.11328 -1.2344,0.17188 -1.8594,0.17188 -2.1562,0 -3.8438,-0.55078 -5.0625,-1.6562 -1.2188,-1.1133 -1.8281,-2.6562 -1.8281,-4.625 0,-1.9688 0.60938,-3.5039 1.8281,-4.6094 1.2188,-1.1133 2.9062,-1.6719 5.0625,-1.6719 0.625,0 1.2383,0.05859 1.8438,0.17188 0.61328,0.10547 1.2227,0.26562 1.8281,0.48438 z"
         id="path2998" />
    </symbol>
  </defs>
  <g
     id="g3095"
     transform="translate(-69.996879,-0.00176994)">
    <path
       d="m 510.6,204.5 c 30.137,30.273 49.586,69.539 55.402,111.86 6.9414,1.3086 13.383,4.5273 18.598,9.2969 -2.3672,-28.82 -10.547,-56.863 -24.043,-82.438 -13.5,-25.574 -32.035,-48.152 -54.496,-66.367 4.1094,8.6016 5.6836,18.191 4.5391,27.652 z"
       id="path3003"
       style="fill:#ffffff" />
    <path
       d="m 266.38,176.51 c 0.14063,-6.9141 0.32422,-13.883 0.56641,-20.684 h 0.004 c -30.797,17.137 -56.898,41.59 -76,71.199 -19.105,29.613 -30.629,63.473 -33.547,98.59 5.207,-4.7852 11.652,-8.0117 18.602,-9.3164 3.9609,-28.48 14.102,-55.75 29.715,-79.898 15.609,-24.148 36.316,-44.59 60.66,-59.891 z"
       id="path3005"
       style="fill:#ffffff" />
    <path
       d="m 371,540.07 c -23.484,0.0156 -46.781,-4.1953 -68.773,-12.422 -4.4805,4.4805 -9.0781,8.957 -13.898,13.32 26.184,10.957 54.285,16.602 82.668,16.602 28.387,0 56.488,-5.6445 82.672,-16.602 -4.8203,-4.3672 -9.4141,-8.8438 -13.898,-13.32 -21.992,8.2305 -45.289,12.438 -68.77,12.422 z"
       id="path3007"
       style="fill:#ffffff" />
    <path
       d="m 354.5,443.01 c 0.0703,-6.5195 -2.5195,-12.785 -7.1758,-17.348 -1.4648,-1.4141 -3.0977,-2.6406 -4.8633,-3.6523 l 12.473,-11.875 c 4.6211,-4.3711 7.2617,-10.438 7.3125,-16.801 0.0703,-6.5156 -2.5156,-12.777 -7.1641,-17.344 -2.0078,-1.9414 -4.3047,-3.5586 -6.8125,-4.7891 3.9648,-4.2344 6.2031,-9.7969 6.2773,-15.598 0.0742,-6.5156 -2.5156,-12.781 -7.1641,-17.344 -4.5469,-4.5273 -10.668,-7.1172 -17.082,-7.2305 -6.4141,-0.10938 -12.621,2.2656 -17.324,6.6328 l -7.2148,6.8672 c -1.2734,-2.6836 -2.9922,-5.1367 -5.0859,-7.2461 -4.543,-4.5273 -10.664,-7.1172 -17.078,-7.2305 -6.4141,-0.11328 -12.625,2.2617 -17.324,6.625 l -58.602,55.781 5.0117,-28.77 h -0.004 c 1.3477,-6.8398 -0.40234,-13.926 -4.7812,-19.352 -5.1562,-6.6602 -12.93,-10.781 -21.336,-11.305 -24.953,-1.3555 -29.109,27.07 -30.691,37.742 -1.9648,13.723 -7.668,26.641 -16.496,37.336 -9.9258,13.43 -28.406,38.43 -21.875,74.672 0.0664,0.99609 -0.21484,1.9883 -0.78906,2.8047 l -22.366996,17.566 c -3.8008,2.9844 -4.4648,8.4844 -1.4805,12.289 3.0195,3.7383 8.468796,4.3945 12.288996,1.4766 l 22.336,-17.539 c 5.7461,-4.8125 8.5,-12.316 7.2344,-19.703 -4.793,-26.586 7.1523,-45.512 18.73,-61.172 10.52,-13.012 17.332,-28.613 19.73,-45.172 3.4453,-23.277 9.3203,-22.977 12.48,-22.824 4.582,0.23828 10.887,4.75 9.8281,9.9102 l -7.9219,45.441 c -1.6094,9.2461 3.2383,12.926 5.3945,14.078 2.168,1.1562 7.9297,3.1406 14.754,-3.3711 l 70.617,-67.215 c 2.9023,-2.5391 7.2773,-2.3945 10,0.33984 2.2305,2.2227 3.9531,7.3281 1.4766,10.02 l -68.559,65.258 c -1.6836,1.5977 -2.6641,3.8008 -2.7227,6.125 -0.0586,2.3203 0.80859,4.5703 2.4102,6.25 1.6016,1.6836 3.8047,2.6602 6.1289,2.7148 2.3203,0.0547 4.5703,-0.8125 6.25,-2.418 l 91.723,-87.309 c 2.8828,-2.5898 7.293,-2.4453 9.9961,0.32812 1.2383,1.1758 1.9492,2.8008 1.9727,4.5078 0.0235,1.707 -0.64062,3.3516 -1.8438,4.5586 l -91.723,87.324 c -3.5,3.332 -3.6367,8.8711 -0.30469,12.371 3.3555,3.4453 8.8516,3.5781 12.371,0.30078 l 76.945,-73.254 c 3.5039,-1.4609 7.543,-0.70312 10.281,1.9297 1.2344,1.1758 1.9414,2.8008 1.9648,4.5078 0.0234,1.7031 -0.64062,3.3477 -1.8398,4.5586 l -76.723,72.148 c -3.4961,3.332 -3.6328,8.8711 -0.30078,12.371 3.33202,3.4999 8.8672,3.6367 12.367,0.30469 l 46.781,-44.543 c 2.9023,-2.5391 7.2773,-2.3945 10.004,0.33203 1.2344,1.1758 1.9453,2.8008 1.9688,4.5078 0.0195,1.707 -0.64453,3.3516 -1.8477,4.5625 0,0 -77.301,75.5 -91.254,83.754 -13.371,7.3008 -28.359,11.137 -43.594,11.16 -6.7852,0.38281 -13.219,3.1523 -18.156,7.8203 l -9.8281,10.387 c -3.3203,3.5117 -3.168,9.0508 0.33984,12.375 3.5312,3.2656 9.0234,3.1133 12.371,-0.33984 l 9.7188,-10.273 c 1.7891,-1.3828 3.9258,-2.2383 6.1758,-2.4727 18.16,-0.11328 36.004,-4.7852 51.891,-13.594 15.867,-9.3867 94.406,-86.145 94.406,-86.145 h -0.004 c 4.6289,-4.3711 7.2734,-10.445 7.3203,-16.812 z"
       id="path3009"
       style="fill:#ffffff" />
    <path
       d="m 647.65,503.16 -22.367,-17.566 c -0.57422,-0.81641 -0.85547,-1.8086 -0.78906,-2.8086 6.5312,-36.242 -11.949,-61.242 -21.875,-74.672 v 0.004 c -8.8281,-10.695 -14.535,-23.613 -16.496,-37.336 -1.582,-10.668 -5.7383,-39.094 -30.691,-37.742 -8.4062,0.52344 -16.18,4.6445 -21.336,11.305 -4.3789,5.4258 -6.1289,12.512 -4.7812,19.352 l 5.0117,28.77 -58.602,-55.781 h -0.004 c -4.6992,-4.3633 -10.91,-6.7383 -17.324,-6.625 -6.4141,0.11328 -12.535,2.7031 -17.078,7.2305 -2.0938,2.1094 -3.8125,4.5586 -5.0859,7.2461 l -7.2148,-6.8672 c -4.6992,-4.3672 -10.91,-6.7422 -17.324,-6.6328 -6.4141,0.11328 -12.535,2.7031 -17.082,7.2305 -4.6484,4.5625 -7.2383,10.828 -7.1641,17.344 0.0742,5.8008 2.3125,11.363 6.2773,15.598 -2.5078,1.2305 -4.8047,2.8477 -6.8125,4.7891 -4.6484,4.5664 -7.2344,10.828 -7.1641,17.344 0.0508,6.3633 2.6914,12.43 7.3125,16.801 l 12.473,11.875 c -1.7656,1.0117 -3.3984,2.2383 -4.8633,3.6523 -4.6562,4.5625 -7.2461,10.828 -7.1758,17.348 0.0469,6.3672 2.6914,12.441 7.3203,16.812 0,0 78.539,76.758 94.406,86.145 h -0.004 c 15.887,8.8086 33.73,13.48 51.891,13.594 2.25,0.23438 4.3867,1.0898 6.1758,2.4727 l 9.7188,10.273 c 3.3477,3.4531 8.8398,3.6055 12.371,0.33984 3.5078,-3.3242 3.6602,-8.8633 0.33984,-12.375 l -9.8281,-10.387 c -4.9375,-4.668 -11.371,-7.4375 -18.156,-7.8203 -15.234,-0.0234 -30.223,-3.8594 -43.594,-11.16 -13.953,-8.2539 -91.254,-83.754 -91.254,-83.754 -1.2031,-1.2109 -1.8672,-2.8555 -1.8477,-4.5625 0.0234,-1.707 0.73438,-3.332 1.9688,-4.5078 2.7266,-2.7266 7.1016,-2.8711 10.004,-0.33203 l 46.781,44.543 c 3.5,3.332 9.0352,3.1953 12.367,-0.30469 3.3318,-3.49999 3.1953,-9.0391 -0.30078,-12.371 l -76.723,-72.148 c -1.1992,-1.2109 -1.8633,-2.8555 -1.8398,-4.5586 0.0234,-1.707 0.73047,-3.332 1.9648,-4.5078 2.7383,-2.6328 6.7773,-3.3906 10.281,-1.9297 l 76.945,73.254 c 3.5195,3.2773 9.0156,3.1445 12.371,-0.30078 3.332,-3.5 3.1953,-9.0391 -0.30469,-12.371 l -91.723,-87.324 c -1.2031,-1.207 -1.8672,-2.8516 -1.8438,-4.5586 0.0234,-1.707 0.73438,-3.332 1.9727,-4.5078 2.7031,-2.7734 7.1133,-2.918 9.9961,-0.32812 l 91.723,87.309 c 1.6797,1.6055 3.9297,2.4727 6.25,2.418 2.3242,-0.0547 4.5273,-1.0312 6.1289,-2.7148 1.6016,-1.6797 2.4688,-3.9297 2.4102,-6.25 -0.0586,-2.3242 -1.0391,-4.5273 -2.7227,-6.125 l -68.559,-65.258 c -2.4805,-2.6914 -0.75391,-7.7969 1.4766,-10.02 2.7227,-2.7344 7.0977,-2.8789 10,-0.33984 l 70.613,67.219 c 6.8242,6.5117 12.586,4.5273 14.754,3.3711 2.1562,-1.1523 7.0078,-4.832 5.3945,-14.078 l -7.918,-45.449 c -1.0547,-5.1602 5.2461,-9.6719 9.8281,-9.9102 3.1602,-0.14844 9.0352,-0.45312 12.48,22.824 v 0.004 c 2.3984,16.559 9.2109,32.16 19.73,45.172 11.578,15.66 23.523,34.59 18.73,61.172 -1.2656,7.3867 1.4883,14.891 7.2344,19.703 l 22.336,17.539 c 3.8203,2.918 9.2695,2.2617 12.289,-1.4766 2.9844,-3.8047 2.3203,-9.3047 -1.4805,-12.289 z"
       id="path3011"
       style="fill:#ffffff" />
    <path
       d="m 290.37,253.83 c 4.5312,4.6367 10.75,7.2383 17.23,7.2188 1.9922,-0.008 3.9727,-0.26172 5.8984,-0.75 l -0.25,13.875 v -0.004 c -0.11328,6.4492 2.375,12.672 6.9023,17.266 4.5312,4.5938 10.715,7.168 17.164,7.1445 2.7266,-0.0117 5.4297,-0.45703 8.0156,-1.3203 -0.043,6.2734 2.3984,12.309 6.7891,16.785 4.5352,4.6445 10.762,7.2539 17.254,7.2305 6.4062,-0.0156 12.551,-2.5273 17.129,-7.0078 4.5742,-4.4805 7.2227,-10.57 7.3711,-16.973 l 0.0977,-5.2266 c 2.793,0.99609 5.7344,1.5156 8.7031,1.5273 6.3984,-0.0156 12.535,-2.5273 17.109,-7 4.574,-4.4727 7.2227,-10.559 7.3789,-16.953 l 1.4961,-75.508 17.082,18.895 c 4.8164,5.7266 11.754,9.2539 19.223,9.7734 7.4648,0.51953 14.824,-2.0156 20.387,-7.0234 18.246,-16.707 1.2188,-39.906 -5.1992,-48.645 h 0.004 c -8.3203,-11.301 -13.469,-24.613 -14.922,-38.566 -2.5586,-16.625 -7.3242,-47.581996 -37.43,-68.901996 h -0.004 c -0.77344,-0.69141 -1.3086,-1.6094 -1.5312,-2.6211 l 3.8945,-29.969 c 0.29688,-2.3008 -0.32812,-4.6289 -1.7422,-6.4688 -1.418,-1.8398 -3.5078,-3.0391 -5.8086,-3.3398 -2.3008,-0.29688 -4.6289,0.32812 -6.4648,1.7461 -1.8398,1.4141 -3.043,3.5039 -3.3398,5.8086 l -3.9062,30.07 c -0.60547,7.4531 2.7266,14.68 8.7891,19.055 22.191,15.719 27.25,37.808996 30.25,57.292996 l -0.004,0.004 c 1.8555,16.742 8.1055,32.699 18.113,46.25 12.434,16.941 10.945,22.211 7.4922,25.371 -3.1953,2.9258 -10.734,4.3281 -13.57,-0.0312 l -27.102,-30.141 0.004,0.004 c -2.6523,-4.7461 -8.1797,-7.0977 -13.438,-5.7188 -2.3516,0.71484 -7.8398,3.4062 -7.9961,12.879 l -1.7695,89.449 -0.004,0.004 c -0.11328,3.8008 -3.2461,6.8125 -7.0469,6.7852 -3.3164,0 -8.2656,-2.7539 -8.1914,-6.5508 0.004,-0.11328 -0.0234,-0.22266 -0.0273,-0.33594 l 1.7695,-95.094 c 0.043,-2.3203 -0.83594,-4.5625 -2.4453,-6.2344 -1.60936,-1.6719 -3.8164,-2.6367 -6.1406,-2.6797 h -0.16406 c -4.7695,0.004 -8.6562,3.8242 -8.7461,8.5898 l -2.293,123.19 c -0.11328,3.8008 -3.2383,6.8164 -7.0391,6.793 -3.6133,-0.0508 -6.5195,-2.9805 -6.5508,-6.5898 l 2.2852,-123.18 0.004,-0.004 c 0.043,-2.3203 -0.83984,-4.5625 -2.4492,-6.2344 -1.6094,-1.6719 -3.8164,-2.6328 -6.1367,-2.6758 h -0.16797 c -4.7695,0 -8.6562,3.8203 -8.7422,8.5859 l -1.8828,101.34 c -1.2539,3.5859 -4.6094,6.0078 -8.4062,6.0703 -1.7461,-0.004 -3.4141,-0.70312 -4.6445,-1.9414 -1.2266,-1.2383 -1.9141,-2.9141 -1.9062,-4.6602 l 2.5469,-101.37 c 0.0899,-4.832 -3.7578,-8.8203 -8.5859,-8.9102 h -0.16406 c -4.7695,0.004 -8.6602,3.8242 -8.7461,8.5938 0,0 -1.1992,63.207 -1.2461,64.316 0.17188,1.8516 -0.52734,3.6758 -1.8906,4.9375 -1.36326,1.2617 -3.2344,1.8164 -5.0664,1.5 -3.6914,-0.0859 -6.6172,-3.1328 -6.5508,-6.8242 -0.21094,-28.73 0.18359,-107.1 4.4805,-124.51 4.1406,-14.637003 11.883,-28.000003 22.527,-38.867003 4.457,-5.0742 6.9883,-11.551 7.1484,-18.305 l -0.59375,-31.461 c -0.14844,-4.8047 -4.1055,-8.6094 -8.9102,-8.582 -4.832,0.09375 -8.6758,4.0859 -8.582,8.918 l 0.59375,31.434 c -0.26562,2.2539 -1.1523,4.3906 -2.5586,6.1719 -12.637,13.02 -21.793,29.012 -26.617,46.504003 -5.6016,22.684 -5.0703,118.03 -4.9883,128.61 -0.13281,6.418 2.3281,12.617 6.8281,17.195 z"
       id="path3013"
       style="fill:#ffffff" />
  </g>
</svg>
