<?xml version="1.0" encoding="UTF-8" standalone="no"?>
<svg
   width="489.996pt"
   height="489.99661pt"
   version="1.1"
   viewBox="0 0 489.996 489.99661"
   id="svg10"
   sodipodi:docname="video.svg"
   inkscape:version="1.2 (1:1.2+202206011327+fc4e4096c5)"
   xmlns:inkscape="http://www.inkscape.org/namespaces/inkscape"
   xmlns:sodipodi="http://sodipodi.sourceforge.net/DTD/sodipodi-0.dtd"
   xmlns="http://www.w3.org/2000/svg"
   xmlns:svg="http://www.w3.org/2000/svg">
  <defs
     id="defs14" />
  <sodipodi:namedview
     id="namedview12"
     pagecolor="#ffffff"
     bordercolor="#666666"
     borderopacity="1.0"
     inkscape:showpageshadow="2"
     inkscape:pageopacity="0.0"
     inkscape:pagecheckerboard="0"
     inkscape:deskcolor="#d1d1d1"
     inkscape:document-units="pt"
     showgrid="false"
     inkscape:zoom="0.715188"
     inkscape:cx="499.86857"
     inkscape:cy="390.10722"
     inkscape:window-width="1920"
     inkscape:window-height="1009"
     inkscape:window-x="0"
     inkscape:window-y="34"
     inkscape:window-maximized="1"
     inkscape:current-layer="svg10" />
  <rect
     style="fill:#ffe32b;stroke-width:8.00002"
     id="rect295"
     width="434.5061"
     height="316.71887"
     x="29.602964"
     y="23.332537" />
  <g
     id="g8"
     transform="translate(-105.004,-34.999681)">
    <path
       d="m 415.1,492.27 h -48.828 v -49 c 0,-5.8438 -3.1172,-11.246 -8.1797,-14.168 -5.0625,-2.922 -11.301,-2.9219 -16.363,0 -5.062,2.9219 -8.1797,8.3242 -8.1797,14.168 v 49 h -49 c -5.8477,0 -11.25,3.1211 -14.172,8.1836 -2.922,5.0625 -2.9219,11.301 0,16.363 2.9219,5.062 8.3242,8.1797 14.172,8.1797 h 130.73 -0.004 c 5.8477,0 11.25,-3.1172 14.172,-8.1797 2.9219,-5.0625 2.9219,-11.301 0,-16.363 -2.9219,-5.0625 -8.3242,-8.1836 -14.172,-8.1836 z"
       id="path2" />
    <path
       d="M 595,295.4 V 84 C 595,70.973 589.8125,58.484 580.586,49.289 571.3594,40.0937 558.852,34.953 545.824,35 h -391.82 c -12.996,0 -25.457,5.1641 -34.648,14.352 -9.1875,9.1914 -14.352,21.652 -14.352,34.648 v 261.45 c 0,12.996 5.1641,25.461 14.352,34.648 9.1914,9.1914 21.652,14.352 34.648,14.352 h 391.82 c 12.996,0 25.461,-5.1602 34.648,-14.352 9.1914,-9.1875 14.352,-21.652 14.352,-34.648 v -47.949 c 0,0 0.17578,-1.75 0.17578,-2.1016 z M 154,67.73 h 391.82 c 4.3164,0 8.457,1.7148 11.508,4.7656 3.0547,3.0508 4.7695,7.1914 4.7695,11.508 v 196 h -424.38 v -196 c 0,-4.3164 1.7148,-8.457 4.7656,-11.508 3.0508,-3.0508 7.1914,-4.7656 11.508,-4.7656 z m 391.82,294 H 154 c -4.3164,0 -8.457,-1.7148 -11.508,-4.7695 -3.0508,-3.0508 -4.7656,-7.1914 -4.7656,-11.508 v -32.723 h 424.38 v 32.727 -0.004 c 0,4.3164 -1.7148,8.457 -4.7695,11.508 -3.0508,3.0547 -7.1914,4.7695 -11.508,4.7695 z"
       id="path4" />
    <path
       d="m 309.23,245 c 5.043,2.8711 11.227,2.8711 16.273,0 l 98,-56.523 c 3.3633,-1.8984 5.9453,-4.9336 7.2773,-8.5586 1.3359,-3.625 1.3359,-7.6094 0,-11.234 -1.332,-3.625 -3.9141,-6.6602 -7.2773,-8.5586 l -98,-56.699 c -3.3242,-1.9492 -7.2344,-2.6523 -11.027,-1.9883 -3.7969,0.66406 -7.2344,2.6523 -9.6992,5.6094 -2.4688,2.9609 -3.8047,6.6992 -3.7734,10.555 v 113.05 -0.004 c -0.0352,2.9102 0.70703,5.7773 2.1523,8.3008 1.4492,2.5234 3.543,4.6133 6.0742,6.0508 z m 24.5,-99.051 49,28.352 -49,28.352 z"
       id="path6" />
  </g>
</svg>
