<?xml version="1.0" encoding="UTF-8" standalone="no"?>
<svg
   width="507pt"
   height="507pt"
   version="1.1"
   viewBox="0 0 507 507"
   id="svg7579"
   sodipodi:docname="jogos.svg"
   inkscape:version="1.2 (1:1.2.1+202207142221+cd75a1ee6d)"
   xmlns:inkscape="http://www.inkscape.org/namespaces/inkscape"
   xmlns:sodipodi="http://sodipodi.sourceforge.net/DTD/sodipodi-0.dtd"
   xmlns="http://www.w3.org/2000/svg"
   xmlns:svg="http://www.w3.org/2000/svg">
  <defs
     id="defs7583" />
  <sodipodi:namedview
     id="namedview7581"
     pagecolor="#ffffff"
     bordercolor="#666666"
     borderopacity="1.0"
     inkscape:showpageshadow="2"
     inkscape:pageopacity="0.0"
     inkscape:pagecheckerboard="0"
     inkscape:deskcolor="#d1d1d1"
     inkscape:document-units="pt"
     showgrid="false"
     inkscape:zoom="0.715188"
     inkscape:cx="264.26618"
     inkscape:cy="282.44322"
     inkscape:window-width="1920"
     inkscape:window-height="1009"
     inkscape:window-x="0"
     inkscape:window-y="34"
     inkscape:window-maximized="1"
     inkscape:current-layer="svg7579" />
  <path
     style="fill:#ffffff;stroke:#000000;stroke-width:0.75px;stroke-linecap:butt;stroke-linejoin:miter;stroke-opacity:1"
     d="m 312.23393,112.609 2.4394,50.37559 41.58986,41.16806 -6.67711,33.8841 -35.33091,18.96436 -1.25285,36.37215 -63.33867,4.69951 -18.80101,-38.52594 -39.55939,-4.16949 -30.59003,28.40916 -8.25762,13.39896 -27.92808,-0.0495 0.34582,186.70517 370.30483,-2.46507 5.33516,-369.93276 z"
     id="path8136" />
  <path
     style="fill:#ffffff;stroke:#000000;stroke-width:0.75px;stroke-linecap:butt;stroke-linejoin:miter;stroke-opacity:1"
     d="m 5.8314679,86.209769 72.8475401,171.492971 31.208142,-10.09241 6.67712,-48.79431 46.88924,-15.99864 31.72095,29.7593 57.05193,-20.87513 -12.53936,-30.37305 29.40201,-36.37676 -12.08946,-38.464701 -34.82326,-17.95626 -20.0524,3.1588 -16.79308,-51.993313 z"
     id="path8134" />
  <g
     id="g7577"
     style="fill:#2b444f;fill-opacity:1"
     transform="translate(-96.745922,-29.139591)">
    <path
       d="M 594.49,129.82 H 407.22 c -4.8281,0 -8.75,3.9219 -8.75,8.75 v 59.516 c 0,4.8281 3.9219,8.75 8.75,8.75 19.809,0 35.926,16.117 35.926,35.926 0,19.738 -16.117,35.789 -35.926,35.789 -4.8281,0 -8.75,3.9219 -8.75,8.75 v 29.766 h -45.289 c -4.1836,-25.305 -26.234,-44.676 -52.711,-44.676 -26.496,0 -48.527,19.355 -52.727,44.676 l -27.809,0.004 c -4.8281,0 -8.75,3.9219 -8.75,8.75 v 187.29 c 0,4.8281 3.9219,8.75 8.75,8.75 h 374.55 c 4.8281,0 8.75,-3.9219 8.75,-8.75 v -374.54 c 0,-4.832 -3.918,-8.75 -8.75,-8.75 z M 415.97,295.35 c 25.305,-4.1641 44.676,-26.164 44.676,-52.57 0,-26.477 -19.355,-48.527 -44.676,-52.711 v -42.75 h 169.77 v 169.77 h -24.43 c -4.8281,0 -8.75,3.9219 -8.75,8.75 0,19.809 -16.117,35.926 -35.926,35.926 -19.809,0 -35.926,-16.117 -35.926,-35.926 0,-4.8281 -3.9219,-8.75 -8.75,-8.75 h -56 l -0.004,-21.734 z m -187.29,39.254 h 27.09 c 4.8281,0 8.75,-3.9219 8.75,-8.75 0,-19.809 16.117,-35.926 35.945,-35.926 19.809,0 35.926,16.117 35.926,35.926 0,4.8281 3.9219,8.75 8.75,8.75 h 53.324 v 32.184 c -25.305,4.1836 -44.676,26.234 -44.676,52.711 0,26.477 19.355,48.527 44.676,52.711 v 32.164 l -169.79,-0.004 z m 357.05,169.77 H 415.96 v -40.199 c 0,-4.8281 -3.9219,-8.75 -8.75,-8.75 -19.809,0 -35.926,-16.117 -35.926,-35.926 0,-19.809 16.117,-35.926 35.926,-35.926 4.8281,0 8.75,-3.9219 8.75,-8.75 v -40.215 h 47.969 c 4.1836,25.305 26.234,44.676 52.711,44.676 26.477,0 48.512,-19.371 52.711,-44.676 h 16.398 l -0.004,169.77 z"
       id="path7573"
       style="fill:#2b444f;fill-opacity:1" />
    <path
       d="m 215.23,273.25 c -7.2109,-18.445 1.9258,-39.34 20.371,-46.531 8.9766,-3.5156 18.742,-3.3242 27.527,0.55859 8.7852,3.8516 15.539,10.902 19.023,19.828 0.85938,2.1719 2.5195,3.9023 4.6562,4.8281 2.082,0.92578 4.4961,0.96094 6.6836,0.14062 l 57.82,-22.609 c 2.1719,-0.83984 3.9219,-2.5195 4.8281,-4.6367 0.91016,-2.1172 0.98047,-4.5312 0.14062,-6.7031 l -11.113,-28.402 c 22.051,-13.109 32.078,-40.637 22.469,-65.238 -5.2148,-13.316 -15.277,-23.781 -28.367,-29.504 -10.379,-4.5312 -21.684,-5.6719 -32.445,-3.3242 l -18.742,-47.949 c -0.85938,-2.1719 -2.5195,-3.9023 -4.6562,-4.8281 -2.1172,-0.92578 -4.5312,-0.99609 -6.6836,-0.14062 l -174.41,68.172 c -4.5156,1.75 -6.7383,6.8438 -4.9883,11.34 l 68.18,174.42 c 0.85938,2.1719 2.5195,3.9062 4.6562,4.832 1.1016,0.48828 2.3086,0.73438 3.5,0.73438 1.0859,0 2.1523,-0.19141 3.1836,-0.59375 l 33.391,-13.055 c 4.5,-1.7695 6.7227,-6.8438 4.9727,-11.34 z m -18.812,-2.0312 -17.781,6.9297 -61.793,-158.13 158.13,-61.809 18.48,47.285 c 0.85938,2.1719 2.5195,3.9023 4.6562,4.8281 2.1016,0.91016 4.4961,0.98047 6.7031,0.14063 8.9414,-3.5 18.691,-3.2891 27.457,0.54297 8.8008,3.8516 15.574,10.887 19.074,19.844 7.1758,18.391 -1.9766,39.219 -20.422,46.41 -2.1719,0.83984 -3.9219,2.5195 -4.8281,4.6367 -0.91016,2.1172 -0.98047,4.5312 -0.14062,6.7031 l 10.852,27.719 -42.176,16.484 c -5.6367,-9.5195 -14.105,-17.047 -24.43,-21.578 -13.125,-5.7734 -27.633,-6.0391 -40.934,-0.83984 -24.695,9.6641 -38.168,35.719 -32.848,60.832 z"
       id="path7575"
       style="fill:#2b444f;fill-opacity:1" />
  </g>
</svg>
