<?xml version="1.0" encoding="UTF-8" standalone="no"?>
<svg
   width="491pt"
   height="491pt"
   version="1.1"
   viewBox="0 0 491 491"
   id="svg4"
   sodipodi:docname="workshops.svg"
   inkscape:version="1.2 (1:1.2.1+202207142221+cd75a1ee6d)"
   xmlns:inkscape="http://www.inkscape.org/namespaces/inkscape"
   xmlns:sodipodi="http://sodipodi.sourceforge.net/DTD/sodipodi-0.dtd"
   xmlns="http://www.w3.org/2000/svg"
   xmlns:svg="http://www.w3.org/2000/svg">
  <defs
     id="defs8" />
  <sodipodi:namedview
     id="namedview6"
     pagecolor="#ffffff"
     bordercolor="#666666"
     borderopacity="1.0"
     inkscape:showpageshadow="2"
     inkscape:pageopacity="0.0"
     inkscape:pagecheckerboard="0"
     inkscape:deskcolor="#d1d1d1"
     inkscape:document-units="pt"
     showgrid="false"
     inkscape:zoom="0.715188"
     inkscape:cx="680.93984"
     inkscape:cy="302.01849"
     inkscape:window-width="1920"
     inkscape:window-height="1009"
     inkscape:window-x="0"
     inkscape:window-y="34"
     inkscape:window-maximized="1"
     inkscape:current-layer="svg4" />
  <path
     style="fill:#ffffff;stroke:none;stroke-width:0.75px;stroke-linecap:butt;stroke-linejoin:miter;stroke-opacity:1"
     d="m 34.335185,350.41471 -3.60045,-289.907236 -19.10938,-7.769152 -0.9578,-30.080792 471.935535,-0.599752 -3.86591,38.263261 -18.32512,1.3653 2.33609,297.669311 z"
     id="path856" />
  <path
     d="m 8.1212351,9.0117188 c -4.4766,0.4492199 -7.88279996,4.2188002 -7.87889996,8.7148002 v 40.109 c -0.0117,2.332 0.91405996,4.5742 2.56249996,6.2227 1.6484,1.6484 3.8867,2.5703 6.2188,2.5625 H 21.109635 V 348.24072 H 9.0236351 c -0.30078,-0.0156 -0.60156,-0.0156 -0.90234,0 -4.7539,0.34766 -8.35549996,4.4336 -8.10939996,9.1914 0.2461,4.7578 4.24999996,8.4492 9.01169996,8.3086 H 236.8436 v 48.125 c -15.293,3.9297 -26.746,17.766 -26.746,34.23 0,19.484 15.977,35.461 35.461,35.461 19.484,0 35.461,-15.977 35.461,-35.461 0,-16.461 -11.457,-30.297 -26.746,-34.23 v -48.125 h 227.83 c 4.7578,-0.10547 8.5586,-3.9922 8.5586,-8.75 0,-4.7578 -3.8008,-8.6445 -8.5586,-8.75 h -12.082 V 66.620719 h 12.082 c 2.332,0.008 4.5742,-0.91406 6.2227,-2.5625 1.6484,-1.6484 2.5703,-3.8906 2.5625,-6.2227 v -40.109 c -0.0195,-4.832 -3.9531,-8.7344003 -8.7852,-8.7148002 H 9.0235951 c -0.29297,-0.01563 -0.58984,-0.01563 -0.88672,0 z M 17.757935,26.460719 H 473.37794 v 22.66 H 17.757935 Z m 20.852,40.16 H 452.51994 V 348.24072 H 38.609935 Z m 69.965005,71.383001 c -4.75,0.33594 -8.3633,4.4023 -8.1367,9.1602 0.22656,4.7578 4.2109,8.4609 8.9727,8.3398 h 43.34 c 2.3555,0.0547 4.6328,-0.84375 6.3164,-2.4922 1.6836,-1.6445 2.6328,-3.9023 2.6328,-6.2578 0,-2.3516 -0.94922,-4.6094 -2.6328,-6.2539 -1.6836,-1.6484 -3.9609,-2.5469 -6.3164,-2.4961 h -43.34 c -0.27734,-0.0117 -0.55859,-0.0117 -0.83594,0 z m 83.52,0 h -0.004 c -4.75,0.33594 -8.3633,4.4023 -8.1328,9.1602 0.22656,4.7578 4.2109,8.4609 8.9727,8.3398 h 184.07 c 2.3555,0.0547 4.6289,-0.84375 6.3125,-2.4922 1.6836,-1.6445 2.6328,-3.9023 2.6328,-6.2578 0,-2.3516 -0.94922,-4.6094 -2.6328,-6.2539 -1.6836,-1.6484 -3.957,-2.5469 -6.3125,-2.4961 h -184.07 c -0.28125,-0.0117 -0.55859,-0.0117 -0.83984,0 z m -82.68,60.652 h -0.004 c -2.3555,-0.0508 -4.6289,0.84766 -6.3125,2.4961 -1.6836,1.6445 -2.6328,3.8984 -2.6328,6.2539 0,2.3555 0.94922,4.6133 2.6328,6.2578 1.6836,1.6484 3.957,2.5469 6.3125,2.4922 h 43.34 c 2.3555,0.0547 4.6328,-0.84375 6.3125,-2.4922 1.6836,-1.6445 2.6328,-3.9023 2.6328,-6.2578 0,-2.3555 -0.94922,-4.6094 -2.6328,-6.2539 -1.6797,-1.6484 -3.957,-2.5469 -6.3125,-2.4961 z m 83.52,0 h -0.004 c -2.3555,-0.0508 -4.6328,0.84766 -6.3125,2.4961 -1.6836,1.6445 -2.6328,3.8984 -2.6328,6.2539 0,2.3555 0.94922,4.6133 2.6328,6.2578 1.6797,1.6484 3.957,2.5469 6.3125,2.4922 h 184.07 c 2.3555,0.0547 4.6289,-0.84375 6.3125,-2.4922 1.6836,-1.6445 2.6328,-3.9023 2.6328,-6.2578 0,-2.3555 -0.94922,-4.6094 -2.6328,-6.2539 -1.6836,-1.6484 -3.957,-2.5469 -6.3125,-2.4961 z m -83.52,60.703 h -0.004 c -2.3242,0 -4.5547,0.92188 -6.1992,2.5625 -1.6445,1.6445 -2.5664,3.8711 -2.5664,6.1992 0,2.3242 0.92188,4.5508 2.5664,6.1953 1.6445,1.6406 3.875,2.5625 6.1992,2.5625 h 43.34 c 2.3242,0 4.5547,-0.92188 6.1992,-2.5625 1.6445,-1.6445 2.5703,-3.8711 2.5703,-6.1953 0,-2.3281 -0.92578,-4.5547 -2.5703,-6.1992 -1.6445,-1.6406 -3.875,-2.5625 -6.1992,-2.5625 z m 83.52,0 h -0.004 c -2.3242,0 -4.5547,0.92188 -6.1992,2.5625 -1.6445,1.6445 -2.5703,3.8711 -2.5703,6.1992 0,2.3242 0.92578,4.5508 2.5703,6.1953 1.6445,1.6406 3.875,2.5625 6.1992,2.5625 h 184.07 c 2.3242,0 4.5547,-0.92188 6.1992,-2.5625 1.6445,-1.6445 2.5664,-3.8711 2.5664,-6.1953 0,-2.3281 -0.92188,-4.5547 -2.5664,-6.1992 -1.6445,-1.6406 -3.875,-2.5625 -6.1992,-2.5625 z m 49.953,171.05 -0.004,0.004 c 1.7383,0.55859 3.6094,0.55859 5.3477,0 8.7227,1.2695 15.297,8.5742 15.297,17.688 0,10.027 -7.9336,17.961 -17.961,17.961 -10.0274,0 -17.961,-7.9336 -17.961,-17.961 0,-9.1094 6.5625,-16.41 15.277,-17.688 z"
     id="path2"
     style="fill:#2b444f;fill-opacity:1" />
  <path
     style="fill:#2b444f;fill-opacity:1;stroke:none;stroke-width:0.75px;stroke-linecap:butt;stroke-linejoin:miter;stroke-opacity:1"
     d="m 221.80043,459.46616 1.04192,-26.85103 27.26842,-14.10633 24.05351,26.69981 -11.99138,23.92489 -28.24386,4.18817 z"
     id="path854" />
</svg>
