<?xml version="1.0" encoding="UTF-8" standalone="no"?>
<svg
   width="295.00687pt"
   height="290.12292pt"
   version="1.1"
   viewBox="0 0 295.00686 290.12293"
   id="svg122"
   sodipodi:docname="coreographydancing.svg"
   inkscape:version="1.1.2 (1:1.1+202202050950+0a00cf5339)"
   xmlns:inkscape="http://www.inkscape.org/namespaces/inkscape"
   xmlns:sodipodi="http://sodipodi.sourceforge.net/DTD/sodipodi-0.dtd"
   xmlns="http://www.w3.org/2000/svg"
   xmlns:svg="http://www.w3.org/2000/svg">
  <sodipodi:namedview
     id="namedview124"
     pagecolor="#ffffff"
     bordercolor="#666666"
     borderopacity="1.0"
     inkscape:pageshadow="2"
     inkscape:pageopacity="0.0"
     inkscape:pagecheckerboard="0"
     inkscape:document-units="pt"
     showgrid="false"
     fit-margin-top="0"
     fit-margin-left="0"
     fit-margin-right="0"
     fit-margin-bottom="0"
     inkscape:zoom="0.38517857"
     inkscape:cx="-219.37877"
     inkscape:cy="456.93092"
     inkscape:window-width="1920"
     inkscape:window-height="1009"
     inkscape:window-x="0"
     inkscape:window-y="34"
     inkscape:window-maximized="1"
     inkscape:current-layer="g120" />
  <defs
     id="defs44">
    <symbol
       id="n"
       overflow="visible">
      <path
         d="m 29.312,-1.75 c -1.5117,0.78125 -3.0898,1.3711 -4.7344,1.7656 -1.6367,0.40625 -3.3398,0.60938 -5.1094,0.60938 -5.3125,0 -9.5273,-1.4844 -12.641,-4.4531 -3.1055,-2.9688 -4.6562,-7 -4.6562,-12.094 0,-5.094 1.5508,-9.125 4.6562,-12.094 3.1133,-2.9688 7.3281,-4.4531 12.641,-4.4531 1.7695,0 3.4727,0.19922 5.1094,0.59375 1.6445,0.39844 3.2227,0.99219 4.7344,1.7812 v 6.5938 c -1.5312,-1.0391 -3.0391,-1.8008 -4.5156,-2.2812 -1.4805,-0.48828 -3.0391,-0.73438 -4.6719,-0.73438 -2.9375,0 -5.2461,0.94531 -6.9219,2.8281 -1.6797,1.875 -2.5156,4.4648 -2.5156,7.7656 0,3.293 0.83594,5.8828 2.5156,7.7656 1.6758,1.875 3.9844,2.8125 6.9219,2.8125 1.6328,0 3.1914,-0.23828 4.6719,-0.71875 1.4766,-0.48828 2.9844,-1.2539 4.5156,-2.2969 z"
         id="path2" />
    </symbol>
    <symbol
       id="i"
       overflow="visible">
      <path
         d="m 21.453,-17.406 c -0.67969,-0.3125 -1.3516,-0.53906 -2.0156,-0.6875 -0.65625,-0.15625 -1.3203,-0.23438 -1.9844,-0.23438 -1.9688,0 -3.4844,0.63281 -4.5469,1.8906 -1.0547,1.2617 -1.5781,3.0703 -1.5781,5.4219 V 6.2e-4 H 3.6718 v -23.922 h 7.6562 v 3.9219 c 0.97656,-1.5625 2.1016,-2.7031 3.375,-3.4219 1.2812,-0.71875 2.8125,-1.0781 4.5938,-1.0781 0.25,0 0.52344,0.01172 0.82812,0.03125 0.30078,0.02344 0.73438,0.07031 1.2969,0.14062 z"
         id="path5" />
    </symbol>
    <symbol
       id="a"
       overflow="visible">
      <path
         d="m 27.562,-12.031 v 2.1875 H 9.671 c 0.1875,1.793 0.83203,3.1367 1.9375,4.0312 1.1133,0.89844 2.6719,1.3438 4.6719,1.3438 1.6016,0 3.25,-0.23438 4.9375,-0.70312 1.6875,-0.47656 3.4219,-1.2031 5.2031,-2.1719 v 5.8906 c -1.8047,0.6875 -3.6094,1.2031 -5.4219,1.5469 -1.8125,0.35156 -3.6211,0.53125 -5.4219,0.53125 -4.3359,0 -7.7031,-1.0977 -10.109,-3.2969 -2.3984,-2.207 -3.5938,-5.2969 -3.5938,-9.2656 0,-3.9062 1.1758,-6.9727 3.5312,-9.2031 2.3633,-2.2383 5.6094,-3.3594 9.7344,-3.3594 3.7578,0 6.7695,1.1367 9.0312,3.4062 2.2578,2.2617 3.3906,5.2812 3.3906,9.0625 z m -7.8594,-2.5312 c 0,-1.457 -0.42969,-2.6289 -1.2812,-3.5156 -0.84375,-0.89453 -1.9492,-1.3438 -3.3125,-1.3438 -1.4922,0 -2.6992,0.41797 -3.625,1.25 -0.91797,0.83594 -1.4922,2.0391 -1.7188,3.6094 z"
         id="path8" />
    </symbol>
    <symbol
       id="h"
       overflow="visible">
      <path
         d="m 14.391,-10.766 c -1.5938,0 -2.793,0.27344 -3.5938,0.8125 -0.80469,0.54297 -1.2031,1.3398 -1.2031,2.3906 0,0.96875 0.32031,1.7305 0.96875,2.2812 0.64453,0.54297 1.5469,0.8125 2.7031,0.8125 1.4375,0 2.6445,-0.51562 3.625,-1.5469 0.98828,-1.0312 1.4844,-2.3203 1.4844,-3.875 v -0.875 z m 11.688,-2.8906 V -6e-4 h -7.7031 v -3.5469 c -1.0312,1.4492 -2.1875,2.5078 -3.4688,3.1719 -1.2813,0.6641 -2.8398,1 -4.6719,1 -2.4805,0 -4.4961,-0.72266 -6.0469,-2.1719 -1.543,-1.4453 -2.3125,-3.3203 -2.3125,-5.625 0,-2.8125 0.96094,-4.8672 2.8906,-6.1719 1.9375,-1.3125 4.9688,-1.9688 9.0938,-1.9688 h 4.5156 v -0.60938 c 0,-1.207 -0.48047,-2.0938 -1.4375,-2.6562 -0.94922,-0.5625 -2.4375,-0.84375 -4.4688,-0.84375 -1.6367,0 -3.1562,0.16797 -4.5625,0.5 -1.4062,0.32422 -2.7188,0.8125 -3.9375,1.4688 v -5.8281 c 1.6445,-0.40625 3.2891,-0.70703 4.9375,-0.90625 1.6562,-0.20703 3.3047,-0.3125 4.9531,-0.3125 4.3203,0 7.4375,0.85547 9.3438,2.5625 1.9141,1.6992 2.875,4.4609 2.875,8.2812 z"
         id="path11" />
    </symbol>
    <symbol
       id="g"
       overflow="visible">
      <path
         d="m 12.031,-30.719 v 6.7969 h 7.875 v 5.4688 h -7.875 v 10.141 c 0,1.1172 0.21875,1.8711 0.65625,2.2656 0.4375,0.38672 1.3125,0.57812 2.625,0.57812 h 3.9375 v 5.4688 h -6.5625 c -3.0234,0 -5.1641,-0.62891 -6.4219,-1.8906 -1.2617,-1.2578 -1.8906,-3.3984 -1.8906,-6.4219 v -10.141 h -3.7969 v -5.4688 h 3.7969 v -6.7969 z"
         id="path14" />
    </symbol>
    <symbol
       id="f"
       overflow="visible">
      <path
         d="m 19.953,-20.422 v -12.812 h 7.6875 V 0 H 19.953 v -3.4531 c -1.0547,1.4062 -2.2148,2.4375 -3.4844,3.0938 -1.2734,0.65625 -2.7422,0.98438 -4.4062,0.98438 -2.9492,0 -5.3711,-1.1719 -7.2656,-3.5156 -1.8867,-2.3438 -2.8281,-5.3594 -2.8281,-9.0469 0,-3.6875 0.94141,-6.7031 2.8281,-9.0469 1.8945,-2.3438 4.3164,-3.5156 7.2656,-3.5156 1.6562,0 3.1172,0.33594 4.3906,1 1.2812,0.65625 2.4453,1.6836 3.5,3.0781 z m -5.0469,15.484 c 1.6445,0 2.8945,-0.59766 3.75,-1.7969 0.86328,-1.1953 1.2969,-2.9297 1.2969,-5.2031 0,-2.2812 -0.43359,-4.0195 -1.2969,-5.2188 -0.85547,-1.1953 -2.1055,-1.7969 -3.75,-1.7969 -1.625,0 -2.8711,0.60156 -3.7344,1.7969 -0.85547,1.1992 -1.2812,2.9375 -1.2812,5.2188 0,2.2734 0.42578,4.0078 1.2812,5.2031 0.86328,1.1992 2.1094,1.7969 3.7344,1.7969 z"
         id="path17" />
    </symbol>
    <symbol
       id="e"
       overflow="visible">
      <path
         d="m 16.406,-4.9375 c 1.6328,0 2.8828,-0.59766 3.75,-1.7969 0.86328,-1.1953 1.2969,-2.9297 1.2969,-5.2031 0,-2.2812 -0.43359,-4.0195 -1.2969,-5.2188 -0.86719,-1.1953 -2.1172,-1.7969 -3.75,-1.7969 -1.6367,0 -2.8906,0.60547 -3.7656,1.8125 -0.875,1.1992 -1.3125,2.9336 -1.3125,5.2031 0,2.2617 0.4375,3.9961 1.3125,5.2031 0.875,1.1992 2.1289,1.7969 3.7656,1.7969 z m -5.0781,-15.484 c 1.0508,-1.3945 2.2188,-2.4219 3.5,-3.0781 1.2812,-0.66406 2.7539,-1 4.4219,-1 2.9453,0 5.3672,1.1719 7.2656,3.5156 1.8945,2.3438 2.8438,5.3594 2.8438,9.0469 0,3.6875 -0.94922,6.7031 -2.8438,9.0469 -1.8984,2.3438 -4.3203,3.5156 -7.2656,3.5156 -1.668,0 -3.1406,-0.33594 -4.4219,-1 -1.2813,-0.66406 -2.4492,-1.6914 -3.5,-3.0781 V 4e-4 H 3.6717 v -33.234 h 7.6562 z"
         id="path20" />
    </symbol>
    <symbol
       id="d"
       overflow="visible">
      <path
         d="m 0.53125,-23.922 h 7.6562 l 6.4219,16.234 5.4688,-16.234 h 7.6562 l -10.062,26.188 c -1.0117,2.6641 -2.1953,4.5234 -3.5469,5.5781 -1.3438,1.0625 -3.1211,1.5938 -5.3281,1.5938 H 4.37545 V 4.4223 h 2.3906 c 1.3008,0 2.2422,-0.21094 2.8281,-0.625 0.59375,-0.40625 1.0547,-1.1484 1.3906,-2.2188 l 0.20312,-0.65625 z"
         id="path23" />
    </symbol>
    <symbol
       id="c"
       overflow="visible">
      <path
         d="m 0.21875,-31.891 h 29.391 v 6.2188 h -10.578 V -2e-4 h -8.2188 v -25.672 h -10.594 z"
         id="path26" />
    </symbol>
    <symbol
       id="b"
       overflow="visible">
      <path
         d="m 15.062,-19.031 c -1.6992,0 -2.9961,0.60938 -3.8906,1.8281 -0.88672,1.2188 -1.3281,2.9766 -1.3281,5.2656 0,2.293 0.44141,4.0469 1.3281,5.2656 0.89453,1.2188 2.1914,1.8281 3.8906,1.8281 1.6641,0 2.9375,-0.60938 3.8125,-1.8281 0.88281,-1.2188 1.3281,-2.9727 1.3281,-5.2656 0,-2.2891 -0.44531,-4.0469 -1.3281,-5.2656 -0.875,-1.2188 -2.1484,-1.8281 -3.8125,-1.8281 z m 0,-5.4688 c 4.1133,0 7.3281,1.1094 9.6406,3.3281 2.3125,2.2187 3.4688,5.2969 3.4688,9.2344 0,3.9297 -1.1562,7.0078 -3.4688,9.2344 -2.3125,2.2188 -5.5273,3.3281 -9.6406,3.3281 -4.1367,0 -7.3711,-1.1094 -9.7031,-3.3281 -2.3242,-2.2266 -3.4844,-5.3047 -3.4844,-9.2344 0,-3.9375 1.1602,-7.0156 3.4844,-9.2344 2.332,-2.2188 5.5664,-3.3281 9.7031,-3.3281 z"
         id="path29" />
    </symbol>
    <symbol
       id="m"
       overflow="visible">
      <path
         d="m 2.4531,-31.891 h 26.812 v 4.9688 l -17.109,20.703 h 17.594 V -4e-4 H 1.9691 v -4.9844 l 17.109,-20.688 H 2.4531 Z"
         id="path32" />
    </symbol>
    <symbol
       id="l"
       overflow="visible">
      <path
         d="m 4.0156,-31.891 h 8.2188 V 0 H 4.0156 Z"
         id="path35" />
    </symbol>
    <symbol
       id="k"
       overflow="visible">
      <path
         d="m 23,-23.172 v 6.2344 c -1.0312,-0.71875 -2.0742,-1.2422 -3.125,-1.5781 -1.043,-0.34375 -2.125,-0.51562 -3.25,-0.51562 -2.1367,0 -3.8047,0.625 -5,1.875 -1.1875,1.2422 -1.7812,2.9805 -1.7812,5.2188 0,2.2305 0.59375,3.9688 1.7812,5.2188 1.1953,1.25 2.8633,1.875 5,1.875 1.1953,0 2.332,-0.17578 3.4062,-0.53125 1.0703,-0.36328 2.0625,-0.89453 2.9688,-1.5938 v 6.2656 c -1.1875,0.4375 -2.4023,0.76562 -3.6406,0.98438 -1.2305,0.22656 -2.4648,0.34375 -3.7031,0.34375 -4.3125,0 -7.6875,-1.1094 -10.125,-3.3281 -2.4375,-2.2187 -3.6562,-5.2969 -3.6562,-9.2344 0,-3.9453 1.2188,-7.0234 3.6562,-9.2344 2.4375,-2.2188 5.8125,-3.3281 10.125,-3.3281 1.25,0 2.4844,0.10938 3.7031,0.32812 1.2187,0.21874 2.4297,0.55469 3.6406,1 z"
         id="path38" />
    </symbol>
    <symbol
       id="j"
       overflow="visible">
      <path
         d="M 27.734,-14.562 V 0 h -7.7031 v -11.156 c 0,-2.0625 -0.04687,-3.4844 -0.14062,-4.2656 -0.08594,-0.78125 -0.24219,-1.3594 -0.46875,-1.7344 -0.30469,-0.5 -0.71094,-0.88281 -1.2188,-1.1562 -0.51172,-0.28125 -1.0938,-0.42188 -1.75,-0.42188 -1.5938,0 -2.8516,0.61719 -3.7656,1.8438 -0.90625,1.2305 -1.3594,2.9375 -1.3594,5.125 v 11.766 h -7.6562 v -23.922 h 7.6562 v 3.5 c 1.1445,-1.3945 2.3633,-2.4219 3.6562,-3.0781 1.3008,-0.66406 2.7383,-1 4.3125,-1 2.7578,0 4.8516,0.85156 6.2812,2.5469 1.4375,1.6875 2.1562,4.1523 2.1562,7.3906 z"
         id="path41" />
    </symbol>
  </defs>
  <g
     id="g120"
     transform="translate(-202.50008,-130.74699)">
    <path
       d="m 467.06716,299.12606 h -4.68262 c -1.29401,0 -2.34131,1.0473 -2.34131,2.34131 0,1.29401 1.0473,2.34131 2.34131,2.34131 h 4.68262 c 1.29401,0 2.34131,-1.0473 2.34131,-2.34131 0,-1.29401 -1.0473,-2.34131 -2.34131,-2.34131 z"
       id="path46"
       style="stroke-width:0.535157" />
    <path
       d="m 476.4324,285.07284 c -1.29401,0 -2.34131,1.0473 -2.34131,2.34131 v 4.68262 c 0,1.29401 1.0473,2.34131 2.34131,2.34131 1.29401,0 2.34131,-1.0473 2.34131,-2.34131 v -4.68262 c 0,-0.62089 -0.24667,-1.21662 -0.68564,-1.65567 -0.43897,-0.43904 -1.03478,-0.68564 -1.65567,-0.68564 z"
       id="path48"
       style="stroke-width:0.535157" />
    <path
       d="m 476.4324,308.4913 c -1.29401,0 -2.34131,1.0473 -2.34131,2.34131 v 4.68262 c 0,1.29401 1.0473,2.34131 2.34131,2.34131 1.29401,0 2.34131,-1.0473 2.34131,-2.34131 v -4.68262 c 0,-0.62089 -0.24667,-1.21663 -0.68564,-1.65567 -0.43897,-0.43904 -1.03478,-0.68564 -1.65567,-0.68564 z"
       id="path50"
       style="stroke-width:0.535157" />
    <path
       d="m 490.48027,299.12606 h -4.68263 c -1.294,0 -2.34131,1.0473 -2.34131,2.34131 0,1.29401 1.04731,2.34131 2.34131,2.34131 h 4.68263 c 1.294,0 2.34131,-1.0473 2.34131,-2.34131 0,-1.29401 -1.04731,-2.34131 -2.34131,-2.34131 z"
       id="path52"
       style="stroke-width:0.535157" />
    <path
       d="m 209.523,214.83888 h 4.68262 c 1.29401,0 2.34131,-1.04731 2.34131,-2.34131 0,-1.29401 -1.0473,-2.34132 -2.34131,-2.34132 H 209.523 c -1.29401,0 -2.34131,1.04731 -2.34131,2.34132 0,1.294 1.0473,2.34131 2.34131,2.34131 z"
       id="path54"
       style="stroke-width:0.535157" />
    <path
       d="m 223.57086,205.47363 c 0.62089,0 1.21663,-0.24667 1.65567,-0.68564 0.43904,-0.43897 0.68564,-1.03478 0.68564,-1.65567 v -4.68262 c 0,-1.29401 -1.0473,-2.34131 -2.34131,-2.34131 -1.29401,0 -2.34131,1.0473 -2.34131,2.34131 v 4.68262 c 0,0.62089 0.24668,1.21663 0.68564,1.65567 0.43897,0.43904 1.03478,0.68564 1.65567,0.68564 z"
       id="path56"
       style="stroke-width:0.535157" />
    <path
       d="m 223.57086,228.88139 c 0.62089,0 1.21663,-0.24668 1.65567,-0.68565 0.43904,-0.43896 0.68564,-1.03477 0.68564,-1.65566 v -4.68262 c 0,-1.29401 -1.0473,-2.34131 -2.34131,-2.34131 -1.29401,0 -2.34131,1.0473 -2.34131,2.34131 v 4.68262 c 0,0.62089 0.24668,1.21662 0.68564,1.65566 0.43897,0.43905 1.03478,0.68565 1.65567,0.68565 z"
       id="path58"
       style="stroke-width:0.535157" />
    <path
       d="m 232.9361,214.83888 h 4.68262 c 1.29401,0 2.34131,-1.04731 2.34131,-2.34131 0,-1.29401 -1.0473,-2.34132 -2.34131,-2.34132 h -4.68262 c -1.29401,0 -2.34131,1.04731 -2.34131,2.34132 0,1.294 1.0473,2.34131 2.34131,2.34131 z"
       id="path60"
       style="stroke-width:0.535157" />
    <path
       d="m 309.12636,214.54989 c 0,0 -0.0418,0.0334 -0.0606,0.0564 -0.50171,0.51217 -0.7421,1.22712 -0.65011,1.93786 0.0899,0.71074 0.5038,1.34207 1.11837,1.70999 l 18.26222,10.96215 c 0.64176,0.38464 1.06197,1.05361 1.12886,1.7978 0.18187,1.99014 4.19135,49.20124 -16.67548,90.58062 -1.16648,2.17617 -1.13929,4.79972 0.0732,6.95062 1.21246,2.1509 3.44089,3.53498 5.90759,3.66459 l 73.32182,4.07849 c 0.6773,0.0293 1.33372,-0.22996 1.81033,-0.71283 0.47662,-0.48708 0.71492,-1.16022 0.64802,-1.8396 l -8.88842,-97.61794 c -0.0983,-1.08283 0.56026,-2.09257 1.59295,-2.43539 l 21.72201,-7.23906 c 0.72541,-0.24249 1.2877,-0.82366 1.50513,-1.5595 0.21741,-0.73376 0.0606,-1.52814 -0.41809,-2.12602 l -8.16756,-10.20758 c -1.54067,-1.92951 -3.65411,-3.32381 -6.03496,-3.98023 -2.38102,-0.65642 -4.90841,-0.5435 -7.22034,0.32193 l -18.35213,6.87944 c -6.70605,2.50437 -14.15222,2.11762 -20.56179,-1.0724 l -25.30916,-12.64308 c -0.32612,-0.16305 -0.68565,-0.24876 -1.04939,-0.24876 -0.61875,0 -1.21454,0.24668 -1.65144,0.68356 l -12.03033,12.0346 z"
       id="path62"
       style="stroke-width:0.535157" />
    <path
       d="m 286.06111,409.31482 c -2.24514,2.64651 -1.9713,6.60169 0.61875,8.91357 2.59005,2.31204 6.55139,2.13854 8.92855,-0.39301 l 30.24064,-32.55251 -10.96643,-9.60339 z"
       id="path64"
       style="stroke-width:0.535157" />
    <path
       d="m 375.75337,184.39916 v -16.2907 c -9.98388,0.18814 -16.89061,-1.79363 -20.664,-6.01195 -0.56861,1.1623 -1.34207,2.21378 -2.28068,3.10433 -2.73642,2.28277 -6.2988,3.3259 -9.83351,2.88065 v 16.31799 c 0,5.85515 3.12313,11.26559 8.19432,14.19396 5.07147,2.92667 11.3175,2.92667 16.38918,0 5.07146,-2.92875 8.19432,-8.33881 8.19432,-14.19396 z"
       id="path66"
       style="stroke-width:0.535157" />
    <path
       d="M 315.71414,201.32617 266.7473,163.65381 c -1.33371,-1.01803 -3.02486,-1.44449 -4.68262,-1.18109 -1.66401,0.26758 -3.14196,1.2208 -4.07013,2.62773 -1.76853,2.66117 -1.17692,6.23779 1.35459,8.19057 l 47.71671,36.7064 z"
       id="path68"
       style="stroke-width:0.535157" />
    <path
       d="m 368.10598,211.40317 18.36069,-6.86927 c 1.08075,-0.39092 2.19918,-0.66895 3.33847,-0.82784 V 165.6682 c 0,-10.87439 -5.8011,-20.92142 -15.21878,-26.35861 -9.41769,-5.43719 -21.01935,-5.43719 -30.43704,0 -9.41769,5.43719 -15.21879,15.48422 -15.21879,26.35861 v 33.67313 l 22.35136,11.17781 c 5.24287,2.61307 11.33462,2.93293 16.82425,0.88424 z m -29.80983,-27.00454 v -18.73049 c 0,-1.29401 1.0473,-2.34131 2.34131,-2.34131 0.52052,0 1.09541,0.0272 1.70372,0.0565 2.52948,0.48916 5.15089,-0.0711 7.2578,-1.5511 1.54066,-1.78523 2.4333,-4.03878 2.53365,-6.39459 -0.17351,-1.50304 -0.0669,-3.02695 0.30938,-4.49237 0.3512,-1.09959 1.44032,-1.78946 2.58588,-1.64309 1.14764,0.16932 1.99849,1.15604 1.99849,2.31829 0.004,1.26474 -0.0565,2.52948 -0.18187,3.7879 0.20695,1.1874 0.71074,2.30369 1.46542,3.24438 2.03193,2.52316 7.09939,5.3703 19.66701,4.68263 0.64384,-0.0544 1.28143,0.17978 1.73717,0.63758 0.46408,0.44317 0.7254,1.0557 0.7254,1.69538 v 18.73048 c 0,7.52752 -4.01576,14.48455 -10.53616,18.24992 -6.52035,3.76279 -14.55145,3.76279 -21.0718,0 -6.52035,-3.76494 -10.53616,-10.72187 -10.53616,-18.24992 z"
       id="path70"
       style="stroke-width:0.535157" />
    <path
       d="m 277.42368,280.39557 c 0,2.58588 -2.09674,4.68262 -4.68262,4.68262 -2.58588,0 -4.68262,-2.09674 -4.68262,-4.68262 0,-2.58588 2.09674,-4.68262 4.68262,-4.68262 2.58588,0 4.68262,2.09674 4.68262,4.68262"
       id="path72"
       style="stroke-width:0.535157" />
    <path
       d="m 344.9551,338.38515 -16.38917,-0.93652 2.40612,7.2123 h 0.002 c 1.80198,5.46235 0.62506,11.47055 -3.10434,15.84974 l -9.92769,11.61451 11.09808,9.71202 18.02408,-19.41013 h -0.002 c 1.48837,-1.59086 2.50019,-3.56425 2.92035,-5.70049 0.42227,-2.13437 0.23622,-4.34606 -0.53725,-6.38228 z"
       id="path74"
       style="stroke-width:0.535157" />
    <path
       d="m 378.20974,340.23144 -16.24093,-0.8989 11.39295,34.17243 14.96137,-5.45806 z"
       id="path76"
       style="stroke-width:0.535157" />
    <path
       d="m 389.92432,372.44788 -15.08286,5.50194 12.35677,37.07191 h 0.002 c 0.67104,2.01519 2.06956,3.70639 3.9196,4.74743 1.85004,1.04104 4.02202,1.35882 6.09169,0.88847 2.07164,-0.47036 3.89241,-1.6912 5.11326,-3.43046 1.62008,-2.28068 2.00684,-5.21569 1.03478,-7.83737 z"
       id="path78"
       style="stroke-width:0.535157" />
    <path
       d="m 403.10523,233.15729 -11.99714,3.99907 14.57231,21.86382 c 2.06748,3.10016 1.35251,7.27706 -1.63056,9.51348 l -10.5549,7.91444 1.40479,15.33973 26.22268,-19.66701 c 2.98098,-2.2368 3.69589,-6.40957 1.63056,-9.50974 z"
       id="path80"
       style="stroke-width:0.535157" />
    <path
       d="m 469.40579,238.24663 c 0,2.58588 -2.09674,4.68262 -4.68262,4.68262 -2.58587,0 -4.68262,-2.09674 -4.68262,-4.68262 0,-2.58588 2.09675,-4.68262 4.68262,-4.68262 2.58588,0 4.68262,2.09674 4.68262,4.68262"
       id="path82"
       style="stroke-width:0.535157" />
    <path
       d="m 236.54306,338.11222 c -4.3816,-1.82076 -9.27748,-1.98591 -13.77172,-0.46826 -0.92609,0.33657 -1.54067,1.21663 -1.54067,2.20126 v 22.54134 c -2.01518,-1.54484 -4.48402,-2.38311 -7.02393,-2.38729 -3.10433,0 -6.08312,1.23338 -8.27834,3.42833 -2.19521,2.19494 -3.42832,5.17389 -3.42832,8.27833 0,3.10445 1.23338,6.08313 3.42832,8.27834 2.19495,2.19522 5.1739,3.42832 8.27834,3.42832 3.10445,0 6.08313,-1.23337 8.27834,-3.42832 2.19521,-2.19494 3.42832,-5.17389 3.42832,-8.27834 v -30.04797 c 2.86603,-0.69405 5.8803,-0.45363 8.60211,0.68355 2.72807,1.42989 4.74326,3.92168 5.57098,6.888 0.18396,0.6104 0.60623,1.11837 1.17066,1.41105 0.56651,0.29058 1.22502,0.33865 1.82708,0.13379 0.60205,-0.20486 1.09541,-0.64593 1.36507,-1.2208 0.27176,-0.57695 0.29476,-1.23755 0.069,-1.83125 -1.21245,-4.17048 -4.10149,-7.649 -7.9749,-9.60981 z"
       id="path84"
       style="stroke-width:0.535157" />
    <path
       d="m 496.60781,131.2368 c -0.57069,-0.43899 -1.31071,-0.5937 -2.00892,-0.42018 l -37.46097,9.36524 c -1.04313,0.25922 -1.7748,1.19576 -1.7748,2.27024 v 27.9598 c -2.0131,-1.5511 -4.48194,-2.3936 -7.02393,-2.40194 -3.10434,0 -6.08313,1.23337 -8.27834,3.42832 -2.19521,2.19494 -3.42832,5.17389 -3.42832,8.27834 0,3.10444 1.23338,6.08312 3.42832,8.27834 2.19495,2.19521 5.1739,3.42832 8.27834,3.42832 3.10444,0 6.08313,-1.23338 8.27834,-3.42832 2.19521,-2.19495 3.42832,-5.1739 3.42832,-8.27834 v -21.5818 l 32.77835,-8.19432 v 20.47188 c -2.0131,-1.5511 -4.48194,-2.39359 -7.02393,-2.40194 -3.10434,0 -6.08313,1.23337 -8.27834,3.42832 -2.19522,2.19494 -3.42832,5.17389 -3.42832,8.27834 0,3.10444 1.23337,6.08312 3.42832,8.27834 2.19494,2.19521 5.17389,3.42832 8.27834,3.42832 3.10444,0 6.08312,-1.23338 8.27834,-3.42832 2.19521,-2.19495 3.42832,-5.1739 3.42832,-8.27834 v -46.62981 c 0.002,-0.72123 -0.3303,-1.40479 -0.89891,-1.85004 z"
       id="path86"
       style="stroke-width:0.535157" />
  </g>
</svg>
