<?xml version="1.0" encoding="UTF-8" standalone="no"?>
<svg
   width="519.68262pt"
   height="543.927pt"
   version="1.1"
   viewBox="0 0 519.68262 543.927"
   id="svg152"
   sodipodi:docname="literature.svg"
   inkscape:version="1.1.2 (1:1.1+202202050950+0a00cf5339)"
   xmlns:inkscape="http://www.inkscape.org/namespaces/inkscape"
   xmlns:sodipodi="http://sodipodi.sourceforge.net/DTD/sodipodi-0.dtd"
   xmlns="http://www.w3.org/2000/svg"
   xmlns:svg="http://www.w3.org/2000/svg">
  <sodipodi:namedview
     id="namedview154"
     pagecolor="#ffffff"
     bordercolor="#666666"
     borderopacity="1.0"
     inkscape:pageshadow="2"
     inkscape:pageopacity="0.0"
     inkscape:pagecheckerboard="0"
     inkscape:document-units="pt"
     showgrid="false"
     fit-margin-top="0"
     fit-margin-left="0"
     fit-margin-right="0"
     fit-margin-bottom="0"
     inkscape:zoom="0.38517857"
     inkscape:cx="445.24803"
     inkscape:cy="659.4344"
     inkscape:window-width="1920"
     inkscape:window-height="1009"
     inkscape:window-x="0"
     inkscape:window-y="34"
     inkscape:window-maximized="1"
     inkscape:current-layer="g150" />
  <defs
     id="defs68">
    <symbol
       id="v"
       overflow="visible">
      <path
         d="M 12.516,-0.75 C 11.86756,-0.41406 11.1957,-0.16406 10.5004,0 9.80118,0.17578 9.0707,0.26562 8.3129,0.26562 c -2.2734,0 -4.0703,-0.62891 -5.3906,-1.8906 -1.3242,-1.2695 -1.9844,-2.9922 -1.9844,-5.1719 0,-2.1758 0.66016,-3.8945 1.9844,-5.1562 1.3203,-1.2695 3.1172,-1.9062 5.3906,-1.9062 0.75781,0 1.4883,0.08984 2.1875,0.26562 0.69531,0.16797 1.3672,0.41797 2.0156,0.75 v 2.8125 c -0.65625,-0.4375 -1.3047,-0.75781 -1.9375,-0.96875 -0.625,-0.20703 -1.2891,-0.3125 -1.9844,-0.3125 -1.2617,0 -2.25,0.40234 -2.9688,1.2031 -0.71094,0.80469 -1.0625,1.9062 -1.0625,3.3125 0,1.4063 0.35156,2.5117 1.0625,3.3125 0.71875,0.80469 1.707,1.2031 2.9688,1.2031 0.69531,0 1.3594,-0.10156 1.9844,-0.3125 0.63281,-0.20703 1.2812,-0.53125 1.9375,-0.96875 z"
         id="path2" />
    </symbol>
    <symbol
       id="d"
       overflow="visible">
      <path
         d="M 9.1562,-7.4375 C 8.86323,-7.5625 8.57808,-7.65625 8.29682,-7.71875 8.01557,-7.789062 7.73432,-7.82813 7.45307,-7.82813 c -0.84375,0 -1.4961,0.27344 -1.9531,0.8125 -0.44922,0.54297 -0.67188,1.3125 -0.67188,2.3125 V -3e-5 h -3.2656 v -10.219 h 3.2656 v 1.6875 c 0.42578,-0.66406 0.91016,-1.1484 1.4531,-1.4531 0.53906,-0.3125 1.1914,-0.46875 1.9531,-0.46875 0.10156,0 0.21875,0.0078 0.34375,0.01563 0.13281,0 0.32031,0.01563 0.5625,0.04687 z"
         id="path5" />
    </symbol>
    <symbol
       id="a"
       overflow="visible">
      <path
         d="m 11.766,-5.1406 v 0.9375 H 4.1254 c 0.082031,0.77344 0.35938,1.3516 0.82812,1.7344 0.47656,0.375 1.1445,0.5625 2,0.5625 0.6875,0 1.3906,-0.097656 2.1094,-0.29688 0.71875,-0.20703 1.457,-0.51953 2.2188,-0.9375 v 2.5156 c -0.77344,0.29297 -1.5469,0.51172 -2.3281,0.65625 -0.77344,0.15625 -1.543,0.23438 -2.3125,0.23438 -1.8438,0 -3.2812,-0.46875 -4.3125,-1.4062 -1.0234,-0.9375 -1.5312,-2.2539 -1.5312,-3.9531 0,-1.6641 0.5,-2.9727 1.5,-3.9219 1.0078,-0.95703 2.3984,-1.4375 4.1719,-1.4375 1.6016,0 2.8828,0.48438 3.8438,1.4531 0.96875,0.96094 1.4531,2.2461 1.4531,3.8594 z M 8.4066,-6.2187 c 0,-0.61328 -0.18359,-1.1094 -0.54688,-1.4844 -0.35547,-0.38281 -0.82422,-0.57812 -1.4062,-0.57812 -0.63672,0 -1.1523,0.17969 -1.5469,0.53125 -0.39844,0.35547 -0.64062,0.86719 -0.73438,1.5312 z"
         id="path8" />
    </symbol>
    <symbol
       id="f"
       overflow="visible">
      <path
         d="m 6.1406,-4.5938 c -0.67969,0 -1.1875,0.11719 -1.5312,0.34375 -0.34375,0.23047 -0.51562,0.57031 -0.51562,1.0156 0,0.41797 0.13281,0.74609 0.40625,0.98438 0.28125,0.23047 0.66406,0.34375 1.1562,0.34375 0.61328,0 1.1289,-0.21875 1.5469,-0.65625 0.42578,-0.44531 0.64062,-1 0.64062,-1.6562 v -0.375 z M 11.125,-5.8282 V -10e-5 H 7.8438 v -1.5156 c -0.4375,0.625 -0.93359,1.0781 -1.4844,1.3594 -0.54297,0.28125 -1.2109,0.42188 -2,0.42188 -1.0547,0 -1.9141,-0.30469 -2.5781,-0.92188 -0.65625,-0.625 -0.98438,-1.4258 -0.98438,-2.4062 0,-1.1953 0.41016,-2.0703 1.2344,-2.625 0.82031,-0.5625 2.1172,-0.84375 3.8906,-0.84375 h 1.9219 v -0.26562 c 0,-0.50781 -0.20312,-0.88281 -0.60938,-1.125 -0.40625,-0.23828 -1.043,-0.35938 -1.9062,-0.35938 -0.69922,0 -1.3516,0.070312 -1.9531,0.20312 -0.60547,0.13672 -1.1641,0.34375 -1.6719,0.625 v -2.4844 c 0.69531,-0.16406 1.3945,-0.28906 2.0938,-0.375 0.70703,-0.09375 1.4141,-0.14062 2.125,-0.14062 1.832,0 3.1562,0.36719 3.9688,1.0938 0.82031,0.71875 1.2344,1.8984 1.2344,3.5312 z"
         id="path11" />
    </symbol>
    <symbol
       id="c"
       overflow="visible">
      <path
         d="m 5.1406,-13.109 v 2.8906 H 8.5 v 2.3438 H 5.1406 v 4.3281 c 0,0.48047 0.09375,0.80469 0.28125,0.96875 0.1875,0.16797 0.55469,0.25 1.1094,0.25 h 1.6875 v 2.3281 h -2.7969 c -1.293,0 -2.2109,-0.26562 -2.75,-0.79688 -0.53125,-0.53906 -0.79688,-1.457 -0.79688,-2.75 v -4.3281 h -1.625 v -2.3438 h 1.625 v -2.8906 z"
         id="path14" />
    </symbol>
    <symbol
       id="k"
       overflow="visible">
      <path
         d="m 8.5156,-8.7188 v -5.4688 h 3.2812 V 4e-4 H 8.5156 V -1.484 c -0.44922,0.60547 -0.94531,1.0469 -1.4844,1.3281 -0.54297,0.28125 -1.168,0.42188 -1.875,0.42188 -1.2617,0 -2.2969,-0.5 -3.1094,-1.5 -0.80469,-1 -1.2031,-2.2852 -1.2031,-3.8594 0,-1.5703 0.39844,-2.8594 1.2031,-3.8594 0.8125,-1 1.8477,-1.5 3.1094,-1.5 0.69531,0 1.3164,0.14062 1.8594,0.42188 0.55078,0.28125 1.0508,0.71875 1.5,1.3125 z m -2.1562,6.6094 c 0.69531,0 1.2266,-0.25391 1.5938,-0.76562 0.375,-0.50781 0.5625,-1.25 0.5625,-2.2188 0,-0.97656 -0.1875,-1.7227 -0.5625,-2.2344 -0.36719,-0.50781 -0.89844,-0.76562 -1.5938,-0.76562 -0.6875,0 -1.2188,0.25781 -1.5938,0.76562 -0.36719,0.51172 -0.54688,1.2578 -0.54688,2.2344 0,0.96875 0.17969,1.7109 0.54688,2.2188 0.375,0.51172 0.90625,0.76562 1.5938,0.76562 z"
         id="path17" />
    </symbol>
    <symbol
       id="j"
       overflow="visible">
      <path
         d="m 7,-2.1094 c 0.69531,0 1.2266,-0.25391 1.5938,-0.76562 0.375,-0.50781 0.5625,-1.25 0.5625,-2.2188 0,-0.97656 -0.1875,-1.7227 -0.5625,-2.2344 C 8.22661,-7.83603 7.69536,-8.09384 7,-8.09384 c -0.69922,0 -1.2344,0.26172 -1.6094,0.78125 -0.375,0.51172 -0.5625,1.25 -0.5625,2.2188 0,0.9688 0.1875,1.7109 0.5625,2.2188 0.375,0.51172 0.91016,0.76562 1.6094,0.76562 z M 4.8281,-8.7188 c 0.44531,-0.59375 0.94141,-1.0312 1.4844,-1.3125 0.55078,-0.28125 1.1875,-0.42188 1.9062,-0.42188 1.2578,0 2.2891,0.5 3.0938,1.5 0.8125,1 1.2188,2.2891 1.2188,3.8594 0,1.5742 -0.40625,2.8594 -1.2188,3.8594 -0.80469,1 -1.8359,1.5 -3.0938,1.5 C 7.49995,0.26562 6.8632,0.125 6.3125,-0.15626 5.76953,-0.43751 5.2734,-0.87892 4.8281,-1.48436 V 4e-5 H 1.5625 v -14.188 h 3.2656 z"
         id="path20" />
    </symbol>
    <symbol
       id="i"
       overflow="visible">
      <path
         d="m 0.23438,-10.219 h 3.25 l 2.75,6.9375 2.3281,-6.9375 h 3.2656 L 7.54688,0.969 C 7.10938,2.1018 6.60157,2.8948 6.03128,3.344 5.45706,3.80103 4.69538,4.0315 3.75008,4.0315 h -1.875 V 1.8909 h 1.0156 c 0.55078,0 0.95312,-0.089844 1.2031,-0.26562 0.25,-0.17969 0.44531,-0.49609 0.59375,-0.95312 L 4.78128,0.39091 Z"
         id="path23" />
    </symbol>
    <symbol
       id="h"
       overflow="visible">
      <path
         d="M 9.9688,-2.4844 H 4.4844 L 3.62502,0 h -3.5312 l 5.0469,-13.609 h 4.1719 L 14.35952,0 h -3.5312 z M 5.3594,-5 h 3.7344 l -1.8594,-5.4219 z"
         id="path26" />
    </symbol>
    <symbol
       id="e"
       overflow="visible">
      <path
         d="M 11.828,-6.2188 V 0 H 8.5468 v -4.7656 c 0,-0.875 -0.023437,-1.4766 -0.0625,-1.8125 -0.03125,-0.33203 -0.10156,-0.58203 -0.20312,-0.75 -0.125,-0.20703 -0.29688,-0.36719 -0.51562,-0.48438 -0.21875,-0.125 -0.46875,-0.1875 -0.75,-0.1875 -0.67969,0 -1.2148,0.26562 -1.6094,0.79688 -0.38672,0.52344 -0.57812,1.2461 -0.57812,2.1719 V 0 h -3.2656 v -10.219 h 3.2656 v 1.5 c 0.5,-0.59375 1.0234,-1.0312 1.5781,-1.3125 0.55078,-0.28125 1.1602,-0.42188 1.8281,-0.42188 1.1758,0 2.0664,0.36719 2.6719,1.0938 0.61328,0.71875 0.92188,1.7656 0.92188,3.1406 z"
         id="path29" />
    </symbol>
    <symbol
       id="u"
       overflow="visible">
      <path
         d="m 11.188,-13.188 v 2.8906 c -0.75,-0.33203 -1.4805,-0.58203 -2.1875,-0.75 -0.71094,-0.17578 -1.3828,-0.26562 -2.0156,-0.26562 -0.84375,0 -1.4688,0.11719 -1.875,0.34375 -0.39844,0.23047 -0.59375,0.58984 -0.59375,1.0781 0,0.36719 0.13281,0.65234 0.40625,0.85938 0.26953,0.19922 0.76562,0.37109 1.4844,0.51562 l 1.4844,0.29688 c 1.5195,0.30469 2.5977,0.76562 3.2344,1.3906 0.63281,0.61719 0.95312,1.4961 0.95312,2.6406 0,1.5 -0.44922,2.6211 -1.3438,3.3594 -0.88672,0.73047 -2.2422,1.0938 -4.0625,1.0938 -0.86719,0 -1.7344,-0.085937 -2.6094,-0.25 -0.86719,-0.16406 -1.7344,-0.41016 -2.6094,-0.73438 v -2.9531 c 0.875,0.46094 1.7188,0.80859 2.5312,1.0469 0.8125,0.23047 1.5938,0.34375 2.3438,0.34375 0.75781,0 1.3438,-0.125 1.75,-0.375 0.41406,-0.25781 0.625,-0.625 0.625,-1.0938 0,-0.42578 -0.14062,-0.75391 -0.42188,-0.98438 -0.27344,-0.23828 -0.82422,-0.44531 -1.6562,-0.625 l -1.3594,-0.29688 c -1.3555,-0.28906 -2.3516,-0.75391 -2.9844,-1.3906 -0.625,-0.64453 -0.9375,-1.5078 -0.9375,-2.5938 0,-1.3516 0.4375,-2.3945 1.3125,-3.125 0.875,-0.72656 2.1289,-1.0938 3.7656,-1.0938 0.75,0 1.5195,0.05859 2.3125,0.17188 0.78906,0.11719 1.6094,0.28125 2.4531,0.5 z"
         id="path32" />
    </symbol>
    <symbol
       id="b"
       overflow="visible">
      <path
         d="m 6.4219,-8.125 c -0.71875,0 -1.2734,0.26172 -1.6562,0.78125 -0.375,0.52344 -0.5625,1.2734 -0.5625,2.25 0,0.98047 0.1875,1.7305 0.5625,2.25 0.38281,0.52344 0.9375,0.78125 1.6562,0.78125 0.7187,0 1.2656,-0.25781 1.6406,-0.78125 0.375,-0.51953 0.5625,-1.2695 0.5625,-2.25 0,-0.97656 -0.1875,-1.7266 -0.5625,-2.25 C 7.6875,-7.86328 7.14062,-8.125 6.4219,-8.125 Z m 0,-2.3281 c 1.7578,0 3.1328,0.47656 4.125,1.4219 0.98828,0.94922 1.4844,2.2617 1.4844,3.9375 0,1.6797 -0.49609,2.9922 -1.4844,3.9375 -0.99219,0.94922 -2.3672,1.4219 -4.125,1.4219 -1.7617,0 -3.1406,-0.47266 -4.1406,-1.4219 -0.99219,-0.94531 -1.4844,-2.2578 -1.4844,-3.9375 0,-1.6758 0.49219,-2.9883 1.4844,-3.9375 1,-0.94531 2.3789,-1.4219 4.1406,-1.4219 z"
         id="path35" />
    </symbol>
    <symbol
       id="t"
       overflow="visible">
      <path
         d="m 4.8281,-1.4844 v 5.375 H 1.5625 v -14.109 h 3.2656 v 1.5 c 0.44531,-0.59375 0.94141,-1.0312 1.4844,-1.3125 0.55078,-0.28125 1.1875,-0.42188 1.9062,-0.42188 1.2578,0 2.2891,0.5 3.0938,1.5 0.8125,1 1.2188,2.2891 1.2188,3.8594 0,1.5742 -0.40625,2.8594 -1.2188,3.8594 -0.80469,1 -1.8359,1.5 -3.0938,1.5 -0.71875,0 -1.3555,-0.14062 -1.9062,-0.42188 C 5.76953,-0.43711 5.2734,-0.87852 4.8281,-1.48396 Z M 7,-8.0938 c -0.69922,0 -1.2344,0.26172 -1.6094,0.78125 -0.375,0.51172 -0.5625,1.25 -0.5625,2.2188 0,0.9688 0.1875,1.7109 0.5625,2.2188 0.375,0.51172 0.91016,0.76562 1.6094,0.76562 0.69531,0 1.2266,-0.25391 1.5938,-0.76562 0.375,-0.50781 0.5625,-1.25 0.5625,-2.2188 0,-0.97656 -0.1875,-1.7227 -0.5625,-2.2344 C 8.22661,-7.83596 7.69536,-8.09377 7,-8.09377 Z"
         id="path38" />
    </symbol>
    <symbol
       id="g"
       overflow="visible">
      <path
         d="M 11.828,-6.2188 V 0 H 8.5468 v -4.7344 c 0,-0.89453 -0.023437,-1.5078 -0.0625,-1.8438 -0.03125,-0.33203 -0.10156,-0.58203 -0.20312,-0.75 -0.125,-0.20703 -0.29688,-0.36719 -0.51562,-0.48438 -0.21875,-0.125 -0.46875,-0.1875 -0.75,-0.1875 -0.67969,0 -1.2148,0.26562 -1.6094,0.79688 -0.38672,0.52344 -0.57812,1.2461 -0.57812,2.1719 V -1e-4 h -3.2656 v -14.188 h 3.2656 v 5.4688 c 0.5,-0.59375 1.0234,-1.0312 1.5781,-1.3125 0.55078,-0.28125 1.1602,-0.42188 1.8281,-0.42188 1.1758,0 2.0664,0.36719 2.6719,1.0938 0.61328,0.71875 0.92188,1.7656 0.92188,3.1406 z"
         id="path41" />
    </symbol>
    <symbol
       id="s"
       overflow="visible">
      <path
         d="M 1.5625,-10.219 H 4.8281 V 0 H 1.5625 Z m 0,-3.9688 h 3.2656 v 2.6562 H 1.5625 Z"
         id="path44" />
    </symbol>
    <symbol
       id="r"
       overflow="visible">
      <path
         d="m 8.2812,-14.188 v 2.1406 H 6.4843 c -0.46094,0 -0.78125,0.08594 -0.96875,0.25 -0.17969,0.16797 -0.26562,0.46094 -0.26562,0.875 v 0.70312 h 2.7812 v 2.3438 h -2.7812 v 7.875 h -3.2656 v -7.875 h -1.625 v -2.3438 h 1.625 v -0.70312 c 0,-1.1133 0.30469,-1.9375 0.92188,-2.4688 0.625,-0.53125 1.5859,-0.79688 2.8906,-0.79688 z"
         id="path47" />
    </symbol>
    <symbol
       id="q"
       overflow="visible">
      <path
         d="m 11.031,-8.5156 c 0.41406,-0.63281 0.90625,-1.1133 1.4688,-1.4375 0.57031,-0.33203 1.1953,-0.5 1.875,-0.5 1.1758,0 2.0703,0.36719 2.6875,1.0938 0.61328,0.71875 0.92188,1.7656 0.92188,3.1406 V 1e-4 h -3.2812 V -5.328 -5.56238 c 0.0078,-0.09375 0.01563,-0.21875 0.01563,-0.375 0,-0.71875 -0.10938,-1.2383 -0.32812,-1.5625 -0.21094,-0.33203 -0.55469,-0.5 -1.0312,-0.5 -0.61719,0 -1.0938,0.25781 -1.4375,0.76562 -0.33594,0.51172 -0.50781,1.25 -0.51562,2.2188 v 5.0156 h -3.2812 v -5.3281 c 0,-1.125 -0.10156,-1.8477 -0.29688,-2.1719 -0.1875,-0.33203 -0.53125,-0.5 -1.0312,-0.5 -0.625,0 -1.1094,0.26172 -1.4531,0.78125 -0.34375,0.51172 -0.51562,1.2422 -0.51562,2.1875 V 9e-5 h -3.2812 v -10.219 h 3.2812 v 1.5 c 0.40625,-0.57031 0.86719,-1.0039 1.3906,-1.2969 0.51953,-0.28906 1.0938,-0.4375 1.7188,-0.4375 0.69531,0 1.3164,0.17188 1.8594,0.51562 0.53906,0.33594 0.95312,0.80859 1.2344,1.4219 z"
         id="path50" />
    </symbol>
    <symbol
       id="p"
       overflow="visible">
      <path
         d="m 1.7188,-13.609 h 3.9219 l 4.9375,9.3281 v -9.3281 h 3.3281 V 0 H 10.0001 L 5.047,-9.3438 V 0 H 1.7189 Z"
         id="path53" />
    </symbol>
    <symbol
       id="o"
       overflow="visible">
      <path
         d="m 1.4531,-3.9688 v -6.25 h 3.2812 v 1.0312 c 0,0.55469 -0.00781,1.2461 -0.015625,2.0781 v 1.6719 c 0,0.82422 0.019531,1.418 0.0625,1.7812 0.039062,0.35547 0.11328,0.61719 0.21875,0.78125 0.13281,0.21875 0.3125,0.38672 0.53125,0.5 0.21875,0.11719 0.46094,0.17188 0.73438,0.17188 0.6875,0 1.2227,-0.25781 1.6094,-0.78125 0.38281,-0.53125 0.57812,-1.2578 0.57812,-2.1875 v -5.0469 h 3.2656 V 8e-5 h -3.2656 v -1.4844 c -0.49219,0.60547 -1.0117,1.0469 -1.5625,1.3281 -0.54297,0.28125 -1.1484,0.42188 -1.8125,0.42188 -1.1797,0 -2.0781,-0.35938 -2.7031,-1.0781 -0.61719,-0.72656 -0.92188,-1.7812 -0.92188,-3.1562 z"
         id="path56" />
    </symbol>
    <symbol
       id="n"
       overflow="visible">
      <path
         d="m 1.7188,-13.609 h 5.8281 c 1.7266,0 3.0547,0.38672 3.9844,1.1562 0.92578,0.76172 1.3906,1.8555 1.3906,3.2812 0,1.4297 -0.46484,2.5273 -1.3906,3.2969 -0.92969,0.77344 -2.2578,1.1562 -3.9844,1.1562 H 5.2188 V 3e-4 h -3.5 z m 3.5,2.5469 v 3.7969 h 1.9531 c 0.67578,0 1.1953,-0.16406 1.5625,-0.5 0.375,-0.33203 0.5625,-0.80078 0.5625,-1.4062 0,-0.60156 -0.1875,-1.0664 -0.5625,-1.3906 -0.36719,-0.33203 -0.88672,-0.5 -1.5625,-0.5 z"
         id="path59" />
    </symbol>
    <symbol
       id="m"
       overflow="visible">
      <path
         d="m 1.5625,-10.219 h 3.2656 v 10.031 c 0,1.375 -0.32812,2.4219 -0.98438,3.1406 -0.65626,0.7187 -1.6055,1.0781 -2.8438,1.0781 h -1.625 V 1.8901 h 0.5625 c 0.625,0 1.0508,-0.14062 1.2812,-0.42188 0.22656,-0.28125 0.34375,-0.83594 0.34375,-1.6562 z m 0,-3.9688 h 3.2656 v 2.6562 H 1.5625 Z"
         id="path62" />
    </symbol>
    <symbol
       id="l"
       overflow="visible">
      <path
         d="m 9.8125,-9.8906 v 2.6562 C 9.375,-7.53518 8.92969,-7.75784 8.4844,-7.90628 8.03518,-8.05081 7.57034,-8.12503 7.0938,-8.12503 c -0.91797,0 -1.6328,0.26562 -2.1406,0.79688 -0.5,0.53125 -0.75,1.2773 -0.75,2.2344 0,0.94922 0.25,1.6953 0.75,2.2344 0.50781,0.53125 1.2227,0.79688 2.1406,0.79688 0.50781,0 0.99219,-0.078125 1.4531,-0.23438 0.45703,-0.15625 0.87891,-0.37891 1.2656,-0.67188 v 2.6719 C 9.30078,-0.10933 8.7813,0.03129 8.25,0.12505 7.72656,0.2188 7.207,0.26567 6.6875,0.26567 c -1.8438,0 -3.2891,-0.47266 -4.3281,-1.4219 -1.043,-0.94531 -1.5625,-2.2578 -1.5625,-3.9375 0,-1.6875 0.51953,-3 1.5625,-3.9375 1.0391,-0.94531 2.4844,-1.4219 4.3281,-1.4219 0.53125,0 1.0547,0.04687 1.5781,0.14062 0.51953,0.09375 1.0352,0.23438 1.5469,0.42188 z"
         id="path65" />
    </symbol>
  </defs>
  <g
     id="g150"
     transform="translate(-90.1584,-8.033)">
    <path
       d="m 347.62,167.17 c 43.961,0 79.496,-35.684 79.496,-79.645 0,-43.961 -35.535,-79.492 -79.496,-79.492 -43.961,0 -79.492,35.531 -79.492,79.492 0,43.961 35.531,79.645 79.492,79.645"
       id="path70" />
    <path
       d="m 424.92,186.59 c 36.34,1.3164 51.648,30.402 51.648,30.402 l 117.45,161.04 c 4.832,7.1797 7.6914,15.824 7.6914,25.277 0,25.059 -20.293,45.352 -45.352,45.352 -6.0078,0 -11.5,-1.2461 -16.633,-3.2266 l -70.848,-19.707 v 70.703 h -245.96 v -70.703 l -70.848,19.707 c -4.9805,1.9805 -10.625,3.2266 -16.633,3.2266 -25.059,0 -45.277,-20.293 -45.277,-45.352 0,-9.4531 2.7852,-18.098 7.8398,-25.277 l 117.3,-161.04 c 0,0 15.391,-29.012 51.582,-30.402 z m -79.059,260.32 91.73,-30.406 -1.9766,-0.4375 c -63.379,-18.613 -38.832,-102.28 24.543,-83.672 l 8.6445,3.0742 v -94.512 l -122.94,40.148 -123.01,-40.148 v 94.512 l 8.6445,-3.0742 c 63.375,-18.609 88.066,65.059 24.617,83.672 l -2.0508,0.4375 z"
       id="path72" />
    <path
       d="m 598.56,551.96 c 6.3008,0 11.281,-4.9805 11.281,-11.281 0,-6.3008 -4.9805,-11.355 -11.281,-11.355 H 102.25 c -6.1523,0 -11.359,5.0547 -11.359,11.355 0,6.3008 5.207,11.281 11.359,11.281 z"
       id="path74" />
  </g>
</svg>
