<?xml version="1.0" encoding="UTF-8" standalone="no"?>
<svg
   data-name="Layer 1"
   width="884.81274"
   height="760.24384"
   viewBox="0 0 884.81271 760.24382"
   version="1.1"
   id="svg349"
   sodipodi:docname="undraw_goal_-0-v5v.svg"
   inkscape:version="1.1.2 (1:1.1+202202050950+0a00cf5339)"
   xmlns:inkscape="http://www.inkscape.org/namespaces/inkscape"
   xmlns:sodipodi="http://sodipodi.sourceforge.net/DTD/sodipodi-0.dtd"
   xmlns:xlink="http://www.w3.org/1999/xlink"
   xmlns="http://www.w3.org/2000/svg"
   xmlns:svg="http://www.w3.org/2000/svg"
   xmlns:rdf="http://www.w3.org/1999/02/22-rdf-syntax-ns#"
   xmlns:cc="http://creativecommons.org/ns#"
   xmlns:dc="http://purl.org/dc/elements/1.1/">
  <sodipodi:namedview
     id="namedview351"
     pagecolor="#ffffff"
     bordercolor="#666666"
     borderopacity="1.0"
     inkscape:pageshadow="2"
     inkscape:pageopacity="0.0"
     inkscape:pagecheckerboard="0"
     showgrid="false"
     inkscape:zoom="0.63638723"
     inkscape:cx="415.62745"
     inkscape:cy="509.12398"
     inkscape:window-width="1920"
     inkscape:window-height="1009"
     inkscape:window-x="0"
     inkscape:window-y="34"
     inkscape:window-maximized="1"
     inkscape:current-layer="svg349"
     fit-margin-top="0"
     fit-margin-left="0"
     fit-margin-right="0"
     fit-margin-bottom="0" />
  <defs
     id="defs13">
    <linearGradient
       id="e2e6f350-b5ca-4a1b-97fa-8ad82b1378fe-630"
       x1="774.13"
       y1="337.35001"
       x2="774.13"
       y2="337.10001"
       gradientTransform="matrix(-1,0,0,1,1184,0)"
       gradientUnits="userSpaceOnUse">
      <stop
         offset="0"
         stop-color="gray"
         stop-opacity="0.25"
         id="stop2" />
      <stop
         offset="0.54"
         stop-color="gray"
         stop-opacity="0.12"
         id="stop4" />
      <stop
         offset="1"
         stop-color="gray"
         stop-opacity="0.1"
         id="stop6" />
    </linearGradient>
    <linearGradient
       id="e032e4db-4b5a-4772-82a4-e151341a8119-631"
       x1="511.76999"
       y1="675.54999"
       x2="511.76999"
       y2="284.01001"
       xlink:href="#e2e6f350-b5ca-4a1b-97fa-8ad82b1378fe-630" />
    <linearGradient
       id="796bd2e3-6922-48c9-8d61-1a37047129f5-632"
       x1="518.29999"
       y1="270.01001"
       x2="518.29999"
       y2="195.00999"
       xlink:href="#e2e6f350-b5ca-4a1b-97fa-8ad82b1378fe-630" />
    <linearGradient
       id="fd3c50c2-1925-4067-85c5-f26d2d595195-633"
       x1="1016.25"
       y1="529.56"
       x2="1016.25"
       y2="466.66"
       xlink:href="#e2e6f350-b5ca-4a1b-97fa-8ad82b1378fe-630" />
    <linearGradient
       id="1c0a27d4-1f07-420a-99e3-d67bda5d7f31-634"
       x1="1039.34"
       y1="567.37"
       x2="1039.34"
       y2="504.47"
       xlink:href="#e2e6f350-b5ca-4a1b-97fa-8ad82b1378fe-630" />
  </defs>
  <title
     id="title15">goal</title>
  <path
     d="m 26.390233,85.701438 c 2.89472,29.131832 23.19656,52.199522 28.01329,80.971922 0.60375,3.77217 0.97306,7.59171 1.10497,11.42786 0.69254,16.52431 -56.906532,108.25354 -55.48251596,124.80551 2.65347496,31.03955 18.58212896,55.2961 38.80615896,76.31784 15.29836,15.86076 -27.870494,91.67891 -6.264063,132.04915 16.238233,21.43764 42.439706,16.11839 59.520016,72.6863 11.384291,37.72115 12.255811,78.714 20.613111,117.53186 8.3573,38.81787 56.03528,42.01358 88.20385,54.39069 34.52636,13.28949 72.56993,-8.8658 108.10011,-0.11059 38.12918,9.40034 185.16011,-13.27265 222.78341,-1.2181 47.80153,15.31702 95.43971,-22.3212 144.50958,-30.16404 23.56226,-3.76934 47.54482,-0.57139 71.23155,-2.98598 26.36802,-2.71606 51.89946,-12.32233 74.75646,-28.12729 7.78152,-5.4098 15.6486,-12.05454 19.26693,-21.87882 3.11264,-8.48795 2.63798,-18.16477 1.68078,-27.35314 -3.57944,-34.09926 -12.63708,-71.16608 1.61077,-101.13657 13.14295,-27.64806 44.20708,-58.15803 39.48387,-89.37268 -2.84023,-18.79146 -18.43429,-30.52345 -32.89233,-38.93767 -29.81848,-17.35376 20.82067,-57.50426 -5.8309,-80.9406 -19.06452,-16.79159 -35.48337,-40.2187 -42.48676,-66.56729 -2.87159,-10.53446 -4.05395,-21.61216 -3.4861,-32.66156 0.98053,-17.41828 6.06954,-36.97466 -2.80125,-50.91849 -3.84408,-6.04571 -9.73463,-9.75976 -15.65637,-12.59831 -22.33291,-10.69057 -47.14009,-11.30804 -70.36001,-18.90204 -7.96092,-2.574 -15.61213,-6.33994 -22.76859,-11.20668 -14.1622,-9.71368 -25.56214,-24.02617 -28.31671,-42.707032 -1.61077,-10.94862 -0.17908,-22.9018 -4.79342,-32.57862 -7.78143,-16.4045 -23.16538,-23.26122 -40.34688,-25.49151 -21.26681,-2.76481 -108.32533,-0.25274 -124.44846,1.87617 l -1.61078,0.20274 c -20.7065,2.55285 -41.24177,-2.8754 -61.4191,-11.05922 C 405.32275,22.280822 384.02487,10.355285 363.30283,1.8765487 361.35747,1.0778297 357.7401,-1.0267169 349.39938,0.60226571 328.61899,3.0567078 308.22497,28.713238 292.52414,25.926338 c -22.14272,-3.947406 -44.58683,-4.97359 -66.9206,-3.059712 -11.32668,0.966585 -22.59721,2.702032 -33.756,5.197832 -3.27859,0.73728 -6.552,1.52679 -9.82023,2.36852 -19.00233,4.81998 -37.90351,10.70901 -57.28713,11.05922 h -4.18643 c -23.118731,-0.47002 -46.758827,-7.4281 -68.694777,0.9769 -9.97584,3.84307 -19.53925,11.40021 -23.5545,22.86493 -2.23327,6.3867 -2.59122,13.51069 -1.91424,20.36741 z"
     fill="#ffcb57"
     id="path17"
     style="fill:#ffefcd;fill-opacity:1;stroke-width:0.846838"
     sodipodi:nodetypes="cccccccsccccccccccscccccccccccccccccccccccc" />
  <metadata
     id="metadata1168">
    <rdf:RDF>
      <cc:Work
         rdf:about="">
        <dc:title>goal</dc:title>
      </cc:Work>
    </rdf:RDF>
  </metadata>
  <g
     id="g2048"
     transform="matrix(0.80233924,0,0,0.80233924,204.38698,103.46735)">
    <ellipse
       cx="328.71466"
       cy="667.19"
       rx="328.71466"
       ry="46"
       fill="#3f3d56"
       id="ellipse1946"
       style="stroke-width:0.835409" />
    <ellipse
       cx="331"
       cy="660.69"
       rx="222"
       ry="33.5"
       opacity="0.1"
       id="ellipse1948" />
    <path
       d="m 342,354.14 c -104.26,0 -188.77,84.52 -188.77,188.77 0,104.25 84.55,188.77 188.77,188.77 a 189.68,189.68 0 0 0 38.24,-3.88 188,188 0 0 1 -27.38,-98 c 0,-91.14 64.6,-167.2 150.52,-184.88 A 188.66,188.66 0 0 0 342,354.14 Z"
       transform="translate(-121.63,-93.4)"
       fill="#ffcb57"
       id="path1950" />
    <path
       d="m 172.28,548.34 c 0,-104.25 84.52,-188.76 188.77,-188.76 a 190.4,190.4 0 0 1 30.3,2.43 A 189.11,189.11 0 0 0 342,355.5 c -104.26,0 -188.77,84.52 -188.77,188.77 0,94 68.69,171.91 158.61,186.35 A 188.83,188.83 0 0 1 172.28,548.34 Z"
       transform="translate(-121.63,-93.4)"
       opacity="0.1"
       id="path1952" />
    <path
       d="M 502.48,443.55 A 188.66,188.66 0 0 0 593.27,282.17 C 593.27,177.92 508.76,93.4 404.5,93.4 300.24,93.4 215.74,177.92 215.74,282.17 a 189.77,189.77 0 0 0 3.88,38.25 187.85,187.85 0 0 1 98,-27.39 C 408.74,293 484.8,357.64 502.48,443.55 Z"
       transform="translate(-121.63,-93.4)"
       fill="#ffcb57"
       id="path1954" />
    <path
       d="m 577,282.17 a 188.49,188.49 0 0 1 -76.71,151.91 c 0.81,3.13 1.56,6.28 2.22,9.47 A 188.66,188.66 0 0 0 593.3,282.17 C 593.3,177.92 508.79,93.4 404.53,93.4 c -2.73,0 -5.44,0.07 -8.14,0.19 C 496.83,97.86 577,180.65 577,282.17 Z"
       transform="translate(-121.63,-93.4)"
       opacity="0.1"
       id="path1956" />
    <path
       d="m 494.24,528.44 a 56.34,56.34 0 0 0 -8.78,5.56 18.88,18.88 0 0 0 -6.11,8.27 c -1.71,-3.55 -2.64,-7.41 -3.78,-11.18 A 186,186 0 0 0 467.85,511 26.77,26.77 0 0 0 480,501.67 c 6,5.95 12.11,12.15 15.08,20 0.51,1.36 2,2.81 2.35,4 0.47,1.77 -1.89,2.05 -3.19,2.77 z"
       transform="translate(-121.63,-93.4)"
       fill="#ffbfc5"
       id="path1958" />
    <path
       d="m 329,721.12 c 0,44.62 32.19,49.35 71.91,49.35 39.72,0 71.9,-4.73 71.9,-49.35 0,-44.62 -32.19,-61.57 -71.9,-61.57 -39.71,0 -71.91,16.96 -71.91,61.57 z"
       transform="translate(-121.63,-93.4)"
       fill="#3f3d56"
       id="path1960" />
    <path
       d="m 550.43,673.37 a 55.07,55.07 0 0 1 17.94,9.6 1.85,1.85 0 0 1 0.81,1.1 c 0.14,1 -1.24,1.45 -2.24,1.74 -3,0.85 -4.83,3.62 -7,5.78 -2.17,2.16 -5.65,3.87 -8.18,2.14 a 8,8 0 0 1 -1.72,-1.81 L 539.36,678 a 64.67,64.67 0 0 1 11.37,-5"
       transform="translate(-121.63,-93.4)"
       fill="#f1f1f1"
       id="path1962" />
    <path
       d="m 569.64,676.27 c 1.42,1.44 2,3.52 3.42,5 a 12.23,12.23 0 0 0 3.16,2.19 l 8.18,4.5 a 22.62,22.62 0 0 0 4,1.87 35.5,35.5 0 0 0 4.69,1 33.78,33.78 0 0 1 6.62,2 c 1.6,0.66 3.39,1.79 3.38,3.52 a 3.82,3.82 0 0 1 -1,2.28 c -3.22,4.06 -8.93,5 -14.09,5.51 -11.16,1.18 -22.58,2.06 -33.49,-0.57 a 14.29,14.29 0 0 1 -5.89,-2.55 c -3.29,-2.73 -4,-7.7 -2.72,-11.79 a 6.38,6.38 0 0 1 2.6,-3.87 c 1.73,-1 3.88,-0.53 5.87,-0.68 a 18.52,18.52 0 0 0 6,-1.93 c 1.25,-0.56 2.68,-1.29 3,-2.77 0.32,-1.48 -1.37,-2.76 -1,-4 0.7,-2.79 5.97,-1.04 7.27,0.29 z"
       transform="translate(-121.63,-93.4)"
       fill="#575a89"
       id="path1964" />
    <path
       d="m 569.64,676.27 c 1.42,1.44 2,3.52 3.42,5 a 12.23,12.23 0 0 0 3.16,2.19 l 8.18,4.5 a 22.62,22.62 0 0 0 4,1.87 35.5,35.5 0 0 0 4.69,1 33.78,33.78 0 0 1 6.62,2 c 1.6,0.66 3.39,1.79 3.38,3.52 a 3.82,3.82 0 0 1 -1,2.28 c -3.22,4.06 -8.93,5 -14.09,5.51 -11.16,1.18 -22.58,2.06 -33.49,-0.57 a 14.29,14.29 0 0 1 -5.89,-2.55 c -3.29,-2.73 -4,-7.7 -2.72,-11.79 a 6.38,6.38 0 0 1 2.6,-3.87 c 1.73,-1 3.88,-0.53 5.87,-0.68 a 18.52,18.52 0 0 0 6,-1.93 c 1.25,-0.56 2.68,-1.29 3,-2.77 0.32,-1.48 -1.37,-2.76 -1,-4 0.7,-2.79 5.97,-1.04 7.27,0.29 z"
       transform="translate(-121.63,-93.4)"
       opacity="0.1"
       id="path1966" />
    <path
       d="m 588.61,720.93 3.44,2.27 a 6.15,6.15 0 0 1 2.49,2.46 c 0.75,1.75 -0.26,3.73 -1.38,5.27 a 30.28,30.28 0 0 1 -13.24,10.26 19.73,19.73 0 0 1 -5.75,1.43 2.4,2.4 0 0 1 -1.33,-0.16 c -1.05,-0.56 -0.9,-2.05 -0.91,-3.24 0,-3.43 -2.63,-6.22 -5,-8.75 -2.37,-2.53 -4.71,-5.63 -4.17,-9 a 11.2,11.2 0 0 1 3,-5.28 21.59,21.59 0 0 1 4.5,-4.25 c 2.43,-1.59 3.28,-0.73 5.56,0.72 q 6.43,4.09 12.79,8.27 z"
       transform="translate(-121.63,-93.4)"
       fill="#f1f1f1"
       id="path1968" />
    <path
       d="m 577.45,737.67 a 6.13,6.13 0 0 0 5.41,-1.22 13.55,13.55 0 0 0 3.51,-4.52 36.74,36.74 0 0 0 2.18,-4.78 c 0.72,-1.93 1.38,-4.06 3.08,-5.23 2,-1.42 4.94,-0.86 7,0.51 2.06,1.37 3.62,3.4 5.39,5.16 4.17,4.16 9.66,6.79 15.3,8.51 5.64,1.72 11.49,2.58 17.28,3.69 a 9.8,9.8 0 0 1 3.32,1.07 c 2.34,1.43 3.13,4.62 2.47,7.28 -0.66,2.66 -2.39,4.86 -4.28,6.86 a 17.24,17.24 0 0 1 -5.73,4.43 18.29,18.29 0 0 1 -5.79,1.1 98.89,98.89 0 0 1 -28.6,-2.24 76.51,76.51 0 0 0 -10.48,-2.09 c -2.15,-0.19 -4.33,-0.13 -6.48,-0.28 a 34.12,34.12 0 0 1 -12.38,-3.26 4.37,4.37 0 0 1 -2.25,-1.88 4.62,4.62 0 0 1 -0.17,-2.48 l 1.43,-12.54 c 0.13,-1.09 0.49,-2.45 1.58,-2.62 1.09,-0.17 1.78,0.9 2.43,1.72 a 8.87,8.87 0 0 0 10.61,2.32"
       transform="translate(-121.63,-93.4)"
       fill="#575a89"
       id="path1970" />
    <path
       d="m 494.41,579.53 c 6.29,-0.71 13.59,-0.83 17.85,3.86 2.61,2.88 3.4,6.91 4.3,10.68 a 69.35,69.35 0 0 0 6.82,18.16 c 2,3.54 4.43,6.85 6,10.61 1.57,3.76 2.16,8 3.08,12.09 A 72.94,72.94 0 0 0 558,675.57 c -2.27,6.17 -8.84,9.7 -15.23,11.28 A 8.39,8.39 0 0 1 538,687 a 8.52,8.52 0 0 1 -3.09,-2.28 106,106 0 0 1 -8.33,-10.21 c -9.21,-12.3 -18.55,-24.85 -23.57,-39.36 -1.76,-5.1 -3.52,-11 -8.47,-13.17 -2.82,-1.22 -6.05,-0.84 -9.08,-0.32 a 123.09,123.09 0 0 0 -19.92,5.11 c -6.92,2.41 -14.84,5.37 -21.17,1.69 -3.79,-2.21 -6,-6.44 -6.87,-10.74 -0.87,-4.3 -0.43,-8.74 0,-13.1 a 13.49,13.49 0 0 1 1.38,-5.66 12.27,12.27 0 0 1 3.31,-3.35 68.15,68.15 0 0 1 18.64,-10 c 6.39,-2.26 13.27,-3 19.94,-4.13 q 6.79,-1.18 13.64,-1.95 z"
       transform="translate(-121.63,-93.4)"
       fill="#575a89"
       id="path1972" />
    <path
       d="m 494.41,579.53 c 6.29,-0.71 13.59,-0.83 17.85,3.86 2.61,2.88 3.4,6.91 4.3,10.68 a 69.35,69.35 0 0 0 6.82,18.16 c 2,3.54 4.43,6.85 6,10.61 1.57,3.76 2.16,8 3.08,12.09 A 72.94,72.94 0 0 0 558,675.57 c -2.27,6.17 -8.84,9.7 -15.23,11.28 A 8.39,8.39 0 0 1 538,687 a 8.52,8.52 0 0 1 -3.09,-2.28 106,106 0 0 1 -8.33,-10.21 c -9.21,-12.3 -18.55,-24.85 -23.57,-39.36 -1.76,-5.1 -3.52,-11 -8.47,-13.17 -2.82,-1.22 -6.05,-0.84 -9.08,-0.32 a 123.09,123.09 0 0 0 -19.92,5.11 c -6.92,2.41 -14.84,5.37 -21.17,1.69 -3.79,-2.21 -6,-6.44 -6.87,-10.74 -0.87,-4.3 -0.43,-8.74 0,-13.1 a 13.49,13.49 0 0 1 1.38,-5.66 12.27,12.27 0 0 1 3.31,-3.35 68.15,68.15 0 0 1 18.64,-10 c 6.39,-2.26 13.27,-3 19.94,-4.13 q 6.79,-1.18 13.64,-1.95 z"
       transform="translate(-121.63,-93.4)"
       opacity="0.1"
       id="path1974" />
    <path
       d="m 530.43,624.91 a 32.48,32.48 0 0 1 8,5.65 c 2.55,2.72 4.1,6.23 5.42,9.73 a 11.81,11.81 0 0 1 0.94,3.76 4.27,4.27 0 0 1 -1.39,3.48 6.23,6.23 0 0 1 -3.93,1 c -1.82,0 -3.65,0 -5.47,-0.14 a 9.14,9.14 0 0 1 -3.24,-0.62 9,9 0 0 1 -2.52,-1.91 35.43,35.43 0 0 1 -7.75,-10.46 c -1.32,-2.91 -3.5,-9.63 -1.42,-12.66 2.08,-3.03 9.1,0.88 11.36,2.17 z"
       transform="translate(-121.63,-93.4)"
       fill="#ffbfc5"
       id="path1976" />
    <path
       d="m 442.2,623.87 c 9.31,3 19.22,3.32 28.95,4.23 a 241.78,241.78 0 0 1 48.25,9.54 c 3.22,1 6.51,2.08 9.1,4.23 a 27.06,27.06 0 0 1 5.28,6.72 113.49,113.49 0 0 1 6.93,12.12 c 1.77,3.78 3.12,7.74 4.76,11.57 a 81.31,81.31 0 0 0 25.37,32.49 c 2,1.55 4.29,3.23 4.81,5.72 a 7.94,7.94 0 0 1 -0.75,4.7 c -2.4,5.59 -7.38,9.66 -12.61,12.77 -2.24,1.34 -4.72,2.69 -5.82,5.07 -7.94,-3.28 -13.85,-10.28 -18.76,-17.32 -4.91,-7.04 -9.28,-14.63 -15.58,-20.47 -2.77,-2.58 -5.92,-4.82 -8.11,-7.92 -3.33,-4.72 -4.23,-11.18 -8.71,-14.82 -4.48,-3.64 -11,-3.17 -16.79,-2.6 a 412,412 0 0 1 -89.15,-1 c -6.15,-0.73 -12.47,-1.67 -17.8,-4.84 -5.33,-3.17 -9.48,-9.09 -8.73,-15.24 0.71,-5.76 5.5,-10.32 10.85,-12.57 5.35,-2.25 11.25,-2.66 17,-3.31 14.31,-1.58 27.97,-4.18 41.51,-9.07 z"
       transform="translate(-121.63,-93.4)"
       fill="#575a89"
       id="path1978" />
    <path
       d="m 357.11,635.82 c 0.73,-4.88 2.62,-9.5 3.81,-14.29 a 86.42,86.42 0 0 1 2.26,-8.93 c 0,-0.09 0.07,-0.17 0.1,-0.25 a 2.06,2.06 0 0 0 1.52,-0.87 2.52,2.52 0 0 0 0.13,-1.34 9.72,9.72 0 0 1 0,-1.43 102.25,102.25 0 0 1 6.38,-9.45 c 4,-5.71 7.52,-11.78 11,-17.84 2.86,-5 5.72,-9.94 8.08,-15.16 1.78,-3.91 3.27,-8 5.23,-11.78 7,-13.6 19.52,-23.63 33,-30.83 12.94,-6.91 26.93,-11.56 40.53,-17.06 a 9.22,9.22 0 0 1 0.95,1.12 c 7.35,10.05 8.14,23.25 11.17,35.33 1.22,4.88 2.85,9.74 2.85,14.76 0,7.42 -3.55,14.32 -7.08,20.85 -3.31,6.15 -6.72,12.3 -11.11,17.73 -2.08,2.58 -4.37,5 -6.46,7.55 -8.58,10.51 -13.53,23.44 -18.35,36.13 -2.78,7.35 -7.34,13.86 -10.4,21.1 -1.18,2.78 -1.86,5.77 -3.34,8.41 -1.48,2.64 -4.05,4.94 -7.07,5 a 10.6,10.6 0 0 1 -2.61,-0.41 c -10.93,-2.81 -20.08,-10 -29.16,-16.74 -1.63,-1.2 -3.26,-2.38 -5,-3.46 -1.74,-1.08 -3.5,-2.07 -5.28,-3 l -4.06,-2.23 c -4.42,-2.42 -8.86,-4.85 -13.47,-6.9 a 24.51,24.51 0 0 1 -4,-2 23.87,23.87 0 0 1 0.38,-4.01 z"
       transform="translate(-121.63,-93.4)"
       fill="#3f3d56"
       id="path1980" />
    <circle
       cx="378.35999"
       cy="409.01999"
       r="25.18"
       fill="#ffbfc5"
       id="circle1982" />
    <path
       d="m 516.94,490.64 a 6,6 0 0 0 6.2,2.91 8.69,8.69 0 0 0 5.79,-4.13 16.33,16.33 0 0 0 2.14,-6.94 c 0.21,-1.91 0.18,-4 -1.05,-5.49 a 12.06,12.06 0 0 0 -3.19,-2.24 12.14,12.14 0 0 1 -4,-4 c -0.7,-1.17 -1.21,-2.44 -1.84,-3.64 -2.29,-4.35 -6.75,-7.89 -11.66,-7.73 -2.36,0.08 -4.61,1 -6.94,1.38 -7.81,1.37 -16.29,-2.76 -23.54,0.46 a 22,22 0 0 0 -4.92,3.28 q -3.06,2.53 -5.88,5.32 a 12.14,12.14 0 0 0 -3.58,5.21 c -1,3.7 1.35,7.83 -0.14,11.35 a 16.72,16.72 0 0 1 -1.81,2.85 c -1.64,2.41 0.14,11.82 0,14.73 a 5.45,5.45 0 0 0 1,4 c 1.19,1.33 3.18,1.44 5,1.46 h 3.27 a 4.15,4.15 0 0 0 1.45,-0.15 4.39,4.39 0 0 0 1.65,-1.26 c 2.72,-2.87 3.3,-12.24 7.25,-12.2 a 2.82,2.82 0 0 1 1.71,0.44 c 0.71,0.52 0.92,1.49 1.43,2.21 a 4.18,4.18 0 0 0 4.85,1.14 10.94,10.94 0 0 0 4.13,-3.34 16.27,16.27 0 0 1 3.86,-3.69 c 2.11,-1.23 4.49,-1.76 6.54,-3.15 1.71,-1.16 2.68,-2.84 4.22,-4.12 1.54,-1.28 2.84,-1.1 4.48,-0.25 2.37,1.31 2.47,3.39 3.58,5.59 z"
       transform="translate(-121.63,-93.4)"
       fill="#3f3d56"
       id="path1984" />
    <path
       d="m 458.76,535 a 40.07,40.07 0 0 1 17.54,1.4 9.32,9.32 0 0 1 4.89,2.91 8.78,8.78 0 0 1 1.4,3.66 29.59,29.59 0 0 1 -2.13,17.84 2.36,2.36 0 0 0 -0.29,1.9 3.36,3.36 0 0 0 1,1 3.48,3.48 0 0 1 -0.21,5.19 c -0.47,0.34 -1.09,0.64 -1.18,1.21 -0.09,0.57 0.49,1.12 0.95,1.56 a 5.59,5.59 0 0 1 1.56,5.14 11.27,11.27 0 0 0 -0.51,2.27 7.41,7.41 0 0 0 0.83,2.71 11.86,11.86 0 0 1 0.75,6 6.61,6.61 0 0 0 -0.07,2.93 6.82,6.82 0 0 0 1.12,1.76 c 1.81,2.44 2.2,6.52 -0.42,8 a 6.07,6.07 0 0 1 3.23,6.26 c 1.57,-0.83 3.47,0.24 4.78,1.44 1.31,1.2 2.64,2.68 4.41,2.77 1.24,0.06 2.55,-0.58 3.67,-0.07 1.72,0.77 1.66,3.56 3.35,4.39 1.48,0.74 3.55,-0.46 4.81,0.61 0.44,0.37 0.66,0.94 1.09,1.33 0.95,0.88 2.45,0.51 3.75,0.45 3.07,-0.12 5.9,2 7.49,4.58 1.59,2.58 2.16,5.73 2.57,8.77 a 11.61,11.61 0 0 1 -0.1,5.05 4.33,4.33 0 0 1 -3.55,3.2 c -15.45,1 -30.7,-2.71 -45.75,-6.37 -4.42,-1.08 -8.91,-2.34 -12.6,-5 -3.35,-2.43 -5.81,-5.85 -8.21,-9.21 -4.43,-6.21 -8.89,-12.46 -12.06,-19.39 -4.08,-8.91 -5.9,-18.67 -7.68,-28.32 a 26.34,26.34 0 0 1 -0.65,-7.9 22.39,22.39 0 0 1 3.48,-8.66 94.3,94.3 0 0 1 7,-9.93 c 3.87,-4.77 9.66,-8.61 15.74,-9.48 z"
       transform="translate(-121.63,-93.4)"
       opacity="0.1"
       id="path1986" />
    <path
       d="m 459.77,534 a 40,40 0 0 1 17.55,1.41 9.24,9.24 0 0 1 4.89,2.9 8.92,8.92 0 0 1 1.4,3.66 29.66,29.66 0 0 1 -2.13,17.84 2.36,2.36 0 0 0 -0.29,1.9 3.36,3.36 0 0 0 1,1 3.48,3.48 0 0 1 -0.21,5.19 c -0.47,0.34 -1.09,0.64 -1.18,1.21 -0.09,0.57 0.49,1.12 1,1.56 a 5.59,5.59 0 0 1 1.56,5.14 11.27,11.27 0 0 0 -0.51,2.27 7.39,7.39 0 0 0 0.82,2.71 11.77,11.77 0 0 1 0.76,6 4.32,4.32 0 0 0 1.05,4.69 c 1.81,2.44 2.2,6.52 -0.42,8.06 a 6.05,6.05 0 0 1 3.23,6.25 c 1.57,-0.83 3.47,0.24 4.78,1.44 1.31,1.2 2.64,2.68 4.41,2.77 1.24,0.06 2.54,-0.58 3.67,-0.07 1.72,0.78 1.66,3.56 3.35,4.4 1.48,0.73 3.55,-0.47 4.81,0.6 0.44,0.37 0.66,0.94 1.09,1.33 0.95,0.88 2.45,0.51 3.75,0.45 3.07,-0.12 5.9,2 7.49,4.58 a 22.5,22.5 0 0 1 2.57,8.77 11.93,11.93 0 0 1 -0.1,5 4.33,4.33 0 0 1 -3.55,3.2 c -15.45,1 -30.7,-2.71 -45.75,-6.37 -4.42,-1.08 -8.92,-2.34 -12.6,-5 -3.35,-2.42 -5.81,-5.85 -8.21,-9.21 -4.43,-6.2 -8.89,-12.45 -12.06,-19.38 -4.08,-8.92 -5.9,-18.68 -7.68,-28.32 a 26.4,26.4 0 0 1 -0.65,-7.91 22.39,22.39 0 0 1 3.39,-8.67 91.74,91.74 0 0 1 7,-9.92 c 3.91,-4.79 9.7,-8.62 15.77,-9.48 z"
       transform="translate(-121.63,-93.4)"
       fill="#3f3d56"
       id="path1988" />
  </g>
</svg>
