<?xml version="1.0" encoding="UTF-8" standalone="no"?>
<svg
   data-name="Layer 1"
   width="500"
   height="500"
   viewBox="0 0 499.99998 499.99999"
   version="1.1"
   id="svg349"
   sodipodi:docname="memory.svg"
   inkscape:version="1.2 (1:1.2+202206011327+fc4e4096c5)"
   xmlns:inkscape="http://www.inkscape.org/namespaces/inkscape"
   xmlns:sodipodi="http://sodipodi.sourceforge.net/DTD/sodipodi-0.dtd"
   xmlns:xlink="http://www.w3.org/1999/xlink"
   xmlns="http://www.w3.org/2000/svg"
   xmlns:svg="http://www.w3.org/2000/svg"
   xmlns:rdf="http://www.w3.org/1999/02/22-rdf-syntax-ns#"
   xmlns:cc="http://creativecommons.org/ns#"
   xmlns:dc="http://purl.org/dc/elements/1.1/">
  <sodipodi:namedview
     id="namedview351"
     pagecolor="#ffffff"
     bordercolor="#666666"
     borderopacity="1.0"
     inkscape:pageshadow="2"
     inkscape:pageopacity="0.0"
     inkscape:pagecheckerboard="0"
     showgrid="false"
     inkscape:zoom="0.63638723"
     inkscape:cx="351.20126"
     inkscape:cy="509.12398"
     inkscape:window-width="1920"
     inkscape:window-height="1009"
     inkscape:window-x="0"
     inkscape:window-y="34"
     inkscape:window-maximized="1"
     inkscape:current-layer="g2048"
     fit-margin-top="0"
     fit-margin-left="0"
     fit-margin-right="0"
     fit-margin-bottom="0"
     inkscape:showpageshadow="2"
     inkscape:deskcolor="#d1d1d1" />
  <defs
     id="defs13">
    <linearGradient
       id="e2e6f350-b5ca-4a1b-97fa-8ad82b1378fe-630"
       x1="774.13"
       y1="337.35001"
       x2="774.13"
       y2="337.10001"
       gradientTransform="matrix(-1,0,0,1,1184,0)"
       gradientUnits="userSpaceOnUse">
      <stop
         offset="0"
         stop-color="gray"
         stop-opacity="0.25"
         id="stop2" />
      <stop
         offset="0.54"
         stop-color="gray"
         stop-opacity="0.12"
         id="stop4" />
      <stop
         offset="1"
         stop-color="gray"
         stop-opacity="0.1"
         id="stop6" />
    </linearGradient>
    <linearGradient
       id="e032e4db-4b5a-4772-82a4-e151341a8119-631"
       x1="511.76999"
       y1="675.54999"
       x2="511.76999"
       y2="284.01001"
       xlink:href="#e2e6f350-b5ca-4a1b-97fa-8ad82b1378fe-630" />
    <linearGradient
       id="796bd2e3-6922-48c9-8d61-1a37047129f5-632"
       x1="518.29999"
       y1="270.01001"
       x2="518.29999"
       y2="195.00999"
       xlink:href="#e2e6f350-b5ca-4a1b-97fa-8ad82b1378fe-630" />
    <linearGradient
       id="fd3c50c2-1925-4067-85c5-f26d2d595195-633"
       x1="1016.25"
       y1="529.56"
       x2="1016.25"
       y2="466.66"
       xlink:href="#e2e6f350-b5ca-4a1b-97fa-8ad82b1378fe-630" />
    <linearGradient
       id="1c0a27d4-1f07-420a-99e3-d67bda5d7f31-634"
       x1="1039.34"
       y1="567.37"
       x2="1039.34"
       y2="504.47"
       xlink:href="#e2e6f350-b5ca-4a1b-97fa-8ad82b1378fe-630" />
  </defs>
  <title
     id="title15">goal</title>
  <metadata
     id="metadata1168">
    <rdf:RDF>
      <cc:Work
         rdf:about="">
        <dc:title>goal</dc:title>
      </cc:Work>
    </rdf:RDF>
  </metadata>
  <g
     id="g2048"
     transform="matrix(0.80233924,0,0,0.80233924,204.38698,103.46735)">
    <ellipse
       cx="68.145988"
       cy="349.22778"
       rx="184.19699"
       ry="25.77634"
       fill="#3f3d56"
       id="ellipse1946"
       style="stroke-width:0.468126" />
    <ellipse
       cx="69.426598"
       cy="345.58545"
       rx="124.39886"
       ry="18.7719"
       opacity="0.1"
       id="ellipse1948"
       style="stroke-width:0.560355" />
    <path
       d="m 7.4344873,121.47139 c -58.4226403,0 -105.7782603,47.36122 -105.7782603,105.77826 0,58.41703 47.37804,105.77826 105.7782603,105.77826 a 106.28818,106.28818 0 0 0 21.4279897,-2.17418 105.34679,105.34679 0 0 1 -15.34253,-54.91481 c 0,-51.07078 36.19895,-93.6914 84.34467,-103.59848 A 105.71662,105.71662 0 0 0 7.4344873,121.47139 Z"
       fill="#ffcb57"
       id="path1950"
       style="fill:#fdcd06;fill-opacity:1;stroke-width:0.560355" />
    <path
       d="m -87.669003,230.29238 c 0,-58.41704 47.36122,-105.77266 105.77826,-105.77266 a 106.69164,106.69164 0 0 1 16.97876,1.36166 105.96878,105.96878 0 0 0 -27.6535297,-3.64791 c -58.4226403,0 -105.7782603,47.36123 -105.7782603,105.77826 0,52.67339 38.4908,96.33067 88.8779503,104.4222 A 105.81188,105.81188 0 0 1 -87.669003,230.29238 Z"
       opacity="0.1"
       id="path1952"
       style="stroke-width:0.560355" />
    <path
       d="M 97.360297,171.57275 A 105.71662,105.71662 0 0 0 148.23495,81.142621 c 0,-58.41703 -47.35562,-105.77826 -105.778263,-105.77826 -58.42263,0 -105.77265,47.36123 -105.77265,105.77826 a 106.33862,106.33862 0 0 0 2.17418,21.433589 105.26273,105.26273 0 0 1 54.9148103,-15.348129 C 44.832597,87.211281 87.453217,123.43263 97.360297,171.57275 Z"
       fill="#ffcb57"
       id="path1954"
       style="fill:#fdcd06;fill-opacity:1;stroke-width:0.560355" />
    <path
       d="M 139.11797,81.142621 A 105.62136,105.62136 0 0 1 96.133117,166.26619 c 0.45389,1.75391 0.87416,3.51903 1.24399,5.30656 A 105.71662,105.71662 0 0 0 148.25177,81.142621 c 0,-58.41703 -47.35563,-105.77826 -105.778263,-105.77826 -1.52977,0 -3.04834,0.0392 -4.5613,0.10647 56.28208,2.39272 101.205763,48.78453 101.205763,105.67179 z"
       opacity="0.1"
       id="path1956"
       style="stroke-width:0.560355" />
    <path
       d="m 92.742967,219.14131 a 31.570415,31.570415 0 0 0 -4.91991,3.11557 10.579507,10.579507 0 0 0 -3.42378,4.63414 c -0.9582,-1.98926 -1.47933,-4.15223 -2.11814,-6.26477 a 104.22608,104.22608 0 0 0 -4.32594,-11.25754 15.00071,15.00071 0 0 0 6.80832,-5.22811 c 3.36213,3.33411 6.7859,6.80831 8.45015,11.2071 0.28578,0.76209 1.12071,1.5746 1.31684,2.24142 0.26336,0.99183 -1.05907,1.14873 -1.78754,1.55219 z"
       fill="#ffbfc5"
       id="path1958"
       style="stroke-width:0.560355" />
    <path
       d="m 0.14986731,327.11056 c 0,25.00305 18.03783969,27.65353 40.29514969,27.65353 22.25731,0 40.28954,-2.65048 40.28954,-27.65353 0,-25.00305 -18.03783,-34.50108 -40.28954,-34.50108 -22.25171,0 -40.29514969,9.50363 -40.29514969,34.50108 z"
       fill="#3f3d56"
       id="path1960"
       style="stroke-width:0.560355" />
    <path
       d="m 124.22934,300.35359 a 30.858763,30.858763 0 0 1 10.05277,5.37941 1.0366572,1.0366572 0 0 1 0.45389,0.6164 c 0.0785,0.56035 -0.69484,0.81251 -1.2552,0.97501 -1.68106,0.47631 -2.70651,2.02849 -3.92249,3.23886 -1.21597,1.21036 -3.166,2.16857 -4.5837,1.19916 a 4.482842,4.482842 0 0 1 -0.96381,-1.01425 l -5.9846,-7.80014 a 36.238174,36.238174 0 0 1 6.37124,-2.80178"
       fill="#f1f1f1"
       id="path1962"
       style="stroke-width:0.560355" />
    <path
       d="m 134.99376,301.97862 c 0.7957,0.80692 1.12071,1.97245 1.91641,2.80178 a 6.8531447,6.8531447 0 0 0 1.77073,1.22718 l 4.5837,2.5216 a 12.675236,12.675236 0 0 0 2.24142,1.04786 19.892611,19.892611 0 0 0 2.62807,0.56036 18.9288,18.9288 0 0 1 3.70955,1.12071 c 0.89657,0.36983 1.89961,1.00303 1.894,1.97245 a 2.140557,2.140557 0 0 1 -0.56035,1.27761 c -1.80435,2.27504 -5.00397,2.80177 -7.89541,3.08755 -6.25356,0.66122 -12.65282,1.15434 -18.76629,-0.3194 a 8.0074765,8.0074765 0 0 1 -3.3005,-1.4289 c -1.84357,-1.52977 -2.24142,-4.31474 -1.52416,-6.60659 a 3.5750665,3.5750665 0 0 1 1.45692,-2.16858 c 0.96941,-0.56035 2.17418,-0.29698 3.28929,-0.38104 a 10.377779,10.377779 0 0 0 3.36213,-1.08148 c 0.70044,-0.3138 1.50175,-0.72286 1.68106,-1.55219 0.17932,-0.82932 -0.76768,-1.54658 -0.56035,-2.24142 0.39225,-1.56339 3.34532,-0.58277 4.07378,0.1625 z"
       fill="#575a89"
       id="path1964"
       style="stroke-width:0.560355" />
    <path
       d="m 134.99376,301.97862 c 0.7957,0.80692 1.12071,1.97245 1.91641,2.80178 a 6.8531447,6.8531447 0 0 0 1.77073,1.22718 l 4.5837,2.5216 a 12.675236,12.675236 0 0 0 2.24142,1.04786 19.892611,19.892611 0 0 0 2.62807,0.56036 18.9288,18.9288 0 0 1 3.70955,1.12071 c 0.89657,0.36983 1.89961,1.00303 1.894,1.97245 a 2.140557,2.140557 0 0 1 -0.56035,1.27761 c -1.80435,2.27504 -5.00397,2.80177 -7.89541,3.08755 -6.25356,0.66122 -12.65282,1.15434 -18.76629,-0.3194 a 8.0074765,8.0074765 0 0 1 -3.3005,-1.4289 c -1.84357,-1.52977 -2.24142,-4.31474 -1.52416,-6.60659 a 3.5750665,3.5750665 0 0 1 1.45692,-2.16858 c 0.96941,-0.56035 2.17418,-0.29698 3.28929,-0.38104 a 10.377779,10.377779 0 0 0 3.36213,-1.08148 c 0.70044,-0.3138 1.50175,-0.72286 1.68106,-1.55219 0.17932,-0.82932 -0.76768,-1.54658 -0.56035,-2.24142 0.39225,-1.56339 3.34532,-0.58277 4.07378,0.1625 z"
       opacity="0.1"
       id="path1966"
       style="stroke-width:0.560355" />
    <path
       d="m 145.6237,327.00409 1.92762,1.27201 a 3.4461848,3.4461848 0 0 1 1.39529,1.37847 c 0.42026,0.98062 -0.1457,2.09012 -0.77329,2.95307 a 16.967557,16.967557 0 0 1 -7.41911,5.74925 11.055809,11.055809 0 0 1 -3.22204,0.8013 1.3448526,1.3448526 0 0 1 -0.74527,-0.0897 c -0.58838,-0.3138 -0.50432,-1.14873 -0.50993,-1.81555 0,-1.92202 -1.47373,-3.48541 -2.80177,-4.90311 -1.32804,-1.4177 -2.63928,-3.1548 -2.33668,-5.0432 a 6.2759788,6.2759788 0 0 1 1.68106,-2.95867 12.09807,12.09807 0 0 1 2.5216,-2.38151 c 1.36166,-0.89097 1.83797,-0.40906 3.11558,0.40345 q 3.60308,2.29185 7.16694,4.63414 z"
       fill="#f1f1f1"
       id="path1968"
       style="stroke-width:0.560355" />
    <path
       d="m 139.37013,336.38444 a 3.4349777,3.4349777 0 0 0 3.03153,-0.68364 7.5928136,7.5928136 0 0 0 1.96684,-2.5328 20.587452,20.587452 0 0 0 1.22158,-2.6785 c 0.40345,-1.08149 0.77329,-2.27504 1.72589,-2.93066 1.12071,-0.7957 2.76816,-0.4819 3.92249,0.28578 1.15433,0.76769 2.02848,1.90521 3.02031,2.89144 2.33668,2.33107 5.41304,3.80481 8.57344,4.76862 3.1604,0.96381 6.43848,1.44572 9.68294,2.06771 a 5.4914814,5.4914814 0 0 1 1.86038,0.59958 c 1.31123,0.80131 1.75391,2.58884 1.38407,4.07939 -0.36983,1.49054 -1.33924,2.72332 -2.39832,3.84403 a 9.6605245,9.6605245 0 0 1 -3.21083,2.48238 10.248897,10.248897 0 0 1 -3.24446,0.61639 55.41353,55.41353 0 0 1 -16.02616,-1.2552 42.87278,42.87278 0 0 0 -5.87252,-1.17114 c -1.20477,-0.10647 -2.42634,-0.0729 -3.6311,-0.1569 a 19.119321,19.119321 0 0 1 -6.9372,-1.82676 2.4487524,2.4487524 0 0 1 -1.2608,-1.05347 2.5888412,2.5888412 0 0 1 -0.0953,-1.38968 l 0.80131,-7.02685 c 0.0728,-0.61079 0.27457,-1.37287 0.88536,-1.46813 0.61079,-0.0953 0.99743,0.50432 1.36166,0.96381 a 4.970351,4.970351 0 0 0 5.94537,1.30002"
       fill="#575a89"
       id="path1970"
       style="stroke-width:0.560355" />
    <path
       d="m 92.838227,247.76986 c 3.52464,-0.39785 7.615233,-0.4651 10.002353,2.16297 1.46252,1.61382 1.9052,3.87205 2.40952,5.98459 a 38.860636,38.860636 0 0 0 3.82163,10.17605 c 1.12071,1.98366 2.48237,3.83844 3.36213,5.94537 0.87976,2.10694 1.21037,4.48285 1.72589,6.7747 a 40.872312,40.872312 0 0 0 14.31147,22.77284 c -1.272,3.45739 -4.95354,5.43544 -8.53421,6.3208 a 4.7013805,4.7013805 0 0 1 -2.67289,0.0841 4.7742267,4.7742267 0 0 1 -1.7315,-1.27761 59.397656,59.397656 0 0 1 -4.66776,-5.72123 c -5.16087,-6.89237 -10.39459,-13.92483 -13.207573,-22.05558 -0.98623,-2.85782 -1.97245,-6.16391 -4.74621,-7.37988 -1.5802,-0.68364 -3.39015,-0.4707 -5.08802,-0.17932 a 68.974127,68.974127 0 0 0 -11.16228,2.86342 c -3.87766,1.35046 -8.31567,3.00911 -11.86272,0.947 -2.12375,-1.23839 -3.36213,-3.60869 -3.84964,-6.01822 -0.48751,-2.40952 -0.24096,-4.8975 0,-7.34065 a 7.5591923,7.5591923 0 0 1 0.77329,-3.17161 6.8755589,6.8755589 0 0 1 1.85477,-1.87719 38.18821,38.18821 0 0 1 10.44503,-5.60355 c 3.58067,-1.26641 7.43591,-1.68107 11.17348,-2.31427 q 3.80481,-0.66122 7.64324,-1.09269 z"
       fill="#575a89"
       id="path1972"
       style="stroke-width:0.560355" />
    <path
       d="m 92.838227,247.76986 c 3.52464,-0.39785 7.615233,-0.4651 10.002353,2.16297 1.46252,1.61382 1.9052,3.87205 2.40952,5.98459 a 38.860636,38.860636 0 0 0 3.82163,10.17605 c 1.12071,1.98366 2.48237,3.83844 3.36213,5.94537 0.87976,2.10694 1.21037,4.48285 1.72589,6.7747 a 40.872312,40.872312 0 0 0 14.31147,22.77284 c -1.272,3.45739 -4.95354,5.43544 -8.53421,6.3208 a 4.7013805,4.7013805 0 0 1 -2.67289,0.0841 4.7742267,4.7742267 0 0 1 -1.7315,-1.27761 59.397656,59.397656 0 0 1 -4.66776,-5.72123 c -5.16087,-6.89237 -10.39459,-13.92483 -13.207573,-22.05558 -0.98623,-2.85782 -1.97245,-6.16391 -4.74621,-7.37988 -1.5802,-0.68364 -3.39015,-0.4707 -5.08802,-0.17932 a 68.974127,68.974127 0 0 0 -11.16228,2.86342 c -3.87766,1.35046 -8.31567,3.00911 -11.86272,0.947 -2.12375,-1.23839 -3.36213,-3.60869 -3.84964,-6.01822 -0.48751,-2.40952 -0.24096,-4.8975 0,-7.34065 a 7.5591923,7.5591923 0 0 1 0.77329,-3.17161 6.8755589,6.8755589 0 0 1 1.85477,-1.87719 38.18821,38.18821 0 0 1 10.44503,-5.60355 c 3.58067,-1.26641 7.43591,-1.68107 11.17348,-2.31427 q 3.80481,-0.66122 7.64324,-1.09269 z"
       opacity="0.1"
       id="path1974"
       style="stroke-width:0.560355" />
    <path
       d="m 113.02223,273.19878 a 18.200338,18.200338 0 0 1 4.48284,3.16601 c 1.42891,1.52416 2.29746,3.49101 3.03713,5.45225 a 6.6177955,6.6177955 0 0 1 0.52673,2.10694 2.3927169,2.3927169 0 0 1 -0.77889,1.95003 3.4910132,3.4910132 0 0 1 -2.2022,0.56036 c -1.01984,0 -2.04529,0 -3.06514,-0.0784 a 5.121647,5.121647 0 0 1 -1.81555,-0.34742 5.0431972,5.0431972 0 0 1 -1.4121,-1.07028 19.853386,19.853386 0 0 1 -4.34275,-5.86131 c -0.73967,-1.63064 -1.96124,-5.39623 -0.7957,-7.0941 1.16553,-1.69788 5.09923,0.49311 6.36563,1.21597 z"
       fill="#ffbfc5"
       id="path1976"
       style="stroke-width:0.560355" />
    <path
       d="m 63.582087,272.61601 c 5.2169,1.68106 10.77003,1.86038 16.22228,2.3703 a 135.48269,135.48269 0 0 1 27.037143,5.34579 c 1.80435,0.56036 3.64792,1.16554 5.09924,2.3703 a 15.163213,15.163213 0 0 1 2.95867,3.76559 63.594717,63.594717 0 0 1 3.88326,6.79151 c 0.99183,2.11814 1.74831,4.33715 2.66729,6.48331 a 45.562485,45.562485 0 0 0 14.21622,18.20594 c 1.12071,0.86855 2.40392,1.80995 2.69531,3.20523 a 4.4492207,4.4492207 0 0 1 -0.42027,2.63367 c -1.34485,3.13239 -4.13542,5.41303 -7.06608,7.15574 -1.2552,0.75087 -2.64488,1.50735 -3.26127,2.841 -4.44922,-1.83797 -7.76092,-5.76045 -10.51226,-9.70535 -2.75135,-3.94491 -5.2001,-8.198 -8.73034,-11.47048 -1.55218,-1.44571 -3.3173,-2.70091 -4.54448,-4.43801 -1.86598,-2.64488 -2.3703,-6.26477 -4.880693,-8.30447 -2.51039,-2.03969 -6.16391,-1.77632 -9.40837,-1.45692 a 230.86636,230.86636 0 0 1 -49.95567,-0.56035 c -3.44618,-0.40906 -6.98763,-0.9358 -9.97432,-2.71212 -2.98669,-1.77633 -5.31217,-5.09363 -4.8919,-8.53982 0.39785,-3.22764 3.08195,-5.78286 6.07985,-7.04366 2.9979,-1.2608 6.304,-1.49055 9.52604,-1.85478 8.01868,-0.88536 15.67314,-2.34228 23.26035,-5.08242 z"
       fill="#575a89"
       id="path1978"
       style="stroke-width:0.560355" />
    <path
       d="m 15.901457,279.31225 c 0.40906,-2.73453 1.46813,-5.32337 2.13495,-8.00747 a 48.4259,48.4259 0 0 1 1.26641,-5.00397 c 0,-0.0504 0.0392,-0.0953 0.056,-0.14009 a 1.1543318,1.1543318 0 0 0 0.85174,-0.48751 1.4120952,1.4120952 0 0 0 0.0728,-0.75088 5.446653,5.446653 0 0 1 0,-0.80131 57.296324,57.296324 0 0 1 3.57506,-5.29535 c 2.24142,-3.19963 4.21388,-6.60099 6.16391,-9.99674 1.60262,-2.80178 3.20523,-5.56993 4.52767,-8.49499 0.99743,-2.19099 1.83236,-4.48284 2.93066,-6.60098 3.92249,-7.62083 10.93813,-13.2412 18.49172,-17.27575 7.251,-3.87206 15.09037,-6.47771 22.7112,-9.55966 a 5.1664754,5.1664754 0 0 1 0.53234,0.62759 c 4.11861,5.63157 4.56129,13.02826 6.25917,19.79735 0.68363,2.73454 1.59701,5.45786 1.59701,8.27085 0,4.15783 -1.98926,8.02429 -3.96732,11.6834 -1.85477,3.44619 -3.76558,6.89237 -6.22554,9.9351 -1.16554,1.44572 -2.44876,2.80178 -3.6199,4.23069 -4.80785,5.88933 -7.5816,13.13472 -10.28252,20.24563 -1.55778,4.11861 -4.113,7.76652 -5.82769,11.8235 -0.66122,1.55778 -1.04226,3.23325 -1.87159,4.71258 -0.82932,1.47934 -2.26944,2.76816 -3.96171,2.80178 a 5.9397656,5.9397656 0 0 1 -1.46253,-0.22975 c -6.12468,-1.57459 -11.25193,-5.60355 -16.33996,-9.38034 -0.91337,-0.67243 -1.82675,-1.33365 -2.80177,-1.93883 -0.97502,-0.60519 -1.96124,-1.15994 -2.95868,-1.68107 l -2.27504,-1.24959 c -2.47677,-1.35606 -4.96475,-2.71772 -7.54798,-3.86645 a 13.734307,13.734307 0 0 1 -2.24143,-1.12071 13.37568,13.37568 0 0 1 0.21294,-2.24703 z"
       fill="#3f3d56"
       id="path1980"
       style="stroke-width:0.560355" />
    <circle
       cx="95.965019"
       cy="204.56085"
       r="14.109745"
       fill="#ffbfc5"
       id="circle1982"
       style="stroke-width:0.560355" />
    <path
       d="m 105.46304,197.95988 a 3.3621315,3.3621315 0 0 0 3.4742,1.63063 4.8694871,4.8694871 0 0 0 3.24446,-2.31426 9.1506012,9.1506012 0 0 0 1.19916,-3.88887 c 0.11767,-1.07028 0.10086,-2.24142 -0.58837,-3.07635 a 6.7578843,6.7578843 0 0 0 -1.78754,-1.2552 6.8027127,6.8027127 0 0 1 -2.24142,-2.24142 c -0.39225,-0.65561 -0.67803,-1.36726 -1.03105,-2.03969 -1.28322,-2.43754 -3.7824,-4.4212 -6.53374,-4.33155 -1.322443,0.0448 -2.583243,0.56036 -3.888873,0.77329 -4.37637,0.76769 -9.12819,-1.54658 -13.19076,0.25777 a 12.327815,12.327815 0 0 0 -2.75695,1.83796 q -1.71469,1.4177 -3.29489,2.98109 a 6.8027127,6.8027127 0 0 0 -2.00607,2.91945 c -0.56036,2.07332 0.75648,4.38759 -0.0784,6.36004 a 9.3691397,9.3691397 0 0 1 -1.01424,1.59701 c -0.91899,1.35045 0.0785,6.6234 0,8.25403 a 3.0539361,3.0539361 0 0 0 0.56035,2.24142 c 0.66682,0.74527 1.78193,0.80691 2.80178,0.81812 h 1.83236 a 2.3254743,2.3254743 0 0 0 0.81251,-0.084 2.4599595,2.4599595 0 0 0 0.92459,-0.70605 c 1.52417,-1.60822 1.84917,-6.85875 4.06258,-6.83633 a 1.5802018,1.5802018 0 0 1 0.9582,0.24655 c 0.39786,0.29139 0.51553,0.83493 0.80131,1.23839 a 2.3422849,2.3422849 0 0 0 2.71772,0.6388 6.1302864,6.1302864 0 0 0 2.31427,-1.87158 9.1169799,9.1169799 0 0 1 2.16297,-2.06771 c 1.18235,-0.68924 2.516,-0.98623 3.66473,-1.76512 0.9582,-0.65002 1.501753,-1.59141 2.364703,-2.30867 0.86294,-0.71725 1.5914,-0.61639 2.51039,-0.14009 1.32804,0.73407 1.38407,1.89961 2.00607,3.13239 z"
       fill="#3f3d56"
       id="path1984"
       style="stroke-width:0.560355" />
    <path
       d="m 72.861567,222.81724 a 22.453435,22.453435 0 0 1 9.82863,0.7845 5.2225109,5.2225109 0 0 1 2.74014,1.63063 4.9199191,4.9199191 0 0 1 0.7845,2.0509 16.580912,16.580912 0 0 1 -1.19356,9.99674 1.3224384,1.3224384 0 0 0 -0.1625,1.06467 1.8827936,1.8827936 0 0 0 0.56035,0.56036 1.9500363,1.9500363 0 0 1 -0.11767,2.90824 c -0.26337,0.19052 -0.61079,0.35863 -0.66122,0.67803 -0.0504,0.3194 0.27457,0.6276 0.53233,0.87416 a 3.1323858,3.1323858 0 0 1 0.87416,2.88022 6.3152036,6.3152036 0 0 0 -0.28578,1.27201 4.1522324,4.1522324 0 0 0 0.46509,1.51856 6.6458132,6.6458132 0 0 1 0.42027,3.36213 3.7039482,3.7039482 0 0 0 -0.0392,1.64184 3.8216228,3.8216228 0 0 0 0.6276,0.98623 c 1.01425,1.36726 1.23278,3.65351 -0.23535,4.48284 a 3.4013564,3.4013564 0 0 1 1.80995,3.50782 c 0.87976,-0.46509 1.94443,0.13449 2.6785,0.80692 0.73406,0.67242 1.47934,1.50175 2.47117,1.55218 0.69484,0.0336 1.4289,-0.32501 2.0565,-0.0392 0.96381,0.43148 0.93019,1.99487 1.87719,2.45996 0.82932,0.41467 1.98926,-0.25776 2.695313,0.34182 0.24655,0.20733 0.36983,0.52673 0.61079,0.74527 0.53233,0.49312 1.37287,0.28578 2.10133,0.25216 1.72029,-0.0672 3.30609,1.12071 4.19706,2.56643 0.89096,1.44572 1.21037,3.21084 1.44011,4.91432 a 6.5057244,6.5057244 0 0 1 -0.056,2.82979 2.4263382,2.4263382 0 0 1 -1.98927,1.79314 c -8.657483,0.56035 -17.202903,-1.51857 -25.636253,-3.56947 -2.47677,-0.60518 -4.99276,-1.31123 -7.06047,-2.80177 -1.87719,-1.36167 -3.25567,-3.27808 -4.60052,-5.16087 -2.48237,-3.47981 -4.98156,-6.98203 -6.75789,-10.86529 -2.28624,-4.99277 -3.30609,-10.46184 -4.30352,-15.86926 a 14.759757,14.759757 0 0 1 -0.36423,-4.42681 12.546354,12.546354 0 0 1 1.95003,-4.85268 52.8415,52.8415 0 0 1 3.92249,-5.56432 c 2.16857,-2.6729 5.41303,-4.82466 8.81999,-5.31217 z"
       opacity="0.1"
       id="path1986"
       style="stroke-width:0.560355" />
    <path
       d="m 73.427527,222.25688 a 22.41421,22.41421 0 0 1 9.83423,0.7901 5.1776825,5.1776825 0 0 1 2.74014,1.62503 4.9983688,4.9983688 0 0 1 0.7845,2.0509 16.620137,16.620137 0 0 1 -1.19356,9.99674 1.3224384,1.3224384 0 0 0 -0.1625,1.06468 1.8827936,1.8827936 0 0 0 0.56035,0.56035 1.9500363,1.9500363 0 0 1 -0.11767,2.90825 c -0.26337,0.19052 -0.61079,0.35862 -0.66122,0.67803 -0.0504,0.3194 0.27457,0.62759 0.56036,0.87415 a 3.1323858,3.1323858 0 0 1 0.87415,2.88023 6.3152036,6.3152036 0 0 0 -0.28578,1.272 4.1410253,4.1410253 0 0 0 0.45949,1.51857 6.5953813,6.5953813 0 0 1 0.42587,3.36213 2.4207347,2.4207347 0 0 0 0.58837,2.62806 c 1.01425,1.36727 1.23278,3.65352 -0.23535,4.51647 a 3.3901492,3.3901492 0 0 1 1.80995,3.50222 c 0.87976,-0.4651 1.94443,0.13448 2.6785,0.80691 0.73406,0.67242 1.47934,1.50175 2.47117,1.55218 0.69484,0.0336 1.4233,-0.325 2.0565,-0.0392 0.96381,0.43707 0.93019,1.99486 1.87719,2.46556 0.82932,0.40906 1.989263,-0.26337 2.695313,0.33621 0.24655,0.20733 0.36983,0.52674 0.61079,0.74528 0.53233,0.49311 1.37287,0.28578 2.10133,0.25216 1.72029,-0.0673 3.30609,1.12071 4.19706,2.56642 a 12.607993,12.607993 0 0 1 1.44011,4.91432 6.6850381,6.6850381 0 0 1 -0.056,2.80177 2.4263382,2.4263382 0 0 1 -1.98927,1.79314 c -8.657483,0.56036 -17.202903,-1.51856 -25.636253,-3.56946 -2.47677,-0.60519 -4.99837,-1.31123 -7.06047,-2.80178 -1.87719,-1.35606 -3.25567,-3.27808 -4.60052,-5.16087 -2.48237,-3.4742 -4.98156,-6.97642 -6.75789,-10.85968 -2.28624,-4.99837 -3.30609,-10.46744 -4.30352,-15.86927 a 14.793379,14.793379 0 0 1 -0.36423,-4.43241 12.546354,12.546354 0 0 1 1.8996,-4.85828 51.40699,51.40699 0 0 1 3.92249,-5.55872 c 2.19099,-2.6841 5.43544,-4.83026 8.8368,-5.31217 z"
       fill="#3f3d56"
       id="path1988"
       style="stroke-width:0.560355" />
  </g>
</svg>
