<?xml version="1.0" encoding="UTF-8" standalone="no"?>
<svg
   data-name="Layer 1"
   width="884.81274"
   height="765.79346"
   viewBox="0 0 884.81271 765.79344"
   version="1.1"
   id="svg349"
   sodipodi:docname="undraw_goal_-0-v5v.svg"
   inkscape:version="1.1.2 (1:1.1+202202050950+0a00cf5339)"
   xmlns:inkscape="http://www.inkscape.org/namespaces/inkscape"
   xmlns:sodipodi="http://sodipodi.sourceforge.net/DTD/sodipodi-0.dtd"
   xmlns:xlink="http://www.w3.org/1999/xlink"
   xmlns="http://www.w3.org/2000/svg"
   xmlns:svg="http://www.w3.org/2000/svg"
   xmlns:rdf="http://www.w3.org/1999/02/22-rdf-syntax-ns#"
   xmlns:cc="http://creativecommons.org/ns#"
   xmlns:dc="http://purl.org/dc/elements/1.1/">
  <sodipodi:namedview
     id="namedview351"
     pagecolor="#ffffff"
     bordercolor="#666666"
     borderopacity="1.0"
     inkscape:pageshadow="2"
     inkscape:pageopacity="0.0"
     inkscape:pagecheckerboard="0"
     showgrid="false"
     inkscape:zoom="0.89998746"
     inkscape:cx="370.56072"
     inkscape:cy="378.89417"
     inkscape:window-width="1920"
     inkscape:window-height="1009"
     inkscape:window-x="0"
     inkscape:window-y="34"
     inkscape:window-maximized="1"
     inkscape:current-layer="svg349"
     fit-margin-top="0"
     fit-margin-left="0"
     fit-margin-right="0"
     fit-margin-bottom="0" />
  <defs
     id="defs13">
    <linearGradient
       id="e2e6f350-b5ca-4a1b-97fa-8ad82b1378fe-630"
       x1="774.13"
       y1="337.35001"
       x2="774.13"
       y2="337.10001"
       gradientTransform="matrix(-1,0,0,1,1184,0)"
       gradientUnits="userSpaceOnUse">
      <stop
         offset="0"
         stop-color="gray"
         stop-opacity="0.25"
         id="stop2" />
      <stop
         offset="0.54"
         stop-color="gray"
         stop-opacity="0.12"
         id="stop4" />
      <stop
         offset="1"
         stop-color="gray"
         stop-opacity="0.1"
         id="stop6" />
    </linearGradient>
    <linearGradient
       id="e032e4db-4b5a-4772-82a4-e151341a8119-631"
       x1="511.76999"
       y1="675.54999"
       x2="511.76999"
       y2="284.01001"
       xlink:href="#e2e6f350-b5ca-4a1b-97fa-8ad82b1378fe-630" />
    <linearGradient
       id="796bd2e3-6922-48c9-8d61-1a37047129f5-632"
       x1="518.29999"
       y1="270.01001"
       x2="518.29999"
       y2="195.00999"
       xlink:href="#e2e6f350-b5ca-4a1b-97fa-8ad82b1378fe-630" />
    <linearGradient
       id="fd3c50c2-1925-4067-85c5-f26d2d595195-633"
       x1="1016.25"
       y1="529.56"
       x2="1016.25"
       y2="466.66"
       xlink:href="#e2e6f350-b5ca-4a1b-97fa-8ad82b1378fe-630" />
    <linearGradient
       id="1c0a27d4-1f07-420a-99e3-d67bda5d7f31-634"
       x1="1039.34"
       y1="567.37"
       x2="1039.34"
       y2="504.47"
       xlink:href="#e2e6f350-b5ca-4a1b-97fa-8ad82b1378fe-630" />
  </defs>
  <title
     id="title15">goal</title>
  <path
     d="m 26.390237,91.251072 c 2.89472,29.131838 23.19656,52.199528 28.01329,80.971928 0.60375,3.77217 0.97306,7.59171 1.10497,11.42786 0.69254,16.52431 -56.9065302,108.25354 -55.48252017,124.80551 2.65347997,31.03955 18.58213017,55.2961 38.80616017,76.31784 15.29836,15.86076 -27.87049,91.67891 -6.26406,132.04915 16.23823,21.43764 42.4397,16.11839 59.520005,72.6863 11.384298,37.72115 12.255818,78.714 20.613118,117.53186 8.3573,38.81787 56.03528,42.01358 88.20385,54.39069 34.52636,13.28949 72.56993,-8.8658 108.10011,-0.11059 38.12918,9.40034 185.16011,-13.27265 222.78341,-1.2181 47.80153,15.31702 95.43971,-22.3212 144.50958,-30.16404 23.56226,-3.76934 47.54482,-0.57139 71.23155,-2.98598 26.36802,-2.71606 51.89946,-12.32233 74.75646,-28.12729 7.78152,-5.4098 15.6486,-12.05454 19.26693,-21.87882 3.11264,-8.48795 2.63798,-18.16477 1.68078,-27.35314 -3.57944,-34.09926 -12.63708,-71.16608 1.61077,-101.13657 13.14295,-27.64806 44.20708,-58.15803 39.48387,-89.37268 -2.84023,-18.79146 -18.43429,-30.52345 -32.89233,-38.93767 -29.81848,-17.35376 20.82067,-57.50426 -5.8309,-80.9406 -19.06452,-16.79159 -35.48337,-40.2187 -42.48676,-66.56729 -2.87159,-10.53446 -4.05395,-21.61216 -3.4861,-32.66156 0.98053,-17.41828 6.06954,-36.97466 -2.80125,-50.91849 -3.84408,-6.04571 -9.73463,-9.75976 -15.65637,-12.59831 -22.33291,-10.69057 -47.14009,-11.30804 -70.36001,-18.90204 -7.96092,-2.574 -15.61213,-6.33994 -22.76859,-11.20668 -14.1622,-9.71368 -25.56214,-24.02617 -28.31671,-42.70703 -1.61077,-10.948629 -0.17908,-22.901809 -4.79342,-32.578629 -7.78143,-16.4045 -23.16538,-23.26122 -40.34688,-25.49151 -21.26681,-2.76481 -108.32533,-0.25274 -124.44846,1.87617 l -1.61078,0.20274 c -20.7065,2.55285 -41.24177,-2.8754 -61.4191,-11.05922 -21.7881,-8.764426 -43.08598,-20.689963 -63.80802,-29.1686981 -1.94536,-0.798719 -5.56273,-2.903266 -13.90345,-1.274283 -20.78039,2.454442 -41.17441,28.1109711 -56.87524,25.3240711 -22.14272,-3.947406 -44.58683,-4.97359 -66.9206,-3.059712 -11.32668,0.966585 -22.59721,2.702032 -33.756,5.197832 -3.27859,0.73728 -6.552,1.52679 -9.82023,2.36852 -19.00233,4.81998 -37.90351,10.70901 -57.28713,11.05922 h -4.18643 c -23.118738,-0.47002 -46.758823,-7.4281 -68.694773,0.9769 -9.97584,3.84307 -19.53925,11.40021 -23.5545,22.86493 -2.23327,6.3867 -2.59122,13.51069 -1.91424,20.367411 z"
     fill="#ffcb57"
     id="path17"
     style="fill:#ffefcd;fill-opacity:1;stroke-width:0.846838"
     sodipodi:nodetypes="cccccccsccccccccccscccccccccccccccccccccccc" />
  <metadata
     id="metadata1168">
    <rdf:RDF>
      <cc:Work
         rdf:about="">
        <dc:title>goal</dc:title>
      </cc:Work>
    </rdf:RDF>
  </metadata>
  <g
     id="g3872"
     transform="translate(124.16288,-11.013134)">
    <polygon
       points="435.621,652.671 423.265,655.481 406.541,609.159 424.778,605.01 "
       fill="#ffb6b6"
       id="polygon3747" />
    <path
       d="m 703.63334,777.61045 -37.99713,8.6454 -0.10935,-0.48053 a 15.16836,15.16836 0 0 1 11.42388,-18.15477 l 9.1e-4,-2.1e-4 5.74235,-6.845 14.14807,2.31939 3.31689,-0.7547 z"
       transform="translate(-264.64361,-112.14923)"
       fill="#2f2e41"
       id="path3749" />
    <polygon
       points="634.947,426.88 641.739,437.577 603.711,468.871 593.685,453.082 "
       fill="#ffb6b6"
       id="polygon3751" />
    <path
       d="m 910.51,531.565 20.89046,32.89549 -0.416,0.26421 a 15.16835,15.16835 0 0 1 -20.935,-4.672 l -5.1e-4,-7.9e-4 -8.3746,-3.11352 -2.56085,-14.10639 -1.8236,-2.87155 z"
       transform="translate(-264.64361,-112.14923)"
       fill="#2f2e41"
       id="path3753" />
    <path
       d="m 505.71851,424.66143 -3.05179,-17.68893 46.39728,-20.95121 10.01992,-17.74014 a 8.6255,8.6255 0 1 1 12.73916,5.72525 l -16.48288,25.48313 z"
       transform="translate(-264.64361,-112.14923)"
       fill="#a0616a"
       id="path3755" />
    <polygon
       points="226.971,298.052 247.865,287.379 253.396,308.147 238.883,318.905 "
       fill="#ffcb57"
       id="polygon3757" />
    <polygon
       points="180.086,651.062 192.719,651.061 198.729,602.332 180.083,602.333 "
       fill="#a0616a"
       id="polygon3759" />
    <path
       d="m 461.56659,764.34828 v -8.56464 l -3.32125,0.20291 -13.51968,0.80093 -3.129,0.19221 -2.3921,28.684 -0.12814,1.53778 h 8.97038 l 0.28836,-1.5271 1.30284,-6.94137 3.36394,6.94139 0.73686,1.5271 h 23.78232 a 5.3736,5.3736 0 0 0 5.33953,-5.35022 c 1.00385,-4.6881 -18.77382,-14.82253 -21.29406,-17.50299 z"
       transform="translate(-264.64361,-112.14923)"
       fill="#2f2e41"
       id="path3761" />
    <polygon
       points="30.123,457.676 27.178,469.962 73.163,487.168 77.509,469.036 "
       fill="#a0616a"
       id="polygon3763" />
    <path
       d="m 290.73483,585.93371 8.32858,1.99694 0.57707,-3.277 2.37341,-13.33379 0.54263,-3.08754 -27.33571,-9.01417 -1.46553,-0.48317 -2.09154,8.72315 1.41778,0.63647 6.44631,2.88537 -7.53442,1.65275 -1.65682,0.36049 -5.5451,23.12679 a 5.37361,5.37361 0 0 0 3.95779,6.43983 c 4.32486,2.06929 18.79135,-14.80032 21.98555,-16.62612 z"
       transform="translate(-264.64361,-112.14923)"
       fill="#2f2e41"
       id="path3765" />
    <path
       d="m 464.26323,447.83918 -16.26123,-7.60151 -32.4281,39.24382 -19.75241,4.99551 a 8.6255,8.6255 0 1 0 2.16908,13.79709 l 28.92383,-9.19171 z"
       transform="translate(-264.64361,-112.14923)"
       fill="#a0616a"
       id="path3767" />
    <path
       d="m 614.704,294.95824 62.5932,-182.809 -68.73128,180.62067 a 3.44161,3.44161 0 1 0 6.138,2.18833 z"
       transform="translate(-264.64361,-112.14923)"
       fill="#f0f0f0"
       opacity="0.3"
       style="isolation:isolate"
       id="path3789" />
    <path
       d="m 447.86906,511.05286 c 0,0 -26.68056,17.3734 -19.62564,28.9179 0.24334,0.39819 -31.8698,42.81114 -31.8698,42.81114 l -60.62192,-3.84843 -2.13581,20.29024 53.96989,15.6309 c 0,0 13.20317,9.70014 23.40295,-0.98735 10.19978,-10.68749 44.17412,-43.41547 44.17412,-43.41547 l 1.63875,66.07682 -17.055,91.56282 25.46506,-1.61459 24.78545,-91.86039 9.14869,-104.05438 z"
       transform="translate(-264.64361,-112.14923)"
       fill="#2f2e41"
       id="path3793" />
    <path
       d="m 466.87374,406.78429 -11.21963,8.50264 -12.78818,27.29364 12.29692,16.70079 c 0,0 10.34382,17.92663 -6.213,35.28742 -16.55682,17.36079 -29.27075,35.903 -16.01861,35.24094 13.25214,-0.66206 66.925,26.63708 67.27817,4.27163 0.35317,-22.36545 1.06791,-39.51257 1.06791,-39.51257 l 14.07182,-35.691 c 0,0 8.38367,-21.29157 2.49756,-27.665 -5.88611,-6.37343 -13.76722,-14.51762 -13.76722,-14.51762 l -14.332,-14.332 h -12.94103 z"
       transform="translate(-264.64361,-112.14923)"
       fill="#ffcb57"
       id="path3795" />
    <path
       d="m 487.81808,354.34275 c 25.17045,14.323 4.50676,52.1142 -21.13292,38.65708 -25.16965,-14.32253 -4.50596,-52.11373 21.13292,-38.65708 z"
       transform="translate(-264.64361,-112.14923)"
       fill="#a0616a"
       id="path3797" />
    <path
       d="m 501.27736,362.28439 c -1.76366,2.29385 -5.44838,1.21828 -12.66425,2.85509 a 30.0806,30.0806 0 0 0 -0.84145,-7.262 20.44136,20.44136 0 0 1 -3.44664,8.17266 c -6.2657,0.69489 1.4152,19.72973 -1.79293,33.72475 -4.1335,-29.525 -12.82753,-21.78969 -8.43537,-15.93348 2.81179,3.74905 0.93726,14.99621 -7.49811,9.37263 -13.918,6.61465 -33.74148,-26.24337 -11.771,-41.6533 -0.39257,-8.32949 8.87553,-9.64531 14.58276,-7.0844 13.85063,-10.31781 29.67486,2.90286 31.86699,17.80805 z"
       transform="translate(-264.64361,-112.14923)"
       fill="#2f2e41"
       id="path3799" />
    <path
       d="m 436.69556,340.74042 c -5.60384,34.45449 -35.64018,-6.33653 -49.76307,27.57014 -4.44043,12.279 3.1782,21.063 7.99731,31.25514 1.09987,8.37608 -9.79671,12.62567 -10.93808,20.33581 -0.31767,17.67633 28.19992,16.59465 36.17224,5.44248 8.19157,-11.67441 -1.59034,-27.33755 3.3334,-39.86846 6.92029,-17.39742 35.06365,-17.52667 37.51543,-37.76706 -4.74831,-6.76177 -17.51639,-14.50614 -24.31723,-6.96805 z"
       transform="translate(-264.64361,-112.14923)"
       fill="#2f2e41"
       id="path3801" />
    <path
       d="m 459.39678,344.1072 c -0.18333,0.0772 -0.36666,0.15436 -0.53067,0.24122 h -0.01 c -0.15435,0.0772 -0.30877,0.15436 -0.46312,0.24122 -0.0193,0.01 -0.0289,0.0193 -0.0482,0.029 -0.20264,-0.193 -0.40523,-0.386 -0.61753,-0.579 a 2.23127,2.23127 0 0 0 0.0386,0.94557 l 0.029,0.11584 c 0.193,0.20259 0.39558,0.39558 0.60788,0.59822 0.193,-0.14475 0.37632,-0.29911 0.56925,-0.44387 0.11584,-0.0965 0.23162,-0.193 0.35706,-0.28945 0.0193,-0.25088 0.0482,-0.54033 0.0772,-0.85876 z m 5.80861,-10.72948 c -4.30339,-0.9842 -5.69283,4.64108 -6.10772,7.35239 -1.5631,-9.84181 -8.0664,-6.74451 -5.81821,-0.029 a 15.03577,15.03577 0 0 0 3.30954,5.32617 c 0.20265,0.23156 0.42455,0.46312 0.65611,0.69474 -0.26053,1.3508 1.05175,1.00346 2.8271,-0.24122 a 23.64644,23.64644 0 0 0 3.61831,-3.1745 c 3.5411,-3.71474 6.30071,-8.68391 1.51487,-9.92858 z m 0.1351,5.53841 a 33.71912,33.71912 0 0 1 -4.44809,4.71829 q -0.76713,0.69468 -1.56311,1.33154 c -0.01,0.0868 -0.01,0.164 -0.0193,0.23156 a 1.76744,1.76744 0 0 1 -0.1351,0.27014 c -0.54033,0.97454 -1.14821,0.44387 -1.37978,-0.3666 -0.0193,-0.029 -0.0482,-0.058 -0.0675,-0.0869 a 13.59562,13.59562 0 0 1 -1.99732,-2.64376 c -3.985,-6.90859 2.43152,-11.60757 2.1131,1.29291 a 1.22205,1.22205 0 0 0 -0.11578,0.37631 2.23127,2.23127 0 0 0 0.0386,0.94557 l 0.029,0.11584 c 0.193,0.20259 0.39558,0.39558 0.60788,0.59822 0.193,-0.14475 0.37632,-0.29911 0.56925,-0.44387 0.11584,-0.0965 0.23162,-0.193 0.35706,-0.28945 0.0193,-0.25088 0.0482,-0.54033 0.0772,-0.85876 v -0.01 c 0.25088,-2.58587 0.936,-7.23661 2.2,-8.50061 2.7788,-2.13241 6.37779,0.17368 3.73402,3.3192 z m -5.94371,5.19107 c -0.18333,0.0772 -0.36666,0.15436 -0.53067,0.24122 h -0.01 c -0.15435,0.0772 -0.30877,0.15436 -0.46312,0.24122 -0.0193,0.01 -0.0289,0.0193 -0.0482,0.029 -0.20264,-0.193 -0.40523,-0.386 -0.61753,-0.579 a 2.23127,2.23127 0 0 0 0.0386,0.94557 l 0.029,0.11584 c 0.193,0.20259 0.39558,0.39558 0.60788,0.59822 0.193,-0.14475 0.37632,-0.29911 0.56925,-0.44387 0.11584,-0.0965 0.23162,-0.193 0.35706,-0.28945 0.0193,-0.25088 0.0482,-0.54033 0.0772,-0.85876 z"
       transform="translate(-264.64361,-112.14923)"
       fill="#2f2e41"
       id="path3803" />
    <path
       d="m 692.04013,534.06684 -9.29621,24.24343 -43.60841,86.02 38.31843,100.06726 19.77606,-5.22045 -16.2999,-94.84679 46.76372,-56.82 55.53618,37.66679 c 0,0 24.62993,19.22833 34,1 9.37007,-18.22833 70,-57 70,-57 l -15,-16 -69.8189,32.67367 -48.189,-67.8277 z"
       transform="translate(-264.64361,-112.14923)"
       fill="#2f2e41"
       id="path3805" />
    <path
       d="m 738.94653,419.71251 -15.30259,-16.44094 -26.25,-3.6113 -32.16394,22.51681 0.324,24.92317 15.8999,58.72909 c 0,0 -6.05632,42.19407 10.85986,41.77091 16.91618,-0.42316 26.13667,-8.85681 33.02643,-7.14 6.88976,1.71681 36.1776,9.02321 38.03368,1.37 1.85608,-7.65321 11.72223,-2.1734 11.28915,-9.4133 -0.43308,-7.2399 -26.70912,-59.42671 -26.70912,-59.42671 l 6.53318,-52.19189 z"
       transform="translate(-264.64361,-112.14923)"
       fill="#ffcb57"
       id="path3807" />
    <path
       d="m 835.83771,344.03191 a 9.37336,9.37336 0 0 1 -10.04227,10.28266 l -35.19059,66.92659 -9.44785,-14.50364 35.96941,-63.16417 a 9.42414,9.42414 0 0 1 18.71131,0.45856 z"
       transform="translate(-264.64361,-112.14923)"
       fill="#ffb6b6"
       id="path3809" />
    <path
       d="m 725.05359,432.1567 c 0,0 -1.39576,11.90471 12.00633,14.85193 13.40209,2.94722 50.53255,-18.26908 56.61959,-21.50955 1.90607,-1.01471 4.49252,-5.98844 7.14634,-12.34227 1.19141,-2.85251 2.3964,-5.98318 3.55951,-9.15866 0.67307,-1.83761 3.896,-2.33916 4.53028,-4.16155 0.63079,-1.81239 -1.32682,-4.94594 -0.75562,-6.65408 2.71126,-8.10776 4.63222,-14.54 4.63222,-14.54 L 803.90952,361.957 c -12.42314,6.56777 -18.79493,21.0345 -23.48121,37.70138 z"
       transform="translate(-264.64361,-112.14923)"
       fill="#ffcb57"
       id="path3811" />
    <path
       d="m 568.53346,359.40109 a 9.37338,9.37338 0 0 0 12.296,7.44229 l 50.81976,55.99017 5.51755,-16.40654 -50.63217,-52.15256 a 9.42414,9.42414 0 0 0 -18.00114,5.12664 z"
       transform="translate(-264.64361,-112.14923)"
       fill="#ffb6b6"
       id="path3813" />
    <path
       d="m 697.84632,416.997 c 0,0 4.3306,11.17659 -7.90745,17.384 -12.23805,6.20741 -53.49655,-5.04152 -60.20085,-6.65554 -2.09936,-0.5054 -5.84822,-4.67359 -10.00769,-10.1611 -1.86737,-2.46358 -3.8175,-5.19306 -5.73828,-7.97641 -1.11154,-1.61069 -4.35744,-1.28972 -5.4276,-2.89539 -1.06428,-1.59685 0.0468,-5.12061 -0.93366,-6.63143 -4.654,-7.17125 -8.12359,-12.9181 -8.12359,-12.9181 l 4.42437,-18.37754 c 13.67146,3.24977 23.46093,15.66156 32.16911,30.62531 z"
       transform="translate(-264.64361,-112.14923)"
       fill="#ffcb57"
       id="path3815" />
    <circle
       cx="446.39896"
       cy="258.35266"
       r="24.97608"
       fill="#ffb6b6"
       id="circle3817" />
    <path
       d="m 739.553,356.2011 c -2.62724,-4.0645 -7.55741,-6.77336 -12.33685,-6.01217 a 16.84708,16.84708 0 0 0 -28.228,-9.82644 5.2387,5.2387 0 0 0 -5.12309,-0.51271 10.802,10.802 0 0 0 -4.16216,3.34089 24.24317,24.24317 0 0 0 -3.39231,24.66312 c -0.58411,-2.12346 1.54395,-4.12116 3.69413,-4.59767 2.15,-0.47651 4.40539,-0.0257 6.58579,-0.336 2.79455,-0.39764 5.30662,-2.01879 8.10559,-2.38364 a 18.45292,18.45292 0 0 1 7.01181,0.901 19.01211,19.01211 0 0 0 7.009,0.94123 c 2.35582,-0.27972 5.39028,8.64788 5.34956,14.9359 -0.008,1.19163 0.2377,2.72158 1.40225,2.97439 1.43413,0.31141 2.26516,-1.668 3.63019,-2.2073 a 2.52535,2.52535 0 0 1 3.09748,1.64714 4.11724,4.11724 0 0 1 -0.78607,3.68694 12.16654,12.16654 0 0 1 -2.9497,2.55878 l 0.56219,0.46757 a 3.34516,3.34516 0 0 0 4.22278,0.5246 9.11368,9.11368 0 0 0 3.03188,-3.45219 40.623,40.623 0 0 0 5.56109,-13.32571 c 0.8801,-4.75883 0.3415,-9.92323 -2.28556,-13.98773 z"
       transform="translate(-264.64361,-112.14923)"
       fill="#2f2e41"
       id="path3819" />
  </g>
</svg>
