<?xml version="1.0" encoding="UTF-8" standalone="no"?>
<svg
   data-name="Layer 1"
   width="500"
   height="500"
   viewBox="0 0 499.99998 499.99999"
   version="1.1"
   id="svg349"
   sodipodi:docname="movement.svg"
   inkscape:version="1.2 (1:1.2+202206011327+fc4e4096c5)"
   xmlns:inkscape="http://www.inkscape.org/namespaces/inkscape"
   xmlns:sodipodi="http://sodipodi.sourceforge.net/DTD/sodipodi-0.dtd"
   xmlns:xlink="http://www.w3.org/1999/xlink"
   xmlns="http://www.w3.org/2000/svg"
   xmlns:svg="http://www.w3.org/2000/svg"
   xmlns:rdf="http://www.w3.org/1999/02/22-rdf-syntax-ns#"
   xmlns:cc="http://creativecommons.org/ns#"
   xmlns:dc="http://purl.org/dc/elements/1.1/">
  <sodipodi:namedview
     id="namedview351"
     pagecolor="#ffffff"
     bordercolor="#666666"
     borderopacity="1.0"
     inkscape:pageshadow="2"
     inkscape:pageopacity="0.0"
     inkscape:pagecheckerboard="0"
     showgrid="false"
     inkscape:zoom="0.63638724"
     inkscape:cx="-172.06505"
     inkscape:cy="472.98246"
     inkscape:window-width="1920"
     inkscape:window-height="1009"
     inkscape:window-x="0"
     inkscape:window-y="34"
     inkscape:window-maximized="1"
     inkscape:current-layer="g3872"
     fit-margin-top="0"
     fit-margin-left="0"
     fit-margin-right="0"
     fit-margin-bottom="0"
     inkscape:showpageshadow="2"
     inkscape:deskcolor="#d1d1d1" />
  <defs
     id="defs13">
    <linearGradient
       id="e2e6f350-b5ca-4a1b-97fa-8ad82b1378fe-630"
       x1="774.13"
       y1="337.35001"
       x2="774.13"
       y2="337.10001"
       gradientTransform="matrix(-1,0,0,1,1184,0)"
       gradientUnits="userSpaceOnUse">
      <stop
         offset="0"
         stop-color="gray"
         stop-opacity="0.25"
         id="stop2" />
      <stop
         offset="0.54"
         stop-color="gray"
         stop-opacity="0.12"
         id="stop4" />
      <stop
         offset="1"
         stop-color="gray"
         stop-opacity="0.1"
         id="stop6" />
    </linearGradient>
    <linearGradient
       id="e032e4db-4b5a-4772-82a4-e151341a8119-631"
       x1="511.76999"
       y1="675.54999"
       x2="511.76999"
       y2="284.01001"
       xlink:href="#e2e6f350-b5ca-4a1b-97fa-8ad82b1378fe-630" />
    <linearGradient
       id="796bd2e3-6922-48c9-8d61-1a37047129f5-632"
       x1="518.29999"
       y1="270.01001"
       x2="518.29999"
       y2="195.00999"
       xlink:href="#e2e6f350-b5ca-4a1b-97fa-8ad82b1378fe-630" />
    <linearGradient
       id="fd3c50c2-1925-4067-85c5-f26d2d595195-633"
       x1="1016.25"
       y1="529.56"
       x2="1016.25"
       y2="466.66"
       xlink:href="#e2e6f350-b5ca-4a1b-97fa-8ad82b1378fe-630" />
    <linearGradient
       id="1c0a27d4-1f07-420a-99e3-d67bda5d7f31-634"
       x1="1039.34"
       y1="567.37"
       x2="1039.34"
       y2="504.47"
       xlink:href="#e2e6f350-b5ca-4a1b-97fa-8ad82b1378fe-630" />
  </defs>
  <title
     id="title15">goal</title>
  <metadata
     id="metadata1168">
    <rdf:RDF>
      <cc:Work
         rdf:about="">
        <dc:title>goal</dc:title>
      </cc:Work>
    </rdf:RDF>
  </metadata>
  <g
     id="g3872"
     transform="translate(124.16288,-11.013134)">
    <polygon
       points="423.265,655.481 406.541,609.159 424.778,605.01 435.621,652.671 "
       fill="#ffb6b6"
       id="polygon3747"
       transform="matrix(0.61825605,0,0,0.61825605,-83.339166,-15.880328)" />
    <path
       d="m 188.06888,395.54509 -23.49195,5.34507 -0.0676,-0.29709 a 9.3779303,9.3779303 0 0 1 7.06289,-11.22429 l 5.6e-4,-1.3e-4 3.55024,-4.23197 8.74713,1.43398 2.05069,-0.4666 z"
       fill="#2f2e41"
       id="path3749"
       style="stroke-width:0.618256" />
    <polygon
       points="641.739,437.577 603.711,468.871 593.685,453.082 634.947,426.88 "
       fill="#ffb6b6"
       id="polygon3751"
       transform="matrix(0.61825605,0,0,0.61825605,-83.339166,-15.880328)" />
    <path
       d="m 315.97163,243.42601 12.91565,20.33783 -0.25719,0.16335 A 9.3779241,9.3779241 0 0 1 315.6869,261.0387 l -3.2e-4,-4.9e-4 -5.17764,-1.92495 -1.58327,-8.72136 -1.12745,-1.77536 z"
       fill="#2f2e41"
       id="path3753"
       style="stroke-width:0.618256" />
    <path
       d="m 65.706845,177.33223 -1.886787,-10.93629 28.685398,-12.95321 6.194877,-10.96795 a 5.3327675,5.3327675 0 1 1 7.876067,3.53967 l -10.190645,15.7551 z"
       fill="#a0616a"
       id="path3755"
       style="stroke-width:0.618256" />
    <polygon
       points="247.865,287.379 253.396,308.147 238.883,318.905 226.971,298.052 "
       fill="#ffcb57"
       id="polygon3757"
       style="fill:#fdcd06;fill-opacity:1"
       transform="matrix(0.61825605,0,0,0.61825605,-83.339166,-15.880328)" />
    <polygon
       points="192.719,651.061 198.729,602.332 180.083,602.333 180.086,651.062 "
       fill="#a0616a"
       id="polygon3759"
       transform="matrix(0.61825605,0,0,0.61825605,-83.339166,-15.880328)" />
    <path
       d="m 38.409654,387.34568 v -5.29514 l -2.053383,0.12545 -8.358624,0.49518 -1.934523,0.11883 -1.47893,17.73406 -0.07922,0.95074 h 5.545991 l 0.178281,-0.94414 0.805488,-4.29154 2.079776,4.29155 0.455569,0.94414 h 14.703562 a 3.3222607,3.3222607 0 0 0 3.301197,-3.3078 c 0.620636,-2.89845 -11.607028,-9.16412 -13.165181,-10.82133 z"
       fill="#2f2e41"
       id="path3761"
       style="stroke-width:0.618256" />
    <polygon
       points="27.178,469.962 73.163,487.168 77.509,469.036 30.123,457.676 "
       fill="#a0616a"
       id="polygon3763"
       transform="matrix(0.61825605,0,0,0.61825605,-83.339166,-15.880328)" />
    <path
       d="m -67.208112,277.03979 5.149195,1.23462 0.356777,-2.02602 1.467375,-8.2437 0.335484,-1.90889 -16.900465,-5.57307 -0.90608,-0.29872 -1.2931,5.39314 0.87655,0.3935 3.985468,1.7839 -4.658198,1.02182 -1.02434,0.22288 -3.42829,14.29828 a 3.3222669,3.3222669 0 0 0 2.44692,3.98146 c 2.67388,1.27935 11.61787,-9.15039 13.592704,-10.2792 z"
       fill="#2f2e41"
       id="path3765"
       style="stroke-width:0.618256" />
    <path
       d="m 40.076868,191.66201 -10.053604,-4.69968 -20.0488689,24.26273 -12.212044,3.08851 a 5.3327675,5.3327675 0 1 0 1.34104695,8.53013 L 16.985728,217.16087 Z"
       fill="#a0616a"
       id="path3767"
       style="stroke-width:0.618256" />
    <path
       d="m 29.941073,230.74425 c 0,0 -16.495417,10.74121 -12.13367,17.87867 0.150446,0.24618 -19.7036949,26.46824 -19.7036949,26.46824 l -37.4798681,-2.37931 -1.320478,12.54456 33.3672111,9.6639 c 0,0 8.16293995,5.99717 14.469013,-0.61043 C 13.445662,287.70227 34.450503,267.468 34.450503,267.468 l 1.013167,40.85239 -10.544357,56.60927 15.743927,-0.99823 15.323755,-56.79324 5.656233,-64.33225 z"
       fill="#2f2e41"
       id="path3793"
       style="stroke-width:0.618256" />
    <path
       d="m 41.690831,166.27958 -6.936604,5.25681 -7.906369,16.87445 7.602645,10.32537 c 0,0 6.395129,11.08325 -3.841225,21.81666 -10.236354,10.73341 -18.096818,22.19725 -9.903602,21.78792 8.193215,-0.40932 41.376786,16.46854 41.595135,2.64096 0.21835,-13.82757 0.660242,-24.42888 0.660242,-24.42888 l 8.699987,-22.06618 c 0,0 5.183255,-13.16364 1.544132,-17.10405 -3.639123,-3.94041 -8.511667,-8.97561 -8.511667,-8.97561 l -8.860846,-8.86084 h -8.00087 z"
       fill="#ffcb57"
       id="path3795"
       style="fill:#fdcd06;fill-opacity:1;stroke-width:0.618256" />
    <path
       d="m 54.639796,133.85728 c 15.561783,8.85528 2.786332,32.21992 -13.065555,23.89997 -15.561289,-8.85499 -2.785837,-32.21963 13.065555,-23.89997 z"
       fill="#a0616a"
       id="path3797"
       style="stroke-width:0.618256" />
    <path
       d="m 62.961078,138.76725 c -1.090394,1.41818 -3.368494,0.75321 -7.82975,1.76517 a 18.597513,18.597513 0 0 0 -0.520231,-4.48977 12.637994,12.637994 0 0 1 -2.130906,5.05279 c -3.873807,0.42962 0.874956,12.19803 -1.10849,20.85053 -2.555561,-18.254 -7.930698,-13.4716 -5.215219,-9.85097 1.738407,2.31788 0.579467,9.2715 -4.635751,5.79469 -8.604888,4.08955 -20.860874,-16.22512 -7.277492,-25.7524 -0.242709,-5.14976 5.48735,-5.96328 9.015879,-4.37998 8.563236,-6.37905 18.346662,1.79471 19.70196,11.00994 z"
       fill="#2f2e41"
       id="path3799"
       style="stroke-width:0.618256" />
    <path
       d="m 23.032989,125.44756 c -3.464608,21.30169 -22.03475695,-3.9176 -30.7663159,17.0454 -2.7453231,7.59157 1.964941,13.02233 4.944385,19.32368 0.680001,5.17856 -6.056875,7.8059 -6.762534,12.57274 -0.196401,10.9285 17.434768,10.25974 22.3637029,3.36484 5.064488,-7.21777 -0.983237,-16.9016 2.060895,-24.64891 4.278511,-10.75606 21.678314,-10.83597 23.194142,-23.34971 -2.935672,-4.18051 -10.829614,-8.96851 -15.034275,-4.30804 z"
       fill="#2f2e41"
       id="path3801"
       style="stroke-width:0.618256" />
    <path
       d="m 37.068156,127.52909 c -0.113345,0.0477 -0.22669,0.0954 -0.32809,0.14913 h -0.0062 c -0.09543,0.0477 -0.190899,0.0954 -0.286327,0.14914 -0.01193,0.006 -0.01787,0.0119 -0.0298,0.0179 -0.125283,-0.11932 -0.250535,-0.23865 -0.381791,-0.35797 a 1.3794962,1.3794962 0 0 0 0.02386,0.5846 l 0.01793,0.0716 c 0.119323,0.12526 0.24457,0.24457 0.375825,0.36986 0.119324,-0.0895 0.232662,-0.18493 0.351943,-0.27443 0.07162,-0.0597 0.1432,-0.11932 0.220754,-0.17895 0.01193,-0.15511 0.0298,-0.33406 0.04773,-0.53094 z m 3.591208,-6.63357 c -2.660597,-0.60848 -3.519627,2.86938 -3.776135,4.54566 -0.966396,-6.08476 -4.9871,-4.16983 -3.597143,-0.0179 a 9.2959557,9.2959557 0 0 0 2.046143,3.29294 c 0.125289,0.14316 0.26248,0.28633 0.405644,0.42953 -0.161075,0.83514 0.65025,0.62039 1.747871,-0.14914 a 14.619554,14.619554 0 0 0 2.237042,-1.96265 c 2.189307,-2.29666 3.895452,-5.36888 0.936578,-6.13841 z m 0.08353,3.42416 a 20.84705,20.84705 0 0 1 -2.750058,2.91711 q -0.474283,0.42949 -0.966402,0.82323 c -0.0062,0.0537 -0.0062,0.1014 -0.01193,0.14317 a 1.0927305,1.0927305 0 0 1 -0.08353,0.16701 c -0.334063,0.60252 -0.709888,0.27443 -0.853058,-0.22665 -0.01193,-0.0179 -0.0298,-0.0359 -0.04173,-0.0537 a 8.4055743,8.4055743 0 0 1 -1.23486,-1.63452 c -2.46375,-4.27128 1.503302,-7.17645 1.306437,0.79935 a 0.7555398,0.7555398 0 0 0 -0.07158,0.23266 1.3794962,1.3794962 0 0 0 0.02386,0.5846 l 0.01793,0.0716 c 0.119324,0.12525 0.24457,0.24457 0.375826,0.36985 0.119323,-0.0895 0.232662,-0.18492 0.351942,-0.27442 0.07162,-0.0597 0.1432,-0.11932 0.220755,-0.17896 0.01193,-0.1551 0.0298,-0.33406 0.04773,-0.53093 v -0.006 c 0.155108,-1.59873 0.578688,-4.47408 1.360163,-5.25555 1.71801,-1.31838 3.943107,0.10738 2.308581,2.05211 z m -3.674734,3.20941 c -0.113345,0.0477 -0.22669,0.0954 -0.32809,0.14913 h -0.0062 c -0.09543,0.0477 -0.190899,0.0954 -0.286327,0.14914 -0.01193,0.006 -0.01787,0.0119 -0.0298,0.0179 -0.125283,-0.11932 -0.250535,-0.23865 -0.381791,-0.35797 a 1.3794962,1.3794962 0 0 0 0.02386,0.5846 l 0.01793,0.0716 c 0.119323,0.12526 0.24457,0.24457 0.375825,0.36986 0.119324,-0.0895 0.232662,-0.18493 0.351943,-0.27443 0.07162,-0.0597 0.1432,-0.11932 0.220754,-0.17895 0.01193,-0.15511 0.0298,-0.33406 0.04773,-0.53094 z"
       fill="#2f2e41"
       id="path3803"
       style="stroke-width:0.618256" />
    <path
       d="m 180.90131,244.97278 -5.74744,14.98865 -26.96116,53.18239 23.6906,61.86718 12.22667,-3.22757 -10.07751,-58.6396 28.91195,-35.12931 34.33558,23.28772 c 0,0 15.2276,11.88803 21.02071,0.61826 5.7931,-11.26978 43.27792,-35.2406 43.27792,-35.2406 l -9.27384,-9.89209 -43.16596,20.20069 -29.79314,-41.93489 z"
       fill="#2f2e41"
       id="path3805"
       style="stroke-width:0.618256" />
    <path
       d="m 209.90148,174.27253 -9.46092,-10.16471 -16.22922,-2.23271 -19.88555,13.92115 0.20031,15.4089 9.83021,36.30962 c 0,0 -3.74436,26.08674 6.71418,25.82512 10.45853,-0.26162 16.15915,-5.47578 20.41879,-4.41435 4.25963,1.06143 22.36701,5.57865 23.51455,0.84701 1.14753,-4.73164 7.24734,-1.34372 6.97958,-5.81983 -0.26775,-4.47611 -16.51307,-36.74092 -16.51307,-36.74092 l 4.03918,-32.26796 z"
       fill="#ffcb57"
       id="path3807"
       style="fill:#fdcd06;fill-opacity:1;stroke-width:0.618256" />
    <path
       d="m 269.80503,127.48254 a 5.7951365,5.7951365 0 0 1 -6.20869,6.35732 l -21.75679,41.37776 -5.84119,-8.96696 22.2383,-39.05163 a 5.8265315,5.8265315 0 0 1 11.56838,0.28351 z"
       fill="#ffb6b6"
       id="path3809"
       style="stroke-width:0.618256" />
    <path
       d="m 201.31208,181.96622 c 0,0 -0.86293,7.36016 7.42299,9.1823 8.28592,1.82214 31.24205,-11.29497 35.0054,-13.29841 1.17844,-0.62735 2.77753,-3.70239 4.41827,-7.63068 0.7366,-1.76359 1.48159,-3.69914 2.20069,-5.6624 0.41613,-1.13611 2.40872,-1.4462 2.80087,-2.5729 0.38999,-1.12053 -0.82031,-3.05786 -0.46716,-4.11393 1.67625,-5.01267 2.86389,-8.98944 2.86389,-8.98944 l -5.49179,-10.31592 c -7.68068,4.06056 -11.62008,13.0047 -14.5174,23.3091 z"
       fill="#ffcb57"
       id="path3811"
       style="fill:#fdcd06;fill-opacity:1;stroke-width:0.618256" />
    <path
       d="m 104.54257,136.98463 a 5.7951488,5.7951488 0 0 0 7.60207,4.60124 l 31.41963,34.61626 3.41126,-10.14344 -31.30365,-32.24364 a 5.8265315,5.8265315 0 0 0 -11.12931,3.16958 z"
       fill="#ffb6b6"
       id="path3813"
       style="stroke-width:0.618256" />
    <path
       d="m 184.49102,172.59365 c 0,0 2.67742,6.90999 -4.88883,10.74776 -7.56624,3.83777 -33.07456,-3.11695 -37.21953,-4.11483 -1.29795,-0.31246 -3.6157,-2.88947 -6.18732,-6.28216 -1.15451,-1.52312 -2.36019,-3.21064 -3.54773,-4.93146 -0.68721,-0.99582 -2.69401,-0.79738 -3.35564,-1.7901 -0.658,-0.98726 0.0289,-3.16584 -0.57724,-4.09992 -2.87737,-4.43367 -5.02246,-7.98669 -5.02246,-7.98669 l 2.73539,-11.36202 c 8.45246,2.00919 14.50486,9.68285 19.88875,18.93428 z"
       fill="#ffcb57"
       id="path3815"
       style="fill:#fdcd06;fill-opacity:1;stroke-width:0.618256" />
    <circle
       cx="192.64969"
       cy="143.84776"
       r="15.441612"
       fill="#ffb6b6"
       id="circle3817"
       style="stroke-width:0.618256" />
    <path
       d="m 210.27643,135.00622 c -1.62431,-2.51291 -4.67241,-4.18768 -7.62733,-3.71706 a 10.415809,10.415809 0 0 0 -17.45213,-6.07526 3.2388579,3.2388579 0 0 0 -3.16738,-0.31699 6.6784018,6.6784018 0 0 0 -2.57328,2.06553 14.988486,14.988486 0 0 0 -2.09732,15.24812 c -0.36113,-1.31284 0.95456,-2.54793 2.28392,-2.84254 1.32925,-0.2946 2.72366,-0.0159 4.0717,-0.20773 1.72775,-0.24584 3.28085,-1.24813 5.01133,-1.4737 a 11.408629,11.408629 0 0 1 4.3351,0.55705 11.754352,11.754352 0 0 0 4.33335,0.58192 c 1.4565,-0.17294 3.33258,5.3466 3.3074,9.23421 -0.005,0.73673 0.14696,1.68263 0.86695,1.83893 0.88666,0.19254 1.40045,-1.03125 2.24439,-1.36467 a 1.5613129,1.5613129 0 0 1 1.91503,1.01835 2.5455085,2.5455085 0 0 1 -0.48599,2.27947 7.5220369,7.5220369 0 0 1 -1.82367,1.58199 l 0.34758,0.28907 a 2.0681654,2.0681654 0 0 0 2.61076,0.32434 5.6345878,5.6345878 0 0 0 1.87447,-2.13434 25.115415,25.115415 0 0 0 3.43818,-8.2387 c 0.54413,-2.94217 0.21114,-6.13509 -1.41306,-8.64799 z"
       fill="#2f2e41"
       id="path3819"
       style="stroke-width:0.618256" />
  </g>
</svg>
