<?xml version="1.0" encoding="UTF-8" standalone="no"?>
<svg
   width="500"
   height="500"
   viewBox="0 0 500.00001 499.99998"
   version="1.1"
   id="svg74"
   sodipodi:docname="music.svg"
   inkscape:version="1.2 (1:1.2+202206011327+fc4e4096c5)"
   xmlns:inkscape="http://www.inkscape.org/namespaces/inkscape"
   xmlns:sodipodi="http://sodipodi.sourceforge.net/DTD/sodipodi-0.dtd"
   xmlns="http://www.w3.org/2000/svg"
   xmlns:svg="http://www.w3.org/2000/svg">
  <defs
     id="defs78" />
  <sodipodi:namedview
     id="namedview76"
     pagecolor="#ffffff"
     bordercolor="#666666"
     borderopacity="1.0"
     inkscape:showpageshadow="2"
     inkscape:pageopacity="0.0"
     inkscape:pagecheckerboard="0"
     inkscape:deskcolor="#d1d1d1"
     showgrid="false"
     inkscape:zoom="1.1593434"
     inkscape:cx="65.123071"
     inkscape:cy="245.82881"
     inkscape:window-width="1920"
     inkscape:window-height="1009"
     inkscape:window-x="0"
     inkscape:window-y="34"
     inkscape:window-maximized="1"
     inkscape:current-layer="svg74" />
  <g
     id="g6"
     transform="matrix(0.79997366,0,0,0.79997366,93.785078,66.606039)">
    <polygon
       points="162.93495,400.51687 158.4897,364.47332 172.28134,364.47429 172.27946,400.51778 "
       fill="#a0616a"
       id="polygon2" />
    <path
       d="m 140.26397,400.3058 v 0 c -0.29096,0.49002 -0.44448,2.0716 -0.44448,2.64146 v 0 c 0,1.75159 1.41992,3.17157 3.17157,3.17157 h 28.93888 c 1.19492,0 2.16366,-0.96868 2.16366,-2.16366 v -1.20482 c 0,0 1.43158,-3.62111 -1.51579,-8.08432 0,0 -3.66318,3.49476 -9.13692,-1.97897 l -1.61416,-2.92417 -11.68427,8.54529 -6.47641,0.79718 c -1.41691,0.17439 -2.67313,-0.0271 -3.40197,1.20044 z"
       fill="#2f2e41"
       id="path4" />
  </g>
  <g
     id="g12"
     transform="matrix(0.79997366,0,0,0.79997366,93.785078,66.606039)">
    <polygon
       points="121.06664,400.51687 116.6214,364.47332 130.41303,364.47429 130.41116,400.51778 "
       fill="#a0616a"
       id="polygon8" />
    <path
       d="m 98.39566,400.3058 v 0 c -0.29096,0.49002 -0.44448,2.0716 -0.44448,2.64146 v 0 c 0,1.75159 1.41992,3.17157 3.17157,3.17157 h 28.93888 c 1.19492,0 2.16366,-0.96868 2.16366,-2.16366 v -1.20482 c 0,0 1.43158,-3.62111 -1.51579,-8.08432 0,0 -3.66318,3.49476 -9.13692,-1.97897 l -1.61416,-2.92417 -11.68427,8.54529 -6.47641,0.79718 c -1.41691,0.17439 -2.67313,-0.0271 -3.40197,1.20044 z"
       fill="#2f2e41"
       id="path10" />
  </g>
  <polygon
     points="173.08183,174.39122 181.78174,196.68474 174.98494,374.76097 155.95389,374.76097 138.82595,214.08455 134.74787,375.30472 116.26056,374.76097 96.14202,195.86912 109.46376,179.82867 "
     fill="#2f2e41"
     id="polygon14"
     transform="matrix(0.79997366,0,0,0.79997366,93.785078,66.606039)" />
  <path
     d="m 199.40491,104.98134 18.26921,-1.30494 5.65475,9.13459 16.96426,4.7848 -6.30723,44.15057 6.74221,65.89963 c 0,0 -24.35895,-3.47983 -26.09886,3.47985 -1.73992,6.95969 -44.36806,-6.95969 -44.36806,-6.95969 l 14.57186,-45.02054 -1.30495,-35.23347 -3.91482,-20.44412 17.83422,-8.26464 z"
     fill="#e6e6e6"
     id="path16"
     style="fill:#575a89;fill-opacity:1;stroke-width:0.799973" />
  <path
     d="m 191.14027,118.03077 c 0,0 -14.55816,-0.21749 -16.52243,5.87224 -1.96426,6.08974 -8.48898,48.2829 -8.48898,48.2829 l -5.00229,18.4867 22.40153,-11.09203 -4.7848,-7.38268 15.65932,-30.02569 z"
     fill="#e6e6e6"
     id="path18"
     style="fill:#575a89;fill-opacity:1;stroke-width:0.799973" />
  <path
     d="m 200.04645,185.67031 c 2.4071,0.002 4.64495,-1.38487 5.5808,-3.60259 0.70776,-1.67718 0.64102,-3.28635 0.11142,-4.66598 0.17041,-0.0706 0.33937,-0.1441 0.51385,-0.20654 -0.25634,-0.10391 -0.50544,-0.22122 -0.75439,-0.33876 -0.86712,-1.72825 -2.52956,-2.98243 -4.50958,-3.28706 -2.45262,-2.62722 -3.9602,-6.14752 -3.97593,-10.02187 -0.0325,-7.98492 6.44494,-14.6547 14.42763,-14.84624 0.0628,-0.001 0.1256,-0.002 0.18828,-0.004 3.57456,-0.0412 6.81721,1.95838 8.62827,5.04045 1.05677,1.79843 3.00959,3.0057 5.24697,3.0057 1.71283,0 3.25803,-0.70812 4.36254,-1.84719 2.40645,-2.48173 5.41975,-4.32833 8.82989,-4.89483 2.23948,-0.37201 4.55727,-0.51238 6.92871,-0.39449 16.2336,0.80698 30.19997,15.19462 30.54664,31.44456 0.38612,18.09897 -14.16993,32.89196 -32.18109,32.89196 -9.37182,0 -17.80409,-4.00783 -23.68486,-10.40107 -2.61087,-2.83836 -6.26946,-4.42827 -10.1258,-4.38889 -0.0392,3.9e-4 -0.0786,6e-4 -0.11781,6e-4 -6.24605,0 -11.3095,-5.06346 -11.3095,-11.30951 0,-0.3464 0.0172,-0.68857 0.0494,-1.02638 0.0604,-0.63163 0.61,-1.14919 1.24451,-1.14854 v 0 z"
     fill="#fdcd06"
     id="path20"
     style="stroke-width:0.799973" />
  <polygon
     points="64.33299,111.31689 63.78924,121.10429 198.09407,153.1852 199.7253,136.87287 "
     fill="#fdcd06"
     id="polygon38"
     transform="matrix(0.79997366,0,0,0.79997366,93.785078,66.606039)" />
  <path
     d="m 146.55472,156.96157 -1.30494,-1.30494 c 0,0 -5.65476,-2.60988 -5.65476,-3.04487 0,-0.27226 -8.3501,-3.10067 -14.59746,-5.17873 -3.48904,-1.16055 -7.1737,1.13602 -7.6705,4.77928 l -0.78288,5.74108 c -0.46812,3.43283 2.122,6.52267 5.58383,6.66114 l 15.2921,0.61168 7.39468,-1.73993 z"
     fill="#fdcd06"
     id="path40"
     style="stroke-width:0.799973" />
  <polygon
     points="199.77628,138.50888 64.29741,112.60828 64.06112,114.30749 199.45343,139.86346 "
     fill="#3f3d56"
     id="polygon42"
     transform="matrix(0.79997366,0,0,0.79997366,93.785078,66.606039)" />
  <polygon
     points="199.45343,140.95095 64.15006,115.28931 64.06112,117.02621 199.14306,142.43563 "
     fill="#3f3d56"
     id="polygon44"
     transform="matrix(0.79997366,0,0,0.79997366,93.785078,66.606039)" />
  <polygon
     points="198.90968,143.12593 64.04386,117.24126 64.06112,118.65744 198.83269,145.51809 "
     fill="#3f3d56"
     id="polygon46"
     transform="matrix(0.79997366,0,0,0.79997366,93.785078,66.606039)" />
  <polygon
     points="198.36594,146.93214 63.84712,119.19269 63.73136,119.72369 198.47134,149.09809 "
     fill="#3f3d56"
     id="polygon48"
     transform="matrix(0.79997366,0,0,0.79997366,93.785078,66.606039)" />
  <polygon
     points="198.36594,149.65086 64.04943,120.09008 63.9289,120.62002 198.46895,151.26882 "
     fill="#3f3d56"
     id="polygon50"
     transform="matrix(0.79997366,0,0,0.79997366,93.785078,66.606039)" />
  <path
     d="m 190.31827,115.25743 5.38931,-2.98417 2.33759,47.73317 -0.81516,5.87225 c 0,0 -13.606,-37.51776 -6.91175,-50.62125 z"
     fill="#3f3d56"
     id="path52"
     style="stroke-width:0.799973" />
  <circle
     cx="208.757"
     cy="86.929611"
     r="13.484411"
     fill="#a0616a"
     id="circle54"
     style="stroke-width:0.799973" />
  <path
     d="m 197.23001,94.976767 3.22369,2.573472 -3.65866,-13.882984 c 0,0 10.22204,-0.217489 11.09201,-5.872245 0,0 8.04715,-0.217488 10.22206,-0.217488 2.1749,0 3.15622,14.391055 3.15622,14.391055 0,0 4.23845,-11.781171 -0.11141,-17.870904 -4.3498,-6.089736 -2.82737,-2.392396 -3.69734,-4.567298 -0.86997,-2.174904 -9.78708,-4.175135 -15.44183,-1.957415 -5.65475,2.217719 -5.87224,5.379044 -7.61216,5.408152 -1.73992,0.02914 -7.82966,8.728736 -2.17491,15.688422 5.65476,6.959698 5.00228,6.307233 5.00228,6.307233 z"
     fill="#2f2e41"
     id="path56"
     style="stroke-width:0.799973" />
  <path
     d="m 238.42571,183.4644 c 1.59828,-1.27528 2.77602,-2.80582 3.43975,-4.31862 l 15.99315,-11.18697 -5.54584,-7.45445 -15.62633,12.15068 c -1.62242,0.3113 -3.37623,1.11985 -4.9745,2.39513 -3.65129,2.91337 -5.10827,7.1587 -3.25431,9.48221 1.85397,2.32354 6.3168,1.84537 9.96807,-1.06798 v 0 z"
     fill="#a0616a"
     id="path58"
     style="stroke-width:0.799973" />
  <path
     d="m 177.15352,166.44784 c -1.18594,1.66564 -1.89735,3.46106 -2.11945,5.09806 l -12.29988,15.15393 7.38206,5.64183 11.6822,-15.97958 c 1.47425,-0.7455 2.93806,-2.0052 4.12399,-3.67084 2.70927,-3.80518 2.94256,-8.2875 0.5211,-10.01156 -2.42148,-1.72408 -6.58074,-0.037 -9.29001,3.76815 v 0 z"
     fill="#a0616a"
     id="path60"
     style="stroke-width:0.799973" />
  <path
     d="m 233.33343,120.42316 c 0,0 3.91484,-6.52472 7.82967,-2.60989 3.0978,3.0978 20.08626,22.80992 27.04232,30.90283 1.91824,2.23176 2.97137,5.07534 2.97137,8.01818 v 0 c 0,4.55206 -2.51321,8.73217 -6.53358,10.86703 l -21.74018,11.54429 -6.08974,-9.13461 18.70418,-13.48441 -28.70875,-15.65932 6.52471,-20.44411 z"
     fill="#e6e6e6"
     id="path62"
     style="fill:#575a89;fill-opacity:1;stroke-width:0.799973" />
  <polyline
     points="88.5082 142.43563 84.17965 155.0883 96.68577 161.61323 106.20129 155.0883 112.18248 141.22282 94.51079 136.05725"
     fill="#e6e6e6"
     id="polyline64"
     transform="matrix(0.79997366,0,0,0.79997366,93.785078,66.606039)"
     style="fill:#575a89;fill-opacity:1" />
  <path
     d="m 326.32993,83.539364 -32.86176,8.926659 4.78136,21.323317 c -1.54605,-1.03744 -3.40567,-1.64383 -5.40744,-1.64383 -5.36733,0 -9.71837,4.35108 -9.71837,9.71837 0,5.36728 4.35104,9.71834 9.71837,9.71834 5.36733,0 9.71834,-4.35104 9.71834,-9.71834 0,-1.86554 -0.53489,-3.60208 -1.44617,-5.08206 l -3.79082,-16.905849 28.3495,-8.912973 2.59276,12.593172 c -1.55613,-1.05861 -3.43473,-1.67849 -5.4587,-1.67849 -5.36729,0 -9.71836,4.35109 -9.71836,9.71837 0,5.36728 4.35108,9.71834 9.71836,9.71834 5.36729,0 9.71833,-4.35104 9.71833,-9.71834 0,-1.88543 -0.54572,-3.63945 -1.475,-5.12952 z"
     fill="#fdcd06"
     id="path66"
     style="stroke-width:0.799973" />
  <path
     d="m 358.5586,103.4722 c -5.31159,0 -9.61744,4.30585 -9.61744,9.61744 0,1.5015 0.35396,2.91696 0.96758,4.18318 l 5.48905,22.64244 3.11581,-0.75528 -4.23439,-17.46685 c 1.29014,0.64306 2.73989,1.01396 4.2794,1.01396 5.31158,0 9.61744,-4.30591 9.61744,-9.61745 0,-5.31154 -4.30586,-9.61744 -9.61744,-9.61744 z"
     fill="#fdcd06"
     id="path68"
     style="stroke-width:0.799973" />
  <path
     d="m 397.69716,153.37603 -5.44913,-21.79381 -3.30818,0.77751 4.26227,17.04682 c -1.31089,-0.59356 -2.76773,-0.93463 -4.31005,-0.93463 -5.63953,0 -10.21123,4.43262 -10.21123,9.90057 0,5.46796 4.5717,9.90057 10.21123,9.90057 5.63952,0 10.21123,-4.43266 10.21123,-9.90057 0,-1.82483 -0.51802,-3.52856 -1.40614,-4.99646 z"
     fill="#fdcd06"
     id="path70"
     style="stroke-width:0.799973" />
</svg>
