<?xml version="1.0" encoding="UTF-8" standalone="no"?>
<svg
   data-name="Layer 1"
   width="884.81274"
   height="765.79346"
   viewBox="0 0 884.81271 765.79344"
   version="1.1"
   id="svg349"
   sodipodi:docname="undraw_goal_-0-v5v.svg"
   inkscape:version="1.1.2 (1:1.1+202202050950+0a00cf5339)"
   xmlns:inkscape="http://www.inkscape.org/namespaces/inkscape"
   xmlns:sodipodi="http://sodipodi.sourceforge.net/DTD/sodipodi-0.dtd"
   xmlns:xlink="http://www.w3.org/1999/xlink"
   xmlns="http://www.w3.org/2000/svg"
   xmlns:svg="http://www.w3.org/2000/svg"
   xmlns:rdf="http://www.w3.org/1999/02/22-rdf-syntax-ns#"
   xmlns:cc="http://creativecommons.org/ns#"
   xmlns:dc="http://purl.org/dc/elements/1.1/">
  <sodipodi:namedview
     id="namedview351"
     pagecolor="#ffffff"
     bordercolor="#666666"
     borderopacity="1.0"
     inkscape:pageshadow="2"
     inkscape:pageopacity="0.0"
     inkscape:pagecheckerboard="0"
     showgrid="false"
     inkscape:zoom="0.31819362"
     inkscape:cx="293.84625"
     inkscape:cy="562.55057"
     inkscape:window-width="1920"
     inkscape:window-height="1009"
     inkscape:window-x="0"
     inkscape:window-y="34"
     inkscape:window-maximized="1"
     inkscape:current-layer="g5194"
     fit-margin-top="0"
     fit-margin-left="0"
     fit-margin-right="0"
     fit-margin-bottom="0" />
  <defs
     id="defs13">
    <linearGradient
       id="e2e6f350-b5ca-4a1b-97fa-8ad82b1378fe-630"
       x1="774.13"
       y1="337.35001"
       x2="774.13"
       y2="337.10001"
       gradientTransform="matrix(-1,0,0,1,1184,0)"
       gradientUnits="userSpaceOnUse">
      <stop
         offset="0"
         stop-color="gray"
         stop-opacity="0.25"
         id="stop2" />
      <stop
         offset="0.54"
         stop-color="gray"
         stop-opacity="0.12"
         id="stop4" />
      <stop
         offset="1"
         stop-color="gray"
         stop-opacity="0.1"
         id="stop6" />
    </linearGradient>
    <linearGradient
       id="e032e4db-4b5a-4772-82a4-e151341a8119-631"
       x1="511.76999"
       y1="675.54999"
       x2="511.76999"
       y2="284.01001"
       xlink:href="#e2e6f350-b5ca-4a1b-97fa-8ad82b1378fe-630" />
    <linearGradient
       id="796bd2e3-6922-48c9-8d61-1a37047129f5-632"
       x1="518.29999"
       y1="270.01001"
       x2="518.29999"
       y2="195.00999"
       xlink:href="#e2e6f350-b5ca-4a1b-97fa-8ad82b1378fe-630" />
    <linearGradient
       id="fd3c50c2-1925-4067-85c5-f26d2d595195-633"
       x1="1016.25"
       y1="529.56"
       x2="1016.25"
       y2="466.66"
       xlink:href="#e2e6f350-b5ca-4a1b-97fa-8ad82b1378fe-630" />
    <linearGradient
       id="1c0a27d4-1f07-420a-99e3-d67bda5d7f31-634"
       x1="1039.34"
       y1="567.37"
       x2="1039.34"
       y2="504.47"
       xlink:href="#e2e6f350-b5ca-4a1b-97fa-8ad82b1378fe-630" />
    <linearGradient
       id="ad33f4e3-bf33-4b8e-8318-953234af509e-75"
       x1="837"
       y1="580.8"
       x2="989.66"
       y2="580.8"
       gradientTransform="matrix(-1, 0, 0, 1, 1862, 0)"
       gradientUnits="userSpaceOnUse">
      <stop
         offset="0"
         stop-color="gray"
         stop-opacity="0.25"
         id="stop4555" />
      <stop
         offset="0.54"
         stop-color="gray"
         stop-opacity="0.12"
         id="stop4557" />
      <stop
         offset="1"
         stop-color="gray"
         stop-opacity="0.1"
         id="stop4559" />
    </linearGradient>
    <linearGradient
       id="af5f6ae9-e1dc-4eac-800c-2506307954c8-76"
       x1="-106.89"
       y1="588.73"
       x2="-106.89"
       y2="244.28"
       gradientTransform="matrix(-0.76051831,-0.03042073,-0.03042073,0.76051831,1569.3675,109.62661)"
       xlink:href="#ad33f4e3-bf33-4b8e-8318-953234af509e-75" />
  </defs>
  <title
     id="title15">goal</title>
  <path
     d="m 26.390237,91.251072 c 2.89472,29.131838 23.19656,52.199528 28.01329,80.971928 0.60375,3.77217 0.97306,7.59171 1.10497,11.42786 0.69254,16.52431 -56.9065302,108.25354 -55.48252017,124.80551 2.65347997,31.03955 18.58213017,55.2961 38.80616017,76.31784 15.29836,15.86076 -27.87049,91.67891 -6.26406,132.04915 16.23823,21.43764 42.4397,16.11839 59.520005,72.6863 11.384298,37.72115 12.255818,78.714 20.613118,117.53186 8.3573,38.81787 56.03528,42.01358 88.20385,54.39069 34.52636,13.28949 72.56993,-8.8658 108.10011,-0.11059 38.12918,9.40034 185.16011,-13.27265 222.78341,-1.2181 47.80153,15.31702 95.43971,-22.3212 144.50958,-30.16404 23.56226,-3.76934 47.54482,-0.57139 71.23155,-2.98598 26.36802,-2.71606 51.89946,-12.32233 74.75646,-28.12729 7.78152,-5.4098 15.6486,-12.05454 19.26693,-21.87882 3.11264,-8.48795 2.63798,-18.16477 1.68078,-27.35314 -3.57944,-34.09926 -12.63708,-71.16608 1.61077,-101.13657 13.14295,-27.64806 44.20708,-58.15803 39.48387,-89.37268 -2.84023,-18.79146 -18.43429,-30.52345 -32.89233,-38.93767 -29.81848,-17.35376 20.82067,-57.50426 -5.8309,-80.9406 -19.06452,-16.79159 -35.48337,-40.2187 -42.48676,-66.56729 -2.87159,-10.53446 -4.05395,-21.61216 -3.4861,-32.66156 0.98053,-17.41828 6.06954,-36.97466 -2.80125,-50.91849 -3.84408,-6.04571 -9.73463,-9.75976 -15.65637,-12.59831 -22.33291,-10.69057 -47.14009,-11.30804 -70.36001,-18.90204 -7.96092,-2.574 -15.61213,-6.33994 -22.76859,-11.20668 -14.1622,-9.71368 -25.56214,-24.02617 -28.31671,-42.70703 -1.61077,-10.948629 -0.17908,-22.901809 -4.79342,-32.578629 -7.78143,-16.4045 -23.16538,-23.26122 -40.34688,-25.49151 -21.26681,-2.76481 -108.32533,-0.25274 -124.44846,1.87617 l -1.61078,0.20274 c -20.7065,2.55285 -41.24177,-2.8754 -61.4191,-11.05922 -21.7881,-8.764426 -43.08598,-20.689963 -63.80802,-29.1686981 -1.94536,-0.798719 -5.56273,-2.903266 -13.90345,-1.274283 -20.78039,2.454442 -41.17441,28.1109711 -56.87524,25.3240711 -22.14272,-3.947406 -44.58683,-4.97359 -66.9206,-3.059712 -11.32668,0.966585 -22.59721,2.702032 -33.756,5.197832 -3.27859,0.73728 -6.552,1.52679 -9.82023,2.36852 -19.00233,4.81998 -37.90351,10.70901 -57.28713,11.05922 h -4.18643 c -23.118738,-0.47002 -46.758823,-7.4281 -68.694773,0.9769 -9.97584,3.84307 -19.53925,11.40021 -23.5545,22.86493 -2.23327,6.3867 -2.59122,13.51069 -1.91424,20.367411 z"
     fill="#ffcb57"
     id="path17"
     style="fill:#ffefcd;fill-opacity:1;stroke-width:0.846838"
     sodipodi:nodetypes="cccccccsccccccccccscccccccccccccccccccccccc" />
  <metadata
     id="metadata1168">
    <rdf:RDF>
      <cc:Work
         rdf:about="">
        <dc:title>goal</dc:title>
      </cc:Work>
    </rdf:RDF>
  </metadata>
  <g
     id="g5194"
     transform="translate(-1188.6444,-58.95317)">
    <path
       d="m 1902.1475,467.22992 -2.9964,4.00033 a 5.0954727,5.0954727 0 0 0 -0.6997,1.10275 c -0.4563,1.04952 -0.2054,2.28156 -0.4487,3.39191 a 7.0728203,7.0728203 0 0 1 -0.8746,2.03059 46.832717,46.832717 0 0 1 -3.8026,5.67346 10.16813,10.16813 0 0 1 -2.3652,2.3424 3.9242745,3.9242745 0 0 1 -3.1942,0.56278 2.0001632,2.0001632 0 0 1 1.0495,0.95065 11.605509,11.605509 0 0 1 0.7605,7.42266 7.6051831,7.6051831 0 0 1 -0.8365,2.43366 3.6504879,3.6504879 0 0 1 -1.9089,1.65032 2.8139177,2.8139177 0 0 0 3.3158,2.38043 5.5441785,5.5441785 0 0 0 1.6427,-0.82136 l 4.8141,-3.11813 a 12.791918,12.791918 0 0 0 2.2436,-1.68074 c 0.8974,-0.89742 1.521,-2.03059 2.4032,-2.95842 1.521,-1.57427 3.6809,-2.51732 4.738,-4.41861 0.6617,-1.18641 0.7605,-2.59337 1.1788,-3.89385 0.2662,-0.84418 0.6617,-1.65033 0.9126,-2.50211 a 11.179619,11.179619 0 0 0 -0.9886,-8.01586 c -1.2397,-2.47169 -3.1638,-4.43382 -4.9434,-6.53286 z"
       fill="#f86d70"
       id="path4615"
       style="stroke-width:0.760518" />
    <path
       d="m 1623.6305,282.93352 v 255.08545 a 84.493584,84.493584 0 0 0 -26.3368,-4.06117 c -37.927,0 -68.728,26.83869 -68.728,64.76574 0,37.92705 30.801,64.46914 68.728,64.46914 37.9271,0 68.9182,-27.92624 68.9182,-68.44665 V 417.6061 h 200.0163 v 120.41287 a 84.455558,84.455558 0 0 0 -26.3367,-4.06117 c -37.9271,0 -68.7281,26.83869 -68.7281,64.76574 0,37.92705 30.801,64.46914 68.7281,64.46914 37.927,0 68.9181,-27.92624 68.9181,-68.44665 V 282.93352 Z m 242.6053,95.06479 h -200.0163 v -52.47576 h 200.0163 z"
       fill="#ffcb57"
       id="path4635"
       style="stroke-width:0.760518" />
    <path
       d="m 1421.3326,254.79435 v 171.19267 a 64.758134,64.758134 0 1 0 32.3981,55.97414 v -162.2946 h 64.9483 v -64.87221 z"
       fill="#ffcb57"
       id="path4637"
       style="stroke-width:0.760518" />
    <path
       d="m 1403.97,656.01338 a 41.326565,41.326565 0 0 0 -11.9021,-4.21327 54.430295,54.430295 0 0 0 8.9056,-2.00016 c 7.7345,-2.44887 11.636,-5.73431 8.708,-7.339 -2.928,-1.6047 -11.5751,-0.92783 -19.3096,1.52103 a 29.812318,29.812318 0 0 0 -7.415,3.29305 c -0.7986,-1.69596 -2.9737,-3.6657 -6.3656,-5.52897 -6.8446,-3.80259 -16.1078,-5.68107 -20.6252,-4.2513 -4.5175,1.42978 -2.6086,5.64305 4.2665,9.42283 a 41.166856,41.166856 0 0 0 10.6472,3.9623 62.613472,62.613472 0 0 0 -7.339,1.30048 c -8.4189,2.02298 -13.2862,5.07266 -10.8754,6.84467 2.4109,1.772 11.2025,1.52103 19.6214,-0.48673 a 36.672193,36.672193 0 0 0 8.822,-3.11813 c 0.6921,1.74919 2.9052,3.80259 6.4796,5.78754 6.8447,3.8026 16.1078,5.68108 20.6253,4.2513 4.5175,-1.42977 2.6009,-5.67346 -4.2437,-9.44564 z"
       fill="#ffcb57"
       id="path4639"
       style="stroke-width:0.760518" />
    <path
       d="m 1452.4226,600.43471 a 20.153735,20.153735 0 0 0 -5.7723,-2.0458 27.165714,27.165714 0 0 0 4.3197,-0.96586 c 3.757,-1.19401 5.6507,-2.78349 4.2285,-3.56683 -1.4222,-0.78333 -5.6202,-0.4487 -9.3772,0.76052 a 14.967,14.967 0 0 0 -3.5972,1.59709 c -0.3879,-0.82136 -1.445,-1.77961 -3.0877,-2.68463 -3.3387,-1.83285 -7.8258,-2.75308 -10.0161,-2.061 -2.1903,0.69207 -1.2624,2.74547 2.0686,4.56311 a 19.933185,19.933185 0 0 0 5.1868,1.9165 31.181251,31.181251 0 0 0 -3.5669,0.63884 c -4.0839,0.97346 -6.4492,2.45647 -5.278,3.30825 1.1712,0.85178 5.4377,0.76052 9.5217,-0.23576 a 18.085125,18.085125 0 0 0 4.2894,-1.52104 c 0.3346,0.84418 1.4069,1.85567 3.1409,2.80632 3.3387,1.83285 7.8181,2.76068 10.016,2.06861 2.1979,-0.69208 1.2625,-2.74547 -2.0762,-4.57832 z"
       fill="#ffcb57"
       id="path4641"
       style="stroke-width:0.760518" />
    <path
       d="m 1322.0774,544.0879 a 12.647419,12.647419 0 0 0 -3.6353,-1.27767 15.833991,15.833991 0 0 0 2.7227,-0.60841 c 2.35,-0.76052 3.5364,-1.74159 2.6466,-2.22832 -0.8899,-0.48673 -3.5136,-0.28139 -5.8636,0.46392 a 9.3391648,9.3391648 0 0 0 -2.2816,0.99628 4.4490321,4.4490321 0 0 0 -1.9317,-1.67314 c -2.0838,-1.14839 -4.8901,-1.72638 -6.2667,-1.29289 -1.3765,0.4335 -0.7605,1.71117 1.3005,2.85955 a 12.388843,12.388843 0 0 0 3.2474,1.20162 18.731566,18.731566 0 0 0 -2.2359,0.40308 c -2.5553,0.60841 -4.0384,1.52103 -3.3083,2.06861 0.7301,0.54757 3.4072,0.46391 5.9625,-0.1445 a 11.362144,11.362144 0 0 0 2.6846,-0.95065 4.236087,4.236087 0 0 0 1.9622,1.7568 c 2.0914,1.14838 4.8977,1.72637 6.2666,1.29288 1.369,-0.4335 0.8138,-1.71877 -1.27,-2.86716 z"
       fill="#ffcb57"
       id="path4643"
       style="stroke-width:0.760518" />
    <path
       d="m 1508.7922,254.79435 v 54.22495 h -64.9482 v 162.29461 a 64.849396,64.849396 0 0 1 -105.0961,50.87107 64.857001,64.857001 0 0 0 115.7433,-40.22382 v -162.2946 h 64.9483 v -64.87221 z"
       opacity="0.1"
       id="path4645"
       style="stroke-width:0.760518" />
    <path
       d="m 1325.5377,268.87914 0.2206,1.65793 7.1869,1.0191 c 0,0 0.5856,-0.4411 1.521,-1.04191 1.7036,-1.11796 4.5631,-2.7835 6.9968,-3.25502 3.7646,-0.76052 15.7351,-6.12217 11.8793,-6.47201 -3.8558,-0.34984 -3.4604,0.44871 -3.4604,0.44871 0,0 -4.2513,-4.17525 -8.6395,-0.35745 -3.331,2.89758 -10.6472,6.0157 -13.9859,7.34661 -1.0647,0.41828 -1.7188,0.65404 -1.7188,0.65404 z"
       fill="#efb7b9"
       id="path4647"
       style="stroke-width:0.760518" />
    <path
       d="m 1354.2473,249.82056 a 12.168293,12.168293 0 0 1 3.4451,-0.88221 4.1904559,4.1904559 0 0 1 3.2779,1.09515 c 0.4639,0.47913 0.7605,1.09515 1.2168,1.58188 2.1903,2.3424 6.4416,0.5932 9.0806,2.41084 1.6199,1.12557 2.1218,3.24742 2.6998,5.14111 0.578,1.89369 1.6275,3.9699 3.5593,4.37298 a 10.555994,10.555994 0 0 0 2.8063,-0.10648 2.7606815,2.7606815 0 0 1 2.5249,0.92784 c 0.8974,1.36132 -0.3422,3.63527 0.9583,4.60874 1.1635,0.85938 3.2702,-0.34224 4.0839,0.85178 a 1.7796128,1.7796128 0 0 1 -0.2814,1.97734 13.742566,13.742566 0 0 0 -1.3233,1.65793 2.5097104,2.5097104 0 0 0 2.4717,3.6657 c 0.8214,-0.0836 1.696,-0.54757 2.4109,-0.1445 a 1.703561,1.703561 0 0 1 0.7605,1.34612 3.5364101,3.5364101 0 0 1 -3.179,3.71894 c -1.3993,0.0913 -2.6846,-0.66926 -3.9319,-1.3081 -1.2472,-0.63883 -2.715,-1.1788 -4.0079,-0.64644 a 6.190619,6.190619 0 0 0 -1.6123,1.13318 17.65163,17.65163 0 0 1 -4.9586,2.9356 c -1.5818,0.62362 -3.4223,0.99628 -4.9433,0.22055 -1.7112,-0.8746 -2.5934,-3.00405 -4.4034,-3.65049 -1.8101,-0.64644 -3.8787,0.56278 -5.6127,1.58948 -1.7339,1.0267 -4.0535,1.88609 -5.6202,0.62363 -1.6883,-1.36133 -1.1712,-4.09159 -2.1979,-6.00049 a 5.8940169,5.8940169 0 0 0 -1.6503,-1.81764 c -1.156,-0.88981 -2.4717,-1.55906 -3.6353,-2.43366 a 6.0841465,6.0841465 0 0 1 -2.4793,-3.48317 c -0.3422,-1.72638 0.4791,-3.45276 1.4146,-4.94337 0.9354,-1.49062 2.023,-2.95081 2.3272,-4.67719 0.2281,-1.29288 0,-2.639 0.2966,-3.91667 a 4.8292913,4.8292913 0 0 1 3.1333,-3.30825 c 0.8518,-0.289 1.0039,-0.21295 1.4374,-0.96586 a 3.0420732,3.0420732 0 0 1 1.9317,-1.57427 z"
       fill="#3f3d56"
       id="path4649"
       style="stroke-width:0.760518" />
    <g
       opacity="0.1"
       id="g4657"
       transform="matrix(0.76051831,0,0,0.76051831,1231.6365,159.68393)">
      <path
         d="m 249.51,225.44 a 8.51,8.51 0 0 1 0.18,3 8.11,8.11 0 0 1 -0.18,-3 z"
         transform="translate(-50.4,-87.11)"
         id="path4651" />
      <path
         d="m 253.79,236.89 a 3.27,3.27 0 0 0 -0.34,1.1 3.38,3.38 0 0 1 0.12,-2.8 17.79,17.79 0 0 1 1.74,-2.17 3.69,3.69 0 0 0 0.5,-1 l 0.08,0.09 a 2.34,2.34 0 0 1 -0.36,2.59 17.88,17.88 0 0 0 -1.74,2.19 z"
         transform="translate(-50.4,-87.11)"
         id="path4653" />
      <path
         d="m 200.82,234.21 c 1.53,1.16 3.25,2 4.77,3.21 a 7.62,7.62 0 0 1 2.17,2.39 c 1.35,2.51 0.67,6.1 2.89,7.89 2.06,1.66 5.12,0.54 7.4,-0.82 2.28,-1.36 4.88,-3 7.37,-2.09 2.49,0.91 3.54,3.65 5.8,4.8 2,1 4.41,0.52 6.5,-0.29 a 23.3,23.3 0 0 0 6.51,-3.86 8.6,8.6 0 0 1 2.12,-1.5 c 1.71,-0.69 3.64,0 5.28,0.86 1.64,0.86 3.33,1.84 5.16,1.72 a 4.7,4.7 0 0 0 4.15,-4.11 3,3 0 0 1 0.22,0.88 4.64,4.64 0 0 1 -4.15,4.92 c -1.83,0.12 -3.53,-0.88 -5.16,-1.71 -1.63,-0.83 -3.57,-1.55 -5.28,-0.86 a 8.83,8.83 0 0 0 -2.12,1.49 23.33,23.33 0 0 1 -6.51,3.87 c -2.08,0.81 -4.51,1.3 -6.5,0.29 -2.26,-1.15 -3.41,-3.95 -5.8,-4.8 -2.39,-0.85 -5.1,0.73 -7.37,2.09 -2.27,1.36 -5.34,2.48 -7.4,0.81 -2.22,-1.79 -1.54,-5.37 -2.89,-7.89 a 7.7,7.7 0 0 0 -2.17,-2.38 c -1.51,-1.17 -3.24,-2.05 -4.77,-3.21 a 8,8 0 0 1 -3.27,-4.58 5.41,5.41 0 0 1 -0.1,-1.2 8.36,8.36 0 0 0 3.15,4.08 z"
         transform="translate(-50.4,-87.11)"
         id="path4655" />
    </g>
    <path
       d="m 1349.1138,311.05749 -2.6086,0.55518 c 0,0 2.5706,4.22848 6.5329,1.45259 3.9623,-2.77589 -3.9243,-2.00777 -3.9243,-2.00777 z"
       fill="#4c4981"
       id="path4659"
       style="stroke-width:0.760518" />
    <path
       d="m 1349.1138,311.05749 -2.6086,0.55518 c 0,0 2.5706,4.22848 6.5329,1.45259 3.9623,-2.77589 -3.9243,-2.00777 -3.9243,-2.00777 z"
       opacity="0.1"
       id="path4661"
       style="stroke-width:0.760518" />
    <path
       d="m 1405.7344,350.41431 c 0,0 3.6201,1.87088 6.9892,4.03835 2.4184,1.52104 4.7076,3.24742 5.4529,4.51748 1.7948,3.04208 10.5179,6.34273 10.5179,6.34273 l 8.6547,6.58608 c 2.0382,0.67687 4.0232,3.15616 4.8369,4.26651 0.2434,0.33463 0.3879,0.54758 0.3879,0.54758 l 3.468,-0.44871 1.8252,-2.37282 c 0,0 0.4639,-5.23236 -3.1409,-5.17152 a 4.9585794,4.9585794 0 0 1 -2.0306,-0.52476 c -3.8787,-1.71117 -9.3012,-7.11085 -9.3012,-7.11085 0,0 -9.2174,-11.51424 -11.9781,-11.8945 a 4.5631099,4.5631099 0 0 1 -0.867,-0.22055 c -2.8063,-0.98107 -6.8447,-4.60114 -6.8447,-4.60114 z"
       fill="#efb7b9"
       id="path4663"
       style="stroke-width:0.760518" />
    <path
       d="m 1369.9824,383.7022 c 0.9202,5.52897 5.1107,16.10017 6.4568,18.30567 1.6732,2.73027 2.5478,8.19839 2.5478,8.19839 l 0.4943,3.80259 a 4.4110062,4.4110062 0 0 0 0.5476,1.47541 8.0386785,8.0386785 0 0 0 0.4867,0.76052 l 6.9435,-2.13706 c 0,0 -0.403,-1.59709 -1.0115,-3.42994 -0.6084,-1.83285 -1.521,-4.13722 -2.388,-4.989 -1.6959,-1.66553 -1.9469,-7.54434 -1.9469,-7.54434 0,0 -1.4146,-11.3013 -1.8481,-12.72347 a 19.621372,19.621372 0 0 1 -0.7605,-4.16764 c -0.068,-0.76052 -0.1141,-1.62751 -0.1217,-2.60858 a 53.304728,53.304728 0 0 0 -1.0951,-8.3657 l -8.0995,1.4678 -0.213,9.05777 a 6.0385154,6.0385154 0 0 0 0.01,2.89758 z"
       fill="#efb7b9"
       id="path4665"
       style="stroke-width:0.760518" />
    <path
       d="m 1442.186,376.16546 c 0.2434,0.33463 0.3879,0.54758 0.3879,0.54758 l 3.468,-0.44871 1.8252,-2.37282 c 0,0 0.4639,-5.23236 -3.1409,-5.17152 a 4.9585794,4.9585794 0 0 1 -2.0306,-0.52476 c -0.2966,1.56667 1.4602,2.86715 1.4602,2.86715 0,0 0.7605,0.53237 0.5552,2.98884 -0.1141,1.67314 -1.5971,2.03059 -2.525,2.11424 z"
       opacity="0.1"
       id="path4667"
       style="stroke-width:0.760518" />
    <path
       d="m 1441.8058,376.48488 c 0.2281,0.84418 2.4184,2.08382 3.9395,2.85955 0.7605,0.38026 1.3309,0.64644 1.4449,0.70728 0.3499,0.17492 2.1903,-1.87087 2.4413,-3.5212 0.251,-1.65032 4.6392,-6.78382 4.6392,-6.78382 a 18.404543,18.404543 0 0 0 1.6275,-6.42638 c 0.1673,-2.24353 -0.7605,-2.42606 -1.8633,-1.91651 a 7.3694224,7.3694224 0 0 0 -2.0838,1.63512 5.566994,5.566994 0 0 1 -2.6999,1.39935 13.210203,13.210203 0 0 0 -3.8862,1.65793 c -1.0647,0.68447 -2.099,1.52104 -2.2816,2.28155 -0.403,1.61991 1.4374,2.98884 1.4374,2.98884 0,0 0.7605,0.53236 0.5552,2.98884 -0.2053,2.45647 -3.293,2.0534 -3.2702,2.12945 z"
       fill="#444053"
       id="path4669"
       style="stroke-width:0.760518" />
    <path
       d="m 1445.7453,379.34443 c 0.7605,0.38026 1.3309,0.64644 1.4449,0.70728 0.3499,0.17492 2.1903,-1.87087 2.4413,-3.5212 0.251,-1.65032 4.6392,-6.78382 4.6392,-6.78382 a 18.404543,18.404543 0 0 0 1.6275,-6.42638 c 0.1673,-2.24353 -0.7605,-2.42606 -1.8633,-1.91651 -0.1825,1.77961 -0.6312,5.23997 -1.521,7.0424 -1.1104,2.14466 -5.5594,9.03496 -6.7686,10.89823 z"
       opacity="0.1"
       id="path4671"
       style="stroke-width:0.760518" />
    <path
       d="m 1380.0973,415.34737 -0.068,0.12928 a 8.0386785,8.0386785 0 0 0 0.4867,0.76052 l 6.9435,-2.13705 c 0,0 -0.403,-1.59709 -1.0115,-3.42994 -2.7454,-0.76052 -6.6849,4.03835 -6.6849,4.03835 z"
       opacity="0.1"
       id="path4673"
       style="stroke-width:0.760518" />
    <path
       d="m 1379.6334,420.51889 c 0,0 5.7951,2.03058 8.3657,1.71877 1.985,-0.23576 2.0686,-1.15599 1.9317,-3.04207 -0.046,-0.60842 -0.1065,-1.30809 -0.1445,-2.11424 -0.1293,-3.34628 -1.4754,-4.02314 -1.4754,-4.02314 -2.2055,-5.77994 -8.5558,1.97734 -8.5558,1.97734 l 0.327,0.63884 a 6.9967684,6.9967684 0 0 0 -0.6464,3.15615 9.2174819,9.2174819 0 0 0 0.1977,1.68835 z"
       fill="#444053"
       id="path4675"
       style="stroke-width:0.760518" />
    <path
       d="m 1379.6334,420.51889 c 0,0 5.7951,2.03058 8.3657,1.71877 1.985,-0.23576 2.0686,-1.15599 1.9317,-3.04207 a 6.1373828,6.1373828 0 0 1 -4.7228,1.35372 18.579462,18.579462 0 0 1 -5.7723,-1.71877 9.2174819,9.2174819 0 0 0 0.1977,1.68835 z"
       opacity="0.1"
       id="path4677"
       style="stroke-width:0.760518" />
    <path
       d="m 1350.9086,279.9599 2.2816,9.88673 0.4639,2.03819 4.1904,0.53237 4.3198,0.54757 4.7,-1.70356 c 0,0 1.3081,-4.47185 0.2282,-7.82574 a 4.9585794,4.9585794 0 0 0 -2.1751,-2.86715 4.8292913,4.8292913 0 0 1 -0.905,-0.69968 3.9699056,3.9699056 0 0 1 -0.7606,-1.08754 4.4946632,4.4946632 0 0 1 -0.403,-1.57427 c -0.2358,-2.66942 1.4526,-5.58981 1.4526,-5.58981 0,0 -9.9628,-3.39952 -9.1871,-1.20162 0.5095,1.42217 -0.8974,3.90146 -1.9469,5.46813 -0.5704,0.84417 -1.0343,1.42977 -1.0343,1.42977 z"
       fill="#efb7b9"
       id="path4679"
       style="stroke-width:0.760518" />
    <circle
       cx="1359.8979"
       cy="267.495"
       r="8.6546984"
       opacity="0.1"
       id="circle4681"
       style="stroke-width:0.760518" />
    <circle
       cx="1359.8599"
       cy="267.1756"
       r="8.6546984"
       fill="#efb7b9"
       id="circle4683"
       style="stroke-width:0.760518" />
    <path
       d="m 1351.5322,312.85992 c 0.4107,1.9089 2.2816,4.91295 2.2816,4.91295 l 12.0846,2.96602 8.6319,-9.03496 v -0.0608 c -0.2662,-0.84418 -3.5592,-11.49904 -1.1788,-14.12283 2.4945,-2.73026 1.5211,-10.43431 1.5211,-10.43431 0,0 -4.3122,-4.95858 -5.1868,-6.1602 -0.8746,-1.20161 -6.472,-2.14466 -6.472,-2.14466 0.2814,0.38026 0.54,0.76052 0.7605,1.08754 a 10.647256,10.647256 0 0 1 1.3766,2.92039 4.3653751,4.3653751 0 0 1 -0.1141,3.17137 3.4831739,3.4831739 0 0 0 -0.2966,0.81375 c -0.9431,4.12961 -5.2476,3.55162 -6.9588,3.14094 -0.4411,-0.10647 -0.7148,-0.19773 -0.7148,-0.19773 l -4.1144,0.12928 -2.5858,0.0837 c 0,0 1.1788,20.36668 0.8974,21.98659 a 2.6009726,2.6009726 0 0 0 0.068,0.94304 z"
       fill="#f86d70"
       id="path4685"
       style="stroke-width:0.760518" />
    <path
       d="m 1350.6348,290.97981 7.4911,-0.98107 h -0.1369 c -0.4411,-0.10647 -0.7072,-0.19774 -0.7072,-0.19774 l -4.122,0.12929 -2.5782,0.0837 c 0,0 0.015,0.33463 0.053,0.96586 z"
       fill="#925978"
       id="path4687"
       style="stroke-width:0.760518" />
    <polygon
       points="178.52,209.74 180.27,207.91 167.52,209.58 171.79,210.62 "
       fill="#925978"
       id="polygon4689"
       transform="matrix(0.76051831,0,0,0.76051831,1231.6365,159.68393)" />
    <polygon
       points="174.63,211.32 176.56,211.79 177.35,210.96 "
       fill="#925978"
       id="polygon4691"
       transform="matrix(0.76051831,0,0,0.76051831,1231.6365,159.68393)" />
    <path
       d="m 1351.5322,312.85992 c 1.9318,0.19773 3.7114,0.2966 3.7114,0.2966 l 9.9552,-0.37265 v -10.39629 a 14.74645,14.74645 0 0 0 -4.0156,-2.6466 c -1.734,-0.60081 -3.8026,-2.44127 -3.3919,-7.29337 0,-0.28139 0.046,-0.57039 0.084,-0.86699 a 11.164409,11.164409 0 0 0 0.091,-1.63512 8.7459606,8.7459606 0 0 0 -2.7606,-6.40356 1.3156967,1.3156967 0 0 0 -0.1445,-0.12929 l -1.62,-7.54434 a 1.6122988,1.6122988 0 0 0 -0.327,0.0456 c -0.5704,0.84417 -1.0343,1.42977 -1.0343,1.42977 l -1.194,2.61619 2.2816,9.88673 -2.5858,0.0837 c 0,0 1.1788,20.36668 0.8974,21.98659 a 2.6009726,2.6009726 0 0 0 0.053,0.94304 z"
       opacity="0.1"
       id="path4693"
       style="stroke-width:0.760518" />
    <path
       d="m 1354.9166,313.22497 9.9551,-0.36505 v -10.40389 a 14.837712,14.837712 0 0 0 -4.0079,-2.64661 c -1.8328,-0.63883 -4.0155,-2.6466 -3.3082,-8.16036 a 9.0273523,9.0273523 0 0 0 -2.6467,-8.08431 l -0.1521,-0.12929 -1.6199,-7.54434 a 3.5059894,3.5059894 0 0 0 -2.5629,1.4678 6.4263797,6.4263797 0 0 1 -0.6008,0.8822 1.5210366,1.5210366 0 0 1 -2.0002,0.59321 c -1.0495,-0.46392 -5.567,-2.37282 -6.5785,-0.50194 -1.0115,1.87087 -1.2016,13.01247 -1.2016,13.01247 a 8.5101999,8.5101999 0 0 1 2.928,4.81408 c 0.6921,3.18657 1.8481,3.26262 1.8481,3.26262 l 1.2472,9.12622 c 0,0 1.1332,1.98495 0.289,3.0801"
       fill="#444053"
       id="path4695"
       style="stroke-width:0.760518" />
    <path
       d="m 1349.9732,278.24112 1.6959,5.08027 3.2398,0.28139 -0.1521,-0.12929 -1.6199,-7.54434 a 3.5059894,3.5059894 0 0 0 -2.5629,1.4678 6.4263797,6.4263797 0 0 1 -0.6008,0.84417 z"
       fill="#444053"
       id="path4697"
       style="stroke-width:0.760518" />
    <path
       d="m 1325.5377,268.87914 0.2206,1.65793 7.1869,1.0191 c 0,0 0.5856,-0.4411 1.521,-1.04191 -0.7605,-0.17492 -4.3349,-0.95065 -6.2058,-1.52104 -0.6921,-0.21294 -1.1484,-0.39547 -1.1636,-0.51715 -0.015,-0.12168 0.046,-0.1445 0.1597,-0.23576 -1.0647,0.40307 -1.7188,0.63883 -1.7188,0.63883 z"
       opacity="0.1"
       id="path4699"
       style="stroke-width:0.760518" />
    <path
       d="m 1317.1112,279.61006 c 0,0 8.1451,6.18301 13.195,7.17929 0,0 7.1032,2.09903 9.8867,4.56311 l 3.0421,-11.72719 -1.8633,-1.28528 c 0,0 -2.2283,1.37654 -4.1448,0.92023 -1.9165,-0.45631 -4.0384,-0.76052 -4.0384,-0.76052 a 31.226882,31.226882 0 0 0 -5.1639,-1.41456 c -1.3689,-0.11408 -0.8137,-1.89369 0.5552,-2.83674 a 2.9736266,2.9736266 0 0 1 0.5704,-0.31941 1.7644025,1.7644025 0 0 0 2.2815,0.51715 5.2095504,5.2095504 0 0 0 1.3386,-1.24725 v 0 a 17.362633,17.362633 0 0 0 1.521,-2.28156 c 0,0 -4.2513,-0.91262 -6.3655,-1.56666 -0.6921,-0.21295 -1.1484,-0.39547 -1.1636,-0.51716 -0.061,-0.48673 3.8026,-2.02298 3.8026,-2.02298 0,0 -3.3007,-1.59708 -4.6392,-0.43349 0,0 0.867,0.64644 0.1673,1.28528 -0.6997,0.63883 -9.1262,7.12605 -9.1262,7.12605 0,0 -4.16,2.0458 0.1445,4.82169 z"
       fill="#444053"
       id="path4701"
       style="stroke-width:0.760518" />
    <path
       d="m 1324.1156,273.60957 4.5098,0.64644 a 2.9736266,2.9736266 0 0 1 0.5704,-0.31942 1.7644025,1.7644025 0 0 0 2.2816,0.51715 5.2095504,5.2095504 0 0 0 1.3385,-1.24725 v 0 a 17.826549,17.826549 0 0 0 1.232,-1.92411 c 0,0 -4.2513,-0.91262 -6.3655,-1.56667 z"
       opacity="0.1"
       id="path4703"
       style="stroke-width:0.760518" />
    <path
       d="m 1324.3741,273.24452 4.7989,0.69207 a 1.7644025,1.7644025 0 0 0 2.2816,0.51715 c 1.3765,-0.76051 2.8595,-3.54401 2.8595,-3.54401 0,0 -4.2513,-0.91262 -6.3655,-1.56667 z"
       fill="#444053"
       id="path4705"
       style="stroke-width:0.760518" />
    <path
       d="m 1413.7274,344.40622 -7.993,6.04612 c 0,0 3.6201,1.87087 6.9892,4.03835 2.9432,-1.99256 5.719,-3.80259 7.8257,-5.48334 -2.8063,-1.01909 -6.8219,-4.60113 -6.8219,-4.60113 z"
       opacity="0.1"
       id="path4707"
       style="stroke-width:0.760518" />
    <path
       d="m 1369.9824,383.7022 a 27.082057,27.082057 0 0 0 5.856,-1.39935 c 0,0 1.4754,-0.31942 3.6657,-1.04952 -0.068,-0.76052 -0.1141,-1.62751 -0.1217,-2.60858 a 53.304728,53.304728 0 0 0 -1.0951,-8.3657 l -8.0995,1.4678 -0.213,9.05777 a 6.0385154,6.0385154 0 0 0 0.01,2.89758 z"
       opacity="0.1"
       id="path4709"
       style="stroke-width:0.760518" />
    <path
       d="m 1355.5478,346.95395 c 1.6275,2.41085 6.0841,12.66263 6.0841,12.66263 a 43.60812,43.60812 0 0 0 3.3919,5.22476 c 1.7721,2.22832 2.9965,7.24014 4.3426,11.24807 1.3461,4.00793 -0.3955,3.25502 -0.2053,5.32363 0.1901,2.06861 7.8029,-0.60842 7.8029,-0.60842 0,0 15.5526,-3.42233 20.3058,-12.92881 4.7533,-9.50648 23.7358,-18.11554 27.5764,-23.46199 3.8406,-5.34644 -1.0875,-3.14094 -0.8974,-6.03851 0.1901,-2.89758 -2.0002,-5.32363 -2.0002,-5.32363 0,0 -7.164,-2.02298 -8.3276,-3.42994 -1.1636,-1.40696 -6.8827,-4.92816 -6.8827,-4.92816 0,0 -5.3921,-2.33479 -6.0842,-3.14854 -0.692,-0.81376 -7.0804,-3.33868 -9.0349,-3.80259 -1.9546,-0.46392 -3.8711,-3.27023 -3.8711,-3.27023 0,0 -1.2092,0.15971 -2.9964,-1.57428 -1.7872,-1.73398 -9.2859,-3.22459 -9.2859,-3.22459 -12.7996,9.43042 -21.6444,8.11473 -21.6444,8.11473 l -0.2053,1.77961 c -6.8067,8.86764 0.3042,24.97542 1.9317,27.38626 z"
       fill="#444053"
       id="path4711"
       style="stroke-width:0.760518" />
    <path
       d="m 1353.6161,319.55248 c 0,0 11.0655,3.64288 21.8573,-9.8335 -12.8072,9.38479 -21.652,8.0691 -21.652,8.0691 z"
       opacity="0.1"
       id="path4713"
       style="stroke-width:0.760518" />
    <path
       d="m 1372.6594,325.84197 c 0,0 14.8606,21.45422 15.7808,22.23755 0.9202,0.78333 -14.9974,-22.50374 -15.7808,-22.23755 z"
       opacity="0.1"
       id="path4715"
       style="stroke-width:0.760518" />
    <path
       d="m 1365.792,324.19925 c 0,0 10.2898,15.97088 10.0844,18.13075 0,0 -9.9323,-15.35486 -10.0844,-18.13075 z"
       opacity="0.1"
       id="path4717"
       style="stroke-width:0.760518" />
    <path
       d="m 1359.7991,328.58744 c 0,0 1.9013,8.93609 -0.9583,14.00114 z"
       opacity="0.1"
       id="path4719"
       style="stroke-width:0.760518" />
    <path
       d="m 1355.8444,329.10459 c 0,0 -0.1217,7.73447 -0.9887,9.32395 z"
       opacity="0.1"
       id="path4721"
       style="stroke-width:0.760518" />
    <polygon
       points="196.46,213.7 214.43,220.74 207.85,221.6 "
       opacity="0.1"
       id="polygon4723"
       transform="matrix(0.76051831,0,0,0.76051831,1231.6365,159.68393)" />
    <path
       d="m 1354.1408,262.37671 c 0.6845,0.45631 1.2549,1.17881 2.0686,1.28528 a 3.2550184,3.2550184 0 0 0 1.6808,-0.41068 c 1.3613,-0.59321 2.8976,-1.04952 4.3121,-0.5856 2.0078,0.66165 3.1105,2.97363 5.1107,3.65809 a 3.6428827,3.6428827 0 0 0 1.9165,0.10648 3.7113293,3.7113293 0 0 0 1.0799,-0.44111 3.4755687,3.4755687 0 0 0 1.5211,-2.15987 4.4718477,4.4718477 0 0 0 -1.5211,-4.21327 9.3315597,9.3315597 0 0 0 -4.2513,-1.93172 c -4.0155,-0.8898 -8.1907,-0.5932 -12.2899,-0.28139 a 1.787218,1.787218 0 0 0 -0.9583,0.25097 c -0.6236,0.46392 -1.6883,2.79871 -1.4678,3.58965 0.3042,1.0267 2.6846,0.26618 2.7987,1.13317 z"
       opacity="0.1"
       id="path4725"
       style="stroke-width:0.760518" />
    <path
       d="m 1354.1028,262.0573 c 0.6845,0.4487 1.2472,1.1788 2.0686,1.28527 a 3.2169924,3.2169924 0 0 0 1.6731,-0.41828 c 1.3614,-0.59321 2.9052,-1.04952 4.3122,-0.5856 2.0078,0.66925 3.1105,2.98123 5.1107,3.65809 a 3.5744361,3.5744361 0 0 0 1.9165,0.10647 3.4983842,3.4983842 0 0 0 1.0799,-0.43349 3.5592257,3.5592257 0 0 0 1.5667,-2.15987 4.4946632,4.4946632 0 0 0 -1.5591,-4.22088 9.3619804,9.3619804 0 0 0 -4.2513,-1.92411 c -4.0155,-0.89741 -8.1832,-0.59321 -12.29,-0.289 a 1.8100336,1.8100336 0 0 0 -0.9582,0.25858 c -0.616,0.45631 -1.6884,2.7987 -1.4678,3.58964 0.3042,1.05712 2.6846,0.25097 2.7987,1.13318 z"
       fill="#3f3d56"
       id="path4727"
       style="stroke-width:0.760518" />
    <path
       d="m 1407.0121,268.42283 1.308,5.28561 1.696,-1.0267 9.2175,-5.55939 c 0,0 6.9815,-0.25858 7.5215,-5.8712 0.54,-5.61263 -7.7573,-0.0532 -8.1984,0.37265 -0.4411,0.42589 -1.445,1.1788 -1.445,1.1788 l -8.5786,4.79127 z"
       fill="#efb7b9"
       id="path4729"
       style="stroke-width:0.760518" />
    <path
       d="m 1407.0121,268.42283 1.308,5.28561 1.696,-1.0267 c -0.3726,-2.38803 -0.9582,-4.56311 -1.521,-5.09548 z"
       opacity="0.1"
       id="path4731"
       style="stroke-width:0.760518" />
    <path
       d="m 1361.5179,302.98079 1.8784,11.02751 11.1188,-2.30437 c -0.2662,-0.84417 -3.5592,-11.49904 -1.1788,-14.12282 2.4945,-2.73027 1.521,-10.43432 1.521,-10.43432 0,0 -4.3121,-4.95858 -5.1867,-6.16019 -0.8746,-1.20162 -6.472,-2.14467 -6.472,-2.14467 a 4.4946632,4.4946632 0 0 1 -0.4031,-1.57427 6.3275123,6.3275123 0 0 0 -0.4259,1.1788 c 0,2.00777 0.8138,3.39192 2.9661,4.40341 0.1901,0.0913 0.3878,0.17491 0.6008,0.25857 0.3346,0.1369 0.7072,0.26618 1.1027,0.38787 l 0.1825,0.0532 c 3.5821,1.06473 4.3578,3.20939 4.3578,3.20939 a 8.2059926,8.2059926 0 0 1 1.6275,5.77994 c -0.3498,3.38431 -11.6891,10.44192 -11.6891,10.44192 z"
       opacity="0.1"
       id="path4733"
       style="stroke-width:0.760518" />
    <path
       d="m 1362.1415,302.89713 1.8785,11.01991 12.5713,-2.61618 c 0,0 -0.3802,-4.16004 -1.2548,-5.84839 -0.8746,-1.68835 -0.6997,-8.28204 -0.6997,-8.28204 5.3236,-5.73431 2.5249,-10.39629 2.5249,-10.39629 0,0 15.6439,-2.54013 15.9101,-3.04207 0.2661,-0.50195 5.4833,-3.28544 5.4833,-3.28544 0,0 5.6659,-1.45259 6.434,-2.28156 a 6.8446648,6.8446648 0 0 1 0.9278,-0.84417 2.4412638,2.4412638 0 0 1 0.3042,-0.19774 l 0.4183,3.61246 h 0.1901 a 5.148709,5.148709 0 0 0 2.4641,-0.97346 c 1.2929,-0.98867 -0.3422,-11.82606 -1.5971,-12.20632 a 1.4449848,1.4449848 0 0 0 -0.7225,0 8.1679666,8.1679666 0 0 0 -2.6998,1.4602 l -0.2206,0.17492 -0.076,0.0684 c 0,0 -7.0804,2.7759 -8.495,4.05357 -1.4146,1.27767 -12.4269,2.89757 -12.4269,2.89757 0,0 -4.9357,1.1712 -5.5746,0.46392 -0.6388,-0.70728 -8.1755,-1.86327 -8.8068,-0.76052 -0.6312,1.10275 -2.3804,0.90502 -2.3804,0.90502 -1.2396,-1.42978 -2.099,-0.8746 -2.6238,-0.0532 a 5.7419132,5.7419132 0 0 0 -0.6692,1.58948 c 0,2.1903 0.9658,3.62767 3.5668,4.66198 0.3955,0.1521 0.8214,0.30421 1.2853,0.4411 3.5896,1.06473 4.3577,3.20939 4.3577,3.20939 a 8.1907822,8.1907822 0 0 1 1.6352,5.77994 c -0.3423,3.39191 -11.7044,10.44952 -11.7044,10.44952 z"
       fill="#444053"
       id="path4735"
       style="stroke-width:0.760518" />
    <path
       d="m 1407.0121,267.59387 a 1.1711982,1.1711982 0 0 1 0.403,0.0456 c 1.2549,0.38026 2.8824,11.22525 1.5895,12.21392 a 5.0954727,5.0954727 0 0 1 -2.1979,0.95065 h -0.1901 l -0.4183,-3.61246 a 2.4412638,2.4412638 0 0 0 -0.3042,0.19773 v -0.1521 a 9.3847959,9.3847959 0 0 0 -1.7872,-8.02347 z"
       opacity="0.1"
       id="path4737"
       style="stroke-width:0.760518" />
    <path
       d="m 1406.1907,277.1764 0.4183,3.61246 a 5.0574468,5.0574468 0 0 0 2.6846,-1.0267 c 1.2929,-0.98867 -0.3422,-11.82606 -1.5971,-12.20632 -0.9886,-0.3042 -2.7302,0.92783 -3.4223,1.45259 a 9.4000063,9.4000063 0 0 1 1.9165,8.16797 z"
       fill="#444053"
       id="path4739"
       style="stroke-width:0.760518" />
    <path
       d="m 1366.5981,282.99436 1.8024,-1.68835 -4.7,-4.56311 a 5.7419132,5.7419132 0 0 0 -0.6692,1.58949 c 0.015,2.19029 0.9658,3.62767 3.5668,4.66197 z"
       fill="#444053"
       id="path4741"
       style="stroke-width:0.760518" />
    <path
       d="m 1354.0191,261.41085 c 0.6845,0.44871 1.2473,1.17881 2.0687,1.28528 a 3.2169924,3.2169924 0 0 0 1.6731,-0.41828 c 1.3613,-0.59321 2.9052,-1.04952 4.3121,-0.5856 2.0078,0.66925 3.1106,2.98123 5.1107,3.65809 a 3.5744361,3.5744361 0 0 0 1.9165,0.10647 3.4755687,3.4755687 0 0 0 2.6466,-2.59337 3.4603583,3.4603583 0 0 0 0.084,-0.96585 3.6048568,3.6048568 0 0 1 0,1.6123 3.528805,3.528805 0 0 1 -1.5667,2.15987 3.4223324,3.4223324 0 0 1 -1.0799,0.43349 3.5440153,3.5440153 0 0 1 -1.9089,-0.10647 c -2.0078,-0.67686 -3.1105,-2.98884 -5.1183,-3.65809 -1.407,-0.46392 -2.9508,0 -4.3122,0.5856 a 3.2169924,3.2169924 0 0 1 -1.6731,0.41828 c -0.8137,-0.10647 -1.3841,-0.83657 -2.0686,-1.28527 -0.1141,-0.88221 -2.4945,-0.0761 -2.7911,-1.13318 a 1.2624604,1.2624604 0 0 1 0,-0.48673 c 0.4715,0.81376 2.5934,0.1445 2.7074,0.97346 z"
       opacity="0.1"
       id="path4743"
       style="stroke-width:0.760518" />
    <path
       d="m 1361.381,286.30262 c 0,0 -0.9963,2.79871 0.2737,3.74175 0,0 -1.3917,-3.70373 -2.1979,-3.62007"
       opacity="0.1"
       id="path4745"
       style="stroke-width:0.760518" />
    <path
       d="m 1423.3252,259.04564 c 0,0 -6.4264,5.55939 -1.7796,6.4568 4.6467,0.89741 1.7796,-6.4568 1.7796,-6.4568 z"
       fill="#efb7b9"
       id="path4747"
       style="stroke-width:0.760518" />
    <g
       opacity="0.1"
       id="g4755"
       transform="matrix(0.76051831,0,0,0.76051831,1231.6365,159.68393)">
      <path
         d="m 871.84,420.25 h -263 v 232.94 c 0,53.26 -40.75,90 -90.62,90 a 100.13,100.13 0 0 1 -34.82,-6.11 97.54,97.54 0 0 0 47.82,12.11 c 49.87,0 90.62,-36.72 90.62,-90 V 426.25 h 250 z"
         transform="translate(-50.4,-87.11)"
         id="path4749" />
      <polygon
         points="558.42,281.05 571.42,281.05 571.42,218.04 821.44,218.04 821.44,212.04 558.42,212.04 "
         id="polygon4751" />
      <path
         d="m 927.83,249.17 v 404 c 0,53.26 -40.75,90 -90.62,90 a 100.13,100.13 0 0 1 -34.82,-6.11 97.54,97.54 0 0 0 47.82,12.11 c 49.87,0 90.62,-36.72 90.62,-90 v -410 z"
         transform="translate(-50.4,-87.11)"
         id="path4753" />
    </g>
    <path
       d="m 1672.6079,212.83655 c 4.9053,10.13771 12.9288,21.66717 22.0018,17.26377 9.0729,-4.40341 15.8492,-23.08173 10.9438,-33.23465 -4.9053,-10.15292 -16.2675,-14.76927 -25.3633,-10.36587 -9.0958,4.4034 -12.4953,16.21425 -7.5823,26.33675 z"
       fill="#ffcb57"
       id="path4757"
       style="stroke-width:0.760518" />
    <path
       d="m 1692.0239,236.51909 c 0,0 1.772,-0.2966 1.0951,-1.7568 a 2.7150504,2.7150504 0 0 0 -0.2129,-0.37265 4.692398,4.692398 0 0 1 -0.6769,-1.88609 6.8446648,6.8446648 0 0 1 0.084,-2.35 l -4.8293,-0.31942 c 0,0 1.8785,1.59709 1.6579,2.43366 a 0.47912653,0.47912653 0 0 1 -0.2205,0.289 0.76051831,0.76051831 0 0 1 -0.3194,0.13689 l -0.3651,0.10648 c -1.27,0.4487 -0.7605,1.08754 -0.7605,1.08754 0.1673,2.08382 4.5479,2.63139 4.5479,2.63139 z"
       fill="#ffcb57"
       id="path4759"
       style="stroke-width:0.760518" />
    <path
       d="m 1688.921,232.55679 3.4071,0.47152 a 4.2436922,4.2436922 0 0 1 -0.099,-0.52476 c -0.867,-0.038 -2.2283,-0.1521 -3.0877,-0.23576 a 0.47912653,0.47912653 0 0 1 -0.2205,0.289 z"
       fill="#444053"
       id="path4761"
       style="stroke-width:0.760518" />
    <path
       d="m 1692.0239,236.51909 c 0,0 1.772,-0.2966 1.0951,-1.7568 a 5.4757318,5.4757318 0 0 1 -2.0914,0.0837 4.6315565,4.6315565 0 0 1 -2.7911,-2.04579 c -1.27,0.4487 -0.7605,1.08754 -0.7605,1.08754 0.1673,2.08382 4.5479,2.63139 4.5479,2.63139 z"
       fill="#ffcb57"
       id="path4763"
       style="stroke-width:0.760518" />
    <path
       d="m 1692.0239,236.51909 c 0,0 1.772,-0.2966 1.0951,-1.7568 a 5.4757318,5.4757318 0 0 1 -2.0914,0.0837 4.6315565,4.6315565 0 0 1 -2.7911,-2.04579 c -1.27,0.4487 -0.7605,1.08754 -0.7605,1.08754 0.1673,2.08382 4.5479,2.63139 4.5479,2.63139 z"
       opacity="0.1"
       id="path4765"
       style="stroke-width:0.760518" />
    <path
       d="m 1689.4457,187.56453 c 0,0 5.3997,-0.65405 6.9284,2.9432 a 4.3425595,4.3425595 0 0 0 -1.9394,0.11408 2.7530763,2.7530763 0 0 1 -1.2624,0.24337 7.2401343,7.2401343 0 0 0 -3.7266,-3.30065 z"
       fill="#ffffff"
       opacity="0.1"
       id="path4767"
       style="stroke-width:0.760518" />
    <path
       d="m 1695.2485,260.86328 a 1.908901,1.908901 0 0 0 0.3042,-0.30421 4.1144041,4.1144041 0 0 1 1.156,-0.91262 4.0535626,4.0535626 0 0 1 0.4791,-0.24336 7.0500047,7.0500047 0 0 1 1.5211,-0.45631 6.0841465,6.0841465 0 0 1 0.7605,-0.0837 l -0.6845,-3.27023 v -0.0456 l -0.2966,-1.42217 a 10.327839,10.327839 0 0 1 -0.6845,1.19401 c -0.3498,0.53237 -0.7605,1.04191 -1.2168,1.04952 a 0.539968,0.539968 0 0 1 -0.3422,-0.12929 1.0343049,1.0343049 0 0 1 -0.213,-0.27379 c -0.076,-0.12168 -0.1369,-0.22815 -0.2053,-0.32702 -0.7605,-1.09515 -1.2397,-0.41068 -1.2397,-0.41068 -0.8669,0.31181 -1.2244,1.34612 -1.3537,2.38803 0,0.1521 0,0.30421 -0.046,0.4487 a 11.947743,11.947743 0 0 0 0.076,2.21311 c 0,0 0.7834,1.63512 1.985,0.5856 z"
       fill="#ffcb57"
       id="path4769"
       style="stroke-width:0.760518" />
    <path
       d="m 1696.7695,259.64645 a 4.0535626,4.0535626 0 0 1 0.4792,-0.24336 c -0.1674,-0.70729 -0.3727,-1.77201 -0.5172,-2.60858 0,-0.0608 0,-0.11408 0,-0.17492 0,-0.0608 0,-0.17492 -0.046,-0.25097 a 0.539968,0.539968 0 0 1 -0.3423,-0.12929 l 0.076,0.50955 v 0.20534 z"
       fill="#444053"
       id="path4771"
       style="stroke-width:0.760518" />
    <path
       d="m 1695.2485,260.86328 a 5.483337,5.483337 0 0 1 -0.6388,-1.99256 4.319744,4.319744 0 0 1 0.1445,-1.26246 c 0.038,-0.12168 0.068,-0.24336 0.114,-0.35744 a 3.7037242,3.7037242 0 0 1 0.9583,-1.6123 c -0.7605,-1.09515 -1.2397,-0.41068 -1.2397,-0.41068 -0.8669,0.31181 -1.2244,1.34612 -1.3537,2.38803 0,0.1521 0,0.30421 -0.046,0.4487 a 11.947743,11.947743 0 0 0 0.076,2.21311 c 0,0 0.7834,1.63512 1.985,0.5856 z"
       fill="#ffcb57"
       id="path4773"
       style="stroke-width:0.760518" />
    <path
       d="m 1695.2485,260.86328 a 5.483337,5.483337 0 0 1 -0.6388,-1.99256 4.319744,4.319744 0 0 1 0.1445,-1.26246 c 0.038,-0.12168 0.068,-0.24336 0.114,-0.35744 a 3.7037242,3.7037242 0 0 1 0.9583,-1.6123 c -0.7605,-1.09515 -1.2397,-0.41068 -1.2397,-0.41068 -0.8669,0.31181 -1.2244,1.34612 -1.3537,2.38803 0,0.1521 0,0.30421 -0.046,0.4487 a 11.947743,11.947743 0 0 0 0.076,2.21311 c 0,0 0.7834,1.63512 1.985,0.5856 z"
       opacity="0.1"
       id="path4775"
       style="stroke-width:0.760518" />
    <path
       d="m 1662.3561,229.56795 c 4.1068,2.639 8.8448,5.19434 13.3471,6.54807 3.4603,1.04951 6.7762,1.38414 9.5521,0.50194 a 8.7535657,8.7535657 0 0 0 3.2398,-1.87088 9.2402975,9.2402975 0 0 0 1.6351,-1.94692 c 3.217,-5.02703 3.1562,-13.86425 0.6084,-21.51507 -1.7796,-5.32363 -4.7304,-10.03884 -8.6166,-12.53334 -9.4761,-6.08415 -21.5836,-4.1068 -27.0441,4.4034 -5.4605,8.5102 -2.1979,20.32866 7.2782,26.4128 z"
       fill="#ffcb57"
       id="path4777"
       style="stroke-width:0.760518" />
    <path
       d="m 1662.3561,229.56795 c 4.1068,2.639 8.8448,5.19434 13.3471,6.54807 3.4603,1.04951 6.7762,1.38414 9.5521,0.50194 a 8.7535657,8.7535657 0 0 0 3.2398,-1.87088 9.2402975,9.2402975 0 0 0 1.6351,-1.94692 c 3.217,-5.02703 3.1562,-13.86425 0.6084,-21.51507 -1.7796,-5.32363 -4.7304,-10.03884 -8.6166,-12.53334 -9.4761,-6.08415 -21.5836,-4.1068 -27.0441,4.4034 -5.4605,8.5102 -2.1979,20.32866 7.2782,26.4128 z"
       opacity="0.1"
       id="path4779"
       style="stroke-width:0.760518" />
    <path
       d="m 1686.0538,239.7665 c 1.2093,1.68835 5.2172,-0.12168 5.2172,-0.12168 0,0 1.3613,-1.1712 0,-2.061 a 3.2474132,3.2474132 0 0 0 -0.3727,-0.21295 4.2436922,4.2436922 0 0 1 -1.2092,-0.85938 c -0.1217,-0.12169 -0.2434,-0.25098 -0.3574,-0.38787 a 7.1184514,7.1184514 0 0 1 -0.8518,-1.34612 5.6430459,5.6430459 0 0 1 -0.2966,-0.70728 l -4.2893,2.28156 a 9.7270292,9.7270292 0 0 1 1.3461,0.32702 c 0.616,0.19773 1.2244,0.48673 1.3385,0.8822 a 0.47912653,0.47912653 0 0 1 0,0.36505 0.90501679,0.90501679 0 0 1 -0.2054,0.28139 3.7569604,3.7569604 0 0 0 -0.2509,0.28139 c -0.867,1.01149 -0.069,1.27767 -0.069,1.27767 z"
       fill="#ffcb57"
       id="path4781"
       style="stroke-width:0.760518" />
    <path
       d="m 1686.5634,237.93365 3.1409,-1.38414 c -0.1217,-0.12168 -0.2433,-0.25097 -0.3574,-0.38786 -0.7605,0.41068 -1.9698,1.0267 -2.7531,1.40696 a 0.47912653,0.47912653 0 0 1 -0.03,0.36504 z"
       fill="#444053"
       id="path4783"
       style="stroke-width:0.760518" />
    <path
       d="m 1686.0538,239.7665 c 1.2093,1.68835 5.2172,-0.12168 5.2172,-0.12168 0,0 1.3613,-1.1712 0,-2.061 a 5.2551815,5.2551815 0 0 1 -1.7416,1.15598 4.6315565,4.6315565 0 0 1 -3.4375,-0.28139 c -0.8366,1.04191 -0.038,1.30809 -0.038,1.30809 z"
       fill="#ffcb57"
       id="path4785"
       style="stroke-width:0.760518" />
    <path
       d="m 1686.0538,239.7665 c 1.2093,1.68835 5.2172,-0.12168 5.2172,-0.12168 0,0 1.3613,-1.1712 0,-2.061 a 5.2551815,5.2551815 0 0 1 -1.7416,1.15598 4.6315565,4.6315565 0 0 1 -3.4375,-0.28139 c -0.8366,1.04191 -0.038,1.30809 -0.038,1.30809 z"
       opacity="0.1"
       id="path4787"
       style="stroke-width:0.760518" />
    <path
       d="m 1663.5197,199.23848 c 0,0 4.2665,-3.36909 7.4454,-1.10275 a 4.3805855,4.3805855 0 0 0 -1.5894,1.11036 2.7606815,2.7606815 0 0 1 -0.9583,0.86699 7.2477395,7.2477395 0 0 0 -4.8977,-0.8746 z"
       fill="#ffffff"
       opacity="0.1"
       id="path4789"
       style="stroke-width:0.760518" />
    <g
       opacity="0.1"
       id="g4801"
       transform="matrix(0.76051831,0,0,0.76051831,1231.6365,159.68393)">
      <path
         d="m 678.56,185.77 -1.3,-6.23 a 12,12 0 0 1 -0.9,1.57 11.26,11.26 0 0 0 1.2,4.78 7,7 0 0 1 1,-0.12 z"
         transform="translate(-50.4,-87.11)"
         id="path4791" />
      <path
         d="m 673,188.41 a 3,3 0 0 0 0.4,-0.4 5.59,5.59 0 0 1 1.52,-1.21 5.33,5.33 0 0 1 0.63,-0.32 8.57,8.57 0 0 1 2,-0.59 7,7 0 0 1 1,-0.12 l -1.3,-6.23 a 12,12 0 0 1 -0.9,1.57 c -0.46,0.7 -1.05,1.38 -1.6,1.39 A 0.73,0.73 0 0 1 674.31,182.32 1.23,1.23 0 0 1 674,182 c -0.09,-0.16 -0.18,-0.3 -0.26,-0.43 -1,-1.44 -1.64,-0.53 -1.64,-0.53 -2.57,0.93 -1.74,6.64 -1.74,6.64 0,0 1.03,2.1 2.64,0.73 z"
         transform="translate(-50.4,-87.11)"
         id="path4793" />
      <path
         d="m 674.92,186.8 a 5.33,5.33 0 0 1 0.63,-0.32 c -0.26,-1.09 -0.58,-2.86 -0.79,-4 a 0.73,0.73 0 0 1 -0.44,-0.18 z"
         transform="translate(-50.4,-87.11)"
         id="path4795" />
      <path
         d="m 673,188.41 a 7.33,7.33 0 0 1 -0.84,-2.63 6.14,6.14 0 0 1 1.61,-4.25 c -1,-1.44 -1.64,-0.53 -1.64,-0.53 -2.57,0.93 -1.74,6.64 -1.74,6.64 0,0 1,2.14 2.61,0.77 z"
         transform="translate(-50.4,-87.11)"
         id="path4797" />
      <path
         d="m 673,188.41 a 7.33,7.33 0 0 1 -0.84,-2.63 6.14,6.14 0 0 1 1.61,-4.25 c -1,-1.44 -1.64,-0.53 -1.64,-0.53 -2.57,0.93 -1.74,6.64 -1.74,6.64 0,0 1,2.14 2.61,0.77 z"
         transform="translate(-50.4,-87.11)"
         opacity="0.1"
         id="path4799" />
    </g>
    <path
       d="m 1704.5116,235.78139 a 1.908901,1.908901 0 0 0 0.3042,-0.30421 4.2512973,4.2512973 0 0 1 1.156,-0.91262 4.0535626,4.0535626 0 0 1 0.4791,-0.24337 6.5176419,6.5176419 0 0 1 1.5211,-0.4487 5.3236282,5.3236282 0 0 1 0.7605,-0.0913 l -0.9887,-4.73802 a 9.6890033,9.6890033 0 0 1 -0.6845,1.19401 c -0.3498,0.53236 -0.7605,1.04951 -1.2168,1.04951 a 0.50194208,0.50194208 0 0 1 -0.3346,-0.12928 1.0495153,1.0495153 0 0 1 -0.2206,-0.27379 c -0.068,-0.12168 -0.1369,-0.22816 -0.1977,-0.32702 -0.7605,-1.09515 -1.2472,-0.41068 -1.2472,-0.41068 -1.9546,0.71488 -1.3233,5.05744 -1.3233,5.05744 0,0 0.7681,1.62751 1.9925,0.578 z"
       fill="#ffcb57"
       id="path4803"
       style="stroke-width:0.760518" />
    <path
       d="m 1705.9718,234.56456 a 4.0535626,4.0535626 0 0 1 0.4791,-0.24337 c -0.1977,-0.82896 -0.4411,-2.17508 -0.6008,-3.04207 a 0.50194208,0.50194208 0 0 1 -0.3346,-0.12929 z"
       fill="#444053"
       id="path4805"
       style="stroke-width:0.760518" />
    <path
       d="m 1704.5116,235.78139 a 5.483337,5.483337 0 0 1 -0.6388,-1.99256 4.6695824,4.6695824 0 0 1 1.2624,-3.2322 c -0.7605,-1.09515 -1.2472,-0.41068 -1.2472,-0.41068 -1.9545,0.71488 -1.3233,5.05744 -1.3233,5.05744 0,0 0.7225,1.62751 1.9469,0.578 z"
       fill="#ffcb57"
       id="path4807"
       style="stroke-width:0.760518" />
    <path
       d="m 1704.5116,235.78139 a 5.483337,5.483337 0 0 1 -0.6388,-1.99256 4.6695824,4.6695824 0 0 1 1.2624,-3.2322 c -0.7605,-1.09515 -1.2472,-0.41068 -1.2472,-0.41068 -1.9545,0.71488 -1.3233,5.05744 -1.3233,5.05744 0,0 0.7225,1.62751 1.9469,0.578 z"
       opacity="0.1"
       id="path4809"
       style="stroke-width:0.760518" />
    <g
       opacity="0.1"
       id="g4821"
       transform="matrix(0.76051831,0,0,0.76051831,1231.6365,159.68393)">
      <path
         d="m 667,169 a 11.41,11.41 0 0 0 4.62,1.71 8.39,8.39 0 0 1 0.46,-0.9 l -5.88,-2.44 A 12,12 0 0 1 667,169 Z"
         transform="translate(-50.4,-87.11)"
         id="path4811" />
      <path
         d="m 669,177.63 c 0,0 2.33,0.39 2.11,-1.72 a 3.24,3.24 0 0 0 -0.11,-0.56 5.53,5.53 0 0 1 -0.14,-1.93 5.36,5.36 0 0 1 0.1,-0.7 9.63,9.63 0 0 1 1.1,-2.89 l -5.88,-2.44 A 12,12 0 0 1 667,169 c 0.32,0.78 0.54,1.65 0.24,2.1 a 0.69,0.69 0 0 1 -0.4,0.27 1.06,1.06 0 0 1 -0.45,0 h -0.51 c -1.76,0 -1.36,1 -1.36,1 -0.73,2.73 4.48,5.26 4.48,5.26 z"
         transform="translate(-50.4,-87.11)"
         id="path4813" />
      <path
         d="m 666.8,171.39 4,2 a 5.36,5.36 0 0 1 0.1,-0.7 c -1.06,-0.41 -2.7,-1.14 -3.74,-1.6 a 0.69,0.69 0 0 1 -0.36,0.3 z"
         transform="translate(-50.4,-87.11)"
         id="path4815" />
      <path
         d="m 669,177.63 c 0,0 2.33,0.39 2.11,-1.72 a 7.2,7.2 0 0 1 -2.64,-0.78 6.16,6.16 0 0 1 -2.61,-3.73 c -1.76,0 -1.36,1 -1.36,1 -0.71,2.7 4.5,5.23 4.5,5.23 z"
         transform="translate(-50.4,-87.11)"
         id="path4817" />
      <path
         d="m 669,177.63 c 0,0 2.33,0.39 2.11,-1.72 a 7.2,7.2 0 0 1 -2.64,-0.78 6.16,6.16 0 0 1 -2.61,-3.73 c -1.76,0 -1.36,1 -1.36,1 -0.71,2.7 4.5,5.23 4.5,5.23 z"
         transform="translate(-50.4,-87.11)"
         opacity="0.1"
         id="path4819" />
    </g>
    <path
       d="m 1701.7661,228.04692 c 0,0 1.772,0.2966 1.6047,-1.30049 a 2.3347912,2.3347912 0 0 0 -0.084,-0.42589 4.2512973,4.2512973 0 0 1 -0.1065,-1.47541 3.9623004,3.9623004 0 0 1 0.076,-0.52475 6.2134346,6.2134346 0 0 1 0.4867,-1.52104 6.3807486,6.3807486 0 0 1 0.3498,-0.68447 l -4.4718,-1.86327 a 9.1262197,9.1262197 0 0 1 0.6084,1.23965 c 0.2434,0.60081 0.4107,1.25485 0.1825,1.60469 a 0.54757318,0.54757318 0 0 1 -0.3042,0.19774 0.93543752,0.93543752 0 0 1 -0.3422,0 h -0.3879 c -1.3385,0 -1.0343,0.76052 -1.0343,0.76052 -0.5248,2.07621 3.4223,3.99272 3.4223,3.99272 z"
       fill="#ffcb57"
       id="path4823"
       style="stroke-width:0.760518" />
    <path
       d="m 1700.1082,223.30889 3.0421,1.52103 a 3.9623004,3.9623004 0 0 1 0.076,-0.52475 c -0.8061,-0.31182 -2.0534,-0.86699 -2.8443,-1.21683 a 0.54757318,0.54757318 0 0 1 -0.2738,0.22055 z"
       fill="#444053"
       id="path4825"
       style="stroke-width:0.760518" />
    <path
       d="m 1701.7661,228.04692 c 0,0 1.772,0.2966 1.6047,-1.30049 a 5.6582562,5.6582562 0 0 1 -2.0077,-0.60081 4.6695824,4.6695824 0 0 1 -1.985,-2.82913 c -1.3385,0 -1.0343,0.76052 -1.0343,0.76052 -0.5248,2.0534 3.4223,3.96991 3.4223,3.96991 z"
       fill="#ffcb57"
       id="path4827"
       style="stroke-width:0.760518" />
    <path
       d="m 1701.7661,228.04692 c 0,0 1.772,0.2966 1.6047,-1.30049 a 5.6582562,5.6582562 0 0 1 -2.0077,-0.60081 4.6695824,4.6695824 0 0 1 -1.985,-2.82913 c -1.3385,0 -1.0343,0.76052 -1.0343,0.76052 -0.5248,2.0534 3.4223,3.96991 3.4223,3.96991 z"
       opacity="0.1"
       id="path4829"
       style="stroke-width:0.760518" />
    <path
       d="m 1684.2134,248.87751 a 9.4380322,9.4380322 0 0 1 0.692,-1.18641 c 0.3651,-0.53236 0.8138,-1.04191 1.2245,-1.04191 a 0.47912653,0.47912653 0 0 1 0.3422,0.1369 0.9886738,0.9886738 0 0 1 0.213,0.26618 c 0.068,0.12929 0.1369,0.23576 0.1977,0.33463 0.7605,1.11035 1.2472,0.41828 1.2472,0.41828 1.9622,-0.68446 1.369,-5.04223 1.369,-5.04223 0,0 -0.7605,-1.63512 -1.9774,-0.60081 a 2.7987074,2.7987074 0 0 0 -0.3118,0.2966 4.859712,4.859712 0 0 1 -1.6427,1.14838 6.8446648,6.8446648 0 0 1 -1.521,0.4335 4.8368964,4.8368964 0 0 1 -0.7606,0.0837 z"
       fill="#ffcb57"
       id="path4831"
       style="stroke-width:0.760518" />
    <path
       d="m 1686.1223,246.64919 a 0.47912653,0.47912653 0 0 1 0.3422,0.1369 l -0.4259,-3.41473 a 3.9927211,3.9927211 0 0 1 -0.4791,0.23576 c 0.1977,0.83657 0.4259,2.18269 0.5628,3.04207 z"
       fill="#444053"
       id="path4833"
       style="stroke-width:0.760518" />
    <path
       d="m 1686.8828,247.3869 c 0.7605,1.11035 1.2472,0.41828 1.2472,0.41828 1.9622,-0.68446 1.369,-5.04223 1.369,-5.04223 0,0 -0.7605,-1.63512 -1.9774,-0.60081 a 5.3236282,5.3236282 0 0 1 0.6084,2.00016 4.608741,4.608741 0 0 1 -1.2472,3.2246 z"
       fill="#ffcb57"
       id="path4835"
       style="stroke-width:0.760518" />
    <path
       d="m 1686.8828,247.3869 c 0.7605,1.11035 1.2472,0.41828 1.2472,0.41828 1.9622,-0.68446 1.369,-5.04223 1.369,-5.04223 0,0 -0.7605,-1.63512 -1.9774,-0.60081 a 5.3236282,5.3236282 0 0 1 0.6084,2.00016 4.608741,4.608741 0 0 1 -1.2472,3.2246 z"
       opacity="0.1"
       id="path4837"
       style="stroke-width:0.760518" />
    <path
       d="m 1682.5935,255.28108 a 14.868133,14.868133 0 0 0 2.2815,-7.60519 c 0.3651,-0.53236 0.8138,-1.04191 1.2245,-1.04191 a 0.47912653,0.47912653 0 0 1 0.3422,0.1369 0.9886738,0.9886738 0 0 1 0.2129,0.26618 c 0.068,0.12929 0.1369,0.23576 0.1978,0.33463 0.7605,1.11035 1.2472,0.41828 1.2472,0.41828 1.9622,-0.68446 1.369,-5.04223 1.369,-5.04223 0,0 -0.7606,-1.63512 -1.9774,-0.60081 a 2.7987074,2.7987074 0 0 0 -0.3118,0.2966 4.859712,4.859712 0 0 1 -1.6427,1.14838 6.8446648,6.8446648 0 0 1 -1.5211,0.4335 10.221366,10.221366 0 0 0 -1.4069,-2.11424 17.347423,17.347423 0 0 0 -6.7686,-4.46425 c 1.0647,6.7458 3.0496,13.84904 6.7534,17.83416 z"
       opacity="0.1"
       id="path4839"
       style="stroke-width:0.760518" />
    <path
       d="m 1693.2635,257.61587 a 13.202598,13.202598 0 0 0 1.6352,-0.36505 14.32056,14.32056 0 0 0 1.4525,-0.50194 l 0.3119,-0.12929 c 0.403,-0.17492 0.8137,-0.36505 1.2244,-0.57799 0.4107,-0.21295 0.616,-0.31942 0.9278,-0.49434 5.7876,-3.33868 11.4078,-10.05405 13.9175,-16.8683 a 22.138688,22.138688 0 0 0 1.3613,-5.79515 15.58302,15.58302 0 0 0 -0.046,-3.15615 22.275581,22.275581 0 0 0 -2.8291,-8.52541 c -0.1673,-0.28139 -0.327,-0.54757 -0.502,-0.80615 -3.8026,-5.8712 -10.1985,-9.41521 -16.9975,-8.70033 1.4754,4.26651 3.5744,7.90179 6.5328,9.79548 0.2434,0.60081 0.4107,1.25485 0.1825,1.60469 a 0.54757318,0.54757318 0 0 1 -0.3042,0.19774 0.93543752,0.93543752 0 0 1 -0.3422,0 h -0.3879 c -1.3385,0 -1.0343,0.76052 -1.0343,0.76052 -0.5247,2.01537 3.4224,3.93948 3.4224,3.93948 0,0 1.772,0.2966 1.6046,-1.30049 a 2.3347912,2.3347912 0 0 0 -0.084,-0.42589 4.2512973,4.2512973 0 0 1 -0.1065,-1.4754 3.9623004,3.9623004 0 0 1 0.076,-0.52476 6.2134346,6.2134346 0 0 1 0.4867,-1.52104 9.7726603,9.7726603 0 0 0 2.5401,0 13.491595,13.491595 0 0 0 3.468,-0.94304 c -0.1597,0.25097 -0.3042,0.50194 -0.4411,0.76052 a 14.921369,14.921369 0 0 0 -2.2816,7.60518 c -0.3498,0.53237 -0.7605,1.04952 -1.2168,1.04952 a 0.50194208,0.50194208 0 0 1 -0.3346,-0.12929 1.0495153,1.0495153 0 0 1 -0.2206,-0.27379 c -0.068,-0.12168 -0.1369,-0.22815 -0.1977,-0.32702 -0.7605,-1.09515 -1.2473,-0.41068 -1.2473,-0.41068 -1.9545,0.71489 -1.3233,5.05745 -1.3233,5.05745 0,0 0.7606,1.62751 1.985,0.57799 a 1.908901,1.908901 0 0 0 0.3042,-0.30421 4.2512973,4.2512973 0 0 1 1.156,-0.91262 4.0535626,4.0535626 0 0 1 0.4791,-0.24336 6.5176419,6.5176419 0 0 1 1.5211,-0.44871 9.6890033,9.6890033 0 0 0 1.4221,2.10664 l 0.3042,0.32702 -0.1064,0.0989 a 60.080946,60.080946 0 0 0 -6.7458,7.17929 c -0.6161,0.76052 -1.2093,1.59709 -1.734,2.41845 q -0.5628,0.85938 -1.0495,1.71116 a 14.959395,14.959395 0 0 0 -2.236,7.60519 c -0.3498,0.53236 -0.7605,1.04191 -1.2168,1.04951 a 0.539968,0.539968 0 0 1 -0.3422,-0.12929 1.0343049,1.0343049 0 0 1 -0.213,-0.27378 c -0.076,-0.12169 -0.1369,-0.22816 -0.2053,-0.32703 -0.7605,-1.09514 -1.2396,-0.41068 -1.2396,-0.41068 -0.867,0.38026 -1.2017,1.41457 -1.331,2.45648 z"
       opacity="0.1"
       id="path4841"
       style="stroke-width:0.760518" />
    <g
       opacity="0.1"
       id="g4859"
       transform="matrix(0.76051831,0,0,0.76051831,1231.6365,159.68393)">
      <path
         d="m 668.78,165.86 a 3.6,3.6 0 0 0 1.68,0.23 5.83,5.83 0 0 1 2.46,0.68 c -0.38,-5.12 -7.38,-6.6 -7.38,-6.6 a 9.5,9.5 0 0 1 3.24,5.69 z"
         transform="translate(-50.4,-87.11)"
         id="path4843" />
      <path
         d="m 633.86,184.5 c 0.13,1 0.27,2.09 0.44,3.15 4.55,1.38 8.91,1.82 12.56,0.66 0.81,0.26 1.61,0.64 1.76,1.16 a 0.63,0.63 0 0 1 0,0.48 1.19,1.19 0 0 1 -0.27,0.37 4.94,4.94 0 0 0 -0.33,0.37 c -1.12,1.37 -0.07,1.72 -0.07,1.72 1.59,2.22 6.86,-0.16 6.86,-0.16 0,0 1.79,-1.54 0,-2.71 a 4.27,4.27 0 0 0 -0.49,-0.28 5.58,5.58 0 0 1 -1.59,-1.13 c -0.16,-0.16 -0.32,-0.33 -0.47,-0.51 a 9.36,9.36 0 0 1 -1.12,-1.77 12.15,12.15 0 0 0 2.15,-2.56 c 4.23,-6.61 4.15,-18.23 0.8,-28.29 -13,1.84 -22.02,15 -20.23,29.5 z"
         transform="translate(-50.4,-87.11)"
         id="path4845" />
      <path
         d="m 646,213.57 a 11.4,11.4 0 0 0 4.61,1.73 7.28,7.28 0 0 1 0.47,-0.9 l -5.9,-2.4 a 13.86,13.86 0 0 1 0.82,1.57 z"
         transform="translate(-50.4,-87.11)"
         id="path4847" />
      <path
         d="m 648,222.19 c 0,0 2.34,0.4 2.11,-1.71 a 3,3 0 0 0 -0.1,-0.56 5.61,5.61 0 0 1 -0.14,-1.94 5,5 0 0 1 0.09,-0.69 9,9 0 0 1 0.64,-2 7.28,7.28 0 0 1 0.47,-0.9 L 645.18,212 a 13.86,13.86 0 0 1 0.8,1.62 c 0.31,0.79 0.53,1.66 0.23,2.11 a 0.66,0.66 0 0 1 -0.39,0.27 1.32,1.32 0 0 1 -0.46,0 4.53,4.53 0 0 0 -0.5,0 c -1.77,0 -1.37,1 -1.37,1 -0.68,2.67 4.51,5.19 4.51,5.19 z"
         transform="translate(-50.4,-87.11)"
         id="path4849" />
      <path
         d="m 645.82,216 4,2 q 0,-0.36 0.09,-0.69 c -1.05,-0.41 -2.7,-1.14 -3.74,-1.6 a 0.67,0.67 0 0 1 -0.35,0.29 z"
         transform="translate(-50.4,-87.11)"
         id="path4851" />
      <path
         d="m 648,222.19 c 0,0 2.33,0.39 2.11,-1.72 a 7.1,7.1 0 0 1 -2.64,-0.78 6.1,6.1 0 0 1 -2.61,-3.72 c -1.77,0 -1.37,1 -1.37,1 -0.69,2.7 4.51,5.22 4.51,5.22 z"
         transform="translate(-50.4,-87.11)"
         id="path4853" />
      <path
         d="m 648,222.19 c 0,0 2.33,0.39 2.11,-1.72 a 7.1,7.1 0 0 1 -2.64,-0.78 6.1,6.1 0 0 1 -2.61,-3.72 c -1.77,0 -1.37,1 -1.37,1 -0.69,2.7 4.51,5.22 4.51,5.22 z"
         transform="translate(-50.4,-87.11)"
         opacity="0.1"
         id="path4855" />
      <path
         d="m 668.78,165.86 a 3.6,3.6 0 0 0 1.68,0.23 5.83,5.83 0 0 1 2.46,0.68 c -0.38,-5.12 -7.38,-6.6 -7.38,-6.6 a 9.5,9.5 0 0 1 3.24,5.69 z"
         transform="translate(-50.4,-87.11)"
         opacity="0.1"
         id="path4857" />
    </g>
    <path
       d="m 1676.4637,234.37443 c 1.3765,11.17962 5.2324,24.67121 15.2636,23.43157 10.0312,-1.23965 22.4505,-16.7314 21.074,-27.91863 -1.3766,-11.18722 -10.6473,-19.2259 -20.6709,-17.98626 -10.0237,1.23965 -17.0508,11.3013 -15.6667,22.47332 z"
       fill="#ffcb57"
       id="path4861"
       style="stroke-width:0.760518" />
    <path
       d="m 1687.2098,263.03076 c 0,0 1.772,0.30421 1.6047,-1.30049 a 3.3767013,3.3767013 0 0 0 -0.076,-0.42589 4.0839833,4.0839833 0 0 1 -0.1141,-1.4754 c 0,-0.17492 0.046,-0.35745 0.076,-0.52476 a 6.8446648,6.8446648 0 0 1 0.8442,-2.1979 l -4.4718,-1.86327 c 0,0 1.2624,2.12185 0.7605,2.84434 a 0.52475763,0.52475763 0 0 1 -0.3042,0.20534 1.1711982,1.1711982 0 0 1 -0.3423,0 h -0.3802 c -1.3461,0 -1.0419,0.76052 -1.0419,0.76052 -0.502,2.06861 3.4451,3.97751 3.4451,3.97751 z"
       fill="#ffcb57"
       id="path4863"
       style="stroke-width:0.760518" />
    <path
       d="m 1685.5519,258.30033 3.0421,1.52104 c 0,-0.17492 0.046,-0.35744 0.076,-0.52476 -0.8061,-0.31181 -2.0534,-0.86699 -2.8443,-1.21683 a 0.52475763,0.52475763 0 0 1 -0.2738,0.22055 z"
       fill="#444053"
       id="path4865"
       style="stroke-width:0.760518" />
    <path
       d="m 1687.2098,263.03076 c 0,0 1.772,0.30421 1.6047,-1.30049 a 5.3236282,5.3236282 0 0 1 -2.0078,-0.60081 4.608741,4.608741 0 0 1 -1.9773,-2.82913 c -1.3461,0 -1.0419,0.76052 -1.0419,0.76052 -0.5248,2.06101 3.4223,3.96991 3.4223,3.96991 z"
       fill="#ffcb57"
       id="path4867"
       style="stroke-width:0.760518" />
    <path
       d="m 1687.2098,263.03076 c 0,0 1.772,0.30421 1.6047,-1.30049 a 5.3236282,5.3236282 0 0 1 -2.0078,-0.60081 4.608741,4.608741 0 0 1 -1.9773,-2.82913 c -1.3461,0 -1.0419,0.76052 -1.0419,0.76052 -0.5248,2.06101 3.4223,3.96991 3.4223,3.96991 z"
       opacity="0.1"
       id="path4869"
       style="stroke-width:0.760518" />
    <path
       d="m 1700.5721,215.87862 c 0,0 5.3237,1.12557 5.6127,5.01942 a 4.3653751,4.3653751 0 0 0 -1.8785,-0.50954 2.7682866,2.7682866 0 0 1 -1.2701,-0.18253 7.2781602,7.2781602 0 0 0 -2.4641,-4.32735 z"
       fill="#ffffff"
       opacity="0.1"
       id="path4871"
       style="stroke-width:0.760518" />
    <path
       d="m 1687.4836,259.30422 a 3.239808,3.239808 0 0 1 2.8824,3.98511 c -0.6693,2.24353 -3.4224,2.95082 -5.2172,4.44904 -1.7948,1.49822 -2.6542,3.89385 -2.8747,6.22864 a 15.271208,15.271208 0 0 0 4.3881,12.07703 c 1.6123,1.58949 3.5593,2.80632 5.1488,4.41861 a 26.298723,26.298723 0 0 1 4.449,6.78383 15.879622,15.879622 0 0 1 1.9697,5.70388 c 0.2662,3.20179 -1.3461,6.26668 -3.2702,8.83723 -1.9241,2.57055 -4.2285,4.89774 -5.7191,7.74207 a 16.267487,16.267487 0 0 0 -0.9354,12.7539 1.6503247,1.6503247 0 0 0 0.5399,0.85178 0.60080946,0.60080946 0 0 0 0.8822,-0.19013"
       fill="none"
       stroke="#444053"
       stroke-miterlimit="10"
       id="path4873"
       style="stroke-width:0.760518" />
    <path
       d="m 1696.8304,258.74144 a 1.5210366,1.5210366 0 0 1 0.068,1.93171 2.3500016,2.3500016 0 0 1 -1.8556,0.85939 c -0.8594,0 -1.8177,-0.26618 -2.525,0.23576 a 2.1826875,2.1826875 0 0 0 -0.7605,1.65032 8.4189377,8.4189377 0 0 1 -0.1901,1.86327 3.7113293,3.7113293 0 0 1 -0.8214,1.33852 4.1144041,4.1144041 0 0 1 -1.521,1.11035 c -1.2701,0.49434 -2.7379,0.0456 -4.0384,0.45631 -1.7111,0.53997 -2.6314,2.38803 -3.1485,4.1068 a 11.82606,11.82606 0 0 0 -0.3727,6.37315 22.055031,22.055031 0 0 0 1.7264,3.90906 8.8448279,8.8448279 0 0 1 1.1256,4.07638 3.7417501,3.7417501 0 0 1 -2.1447,3.42233"
       fill="none"
       stroke="#444053"
       stroke-miterlimit="10"
       id="path4875"
       style="stroke-width:0.760518" />
    <path
       d="m 1694.6857,307.83289 c -2.0458,2.72266 -2.8215,7.07282 -6.1678,7.73447 -1.7264,0.34224 -3.4375,-0.54757 -4.9814,-1.39935 -3.5972,-2.00777 -7.301,-4.03075 -11.4078,-4.6924 -4.1068,-0.66165 -8.6394,0.289 -11.3317,3.41473 -1.8328,2.14466 -2.5857,5.01942 -4.198,7.3314 a 15.043052,15.043052 0 0 1 -8.5178,5.59741 34.854554,34.854554 0 0 1 -10.3279,0.8822 c -1.2853,-0.038 -2.6846,-0.13689 -3.6429,-0.98867 a 8.8676435,8.8676435 0 0 1 -1.521,-2.31958 c -1.6503,-2.76829 -4.913,-4.28933 -8.1299,-4.49467 -3.217,-0.20534 -6.396,0.76052 -9.3696,1.98496 -1.5211,0.62362 -3.0421,1.33851 -4.6696,1.1788 -2.2816,-0.22816 -3.9623,-2.06861 -5.3693,-3.84062 a 76.051831,76.051831 0 0 1 -9.2251,-15.01263"
       fill="none"
       stroke="#444053"
       stroke-miterlimit="10"
       id="path4877"
       style="stroke-width:0.760518" />
    <path
       d="m 1571.9761,552.34713 c 0.8137,-2.95841 1.3461,-5.55939 1.3461,-5.55939 a 11.63593,11.63593 0 0 1 1.521,-5.63544 l 0.038,-0.81375 v 0 l 0.2281,-6.00049 a 20.199366,20.199366 0 0 0 -1.3917,-3.20178 c -1.0115,-1.92411 0.3422,-8.7992 0.3422,-8.7992 0,0 4.3806,-9.59013 3.6429,-15.80357 -0.7377,-6.21343 9.2783,-27.13529 9.2783,-27.13529 a 26.907138,26.907138 0 0 0 -0.6312,-6.08415 5.1791297,5.1791297 0 0 1 -0.068,-1.27767 v -0.10647 c 0.2966,-4.06878 3.8026,-11.5903 3.8026,-11.5903 l 0.1293,-14.57153 c 0,0 -1.7264,-8.66991 2.0762,-20.07008 1.3233,-3.97751 2.1979,-7.16408 2.7683,-9.62816 0.068,-0.28139 0.1293,-0.54758 0.1825,-0.80615 -6.8446,-1.3233 -12.1074,-2.40324 -12.1074,-2.40324 0,0 4.6468,-16.60211 7.4683,-19.43124 2.8215,-2.82913 5.3236,-11.97056 5.3236,-11.97056 0,0 1.8633,-11.78043 -0.2814,-15.32444 -2.1446,-3.54402 -2.2055,-9.55972 -2.2055,-9.55972 0,0 -5.0498,-3.9699 -5.6354,-5.67347 -0.5856,-1.70356 -1.5211,-5.51375 -1.445,-7.50631 0.076,-1.99256 0.7605,-3.74936 0.616,-4.79887 -0.1445,-1.04952 1.7112,-4.97379 0.9126,-6.8903 a 5.3236282,5.3236282 0 0 1 -0.2738,-1.83285 c 0,0 0,0 0,-0.0532 a 25.477363,25.477363 0 0 1 0.6465,-4.89774 13.871854,13.871854 0 0 1 5.2476,-2.54774 l 0.1292,-0.4487 0.3347,-1.1636 c 0.1825,-0.11407 0.3574,-0.20534 0.5247,-0.28899 v -0.42589 l 0.1141,-1.70356 -0.6692,-3.85583 c -1.3386,-6.70777 7.6051,-7.36182 7.6051,-7.36182 a 4.6695824,4.6695824 0 0 1 2.601,-2.10664 c 1.81,-0.56278 -0.091,10.01603 -0.9506,10.64726 -0.6465,0.48673 -2.7151,3.74936 -3.7114,5.32363 v 0 l -0.1673,0.26618 a 3.7189345,3.7189345 0 0 1 0.3955,0.4411 l -0.4259,2.28156 -0.068,0.34983 a 9.6053462,9.6053462 0 0 1 1.3233,2.47169 c 0,0 -1.696,1.71877 -1.445,3.72654 a 11.757613,11.757613 0 0 1 -0.7149,4.56311 c 0.099,-0.0989 1.2929,-1.29288 2.4184,-0.95065 1.1256,0.34223 4.2817,1.42217 4.2817,1.42217 0,0 2.3653,0.51715 2.1295,1.0267 -0.2358,0.50955 1.521,2.88997 1.521,2.88997 l 6.6622,-5.7191 c 0.068,-0.18252 0.1445,-0.35744 0.2053,-0.54757 a 14.959395,14.959395 0 0 0 0.6617,-2.6314 14.579136,14.579136 0 0 1 -2.023,-0.76051 4.3957958,4.3957958 0 0 1 -1.7264,-1.20162 6.8446648,6.8446648 0 0 1 -0.9202,-2.79871 c -0.4411,-1.88609 -1.4602,-3.58204 -2.1751,-5.38447 a 17.25616,17.25616 0 0 1 -0.9126,-9.55971 6.2818812,6.2818812 0 0 1 1.0951,-2.74548 c 1.0952,-1.39935 3.0421,-1.9089 4.4338,-2.99644 1.3918,-1.08754 2.3805,-2.81392 4.0156,-3.61246 1.483,-0.72249 3.255,-0.56278 4.8749,-0.22816 a 26.085778,26.085778 0 0 1 8.9437,3.64289 c 0.9126,0.5856 1.9089,1.27006 2.9888,1.11035 a 4.0231419,4.0231419 0 0 0 2.2816,-1.52103 v -0.0837 l 0.068,-0.0837 a 11.293697,11.293697 0 0 1 0.8138,4.82929 c 0,0.25098 0,0.50955 -0.061,0.76052 v 0.26618 a 1.0875412,1.0875412 0 0 0 0,0.22055 v 0 a 1.3156967,1.3156967 0 0 0 0,0.34224 2.4564741,2.4564741 0 0 0 0.5627,0.8898 4.5631099,4.5631099 0 0 1 0.4944,0.76052 c 0,-0.0913 -0.046,-0.17492 -0.076,-0.26618 a 3.8025915,3.8025915 0 0 1 0.5856,2.0458 2.0381891,2.0381891 0 0 1 -0.5323,1.42216 6.6089041,6.6089041 0 0 1 -1.08,0.79855 12.168293,12.168293 0 0 1 -6.3275,12.46489 c -0.076,0.17492 -0.1597,0.35745 -0.2358,0.53997 a 15.294023,15.294023 0 0 0 -1.4297,6.93593 c 0,0.16731 0,0.33463 0.061,0.50955 a 3.3386754,3.3386754 0 0 1 0.213,0.27378 v 0 c 0,0 10.556,0.50955 13.1341,-1.65032 2.5782,-2.15987 6.0842,5.74952 6.0842,5.74952 0,0 3.7645,0.87459 4.5631,0.17492 0.7985,-0.69968 5.2019,0.0913 5.2019,0.0913 a 9.5292944,9.5292944 0 0 1 6.6926,-2.15227 19.552926,19.552926 0 0 1 4.9509,-2.50971 v 0 h 0.1217 v 0 a 5.4681266,5.4681266 0 0 1 2.3881,-0.21294 c 0,0 5.3616,-4.09159 6.9663,-6.33512 1.6047,-2.24353 9.1262,-10.52558 9.1871,-10.556 l 0.038,-0.41828 0.1293,-1.23965 a 4.6315565,4.6315565 0 0 0 0.6464,0.0837 c 0.046,-0.12168 0.099,-0.26618 0.1673,-0.42589 a 22.64063,22.64063 0 0 1 1.6656,-3.46036 c 0,0 0.061,-1.57427 -0.3879,-1.98495 -0.4487,-0.41068 0.4335,-6.15259 0.4335,-6.15259 0,0 5.0955,-10.76134 8.9817,-2.43366 0,0 7.7193,5.59741 0.829,11.49903 0,0 -2.6999,1.17881 -3.1181,2.18269 -0.2738,0.65405 -1.2473,2.47169 -1.8937,3.67331 -0.1141,0.19773 -0.213,0.38026 -0.2966,0.53996 l 0.076,0.0685 -0.1369,1.0191 -0.061,0.39546 c 1.232,0.76052 2.0534,1.52104 1.8252,2.03059 a 11.681561,11.681561 0 0 0 -0.867,2.79871 c 0,0 -9.6433,11.1644 -11.0275,16.04693 0,0 -25.2416,13.68933 -33.3943,14.44985 l 1.1255,7.38463 c 0,0 0.2586,4.41861 0.091,5.98528 -0.1673,1.56667 0.6388,8.73836 0.6388,8.73836 0,0 1.0039,10.52557 2.1371,12.039 1.1332,1.51343 0.6769,7.78771 0.6769,7.78771 a 52.551815,52.551815 0 0 0 1.2852,8.96651 c 1.0343,4.03075 0,8.92088 0,8.92088 0,0 3.7494,9.59014 -5.8484,2.81392 0,0 -4.8293,-0.48673 -10.3886,-0.88981 0,0.18253 0,0.37266 0,0.56279 0,0.71488 0,1.52103 -0.061,2.28155 -0.1293,5.40729 -0.3878,12.85276 -0.8442,18.47299 -0.8213,9.93237 -4.6087,29.50811 -4.6087,29.50811 l -0.3803,9.88674 a 12.88318,12.88318 0 0 1 0.175,2.83673 18.374122,18.374122 0 0 1 -3.0421,9.80308 l -1.1636,6.53285 c 0,0 -1.9469,4.27412 -2.0838,6.84467 a 3.2550184,3.2550184 0 0 0 0.053,0.63123 4.6239513,4.6239513 0 0 1 0.046,1.01909 c 0,2.99645 -2.0914,10.09969 -2.0914,10.09969 0,0 -0.3878,7.22492 -1.521,7.60518 -0.9355,0.32702 1.0799,4.21327 1.6807,5.32363 a 1.9849528,1.9849528 0 0 0 0.046,-0.20534 l 0.1292,0.22815 a 5.1182882,5.1182882 0 0 1 0.2662,1.84046 2.6313933,2.6313933 0 0 1 -1.3005,2.4945 c -2.1066,1.1712 -3.2474,2.18269 -1.521,2.66181 0.6617,0.19013 1.3689,0.25858 1.8937,0.47913 0,-0.0837 0.068,-0.16731 0.099,-0.24337 a 1.1559878,1.1559878 0 0 1 0.6616,1.30049 5.3236282,5.3236282 0 0 1 -0.7605,2.42605 25.964095,25.964095 0 0 1 -3.1333,5.22476 l -0.829,-0.12168 a 4.0535626,4.0535626 0 0 0 0.4487,0.91262 3.5211998,3.5211998 0 0 0 1.1788,1.13318 3.8025915,3.8025915 0 0 0 1.4602,0.56278 4.1752455,4.1752455 0 0 1 3.0421,1.6123 c 1.0191,1.42977 1.6275,3.36149 -0.5704,4.95097 l -7.841,2.37282 c 0,0 -13.3851,1.21683 -12.5637,-1.74159 0.8213,-2.95841 1.3537,-5.55939 1.3537,-5.55939 a 11.818455,11.818455 0 0 1 1.3233,-5.20194 5.4757318,5.4757318 0 0 1 0.5019,-0.76052 l -0.4715,-0.0761 c 0,0 -0.7149,-6.63172 -1.9697,-7.93981 -0.289,-0.30421 -0.3499,-0.53237 -0.2662,-0.69968 -0.1217,-0.36505 0.2205,-0.56278 0.6616,-0.66165 0,0.0837 0.061,0.17492 0.084,0.25858 a 6.9207166,6.9207166 0 0 1 1.3005,-0.0913 c 0,0 0.5704,-3.43754 -0.7605,-4.75324 a 1.330907,1.330907 0 0 1 -0.2358,-1.0343 5.6430459,5.6430459 0 0 1 0.2054,-1.40696 l 0.046,0.0837 c 0.829,-3.11052 3.4147,-8.00066 3.4147,-8.00066 0,0 0.2358,-3.14094 -0.5856,-4.42621 -0.8213,-1.28528 0.7605,-17.07364 0.7605,-17.07364 0,0 0,-7.65842 1.08,-11.18722 1.0799,-3.52881 -0.8974,-7.79532 -0.8974,-7.79532 v -0.22815 a 0.16731403,0.16731403 0 0 0 0,-0.0532 l 0.1749,-1.20162 v 0.0761 c 0.2966,-2.01538 0.8518,-5.66587 1.2168,-7.35422 0.5248,-2.38802 0.4335,-13.93269 0.4335,-13.93269 l -1.7644,-5.00421 -3.8026,8.3657 -4.0916,11.12638 c 0,0 -1.9165,2.31958 -2.0534,4.73803 0,0.11408 0,0.23576 0,0.35744 a 6.2818812,6.2818812 0 0 1 0,0.76052 6.7229819,6.7229819 0 0 1 -1.2777,3.99272 c 0,0 -1.1788,5.32363 -2.7454,6.60891 -1.5667,1.28527 -1.6656,3.91667 -1.6656,3.91667 0,0 -2.1446,7.68123 -3.042,9.01214 -0.7606,1.11796 -0.9355,4.27411 -0.9659,5.23997 v 0 c 0,0.18252 0,0.28139 0,0.28139 0,0 -0.365,2.76068 -0.4411,5.09547 0,0.2814 0,0.56279 0,0.82897 0,0 0,-0.0456 0,-0.0608 a 8.4493584,8.4493584 0 0 0 0.1521,1.89369 c 0,0 0,0.0684 0,0.10647 v -0.38786 a 19.682214,19.682214 0 0 1 0.3727,4.8521 c -0.061,2.7835 -0.6084,6.08415 -2.3729,7.93982 -3.042,3.2398 -4.8749,2.75307 -4.8749,2.75307 0,0 1.2473,4.24369 2.9432,5.14871 a 0.76051831,0.76051831 0 0 1 0.1826,0.12168 c 0,-0.0761 0,-0.15971 0.053,-0.24336 a 2.0457943,2.0457943 0 0 1 0.4487,1.58188 c 0.053,1.84806 -1.2244,4.79887 -2.388,6.12977 a 3.4299376,3.4299376 0 0 1 -1.5211,0.79855 l 0.2662,0.18252 c 0.213,0.12168 0.4031,0.22055 0.5856,0.30421 a 2.783497,2.783497 0 0 0 0.8746,0.25858 4.1296144,4.1296144 0 0 1 3.0421,1.61229 c 1.0267,1.42978 1.6351,3.3615 -0.5628,4.95098 l -7.8485,2.37282 c 0,0 -13.3928,1.22443 -12.5714,-1.73399 z"
       fill="url(#af5f6ae9-e1dc-4eac-800c-2506307954c8-76)"
       id="path4879"
       style="fill:url(#af5f6ae9-e1dc-4eac-800c-2506307954c8-76);stroke-width:0.760518" />
    <path
       d="m 1622.6342,559.25264 7.6052,-2.38042 c 2.1294,-1.59709 1.521,-3.5212 0.5552,-4.95858 a 3.9699056,3.9699056 0 0 0 -2.9052,-1.6047 3.5972516,3.5972516 0 0 1 -1.4146,-0.56278 3.3843065,3.3843065 0 0 1 -1.1408,-1.13317 5.5289681,5.5289681 0 0 1 -0.7605,-2.928 c 0,0 -8.1375,-2.72265 -10.4799,-0.40307 a 6.1982242,6.1982242 0 0 0 -1.0495,1.42217 12.168293,12.168293 0 0 0 -1.2549,5.26278 c 0,0 -0.5171,2.59337 -1.3081,5.55939 -0.7909,2.96602 12.1531,1.72638 12.1531,1.72638 z"
       fill="#2d293d"
       id="path4881"
       style="stroke-width:0.760518" />
    <path
       d="m 1586.1065,554.14956 7.6052,-2.38042 c 2.1294,-1.59709 1.521,-3.5212 0.5552,-4.95097 a 3.9394848,3.9394848 0 0 0 -2.9128,-1.6047 2.9736266,2.9736266 0 0 1 -0.8442,-0.26618 3.8025915,3.8025915 0 0 1 -0.5628,-0.30421 c -2.061,-1.23204 -1.9317,-4.02314 -1.9317,-4.02314 0,0 -8.1299,-2.72265 -10.4723,-0.40307 a 6.0080946,6.0080946 0 0 0 -0.829,1.04191 11.886901,11.886901 0 0 0 -1.4754,5.64304 c 0,0 -0.5247,2.60098 -1.3157,5.55939 -0.7909,2.95842 12.1835,1.68835 12.1835,1.68835 z"
       fill="#2d293d"
       id="path4883"
       style="stroke-width:0.760518" />
    <path
       d="m 1614.0936,545.28192 a 6.1982242,6.1982242 0 0 0 -1.0495,1.42217 v 0 l 12.2747,1.90129 a 5.5289681,5.5289681 0 0 1 -0.7605,-2.92799 c 0,0 -8.1223,-2.71505 -10.4647,-0.39547 z"
       opacity="0.1"
       id="path4885"
       style="stroke-width:0.760518" />
    <path
       d="m 1576.7445,541.22075 -0.091,2.28156 c 1.7948,3.2398 11.0959,2.90518 13.849,1.42217 a 3.8025915,3.8025915 0 0 1 -0.5628,-0.30421 c -2.0534,-1.20923 -1.9241,-4.00033 -1.9241,-4.00033 0,0 -8.1299,-2.72265 -10.4723,-0.40307 a 6.0080946,6.0080946 0 0 0 -0.7986,1.00388 z"
       opacity="0.1"
       id="path4887"
       style="stroke-width:0.760518" />
    <path
       d="m 1575.657,531.21233 a 20.244997,20.244997 0 0 1 1.3461,3.20178 l -0.3194,8.27444 c 1.9621,3.53641 12.9288,2.80631 14.4498,0.97346 1.5211,-1.83284 3.3007,-6.69256 1.658,-7.60518 -1.6427,-0.91262 -2.8444,-5.14871 -2.8444,-5.14871 0,0 1.7644,0.48673 4.7229,-2.75307 2.9584,-3.23981 2.4032,-10.71571 1.9469,-12.51814 -0.4563,-1.80242 0.3042,-7.74968 0.3042,-7.74968 0,0 0.053,-4.19806 0.943,-5.52136 0.8898,-1.3233 2.9737,-9.01975 2.9737,-9.01975 0,0 0.099,-2.61618 1.6199,-3.92427 1.521,-1.30809 2.6618,-6.60891 2.6618,-6.60891 a 6.8446648,6.8446648 0 0 0 1.2244,-4.46424 c -0.2129,-2.63139 1.9926,-5.37686 1.9926,-5.37686 l 3.9927,-11.17962 3.6809,-8.3657 1.6655,5.05744 c 0,0 0.076,11.54467 -0.4335,13.9403 -0.5095,2.39564 -1.3841,8.76118 -1.3841,8.76118 0,0 1.9317,4.2665 0.8518,7.79531 -1.08,3.5288 -1.0571,11.17962 -1.0571,11.17962 0,0 -1.5211,15.78836 -0.7606,17.07363 0.7606,1.28528 0.5628,4.42622 0.5628,4.42622 0,0 -4.6544,9.05777 -3.3387,10.36586 1.3157,1.3081 0.7606,4.75324 0.7606,4.75324 0,0 -2.928,-0.11407 -1.7188,1.19402 1.2092,1.30809 1.9545,7.90178 1.9545,7.90178 l 12.6094,1.95453 a 26.466037,26.466037 0 0 0 3.0421,-5.23236 c 1.8252,-3.80259 -0.1749,-3.47557 -1.8481,-3.9547 -1.6731,-0.47912 -0.5628,-1.52103 1.4754,-2.66942 2.0382,-1.14838 0.9963,-4.05356 0.9963,-4.05356 0,0 -2.8443,-5.25518 -1.7796,-5.63544 1.0647,-0.38026 1.4526,-7.60518 1.4526,-7.60518 0,0 2.4184,-8.5102 1.9849,-10.83739 -0.4335,-2.32718 1.9774,-7.79531 1.9774,-7.79531 l 0.9887,-6.57088 a 18.138362,18.138362 0 0 0 2.7835,-12.37363 l 0.3954,-10.16053 c 0,0 3.6885,-19.58334 4.4947,-29.52332 0.5095,-6.35793 0.7605,-15.06586 0.8898,-20.49597 0.068,-3.04207 0.091,-5.06505 0.091,-5.06505 l -45.076,-6.4568 a 36.915559,36.915559 0 0 1 -1.0799,6.69256 c -0.5552,2.47169 -1.407,5.65826 -2.6922,9.63577 -3.6961,11.40778 -2.0306,20.07008 -2.0306,20.07008 l -0.1445,14.57153 c 0,0 -4.3578,9.59014 -3.6505,12.97444 a 27.660051,27.660051 0 0 1 0.6084,6.08415 c 0,0 -9.727,20.92186 -9.0197,27.13529 0.7072,6.21344 -3.544,15.81118 -3.544,15.81118 0,0 -1.3538,6.91311 -0.3803,8.83722 z"
       fill="#3f3d56"
       id="path4889"
       style="stroke-width:0.760518" />
    <path
       d="m 1603.6365,477.63382 -13.6894,-2.36522 c 0,0 7.4835,8.25923 13.6894,2.36522 z"
       opacity="0.05"
       id="path4891"
       style="stroke-width:0.760518" />
    <path
       d="m 1592.4416,461.88348 c 0,0 -0.6616,4.85211 2.2816,6.79903 -0.03,0 -5.3389,-1.07233 -2.2816,-6.79903 z"
       opacity="0.1"
       id="path4893"
       style="stroke-width:0.760518" />
    <path
       d="m 1593.879,446.40693 c 0,0 11.1568,9.92477 15.3701,9.30114 4.2133,-0.62362 -15.3701,-9.30114 -15.3701,-9.30114 z"
       opacity="0.1"
       id="path4895"
       style="stroke-width:0.760518" />
    <path
       d="m 1620.5428,482.73689 c 0,0 8.6699,2.32719 8.7916,5.84839 0.1217,3.5212 -8.7916,-5.84839 -8.7916,-5.84839 z"
       opacity="0.1"
       id="path4897"
       style="stroke-width:0.760518" />
    <path
       d="m 1616.9151,526.35262 c 0,0 12.2672,2.77589 8.7003,4.21327 a 59.632241,59.632241 0 0 1 -9.3543,2.44887 c 0,0 -3.9928,0.0837 0.654,-6.66214 z"
       opacity="0.05"
       id="path4899"
       style="stroke-width:0.760518" />
    <g
       opacity="0.05"
       id="g4923"
       transform="matrix(0.76051831,0,0,0.76051831,1231.6365,159.68393)">
      <path
         d="m 571.63,578.19 a 3.2,3.2 0 0 0 1.57,-2.3 l 0.16,0.3 c 0,0 1.37,3.77 -1.31,5.32 l -0.87,0.53 c -0.48,-0.11 -1,-0.2 -1.49,-0.34 -2.2,-0.64 -0.69,-1.96 1.94,-3.51 z"
         transform="translate(-50.4,-87.11)"
         id="path4901" />
      <path
         d="m 550.73,576.28 c -0.43,-0.43 -0.37,-1.49 -0.05,-2.84 a 7.65,7.65 0 0 1 0.77,4 3.25,3.25 0 0 0 -0.72,-1.16 z"
         transform="translate(-50.4,-87.11)"
         id="path4903" />
      <path
         d="m 555.87,507.85 a 18.48,18.48 0 0 1 0.9,5.1 20.71,20.71 0 0 0 -1.12,-3.53 c 0,0 0.08,-0.61 0.22,-1.57 z"
         transform="translate(-50.4,-87.11)"
         id="path4905" />
      <path
         d="m 518.93,499.18 a 6.45,6.45 0 0 1 -0.09,-1.51 c 0.16,1 0.27,2 0.34,2.84 -0.07,-0.44 -0.18,-0.88 -0.25,-1.33 z"
         transform="translate(-50.4,-87.11)"
         id="path4907" />
      <path
         d="m 554.38,556.83 a 8.89,8.89 0 0 1 -0.3,-3.08 10.35,10.35 0 0 1 0.65,3.9 3.89,3.89 0 0 0 -0.35,-0.82 z"
         transform="translate(-50.4,-87.11)"
         id="path4909" />
      <path
         d="m 550,582.68 a 53.63,53.63 0 0 1 1.58,8.53 l 16.58,2.57 a 34.8,34.8 0 0 0 4,-6.88 c 0.21,-0.44 0.38,-0.84 0.52,-1.2 1,0.5 1.33,1.55 -0.1,4.52 a 34.74,34.74 0 0 1 -4,6.89 L 552,594.54 c 0,0 -0.91,-8.73 -2.5,-10.45 -0.82,-0.84 -0.28,-1.23 0.5,-1.41 z"
         transform="translate(-50.4,-87.11)"
         id="path4911" />
      <path
         d="m 572.92,558.79 c 0,0 -0.5,9.5 -1.9,10 v 0 c -0.63,-1.6 -1,-3.11 -0.41,-3.33 1.4,-0.5 1.9,-10 1.9,-10 0,0 3.19,-11.19 2.62,-14.25 -0.57,-3.06 2.6,-10.24 2.6,-10.24 l 1.3,-8.64 a 23.88,23.88 0 0 0 3.66,-16.28 l 0.51,-13.36 c 0,0 4.86,-25.75 5.91,-38.81 0.68,-8.37 1,-19.81 1.18,-26.95 0,-1.29 0.05,-2.44 0.06,-3.41 l 0.48,0.07 c 0,0 0,2.66 -0.12,6.66 -0.16,7.14 -0.5,18.59 -1.17,26.95 -1.06,13.07 -5.91,38.82 -5.91,38.82 l -0.52,13.36 a 23.85,23.85 0 0 1 -3.66,16.27 l -1.3,8.64 c 0,0 -3.17,7.19 -2.6,10.25 0.57,3.06 -2.63,14.25 -2.63,14.25 z"
         transform="translate(-50.4,-87.11)"
         id="path4913" />
      <path
         d="m 522.68,588.31 a 16.17,16.17 0 0 0 2.89,-6.45 c 1.64,1.6 -0.55,7.49 -2.47,9.77 -1.92,2.28 -16.41,3.37 -19,-1.28 l 0.1,-2.62 c 3.6,3.83 16.56,2.85 18.48,0.58 z"
         transform="translate(-50.4,-87.11)"
         id="path4915" />
      <path
         d="m 502.34,571.93 a 27.89,27.89 0 0 1 1.77,4.21 l -0.08,1.93 c -0.28,-0.71 -0.69,-1.67 -1.27,-2.81 a 8.23,8.23 0 0 1 -0.47,-3.43 z"
         transform="translate(-50.4,-87.11)"
         id="path4917" />
      <path
         d="m 522.35,574.88 a 26.05,26.05 0 0 1 -1.23,-3.33 c 0,0 2.32,0.64 6.2,-3.62 2.84,-3.1 3.22,-9.15 3,-13.13 0.6,2.37 1.33,12.19 -2.56,16.46 -2.56,2.79 -4.42,3.47 -5.41,3.62 z"
         transform="translate(-50.4,-87.11)"
         id="path4919" />
      <path
         d="m 530.71,544.61 a 72.28,72.28 0 0 0 -0.59,8.15 c -0.08,-0.53 -0.16,-1 -0.24,-1.29 -0.6,-2.36 0.4,-10.19 0.4,-10.19 0,0 0.08,-5.51 1.25,-7.26 1.17,-1.75 3.9,-11.85 3.9,-11.85 0,0 0.13,-3.45 2.13,-5.16 2,-1.71 3.51,-8.7 3.51,-8.7 a 9.07,9.07 0 0 0 1.6,-5.87 c -0.28,-3.46 2.62,-7.07 2.62,-7.07 l 5.26,-14.7 4.83,-11 2.23,6.57 c 0,0 0,0.82 0,2.1 l -1.8,-5.34 -4.81,11 -5.25,14.7 c 0,0 -2.9,3.61 -2.62,7.07 a 9,9 0 0 1 -1.61,5.87 c 0,0 -1.51,7 -3.5,8.69 -1.99,1.69 -2.13,5.16 -2.13,5.16 0,0 -2.74,10.11 -3.91,11.85 -1.17,1.74 -1.27,7.27 -1.27,7.27 z"
         transform="translate(-50.4,-87.11)"
         id="path4921" />
    </g>
    <path
       d="m 1595.5369,314.54066 0.6389,3.85583 -0.1065,1.70356 -0.084,1.25486 4.3502,0.61602 0.5248,-0.88981 v 0 c 0.9734,-1.60469 2.9736,-4.86732 3.6048,-5.32363 0.8366,-0.65404 2.6847,-11.23285 0.9279,-10.64725 a 4.5631099,4.5631099 0 0 0 -2.5174,2.11424 c 0,0 -8.6318,0.60841 -7.339,7.31618 z"
       fill="#ffcdd3"
       id="path4925"
       style="stroke-width:0.760518" />
    <path
       d="m 1595.9856,321.35491 4.3502,0.61602 0.5248,-0.88981 v 0 a 3.8406175,3.8406175 0 0 0 -4.7913,-0.98107 z"
       opacity="0.1"
       id="path4927"
       style="stroke-width:0.760518" />
    <path
       d="m 1594.7992,323.37789 5.7115,1.52103 0.1597,-0.85178 0.4107,-2.28155 a 3.9699056,3.9699056 0 0 0 -5.5518,-0.98107 l -0.327,1.1712 z"
       fill="#dce6f2"
       id="path4929"
       style="stroke-width:0.760518" />
    <path
       d="m 1688.4951,318.5486 6.0309,3.53641 0.6008,-1.14078 c 0.6312,-1.20162 1.5743,-3.04208 1.8405,-3.67331 0.403,-1.00388 3.042,-2.19029 3.042,-2.19029 6.6774,-5.90923 -0.7605,-11.49143 -0.7605,-11.49143 -3.7493,-8.32768 -8.7003,2.44126 -8.7003,2.44126 0,0 -0.8442,5.74192 -0.4183,6.1526 0.4259,0.41068 0.3727,1.97734 0.3727,1.97734 a 22.929627,22.929627 0 0 0 -1.6199,3.46797 c -0.2738,0.55518 -0.3879,0.92023 -0.3879,0.92023 z"
       fill="#ffcdd3"
       id="path4931"
       style="stroke-width:0.760518" />
    <path
       d="m 1688.4951,318.5486 6.0309,3.53641 0.6008,-1.14078 c -0.8442,-0.76052 -3.8026,-3.3767 -4.8369,-3.30065 a 7.2173188,7.2173188 0 0 1 -1.4602,0 c -0.2205,0.53997 -0.3346,0.90502 -0.3346,0.90502 z"
       opacity="0.1"
       id="path4933"
       style="stroke-width:0.760518" />
    <path
       d="m 1687.7954,320.37384 6.7838,3.6733 0.1978,-1.52103 0.1369,-1.0191 c 0,0 -3.8787,-3.58965 -5.0651,-3.50599 a 6.2438553,6.2438553 0 0 1 -1.8024,-0.0761 l -0.1293,1.24725 z"
       fill="#dce6f2"
       id="path4935"
       style="stroke-width:0.760518" />
    <path
       d="m 1611.3253,340.60363 c 0,0 30.0177,4.56311 24.4507,2.50971 -3.8711,-1.42978 -5.3237,-3.97751 -5.5594,-6.76101 a 15.765545,15.765545 0 0 1 1.3917,-6.92832 29.850344,29.850344 0 0 1 2.9052,-5.32363 c 0,0 -22.557,-13.56765 -18.3893,-1.86327 a 18.526226,18.526226 0 0 1 1.0951,5.51376 15.415706,15.415706 0 0 1 -0.8061,5.49854 16.526063,16.526063 0 0 1 -5.0879,7.35422 z"
       fill="#ffcdd3"
       id="path4937"
       style="stroke-width:0.760518" />
    <path
       d="m 1616.1546,322.20669 a 18.526226,18.526226 0 0 1 1.0951,5.51376 c 2.0991,1.90129 4.4871,1.87848 7.5368,1.99255 2.3576,0.0913 4.9357,0.76052 6.8446,-0.2966 a 29.850344,29.850344 0 0 1 2.9052,-5.32363 c 0,0 -22.5798,-13.59046 -18.3817,-1.88608 z"
       opacity="0.1"
       id="path4939"
       style="stroke-width:0.760518" />
    <circle
       cx="1625.6155"
       cy="318.05426"
       r="12.4725"
       fill="#ffcdd3"
       id="circle4941"
       style="stroke-width:0.760518" />
    <path
       d="m 1611.3253,340.60363 c 0,0 30.0177,4.56311 24.4507,2.50971 -3.8711,-1.42978 -5.3237,-3.97751 -5.5594,-6.76101 -1.4374,-1.68075 -4.411,-2.97363 -6.3199,-3.6733 a 9.0577731,9.0577731 0 0 0 -5.4606,-0.29661 7.6964453,7.6964453 0 0 0 -2.0229,0.84418 16.526063,16.526063 0 0 1 -5.0879,7.37703 z"
       opacity="0.1"
       id="path4943"
       style="stroke-width:0.760518" />
    <path
       d="m 1594.7992,323.37789 5.7115,1.52103 0.1597,-0.85178 a 5.0954727,5.0954727 0 0 0 -5.4681,-2.10663 z"
       opacity="0.1"
       id="path4945"
       style="stroke-width:0.760518" />
    <path
       d="m 1687.7954,320.37384 6.7838,3.6733 0.1978,-1.52103 a 51.068804,51.068804 0 0 0 -6.8447,-3.35389 z"
       opacity="0.1"
       id="path4947"
       style="stroke-width:0.760518" />
    <path
       d="m 1596.4724,416.10028 c 11.6055,2.28155 28.1392,5.32363 30.7934,4.63156 2.2131,-0.5856 9.2022,-0.24337 15.2712,0.19773 0.068,-3.04207 0.091,-5.06505 0.091,-5.06505 l -45.0759,-6.4568 a 36.915559,36.915559 0 0 1 -1.0799,6.69256 z"
       opacity="0.1"
       id="path4949"
       style="stroke-width:0.760518" />
    <path
       d="m 1584.9733,412.91371 c 0,0 38.1933,8.0767 42.3685,6.98156 4.1753,-1.09515 25.3025,1.07993 25.3025,1.07993 9.2859,6.7534 5.6734,-2.82913 5.6734,-2.82913 0,0 1.0267,-4.89013 0,-8.91327 a 54.666056,54.666056 0 0 1 -1.2244,-8.96651 c 0,0 0.4487,-6.27428 -0.6464,-7.78771 -1.0952,-1.51343 -2.0534,-12.039 -2.0534,-12.039 0,0 -0.7606,-7.16409 -0.6085,-8.73076 0.1521,-1.56666 -0.084,-5.98527 -0.084,-5.98527 l -1.08,-7.38464 c 7.8942,-0.76052 32.3449,-14.49548 32.3449,-14.49548 1.3461,-4.87492 10.6929,-16.06214 10.6929,-16.06214 a 11.871691,11.871691 0 0 1 0.8365,-2.79871 c 0.6997,-1.65032 -8.6014,-5.32363 -8.6014,-5.32363 0,0 -7.3542,8.32007 -8.9057,10.5636 -1.5514,2.24353 -6.7534,6.35033 -6.7534,6.35033 a 5.1334986,5.1334986 0 0 0 -2.2815,0.21294 h -0.1217 v 0 a 18.670724,18.670724 0 0 0 -4.7989,2.51732 9.1262197,9.1262197 0 0 0 -6.4796,2.15987 c 0,0 -4.2741,-0.76052 -5.0346,-0.0913 -0.7606,0.66926 -4.3958,-0.16731 -4.3958,-0.16731 0,0 -3.3691,-7.89418 -5.8636,-5.73431 -2.4945,2.15987 -12.7235,1.66553 -12.7235,1.66553 -1.2853,-1.86327 -4.5631,-3.29304 -6.6013,-4.03835 a 9.0577731,9.0577731 0 0 0 -5.4605,-0.30421 6.9663477,6.9663477 0 0 0 -2.1979,0.96586 l -6.434,5.83318 c 0,0 -1.696,-2.37282 -1.4678,-2.88997 0.2281,-0.51716 -2.0534,-1.0267 -2.0534,-1.0267 0,0 -3.0421,-1.05712 -4.1448,-1.41457 -1.1028,-0.35744 -2.2436,0.84418 -2.3424,0.95065 a 12.229134,12.229134 0 0 0 0.6996,-4.56311 c -0.2357,-2.00016 1.3994,-3.71893 1.3994,-3.71893 -3.3159,-9.12622 -11.8869,-1.93172 -11.8869,-1.93172 0,0 -1.1332,4.89013 -0.365,6.80664 0.7681,1.91651 -1.0648,5.83317 -0.8975,6.8903 0.1674,1.05712 -0.5247,2.81391 -0.6008,4.80647 -0.076,1.99256 0.829,5.80276 1.3918,7.49871 0.5628,1.69596 5.4453,5.66586 5.4453,5.66586 0,0 0.084,5.98528 2.1523,9.5293 2.0686,3.54401 0.2509,15.32444 0.2509,15.32444 0,0 -2.4488,9.12622 -5.1867,11.97056 -2.7379,2.84434 -7.263,19.42364 -7.263,19.42364 z"
       fill="#3f3d56"
       id="path4951"
       style="stroke-width:0.760518" />
    <path
       d="m 1643.6321,346.1402 c 0,0 1.2853,-3.41473 2.3424,-3.68851 a 24.260534,24.260534 0 0 0 3.0953,-1.24725 l -0.6236,-1.3157 c 0,0 -3.9775,0.92783 -4.6544,2.061 -0.6768,1.13318 -0.1597,4.19046 -0.1597,4.19046 z"
       opacity="0.1"
       id="path4953"
       style="stroke-width:0.760518" />
    <path
       d="m 1664.9799,339.30314 c 0.1749,1.04952 9.4608,2.35761 9.4608,2.35761 l -4.5631,-4.91295 v 0 h -0.1141 v 0 a 18.670724,18.670724 0 0 0 -4.7836,2.55534 z"
       opacity="0.1"
       id="path4955"
       style="stroke-width:0.760518" />
    <path
       d="m 1642.4837,374.52274 c 0.1065,-0.11408 -24.656,28.79323 -42.3304,10.8602 0.03,0 28.816,5.04224 42.3304,-10.8602 z"
       opacity="0.1"
       id="path4957"
       style="stroke-width:0.760518" />
    <path
       d="m 1648.9253,359.57095 a 45.577862,45.577862 0 0 1 -5.8408,9.17185 36.839507,36.839507 0 0 1 -8.9056,7.95503 c 0,0 14.4346,-15.19516 14.7464,-17.12688 z"
       opacity="0.1"
       id="path4959"
       style="stroke-width:0.760518" />
    <path
       d="m 1654.1805,343.32628 c 0,0 -2.7531,10.08447 -8.9589,13.30907 z"
       opacity="0.1"
       id="path4961"
       style="stroke-width:0.760518" />
    <path
       d="m 1657.7549,344.49748 c 0.069,-0.19013 1.7873,8.12994 -8.32,12.30519 0,0 4.2741,-1.27007 8.32,-12.30519 z"
       opacity="0.1"
       id="path4963"
       style="stroke-width:0.760518" />
    <path
       d="m 1596.3127,335.28 c 0.1597,0 -5.0271,3.04207 -6.4568,4.47185 0,0.0152 3.4831,-4.78366 6.4568,-4.47185 z"
       opacity="0.1"
       id="path4965"
       style="stroke-width:0.760518" />
    <path
       d="m 1628.551,329.49245 a 2.6085778,2.6085778 0 0 1 -1.0343,1.64272 2.5249208,2.5249208 0 0 1 -1.1864,0.22055 c -3.8026,0.0913 -7.7725,0.10648 -11.2328,-1.52103 a 4.2436922,4.2436922 0 0 1 -1.6656,-1.20162 6.9663477,6.9663477 0 0 1 -0.8898,-2.7911 c -0.4259,-1.88609 -1.4145,-3.58205 -2.099,-5.38447 a 17.796128,17.796128 0 0 1 -0.867,-9.51409 6.4415901,6.4415901 0 0 1 1.0571,-2.75307 c 1.0648,-1.39936 2.9204,-1.90891 4.297,-3.00405 1.3765,-1.09515 2.2815,-2.81392 3.8938,-3.61246 1.4374,-0.76052 3.1486,-0.57039 4.7152,-0.23576 a 24.633188,24.633188 0 0 1 8.6547,3.63527 c 0.8822,0.5856 1.8481,1.26246 2.8976,1.11036 a 4.030747,4.030747 0 0 0 2.2131,-1.57427 11.461011,11.461011 0 0 1 0.7605,5.46812 2.4792897,2.4792897 0 0 0 0,0.82136 2.5553415,2.5553415 0 0 0 0.5476,0.8822 c 0.8974,1.12557 1.4146,2.87476 0.4487,3.93188 -0.4183,0.47153 -1.0495,0.70729 -1.4602,1.17881 -0.7605,0.84417 -0.5552,2.11424 -0.578,3.23981 a 1.6655351,1.6655351 0 0 1 -0.3194,1.09514 1.619904,1.619904 0 0 1 -1.521,0.30421 4.319744,4.319744 0 0 0 -1.6352,-0.22055 2.7758918,2.7758918 0 0 0 -1.4678,1.04191 c -1.9089,2.15227 -2.6846,4.57832 -3.5288,7.24013 z"
       fill="#3f3d56"
       id="path4967"
       style="stroke-width:0.760518" />
    <g
       opacity="0.1"
       id="g4973"
       transform="matrix(0.76051831,0,0,0.76051831,1231.6365,159.68393)">
      <path
         d="m 551.91,308 a 5.55,5.55 0 0 0 2.2,1.58 c 4.55,2.1 9.76,2.08 14.77,2 a 3.58,3.58 0 0 0 1.56,-0.29 3.43,3.43 0 0 0 1.36,-2.17 c 1.11,-3.49 2.13,-6.68 4.55,-9.53 a 3.61,3.61 0 0 1 1.93,-1.37 5.68,5.68 0 0 1 2.15,0.29 2.11,2.11 0 0 0 2,-0.41 2.19,2.19 0 0 0 0.42,-1.44 c 0,-1.47 -0.21,-3.14 0.75,-4.25 0.54,-0.63 1.37,-0.94 1.93,-1.55 a 3.21,3.21 0 0 0 0.44,-3.27 c 0.82,1.42 1.14,3.22 0.07,4.39 -0.56,0.61 -1.39,0.93 -1.93,1.55 -1,1.11 -0.72,2.78 -0.75,4.26 a 2.19,2.19 0 0 1 -0.42,1.44 2.13,2.13 0 0 1 -2,0.4 5.73,5.73 0 0 0 -2.15,-0.29 3.61,3.61 0 0 0 -1.93,1.37 c -2.42,2.85 -3.45,6 -4.55,9.54 a 3.43,3.43 0 0 1 -1.36,2.16 3.32,3.32 0 0 1 -1.56,0.29 c -5,0.12 -10.22,0.14 -14.77,-2 a 5.55,5.55 0 0 1 -2.2,-1.58 4.46,4.46 0 0 1 -0.66,-1.35 z"
         transform="translate(-50.4,-87.11)"
         id="path4969" />
      <path
         d="m 584.73,285.35 a 2.37,2.37 0 0 1 -0.47,-0.85 3,3 0 0 1 0,-1.07 15.25,15.25 0 0 0 -0.54,-6 l 0.09,-0.1 a 15.19,15.19 0 0 1 0.95,7.19 5.29,5.29 0 0 0 -0.03,0.83 z"
         transform="translate(-50.4,-87.11)"
         id="path4971" />
    </g>
    <path
       d="m 1630.4904,337.13566 c 0,0 -15.6591,1.4602 -16.9672,-0.93543"
       opacity="0.1"
       id="path4975"
       style="stroke-width:0.760518" />
    <path
       d="m 1600.4575,329.52287 c 0,0 -8.6547,-0.31941 -10.6473,2.85195"
       opacity="0.1"
       id="path4977"
       style="stroke-width:0.760518" />
  </g>
</svg>
