<?xml version="1.0" encoding="UTF-8" standalone="no"?>
<svg
   data-name="Layer 1"
   width="500"
   height="500"
   viewBox="0 0 500 500.00001"
   version="1.1"
   id="svg66"
   sodipodi:docname="music.svg"
   xml:space="preserve"
   inkscape:version="1.2 (1:1.2+202206011327+fc4e4096c5)"
   xmlns:inkscape="http://www.inkscape.org/namespaces/inkscape"
   xmlns:sodipodi="http://sodipodi.sourceforge.net/DTD/sodipodi-0.dtd"
   xmlns="http://www.w3.org/2000/svg"
   xmlns:svg="http://www.w3.org/2000/svg"><defs
     id="defs70" /><sodipodi:namedview
     id="namedview68"
     pagecolor="#ffffff"
     bordercolor="#666666"
     borderopacity="1.0"
     inkscape:showpageshadow="2"
     inkscape:pageopacity="0.0"
     inkscape:pagecheckerboard="0"
     inkscape:deskcolor="#d1d1d1"
     showgrid="false"
     inkscape:zoom="0.64513867"
     inkscape:cx="682.02391"
     inkscape:cy="51.151793"
     inkscape:window-width="1920"
     inkscape:window-height="1009"
     inkscape:window-x="0"
     inkscape:window-y="34"
     inkscape:window-maximized="1"
     inkscape:current-layer="svg66" /><path
     d="M 102.27221,224.37592 H 289.59914 V 92.237344 H 102.27221 Z"
     fill="#ffffff"
     id="path6"
     style="stroke-width:0.668171" /><path
     d="M 293.60816,228.38494 H 98.26319 V 88.22832 H 293.60816 Z M 102.27221,224.37592 H 289.59914 V 92.237344 H 102.27221 Z"
     fill="#e6e6e6"
     id="path8"
     style="stroke-width:0.668171" /><polygon
     points="24.811,222.855 24.811,21.869 305.177,21.869 305.177,23.952 26.878,23.952 26.878,222.855 "
     fill="#3f3d56"
     id="polygon10"
     transform="matrix(0.66817065,0,0,0.66817065,67.732315,63.327177)" /><polygon
     points="0,200.986 0,0 280.366,0 280.366,2.083 2.068,2.083 2.068,200.986 "
     fill="#3f3d56"
     id="polygon12"
     transform="matrix(0.66817065,0,0,0.66817065,67.732315,63.327177)" /><ellipse
     cx="195.93564"
     cy="158.30661"
     rx="40.063099"
     ry="40.357567"
     fill="#ffffff"
     id="ellipse14"
     style="stroke-width:0.668171" /><polygon
     points="498.75,461.462 515.261,461.462 515.259,504.614 504.072,504.614 "
     fill="#ffb7b7"
     id="polygon20"
     transform="matrix(0.78973754,0,0,0.78973754,-66.425582,37.745858)" /><path
     d="m 342.74738,444.8233 -28.4887,-7.8e-4 v -0.36034 a 11.089179,11.089179 0 0 1 11.08859,-11.08842 h 7.1e-4 l 17.39992,7e-4 z"
     fill="#2f2e41"
     id="path22"
     style="stroke-width:0.789738" /><polygon
     points="574.014,461.081 587.858,452.081 611.378,488.26 601.998,494.358 "
     fill="#ffb7b7"
     id="polygon24"
     transform="matrix(0.78973754,0,0,0.78973754,-66.425582,37.745858)" /><path
     d="m 422.95986,429.2956 -23.88507,15.5277 -0.1964,-0.3021 a 11.089179,11.089179 0 0 1 3.25243,-15.34052 l 6e-4,-3.9e-4 14.58821,-9.48374 z"
     fill="#2f2e41"
     id="path26"
     style="stroke-width:0.789738" /><circle
     cx="363.07007"
     cy="106.44842"
     r="8.1408749"
     fill="#2f2e41"
     id="circle28"
     style="stroke-width:0.789738" /><path
     d="m 355.38546,109.4093 a 8.1420203,8.1420203 0 0 1 5.26118,-12.953216 8.1389483,8.1389483 0 1 0 1.01203,16.180436 8.1207764,8.1207764 0 0 1 -6.27321,-3.22722 z"
     fill="#2f2e41"
     id="path30"
     style="stroke-width:0.789738" /><circle
     cx="354.63641"
     cy="135.25462"
     r="23.913837"
     fill="#2f2e41"
     id="circle32"
     style="stroke-width:0.789738" /><path
     d="m 332.35375,126.54341 a 23.909541,23.909541 0 0 1 30.96547,-12.0743 c -0.2413,-0.1207 -0.48106,-0.24344 -0.72814,-0.35687 a 23.91385,23.91385 0 0 0 -19.95603,43.46545 c 0.24707,0.11344 0.49647,0.21528 0.74526,0.31959 a 23.909565,23.909565 0 0 1 -11.02656,-31.35387 z"
     fill="#2f2e41"
     id="path34"
     style="stroke-width:0.789738" /><polygon
     points="527.861,481.749 469.539,483.105 483.103,386.805 499.57,278.086 569.908,282.368 591.609,394.944 620.092,479.035 573.977,488.53 529.218,320.345 "
     fill="#2f2e41"
     id="polygon36"
     transform="matrix(0.78973754,0,0,0.78973754,-66.425582,37.745858)" /><circle
     cx="354.7114"
     cy="142.93608"
     r="16.067179"
     fill="#ffb8b8"
     id="circle38"
     style="stroke-width:0.789738" /><path
     d="m 369.72713,166.9354 -24.63634,0.6173 -17.13829,8.56917 2.1423,49.27265 -4.15358,37.73183 c 0,0 -1.55262,5.91356 9.15883,11.26926 3.4278,1.71391 7.84288,2.44056 12.26226,2.63631 a 39.722835,39.722835 0 0 0 25.16591,-7.9578 c 2.24647,-1.64628 4.73522,-2.74656 6.83927,-1.90495 5.35572,2.14229 6.42688,-4.28457 6.42688,-4.28457 l -6.42688,-31.06322 9.64032,-29.53821 -9.73686,-31.70907 z"
     fill="#ffe32b"
     id="path40"
     style="stroke-width:0.789738;fill:#fdcd06;fill-opacity:1" /><polygon
     points="525.51,134.576 548.698,134.576 547.268,127.423 550.129,134.576 553.825,134.576 553.825,111.924 514.481,111.924 514.481,134.576 519.728,134.576 526.404,127.423 "
     fill="#2f2e41"
     id="polygon42"
     transform="matrix(0.78973754,0,0,0.78973754,-66.425582,37.745858)" /><path
     d="m 374.16675,138.48061 a 1.9595126,1.9595126 0 0 0 -1.94666,-1.7726 h -1.96637 v 12.9601 h 1.96637 a 1.9595126,1.9595126 0 0 0 1.94666,-1.7726 4.6168057,4.6168057 0 0 0 3.41615,-4.45511 v -0.50464 a 4.6168057,4.6168057 0 0 0 -3.41615,-4.45515 z"
     fill="#ffe32b"
     id="path44"
     style="stroke-width:0.789738;fill:#fdcd06;fill-opacity:1" /><path
     d="m 338.6329,148.05928 h -2.17402 a 4.618859,4.618859 0 0 1 -4.61887,-4.61887 v -0.50464 a 4.618859,4.618859 0 0 1 4.61887,-4.61888 h 2.17402 v 9.74242 z"
     fill="#ffe32b"
     id="path46"
     style="stroke-width:0.789738;fill:#fdcd06;fill-opacity:1" /><path
     d="m 339.16923,149.66812 h -1.96637 a 1.9663675,1.9663675 0 0 1 -1.96636,-1.96637 v 0 -9.02737 a 1.9663675,1.9663675 0 0 1 1.96636,-1.96636 h 1.96637 z"
     fill="#ffe32b"
     id="path48"
     style="stroke-width:0.789738;fill:#fdcd06;fill-opacity:1" /><path
     d="m 373.11425,138.99499 h -1.44134 c 0,-10.17948 -7.54242,-18.46091 -16.81333,-18.46091 -9.27161,0 -16.81403,8.28139 -16.81403,18.46091 h -1.44134 c 0,-10.97406 8.18919,-19.90222 18.25537,-19.90222 10.06548,0 18.25467,8.92816 18.25467,19.90222 z"
     fill="#ffe32b"
     id="path50"
     style="stroke-width:0.789738;fill:#fdcd06;fill-opacity:1" /><path
     d="m 314.39601,289.1705 a 6.7577131,6.7577131 0 0 0 2.03292,-10.16077 l 7.4218,-13.54212 -7.12948,-6.51737 -10.21245,19.27127 a 6.7943411,6.7943411 0 0 0 7.88719,10.94896 z"
     fill="#ffb7b7"
     id="path52"
     style="stroke-width:0.789738" /><path
     d="m 333.30822,176.12187 -2.88343,-1.41273 c 0,0 -6.75687,1.41273 -8.89914,5.6973 -2.14226,4.28458 -7.49798,48.20152 -7.49798,48.20152 l -4.28458,28.92091 c 0,0 -3.21344,0 -3.21344,3.21344 0,3.21345 -4.28457,11.7826 -1.07115,11.7826 3.21342,0 16.06721,0 18.20945,-2.14228 2.14224,-2.14229 6.42689,-10.71144 5.35573,-11.7826 -1.07115,-1.07115 -3.21344,-1.07113 -3.21344,-1.07113 l 3.01364,-28.99476 z"
     fill="#ffe32b"
     id="path54"
     style="stroke-width:0.789738;fill:#fdcd06;fill-opacity:1" /><path
     d="m 390.87591,279.10377 a 6.7576736,6.7576736 0 0 1 0.60449,-10.3445 l -3.75333,-14.97948 8.54668,-4.50108 5.00332,21.22836 a 6.7943332,6.7943332 0 0 1 -10.40116,8.5967 z"
     fill="#ffb7b7"
     id="path56"
     style="stroke-width:0.789738" /><path
     d="m 380.12595,219.05726 3.01364,28.99475 c 0,0 -2.14227,0 -3.21344,1.07114 -1.07118,1.07114 3.21344,9.64033 5.35573,11.78259 2.14229,2.14227 14.99602,2.14228 18.20945,2.14228 3.21343,0 -1.07116,-8.56915 -1.07116,-11.78259 0,-3.21344 -3.21344,-3.21344 -3.21344,-3.21344 l -4.28457,-28.92091 c 0,0 -5.35574,-39.17851 -7.498,-43.46309 -2.14227,-4.28458 -8.89914,-5.6973 -8.89914,-5.6973 l -2.88338,1.41276 z"
     fill="#ffe32b"
     id="path58"
     style="stroke-width:0.789738;fill:#fdcd06;fill-opacity:1" /><path
     d="m 321.38114,279.4207 -0.13825,0.0877 -2.40301,-3.78759 a 2.59612,2.59612 0 0 0 -3.58296,-0.80135 l -8.02453,5.09112 a 2.5961358,2.5961358 0 0 0 -0.80135,3.58296 v 0 l 13.18309,20.7791 a 2.5961121,2.5961121 0 0 0 3.58296,0.80136 l 8.02452,-5.09112 a 2.5961358,2.5961358 0 0 0 0.80136,-3.58297 l -9.06958,-14.29541 0.13825,-0.0877 z"
     fill="#3f3d56"
     id="path60"
     style="stroke-width:0.789738" /><path
     d="m 318.38294,276.03212 13.1637,20.74849 a 1.938861,1.938861 0 0 1 -0.59847,2.67584 l -8.06303,5.11552 a 1.9388767,1.9388767 0 0 1 -2.67582,-0.59847 l -13.16371,-20.74849 a 1.9388688,1.9388688 0 0 1 0.59847,-2.67584 l 0.97817,-0.62056 a 0.92162371,0.92162371 0 0 0 1.40002,0.61456 l 4.59719,-2.91664 a 0.92156843,0.92156843 0 0 0 0.0404,-1.52842 l 1.04732,-0.66446 a 1.9388767,1.9388767 0 0 1 2.67577,0.59847 z"
     fill="#ffe32b"
     id="path62"
     style="stroke-width:0.789738;fill:#fdcd06;fill-opacity:1" /><path
     d="m 789.27748,517.33746 h -381 a 1,1 0 0 1 0,-2 h 381 a 1,1 0 0 1 0,2 z"
     fill="#cbcbcb"
     id="path64" /><g
     id="g356"
     transform="translate(-500.58482,-9.1095191)"><path
       d="m 681.25272,112.94292 -29.54766,8.02642 4.29911,19.1729 c -1.39009,-0.93281 -3.06214,-1.47804 -4.86207,-1.47804 -4.82601,0 -8.73831,3.91227 -8.73831,8.73828 0,4.82599 3.9123,8.73827 8.73831,8.73827 4.82602,0 8.73823,-3.91225 8.73823,-8.73827 0,-1.6774 -0.48086,-3.23881 -1.30026,-4.56954 l -3.40851,-15.20093 25.4905,-8.01411 2.33123,11.32317 c -1.39916,-0.95185 -3.08831,-1.50922 -4.90819,-1.50922 -4.82602,0 -8.73823,3.91229 -8.73823,8.73829 0,4.826 3.91221,8.73826 8.73823,8.73826 4.82601,0 8.73822,-3.91223 8.73822,-8.73826 0,-1.69528 -0.49066,-3.27241 -1.32625,-4.61221 z"
       fill="#fdcd06"
       id="path66"
       style="stroke-width:0.719299" /><path
       d="m 712.39165,161.69583 c -4.77593,0 -8.6475,3.87162 -8.6475,8.64755 0,1.35007 0.31821,2.62279 0.87002,3.76131 l 4.93545,20.35899 2.80157,-0.67911 -3.80736,-15.70536 c 1.16009,0.57822 2.46359,0.91172 3.84782,0.91172 4.77594,0 8.6476,-3.87168 8.6476,-8.64755 0,-4.77588 -3.87166,-8.64755 -8.6476,-8.64755 z"
       fill="#fdcd06"
       id="path68"
       style="stroke-width:0.719299" /><path
       d="m 749.71392,189.07021 -4.89965,-19.59594 -2.97448,0.6991 3.83237,15.32767 c -1.1787,-0.5337 -2.48859,-0.84037 -3.87536,-0.84037 -5.07077,0 -9.18141,3.9856 -9.18141,8.90212 0,4.91652 4.11064,8.90211 9.18141,8.90211 5.07077,0 9.18142,-3.98564 9.18142,-8.90211 0,-1.6408 -0.46575,-3.17272 -1.2643,-4.49258 z"
       fill="#fdcd06"
       id="path70"
       style="stroke-width:0.719299" /></g></svg>
