<?xml version="1.0" encoding="UTF-8" standalone="no"?>
<svg
   width="541.33521pt"
   height="559.99988pt"
   version="1.1"
   viewBox="0 0 541.33521 559.99988"
   id="svg171"
   sodipodi:docname="musicalgames.svg"
   inkscape:version="1.1.2 (1:1.1+202202050950+0a00cf5339)"
   xmlns:inkscape="http://www.inkscape.org/namespaces/inkscape"
   xmlns:sodipodi="http://sodipodi.sourceforge.net/DTD/sodipodi-0.dtd"
   xmlns="http://www.w3.org/2000/svg"
   xmlns:svg="http://www.w3.org/2000/svg">
  <sodipodi:namedview
     id="namedview173"
     pagecolor="#ffffff"
     bordercolor="#666666"
     borderopacity="1.0"
     inkscape:pageshadow="2"
     inkscape:pageopacity="0.0"
     inkscape:pagecheckerboard="0"
     inkscape:document-units="pt"
     showgrid="false"
     fit-margin-top="0"
     fit-margin-left="0"
     fit-margin-right="0"
     fit-margin-bottom="0"
     inkscape:zoom="0.38517857"
     inkscape:cx="-699.67547"
     inkscape:cy="625.68382"
     inkscape:window-width="1920"
     inkscape:window-height="1009"
     inkscape:window-x="0"
     inkscape:window-y="34"
     inkscape:window-maximized="1"
     inkscape:current-layer="g169" />
  <defs
     id="defs65">
    <symbol
       id="u"
       overflow="visible">
      <path
         d="M 3.9062,-0.23438 C 3.70698,-0.12891 3.49995,-0.05079 3.2812,0 3.06245,0.05079 2.83198,0.078125 2.5937,0.078125 c -0.71094,0 -1.2734,-0.19531 -1.6875,-0.59375 -0.40625,-0.39453 -0.60938,-0.92969 -0.60938,-1.6094 0,-0.67578 0.20312,-1.2109 0.60938,-1.6094 0.41406,-0.39453 0.97656,-0.59375 1.6875,-0.59375 0.23828,0 0.46875,0.027344 0.6875,0.078125 0.21875,0.054688 0.42578,0.13281 0.625,0.23438 v 0.89062 C 3.69526,-3.26958 3.49214,-3.37505 3.29682,-3.43755 3.10932,-3.50005 2.9062,-3.5313 2.68744,-3.5313 c -0.39844,0 -0.71094,0.125 -0.9375,0.375 -0.21875,0.25 -0.32812,0.59375 -0.32812,1.0312 0,0.43745 0.10938,0.78125 0.32812,1.0312 0.22656,0.25 0.53906,0.375 0.9375,0.375 0.21875,0 0.42188,-0.03125 0.60938,-0.09375 0.19531,-0.0625 0.39844,-0.16016 0.60938,-0.29688 z"
         id="path2" />
    </symbol>
    <symbol
       id="c"
       overflow="visible">
      <path
         d="M 2.8594,-2.3125 C 2.76565,-2.351562 2.6719,-2.382812 2.57815,-2.40625 2.492213,-2.425781 2.41018,-2.4375 2.32815,-2.4375 c -0.26172,0 -0.46484,0.085938 -0.60938,0.25 -0.13672,0.16797 -0.20312,0.40625 -0.20312,0.71875 V 5e-5 h -1.0312 v -3.1875 h 1.0312 v 0.53125 c 0.125,-0.21875 0.26953,-0.375 0.4375,-0.46875 0.17578,-0.09375 0.37891,-0.14062 0.60938,-0.14062 0.039062,0 0.078125,0.00781 0.10938,0.015625 0.039063,0 0.10156,0.00781 0.1875,0.015625 z"
         id="path5" />
    </symbol>
    <symbol
       id="a"
       overflow="visible">
      <path
         d="m 3.6719,-1.6094 v 0.29688 h -2.375 c 0.019531,0.24219 0.10156,0.42188 0.25,0.54688 0.14453,0.11719 0.35156,0.17188 0.625,0.17188 0.20703,0 0.42578,-0.03125 0.65625,-0.09375 0.22656,-0.0625 0.45703,-0.16016 0.6875,-0.29688 v 0.79688 C 3.27346,-0.101572 3.03518,-0.03907 2.7969,-10e-6 2.55471,0.050771 2.31643,0.078115 2.07815,0.078115 c -0.58594,0 -1.0391,-0.14453 -1.3594,-0.4375 -0.3125,-0.28906 -0.46875,-0.70312 -0.46875,-1.2344 0,-0.51953 0.15625,-0.92578 0.46875,-1.2188 0.3125,-0.30078 0.74219,-0.45312 1.2969,-0.45312 0.5,0 0.89844,0.15234 1.2031,0.45312 0.30078,0.30469 0.45312,0.70312 0.45312,1.2031 z M 2.625,-1.93752 c 0,-0.19531 -0.058594,-0.35156 -0.17188,-0.46875 -0.11719,-0.125 -0.26172,-0.1875 -0.4375,-0.1875 -0.19922,0 -0.35938,0.058594 -0.48438,0.17188 -0.125,0.11719 -0.20312,0.27734 -0.23438,0.48438 z"
         id="path8" />
    </symbol>
    <symbol
       id="f"
       overflow="visible">
      <path
         d="m 1.9219,-1.4375 c -0.21875,0 -0.38281,0.039062 -0.48438,0.10938 C 1.33205,-1.253901 1.28127,-1.14453 1.28127,-1 c 0,0.125 0.039062,0.22656 0.125,0.29688 0.082031,0.074219 0.20312,0.10938 0.35938,0.10938 0.1875,0 0.34766,-0.066406 0.48438,-0.20312 0.13281,-0.13281 0.20312,-0.30469 0.20312,-0.51562 v -0.125 z m 1.5469,-0.375 V 0 H 2.4532 v -0.46875 c -0.13672,0.1875 -0.29297,0.32812 -0.46875,0.42188 -0.16797,0.082031 -0.375,0.125 -0.625,0.125 -0.32422,0 -0.58984,-0.09375 -0.79688,-0.28125 -0.21094,-0.19531 -0.3125,-0.44531 -0.3125,-0.75 0,-0.375 0.125,-0.64844 0.375,-0.82812 0.25781,-0.17578 0.66406,-0.26562 1.2188,-0.26562 h 0.60938 v -0.078125 c 0,-0.15625 -0.070313,-0.26953 -0.20312,-0.34375 -0.125,-0.082031 -0.32422,-0.125 -0.59375,-0.125 -0.21875,0 -0.42188,0.027344 -0.60938,0.078125 -0.1875,0.042969 -0.35938,0.10547 -0.51562,0.1875 v -0.78125 c 0.21875,-0.050781 0.4375,-0.085937 0.65625,-0.10938 0.21875,-0.03125 0.4375,-0.046875 0.65625,-0.046875 0.57031,0 0.98438,0.11719 1.2344,0.34375 0.25781,0.23047 0.39062,0.60156 0.39062,1.1094 z"
         id="path11" />
    </symbol>
    <symbol
       id="b"
       overflow="visible">
      <path
         d="m 1.6094,-4.0938 v 0.90625 h 1.0469 v 0.73438 H 1.6094 v 1.3438 c 0,0.14844 0.023437,0.24609 0.078125,0.29688 0.0625,0.054688 0.17969,0.078125 0.35938,0.078125 h 0.51562 V 1.5e-5 h -0.875 c -0.39844,0 -0.68359,-0.082031 -0.85938,-0.25 -0.16797,-0.16406 -0.25,-0.45312 -0.25,-0.85938 v -1.3438 h -0.5 v -0.73438 h 0.5 v -0.90625 z"
         id="path14" />
    </symbol>
    <symbol
       id="k"
       overflow="visible">
      <path
         d="M 2.6562,-2.7188 V -4.4219 H 3.6874 V 0 H 2.6562 v -0.46875 c -0.13672,0.19922 -0.29297,0.33984 -0.46875,0.42188 -0.16797,0.082031 -0.35938,0.125 -0.57812,0.125 -0.39844,0 -0.71875,-0.15625 -0.96875,-0.46875 -0.25,-0.3125 -0.375,-0.71094 -0.375,-1.2031 0,-0.48828 0.125,-0.89062 0.375,-1.2031 0.25,-0.31248 0.57031,-0.46875 0.96875,-0.46875 0.21875,0 0.41016,0.046875 0.57812,0.14062 0.17578,0.085938 0.33203,0.21875 0.46875,0.40625 z m -0.67188,2.0625 c 0.21875,0 0.38281,-0.078125 0.5,-0.23438 0.11328,-0.16406 0.17188,-0.39844 0.17188,-0.70312 0,-0.30078 -0.058594,-0.53125 -0.17188,-0.6875 -0.11719,-0.16406 -0.28125,-0.25 -0.5,-0.25 -0.21875,0 -0.38672,0.085938 -0.5,0.25 -0.11719,0.15625 -0.17188,0.38672 -0.17188,0.6875 0,0.30469 0.054688,0.53906 0.17188,0.70312 0.11328,0.15625 0.28125,0.23438 0.5,0.23438 z"
         id="path17" />
    </symbol>
    <symbol
       id="j"
       overflow="visible">
      <path
         d="m 2.1875,-0.65625 c 0.21875,0 0.38281,-0.078125 0.5,-0.23438 0.11328,-0.16406 0.17188,-0.39844 0.17188,-0.70312 0,-0.30078 -0.058594,-0.53125 -0.17188,-0.6875 -0.11719,-0.16406 -0.28125,-0.25 -0.5,-0.25 -0.21875,0 -0.38672,0.085938 -0.5,0.25 -0.11719,0.15625 -0.17188,0.38672 -0.17188,0.6875 0,0.30469 0.054687,0.53906 0.17188,0.70312 0.11328,0.15625 0.28125,0.23438 0.5,0.23438 z m -0.67188,-2.0625 c 0.13281,-0.1875 0.28516,-0.32031 0.45312,-0.40625 0.17578,-0.09375 0.375,-0.14062 0.59375,-0.14062 0.39453,0 0.71875,0.15625 0.96875,0.46875 0.25,0.3125 0.375,0.71484 0.375,1.2031 0,0.49219 -0.125,0.89062 -0.375,1.2031 -0.25,0.31248 -0.57422,0.46875 -0.96875,0.46875 -0.21875,0 -0.41797,-0.042969 -0.59375,-0.125 C 1.80077,-0.14067 1.64843,-0.2813 1.51562,-0.4688 V -5e-5 h -1.0312 v -4.4219 h 1.0312 z"
         id="path20" />
    </symbol>
    <symbol
       id="e"
       overflow="visible">
      <path
         d="m 0.078125,-3.1875 h 1.0156 l 0.85938,2.1562 0.71875,-2.1562 h 1.0156 l -1.3281,3.4844 c -0.13672,0.35156 -0.29688,0.60156 -0.48438,0.75 -0.17969,0.14453 -0.41406,0.21875 -0.70312,0.21875 H 0.578105 V 0.59377 h 0.32812 c 0.16406,0 0.28516,-0.03125 0.35938,-0.09375 0.082031,-0.054688 0.14844,-0.15234 0.20312,-0.29688 L 1.48435,0.125015 Z"
         id="path23" />
    </symbol>
    <symbol
       id="i"
       overflow="visible">
      <path
         d="m 0.53125,-4.25 h 2.9531 v 0.82812 H 1.62495 V -2.625 h 1.75 v 0.82812 h -1.75 v 0.96875 h 1.9219 V -1e-5 h -3.0156 z"
         id="path26" />
    </symbol>
    <symbol
       id="h"
       overflow="visible">
      <path
         d="m 0.45312,-1.2344 v -1.9531 h 1.0312 v 0.3125 c 0,0.17969 -0.00781,0.39844 -0.015625,0.65625 v 0.51562 c 0,0.26172 0.00391,0.44922 0.015625,0.5625 0.019531,0.11719 0.046875,0.19922 0.078125,0.25 0.039062,0.0625 0.09375,0.11719 0.15625,0.15625 0.070312,0.03125 0.14844,0.046875 0.23438,0.046875 0.21875,0 0.38281,-0.078125 0.5,-0.23438 0.125,-0.16406 0.1875,-0.39453 0.1875,-0.6875 v -1.5781 h 1.0156 v 3.1875 h -1.0156 v -0.46875 c -0.15625,0.1875 -0.32422,0.32812 -0.5,0.42188 -0.16797,0.082031 -0.35547,0.125 -0.5625,0.125 -0.36719,0 -0.64844,-0.10938 -0.84375,-0.32812 -0.1875,-0.22656 -0.28125,-0.55469 -0.28125,-0.98438 z"
         id="path29" />
    </symbol>
    <symbol
       id="g"
       overflow="visible">
      <path
         d="m 3.0625,-3.0938 v 0.84375 C 2.92578,-2.35161 2.78516,-2.42583 2.64062,-2.4688 2.5039,-2.507862 2.36328,-2.5313 2.21874,-2.5313 c -0.29297,0 -0.51562,0.085938 -0.67188,0.25 -0.15625,0.16797 -0.23438,0.39844 -0.23438,0.6875 0,0.30469 0.078125,0.53906 0.23438,0.70312 0.15625,0.16797 0.37891,0.25 0.67188,0.25 0.15625,0 0.30078,-0.019531 0.4375,-0.0625 0.14453,-0.050781 0.28125,-0.125 0.40625,-0.21875 v 0.82812 c -0.15625,0.0625 -0.32031,0.10156 -0.48438,0.125 -0.16797,0.03125 -0.32812,0.046875 -0.48438,0.046875 -0.58594,0 -1.0391,-0.14453 -1.3594,-0.4375 -0.32422,-0.28906 -0.48438,-0.70312 -0.48438,-1.2344 0,-0.51953 0.16016,-0.92578 0.48438,-1.2188 0.32031,-0.30078 0.77344,-0.45312 1.3594,-0.45312 0.16406,0 0.32812,0.015625 0.48438,0.046875 0.16406,0.03125 0.32812,0.074219 0.48438,0.125 z"
         id="path32" />
    </symbol>
    <symbol
       id="t"
       overflow="visible">
      <path
         d="m 0.48438,-4.4219 h 1.0312 V 0 h -1.0312 z"
         id="path35" />
    </symbol>
    <symbol
       id="s"
       overflow="visible">
      <path
         d="m 1.5156,-0.46875 v 1.6875 H 0.4844 v -4.4062 h 1.0312 v 0.46875 c 0.13281,-0.1875 0.28516,-0.32031 0.45312,-0.40625 0.17578,-0.09375 0.375,-0.14062 0.59375,-0.14062 0.39453,0 0.71875,0.15625 0.96875,0.46875 0.25,0.3125 0.375,0.71484 0.375,1.2031 0,0.49219 -0.125,0.89062 -0.375,1.2031 -0.25,0.31248 -0.57422,0.46875 -0.96875,0.46875 -0.21875,0 -0.41797,-0.042969 -0.59375,-0.125 C 1.80075,-0.14062 1.64841,-0.28125 1.5156,-0.46875 Z m 0.67188,-2.0625 c -0.21875,0 -0.38672,0.085938 -0.5,0.25 -0.11719,0.15625 -0.17188,0.38672 -0.17188,0.6875 0,0.30469 0.054687,0.53906 0.17188,0.70312 0.11328,0.15625 0.28125,0.23438 0.5,0.23438 0.21875,0 0.38281,-0.078125 0.5,-0.23438 0.11328,-0.16406 0.17188,-0.39844 0.17188,-0.70312 0,-0.30078 -0.058594,-0.53125 -0.17188,-0.6875 -0.11719,-0.16406 -0.28125,-0.25 -0.5,-0.25 z"
         id="path38" />
    </symbol>
    <symbol
       id="r"
       overflow="visible">
      <path
         d="m 2.5938,-4.4219 v 0.65625 H 2.01568 c -0.13672,0 -0.23438,0.027344 -0.29688,0.078125 -0.054688,0.054688 -0.078125,0.14844 -0.078125,0.28125 v 0.21875 h 0.85938 v 0.73438 h -0.85938 v 2.4531 h -1.0156 v -2.4531 h -0.51562 v -0.73438 h 0.51562 v -0.21875 c 0,-0.35156 0.09375,-0.60938 0.28125,-0.76562 0.19531,-0.16406 0.5,-0.25 0.90625,-0.25 z"
         id="path41" />
    </symbol>
    <symbol
       id="d"
       overflow="visible">
      <path
         d="m 2,-2.5312 c -0.21875,0 -0.39062,0.085938 -0.51562,0.25 -0.11719,0.15625 -0.17188,0.38672 -0.17188,0.6875 0,0.3125 0.054688,0.55469 0.17188,0.71875 0.125,0.15625 0.29688,0.23438 0.51562,0.23438 0.22656,0 0.39844,-0.078125 0.51562,-0.23438 C 2.6289,-1.03901 2.6875,-1.2812 2.6875,-1.5937 2.6875,-1.89448 2.628906,-2.12495 2.51562,-2.2812 2.39843,-2.44526 2.22656,-2.5312 2,-2.5312 Z m 0,-0.73438 c 0.55078,0 0.97656,0.15234 1.2812,0.45312 0.3125,0.29297 0.46875,0.69922 0.46875,1.2188 0,0.52344 -0.15625,0.93359 -0.46875,1.2344 C 2.97651,-0.06629 2.55073,0.07824 2,0.07824 c -0.54297,0 -0.96875,-0.14453 -1.2812,-0.4375 -0.3125,-0.30078 -0.46875,-0.71094 -0.46875,-1.2344 0,-0.51953 0.15625,-0.92578 0.46875,-1.2188 C 1.0313,-3.11324 1.45708,-3.26558 2,-3.26558 Z"
         id="path44" />
    </symbol>
    <symbol
       id="q"
       overflow="visible">
      <path
         d="m 3.4375,-2.6562 c 0.13281,-0.19531 0.28906,-0.34766 0.46875,-0.45312 0.17578,-0.10156 0.36719,-0.15625 0.57812,-0.15625 0.36328,0 0.64062,0.11719 0.82812,0.34375 0.19531,0.21875 0.29688,0.54688 0.29688,0.98438 V 6e-5 h -1.0156 v -1.6562 -0.078125 -0.125 c 0,-0.21875 -0.039062,-0.37891 -0.10938,-0.48438 -0.0625,-0.10156 -0.16797,-0.15625 -0.3125,-0.15625 -0.19922,0 -0.35156,0.085938 -0.45312,0.25 -0.10547,0.15625 -0.15625,0.38672 -0.15625,0.6875 v 1.5625 h -1.0312 v -1.6562 c 0,-0.35156 -0.03125,-0.58203 -0.09375,-0.6875 -0.054688,-0.10156 -0.15625,-0.15625 -0.3125,-0.15625 -0.19922,0 -0.35156,0.085938 -0.45312,0.25 -0.10547,0.15625 -0.15625,0.38672 -0.15625,0.6875 v 1.5625 H 0.4845 v -3.1875 h 1.0312 v 0.46875 c 0.125,-0.17578 0.26562,-0.3125 0.42188,-0.40625 0.16406,-0.09375 0.34375,-0.14062 0.53125,-0.14062 0.22656,0 0.42578,0.054687 0.59375,0.15625 0.16406,0.10547 0.28906,0.25781 0.375,0.45312 z"
         id="path47" />
    </symbol>
    <symbol
       id="p"
       overflow="visible">
      <path
         d="M 3.6875,-1.9375 V 0 H 2.6719 v -1.4844 c 0,-0.26953 -0.011719,-0.45703 -0.03125,-0.5625 -0.011719,-0.11328 -0.027344,-0.19141 -0.046875,-0.23438 -0.042969,-0.070312 -0.10156,-0.125 -0.17188,-0.15625 -0.0625,-0.039062 -0.14062,-0.0625 -0.23438,-0.0625 -0.21094,0 -0.375,0.085938 -0.5,0.25 -0.11719,0.16797 -0.17188,0.39844 -0.17188,0.6875 V -3e-5 h -1.0312 v -4.4219 h 1.0312 v 1.7031 c 0.14453,-0.1875 0.30078,-0.32031 0.46875,-0.40625 0.17578,-0.09375 0.36719,-0.14062 0.57812,-0.14062 0.375,0 0.65625,0.11719 0.84375,0.34375 0.1875,0.21875 0.28125,0.54688 0.28125,0.98438 z"
         id="path50" />
    </symbol>
    <symbol
       id="o"
       overflow="visible">
      <path
         d="m 0.53125,-4.25 h 1.2344 l 1.5312,2.9219 V -4.25 h 1.0469 V 0 H 3.12495 L 1.57805,-2.9219 V 0 h -1.0469 z"
         id="path53" />
    </symbol>
    <symbol
       id="n"
       overflow="visible">
      <path
         d="M 3.6875,-1.9375 V 0 H 2.6719 v -1.4844 c 0,-0.26953 -0.011719,-0.45703 -0.03125,-0.5625 -0.011719,-0.11328 -0.027344,-0.19141 -0.046875,-0.23438 -0.042969,-0.070312 -0.10156,-0.125 -0.17188,-0.15625 -0.0625,-0.039062 -0.14062,-0.0625 -0.23438,-0.0625 -0.21094,0 -0.375,0.085938 -0.5,0.25 -0.11719,0.16797 -0.17188,0.39844 -0.17188,0.6875 V -3e-5 h -1.0312 v -3.1875 h 1.0312 v 0.46875 c 0.14453,-0.1875 0.30078,-0.32031 0.46875,-0.40625 0.17578,-0.09375 0.36719,-0.14062 0.57812,-0.14062 0.375,0 0.65625,0.11719 0.84375,0.34375 0.1875,0.21875 0.28125,0.54688 0.28125,0.98438 z"
         id="path56" />
    </symbol>
    <symbol
       id="m"
       overflow="visible">
      <path
         d="m 0.53125,-4.25 h 1.8281 c 0.53906,0 0.95312,0.12109 1.2344,0.35938 0.28906,0.24219 0.4375,0.58594 0.4375,1.0312 0,0.44922 -0.14844,0.79297 -0.4375,1.0312 -0.28125,0.24219 -0.69531,0.35938 -1.2344,0.35938 H 1.62497 V -4e-5 h -1.0938 z m 1.0938,0.79688 v 1.1875 h 0.60938 c 0.21875,0 0.38281,-0.050781 0.5,-0.15625 0.11328,-0.10156 0.17188,-0.25 0.17188,-0.4375 0,-0.1875 -0.058594,-0.33203 -0.17188,-0.4375 -0.11719,-0.10156 -0.28125,-0.15625 -0.5,-0.15625 z"
         id="path59" />
    </symbol>
    <symbol
       id="l"
       overflow="visible">
      <path
         d="m 0.48438,-3.1875 h 1.0312 v 3.125 c 0,0.42578 -0.10547,0.75391 -0.3125,0.98438 C 0.99214,1.14844 0.69527,1.26563 0.31246,1.26563 h -0.5 V 0.59375 h 0.17188 c 0.1875,0 0.31641,-0.046875 0.39062,-0.14062 0.070312,-0.085937 0.10938,-0.25781 0.10938,-0.51562 z m 0,-1.2344 h 1.0312 v 0.82812 h -1.0312 z"
         id="path62" />
    </symbol>
  </defs>
  <g
     id="g169"
     transform="translate(-79.3308)">
    <path
       d="m 154.98,414.73 -12.289,-6.1445 c -4.5391,-2.2734 -7.3633,-6.8398 -7.3633,-11.914 0,-5.0781 2.8203,-9.6406 7.3633,-11.914 l 13.25,-6.625 c 10.312,-5.1602 16.723,-15.523 16.723,-27.055 0,-13.039 -8.3125,-24.574 -20.684,-28.695 l -27.398,-9.1328 c -4.7383,-1.5781 -7.918,-5.9961 -7.918,-10.988 0,-4.4141 2.4531,-8.3867 6.4023,-10.359 19.078,-9.5352 30.93,-28.715 30.93,-50.047 v -17.852 h -18.668 v 17.852 c 0,14.219 -7.8984,26.996 -20.613,33.352 -10.312,5.1602 -16.719,15.527 -16.719,27.055 0,13.039 8.3125,24.574 20.684,28.695 l 27.398,9.1328 c 4.7383,1.5781 7.918,5.9961 7.918,10.988 0,4.4141 -2.4531,8.3867 -6.4023,10.359 l -13.25,6.625 c -10.906,5.4531 -17.68,16.414 -17.68,28.609 0,12.191 6.7734,23.156 17.68,28.609 l 12.289,6.1445 c 4.543,2.2695 7.3633,6.8359 7.3633,11.91 0,5.0781 -2.8203,9.6406 -7.3633,11.914 l -6.1445,3.0742 8.3477,16.695 6.1445,-3.0742 c 10.906,-5.4531 17.684,-16.414 17.684,-28.609 0,-12.191 -6.7773,-23.156 -17.684,-28.605 z"
       id="path67" />
    <path
       d="m 569.16,383.29 c -2.8984,-2.8984 -4.4922,-6.75 -4.4922,-10.844 v -17.781 h -18.668 v 17.781 c 0,9.082 3.5391,17.621 9.9609,24.043 l 4.2148,4.2148 c 2.8984,2.8984 4.4922,6.75 4.4922,10.844 0,6.6133 -4.2148,12.457 -10.488,14.551 l -24.832,8.2773 c -12.371,4.125 -20.68,15.656 -20.68,28.695 0,11.531 6.4062,21.898 16.719,27.055 l 15.773,7.8867 c 2.9844,1.4922 4.8359,4.4922 4.8359,7.8281 0,2.3359 -0.91016,4.5352 -2.5625,6.1875 l -4.0352,4.0352 13.199,13.199 4.0352,-4.0352 c 5.1797,-5.1797 8.0312,-12.066 8.0312,-19.387 0,-10.453 -5.8086,-19.848 -15.156,-24.523 l -15.773,-7.8867 c -3.9492,-1.9727 -6.4023,-5.9453 -6.4023,-10.359 0,-4.9922 3.1836,-9.4062 7.918,-10.988 l 24.832,-8.2773 c 13.906,-4.6367 23.25,-17.598 23.25,-32.258 0,-9.082 -3.5391,-17.621 -9.9609,-24.043 z"
       id="path69" />
    <path
       d="m 158.05,168 42.867,-71.441 c 5.9414,-9.9062 9.082,-21.25 9.082,-32.805 C 209.999,28.602 181.397,0 146.245,0 h -3.1562 c -35.156,0 -63.758,28.602 -63.758,63.754 0,11.551 3.1406,22.895 9.0859,32.801 L 131.2837,168 Z"
       id="path71" />
    <path
       d="m 133.29,186.67 -4.6641,18.664 h 32.094 l -4.668,-18.664 z"
       id="path73" />
    <path
       d="m 210,317.33 c 0,20.586 16.746,37.332 37.332,37.332 20.586,0 37.332,-16.746 37.332,-37.332 l 0.004,-124.9 57.973,28.988 c 3.375,1.6875 7.1523,2.5781 10.926,2.5781 13.473,0 24.434,-10.961 24.434,-24.434 v -12.898 c 0,-9.3125 -5.1758,-17.688 -13.508,-21.855 l -63.129,-31.566 c -3.375,-1.6875 -7.1523,-2.5781 -10.926,-2.5781 -13.477,0 -24.438,10.961 -24.438,24.434 v 124.9 h -18.668 c -20.586,0 -37.332,16.746 -37.332,37.332 z"
       id="path75" />
    <path
       d="m 474.29,388.73 -80.691,-32.277 c -2.9648,-1.1875 -6.0859,-1.7891 -9.2812,-1.7891 -13.777,0.004 -24.988,11.211 -24.988,24.988 v 105.68 h -18.668 c -20.586,0 -37.332,16.746 -37.332,37.332 0,20.586 16.746,37.332 37.332,37.332 20.586,0 37.332,-16.746 37.332,-37.332 l 0.004,-116.66 93.332,38.887 v 40.445 h -18.668 c -20.586,0 -37.332,16.746 -37.332,37.332 0,20.586 16.746,37.332 37.332,37.332 20.586,0 37.332,-16.746 37.332,-37.332 v -110.74 c 0.004,-10.273 -6.1602,-19.379 -15.703,-23.195 z"
       id="path77" />
    <path
       d="m 558.9,317.33 h -7.1289 l -9.3359,18.668 h 25.797 z"
       id="path79" />
    <path
       d="m 555.33,149.33 c -36.023,0 -65.332,29.309 -65.332,65.332 0,20.996 9.1445,40.879 25.086,54.543 l 34.367,29.461 h 11.762 l 34.367,-29.457 c 15.941,-13.668 25.086,-33.547 25.086,-54.543 0,-36.027 -29.309,-65.336 -65.336,-65.336 z"
       id="path81" />
    <path
       d="m 415.33,93.332 h 18.668 V 168 h 18.668 V 56 c 0,-20.586 -16.746,-37.332 -37.332,-37.332 -20.586,0 -37.332,16.746 -37.332,37.332 -0.004,20.586 16.742,37.332 37.328,37.332 z"
       id="path83" />
    <path
       d="m 303.33,242.67 h 149.33 v 18.668 H 303.33 Z"
       id="path85" />
    <path
       d="m 303.33,280 h 168 v 18.668 h -168 z"
       id="path87" />
    <path
       d="M 303.33,317.33 H 490 v 18.668 H 303.33 Z"
       id="path89" />
    <path
       d="m 172.67,373.33 h 168 v 18.668 h -168 z"
       id="path91" />
    <path
       d="m 191.33,410.67 h 149.33 v 18.668 H 191.33 Z"
       id="path93" />
    <path
       d="m 154,280 h 37.332 v 18.668 H 154 Z"
       id="path95" />
    <path
       d="m 191.33,448 h 149.33 v 18.668 H 191.33 Z"
       id="path97" />
    <path
       d="m 172.67,242.67 h 74.668 v 18.668 H 172.67 Z"
       id="path99" />
  </g>
</svg>
